<svg xmlns="http://www.w3.org/2000/svg" width="249.043" height="55.778" viewBox="0 0 249.043 55.778">
  <g id="Group_2" data-name="Group 2" transform="translate(142 -144)">
    <g id="Group_1" data-name="Group 1" transform="translate(-142 144)">
      <g id="WEB-01" transform="translate(0 0)">
        <path id="Path_1" data-name="Path 1" d="M1801.153,198.033a10.682,10.682,0,0,0,.811-4.092V175.494a1.859,1.859,0,0,1,1.859-1.859h4.721a1.86,1.86,0,0,1,1.86,1.859v18.452a19.12,19.12,0,0,1-38.239,0V175.49a1.86,1.86,0,0,1,1.859-1.86h4.724a1.86,1.86,0,0,1,1.859,1.86v18.451a10.677,10.677,0,0,0,20.542,4.092Z" transform="translate(-1630.382 -163.793)" fill="#ffffff"/>
        <path id="Path_2" data-name="Path 2" d="M2621.24,202.223a11.673,11.673,0,0,0,4.465.866v-.016a11.556,11.556,0,1,0-4.465-.851Zm-15.4-10.735a19.781,19.781,0,0,1,19.865-19.694v-.015a19.76,19.76,0,0,1,19.854,19.716v17.83a1.859,1.859,0,0,1-1.859,1.86h-4.355a1.86,1.86,0,0,1-1.86-1.86v-1.979a19.9,19.9,0,0,1-31.643-15.859Z" transform="translate(-2396.516 -162.103)" fill="#ffffff" fill-rule="evenodd"/>
        <path id="Path_3" data-name="Path 3" d="M2297.861,175.492a20.034,20.034,0,0,1,6.472-4.307v-.015a20.062,20.062,0,0,1,7.636-1.51,2.418,2.418,0,0,1,2.417,2.418v3.556a2.417,2.417,0,0,1-2.417,2.417,11.547,11.547,0,0,0-8.173,3.374,11.394,11.394,0,0,0-3.381,7.811v18.333a1.859,1.859,0,0,1-1.86,1.859h-4.694a1.859,1.859,0,0,1-1.861-1.859V188.123h.071a19.787,19.787,0,0,1,5.791-12.628Z" transform="translate(-2107.311 -160.165)" fill="#ffffff"/>
        <path id="Path_4" data-name="Path 4" d="M1068.051,59.713a27.394,27.394,0,0,1-6.979,12.913,22.083,22.083,0,0,0,7.071,1.165,1.634,1.634,0,0,1,1.673,1.592V80.21a1.634,1.634,0,0,1-1.673,1.592c-11.9.023-22.639-6.768-27.222-17.211a26.624,26.624,0,0,1-2.232-10.674,1.634,1.634,0,0,1,1.674-1.592h5.1a1.634,1.634,0,0,1,1.672,1.593,19.357,19.357,0,0,0,6.153,14.052c.071.067.147.131.223.2s.122.1.182.159a19.242,19.242,0,0,0,6.145-18.231,20.123,20.123,0,0,0-12.922-14.678,21.622,21.622,0,0,0-25.712,8.314,19.136,19.136,0,0,0,4.452,25.345,21.749,21.749,0,0,0,13.587,4.712,1.271,1.271,0,0,1,1.3,1.238v5.537a1.208,1.208,0,0,1-.381.876,1.336,1.336,0,0,1-.921.362c-14.376.026-26.666-9.833-29.067-23.314-2.36-13.482,5.914-26.6,19.53-30.966,13.621-4.395,28.591,1.168,35.471,13.182a26.572,26.572,0,0,1,2.875,19.011Z" transform="translate(-930.36 -26.024)" fill="#ffffff"/>
        <path id="Path_5" data-name="Path 5" d="M54.6,190.8a9.74,9.74,0,0,1,2.949,3.493l-.015.007a9.365,9.365,0,0,1,.829,4.917,9.722,9.722,0,0,1-1.923,5.427,11.757,11.757,0,0,1-4.283,3.414,19.629,19.629,0,0,1-5.742,1.635,31.852,31.852,0,0,1-6.356.19,28.088,28.088,0,0,1-9.472-2.111h-.019a16.594,16.594,0,0,1-5.951-4.578,1.317,1.317,0,0,1,.258-1.931l4.183-2.881a1.51,1.51,0,0,1,1.993.248,16.4,16.4,0,0,0,3.485,2.875,12.889,12.889,0,0,0,5.951,1.67h.026a17.073,17.073,0,0,0,3.173-.052,9.991,9.991,0,0,0,2.949-.744,5.752,5.752,0,0,0,2.135-1.469,3.344,3.344,0,0,0,.844-2.1v-.045a3.032,3.032,0,0,0-.506-2.065,5.909,5.909,0,0,0-1.759-1.555,11.627,11.627,0,0,0-2.7-1.19l-.478-.136c-.478-.142-.96-.286-1.445-.416-.447-.123-.9-.242-1.358-.354q-2.976-.745-5.7-1.648a21.175,21.175,0,0,1-4.806-2.206,9.851,9.851,0,0,1-3.243-3.3,8.38,8.38,0,0,1-.941-4.914v-.037a8.669,8.669,0,0,1,1.812-4.795,11.325,11.325,0,0,1,4.035-3.254,20.374,20.374,0,0,1,5.36-1.7,24.978,24.978,0,0,1,5.984-.3,23.028,23.028,0,0,1,8.518,2.168,13.028,13.028,0,0,1,5.114,4.307,1.127,1.127,0,0,1-.4,1.549l-4.954,2.907a1.051,1.051,0,0,1-1.432-.361,9.617,9.617,0,0,0-3.366-2.812,10.386,10.386,0,0,0-4.378-1.118h-.022a13.522,13.522,0,0,0-2.848.108,9.273,9.273,0,0,0-2.581.7,5.488,5.488,0,0,0-1.879,1.313,2.919,2.919,0,0,0-.743,1.849v.022a1.9,1.9,0,0,0,.112.841,2.059,2.059,0,0,0,.465.744,7.01,7.01,0,0,0,.86.744,7.181,7.181,0,0,0,1.272.742h.019a22.93,22.93,0,0,0,3.3,1.321q1.893.591,3.939,1.032a48.515,48.515,0,0,1,5.322,1.584A17.127,17.127,0,0,1,54.6,190.8Z" transform="translate(-24.307 -161.242)" fill="#ffffff"/>
        <path id="Path_6" data-name="Path 6" d="M501.883,181.383a12,12,0,0,0-12.905,8.039l-.086.246h22.853l-.086-.246A12,12,0,0,0,501.883,181.383Zm13.02-.905a19.552,19.552,0,0,1,4.834,12.746v2.1a1.859,1.859,0,0,1-1.859,1.86H489.135a11.109,11.109,0,0,0,.572,1.39,11.78,11.78,0,0,0,18.8,3.283,2.087,2.087,0,0,1,2.4-.43l3.614,1.893a1.717,1.717,0,0,1,.588,2.622,19.514,19.514,0,1,1-.207-25.472Z" transform="translate(-443.673 -163.96)" fill="#ffffff" fill-rule="evenodd"/>
        <path id="Path_7" data-name="Path 7" d="M828.576,345.1c.787,0,.387-.792.189-1.228l.774.688v.8l-1.121.073C828.142,345.3,827.754,345.1,828.576,345.1Z" transform="translate(-762.322 -317.895)" fill="#ffffff"/>
        <path id="Path_8" data-name="Path 8" d="M573.675,344.868c-.749,0-.368-.792-.179-1.228l-.737.688v.8l1.068.076C574.088,345.068,574.457,344.868,573.675,344.868Z" transform="translate(-525.573 -317.684)" fill="#ffffff"/>
        <path id="Path_9" data-name="Path 9" d="M577.275,441.7c-.749,0-.368.856-.179,1.328l-.737-.743v-.86l1.068-.082C577.688,441.483,578.057,441.7,577.275,441.7Z" transform="translate(-528.863 -407.404)" fill="#ffffff"/>
      </g>
    </g>
  </g>
</svg>
