<?xml version="1.0" encoding="UTF-8" standalone="no"?>
<svg width="10px" height="15px" viewBox="0 0 10 15" version="1.1" xmlns="http://www.w3.org/2000/svg" xmlns:xlink="http://www.w3.org/1999/xlink" xmlns:sketch="http://www.bohemiancoding.com/sketch/ns">
    <!-- Generator: Sketch 3.2.2 (9983) - http://www.bohemiancoding.com/sketch -->
    <title>Shape</title>
    <desc>Created with Sketch.</desc>
    <defs></defs>
    <g id="Page-1" stroke="none" stroke-width="1" fill="none" fill-rule="evenodd" sketch:type="MSPage">
        <path d="M5,15 C2.21428571,15 0,12.675 0,9.75 C0,5.85 5,0 5,0 C5,0 10,5.775 10,9.75 C10,12.675 7.78571429,15 5,15 L5,15 Z M5,7.875 C4,7.875 3.21428571,8.7 3.21428571,9.75 C3.21428571,10.8 4,11.625 5,11.625 C6,11.625 6.78571429,10.8 6.78571429,9.75 C6.78571429,8.7 6,7.875 5,7.875 L5,7.875 Z" id="Shape" fill="#999999" sketch:type="MSShapeGroup" transform="translate(5.000000, 7.500000) scale(1, -1) translate(-5.000000, -7.500000) "></path>
    </g>
</svg>