<svg version="1.1"
	 xmlns="http://www.w3.org/2000/svg" xmlns:xlink="http://www.w3.org/1999/xlink" xmlns:a="http://ns.adobe.com/AdobeSVGViewerExtensions/3.0/"
	 x="0px" y="0px" width="400.1px" height="364px" viewBox="0 0 400.1 364" enable-background="new 0 0 400.1 364"
	 xml:space="preserve">
<defs>
</defs>
<g id="cNVd61.tif_1_">
	<g>
		<path fill="#FFFFFF" d="M297,282.4c4.6-7.3,8.7-14,13.1-20.5c2-3,5-3.6,8.1-1.4c1,0.7,1.6,1.9,2.6,2.5c6.3,3.5,12.5,7,20.2,6.2
			c4.7-0.5,9.6-0.1,14.5-0.1c3.5-3.6,7.2-7.3,10.8-10.9c0-4,0-7.9,0-12.8c-5.2,2.1-9.8,5.8-15.5,4.5c-4.6,4.9-10.6,2.3-15.8,2.2
			c-10-0.2-19.3-3.4-26.5-10.9c-4-4.2-8.1-8.5-11.6-13.1c-7.1-9.4-10.1-20.1-9.7-31.9c0.2-7.2,0-14.4,0-21.5
			c0.1-14.5,9.7-31.4,22.5-39.7c3.5-2.3,6.5-5.9,10.3-6.9c6.2-1.7,12.8-2.1,19.3-2.6c5.2-0.4,10.4,0,15.5-0.1
			c13.2-0.2,24.4,6,33.4,14.2c7.2,6.6,11.7,16.4,11.7,27.2c-0.1,29.9,0.5,59.8-0.2,89.7c-0.4,15.7-7.8,28.4-22.1,36
			c-5.9,3.1-12.1,5.3-19.3,5.8c-6,0.5-12,2.7-18.2,1.9c-11.1-1.6-22.4-2.6-32.1-9.1c-1.2-0.8-3-0.9-4-1.8
			C301.6,287.2,299.4,284.9,297,282.4z M368.8,211.2c0-12.9-0.2-24.8,0.1-36.7c0.2-6.2-2.9-11.6-6.3-15.1c-3.1-3.1-7.8-7.8-14.3-5.5
			c-2.1,0.8-4.7,0.1-7.1,0.1c-9,0.2-16.2,6.7-17.9,15.8c-0.7,3.7-1.9,7.3-2.3,10.9c-0.4,4.3,0.3,8.8-0.2,13.1
			c-0.8,6.9,1.7,12.7,5,18.3c6.2,10.8,18.8,14.7,29.7,8.8C360.4,218.4,364.6,214.3,368.8,211.2z"/>
		<path fill="#FFFFFF" d="M227.4,237.7c-11.6,0-22.2,0-33.5,0c0-20.5-0.2-40.8,0.2-61.1c0.1-4.5-1.2-8.3-3-12
			c-4.6-9.6-13-12.7-23.6-9.3c-12.6,4.1-15.9,9-16.5,22.6c-0.8,19.5-0.2,39.1-0.2,59.4c-5.3,1.2-10.8,0.4-16.2,0.5
			c-5.5,0.2-11.1,0-17,0c0-35,0-69.6,0-105.1c10.9,0.2,22.1-1.9,33.3,1c0.8,0.2,2,0,2.5-0.5c6.4-6.7,15.3-8.7,23.3-10
			c11.8-1.9,23.3,2,32.9,9.5c8.7,6.7,14,15.9,16.9,26.5c0.7,2.6,0.8,5.4,0.8,8C227.4,190.5,227.4,213.7,227.4,237.7z"/>
		<path fill="#FFFFFF" d="M52.5,99.2c11.4,0,22.1,0,33.2,0c0,10.1,0,19.9,0,30.6c5.7,0,11.1,0,16.8,0c0,11.5,0,22.2,0,33.7
			c-5.2,0-10.6,0-16.4,0c0,14.3-0.1,27.8,0,41.3c0,4.8,2.1,6.6,7.3,6.8c2.8,0.1,5.6,0,8.9,0c0,9.4,0,18.8,0,28.4
			c-12.4,1.2-24.2-0.1-35.6-5.7c-9.7-4.8-13.9-12.8-14.1-22.7c-0.4-22.3-0.1-44.7-0.1-67C52.5,129.8,52.5,115,52.5,99.2z"/>
		<path fill="#FFFFFF" d="M2.6,132.7c11.1,0,21.7,0,32.8,0c0,34.8,0,69.4,0,104.8c-4.9,1.1-10.4,0.3-15.8,0.4c-5.5,0.1-11.1,0-17,0
			C2.6,203,2.6,168.4,2.6,132.7z"/>
		<path fill="#FFFFFF" d="M242.1,132.7c11.1,0,21.8,0,32.8,0c0,34.8,0,69.4,0,104.8c-4.9,1-10.4,0.3-15.8,0.4c-5.5,0.1-11,0-16.9,0
			C242.1,202.9,242.1,168.3,242.1,132.7z"/>
		<path fill="#FFFFFF" d="M258.9,118.2c-11.5,0.1-18.7-7.7-19.9-19c-0.6-6.2,3.3-9.6,5.8-13.2c2.3-3.4,8.3-5.7,12.7-5.7
			c4.9,0,11.2,1.8,14.2,5.2c3,3.4,6.1,8.4,6.1,14.1C277.8,110,269.9,118,258.9,118.2z"/>
		<path fill="#FFFFFF" d="M38.1,99c0,11.4-7.9,19-19.4,19.3c-5,0.1-9.6-1.2-12.3-4.7c-3.1-3.9-6-9.1-6.3-13.9
			c-0.6-9.5,10.3-20.2,19.8-19.5c4,0.3,9,0.8,12.4,4.5C36,88.8,38.7,93.2,38.1,99z"/>
	</g>
</g>
<rect fill="none" width="400" height="364"/>
</svg>
