<?xml version="1.0" standalone="no"?>
<!DOCTYPE svg PUBLIC "-//W3C//DTD SVG 20010904//EN"
 "http://www.w3.org/TR/2001/REC-SVG-20010904/DTD/svg10.dtd">
<svg version="1.0" xmlns="http://www.w3.org/2000/svg"
 width="200.000000pt" height="200.000000pt" viewBox="0 0 200.000000 200.000000"
 preserveAspectRatio="xMidYMid meet">

<g transform="translate(0.000000,200.000000) scale(0.100000,-0.100000)"
fill="#000000" stroke="none">
<path d="M0 1000 l0 -1000 1000 0 1000 0 0 1000 0 1000 -1000 0 -1000 0 0
-1000z m880 237 l0 -94 49 24 c42 21 54 23 88 14 83 -22 103 -69 103 -237 l0
-125 -47 3 -48 3 -5 118 c-4 103 -8 121 -24 133 -27 19 -59 18 -87 -5 -22 -18
-24 -28 -27 -136 l-4 -116 -47 3 -46 3 -1 240 c-1 132 1 246 4 253 2 7 22 12
48 12 l44 0 0 -93z m778 0 l3 -87 32 16 c98 51 217 -20 233 -138 11 -77 -30
-159 -97 -193 -41 -22 -111 -19 -142 5 -25 20 -25 20 -30 0 -4 -16 -14 -20
-51 -20 l-46 0 0 256 0 255 48 -3 47 -3 3 -88z m-1336 -57 c68 -19 123 -81
129 -145 5 -68 11 -65 -126 -65 -69 0 -125 -4 -125 -9 0 -5 9 -19 19 -32 26
-32 108 -34 141 -4 l22 20 24 -30 c13 -17 22 -34 21 -40 -7 -21 -91 -55 -139
-55 -63 0 -106 19 -145 63 -104 118 -30 290 132 306 6 0 27 -4 47 -9z m380
-16 c40 -20 43 -33 17 -60 -22 -22 -27 -23 -57 -12 -24 9 -37 10 -50 2 -31
-20 -18 -37 43 -61 33 -13 68 -32 78 -44 21 -26 22 -87 1 -117 -40 -57 -146
-70 -221 -27 -23 14 -43 29 -43 34 0 4 11 18 24 30 23 22 25 22 56 6 42 -22
84 -17 88 12 3 18 -6 25 -59 44 -99 36 -125 99 -68 164 48 54 119 65 191 29z
m681 15 c44 -12 102 -59 124 -102 20 -39 20 -115 0 -153 -53 -101 -174 -135
-269 -75 -52 33 -88 96 -88 155 0 75 68 158 143 176 45 11 48 11 90 -1z"/>
<path d="M1714 1090 c-54 -21 -72 -105 -33 -154 40 -51 125 -26 142 42 9 39
-11 91 -43 107 -33 17 -36 17 -66 5z"/>
<path d="M226 1079 c-14 -11 -26 -25 -26 -30 0 -5 34 -9 75 -9 79 0 88 7 55
40 -26 26 -70 26 -104 -1z"/>
<path d="M1279 1064 c-77 -82 35 -207 115 -128 56 56 20 154 -57 154 -23 0
-41 -8 -58 -26z"/>
</g>
</svg>
