<?xml version="1.0" encoding="UTF-8" standalone="no"?>
<svg width="204px" height="27px" viewBox="0 0 204 27" version="1.1" xmlns="http://www.w3.org/2000/svg" xmlns:xlink="http://www.w3.org/1999/xlink" xmlns:sketch="http://www.bohemiancoding.com/sketch/ns">
    <!-- Generator: Sketch 3.2.2 (9983) - http://www.bohemiancoding.com/sketch -->
    <title>logo</title>
    <desc>Created with Sketch.</desc>
    <defs></defs>
    <g id="Page-1" stroke="none" stroke-width="1" fill="none" fill-rule="evenodd" sketch:type="MSPage">
        <g id="logo" sketch:type="MSLayerGroup">
            <g id="Group-2" transform="translate(167.848101, 0.428571)" sketch:type="MSShapeGroup">
                <path d="M9.93362983,6.58928571 C9.93362983,6.26785714 9.77078344,5.97857143 9.51022922,5.81785714 C9.21710571,5.65714286 8.69599726,5.68928571 8.37030448,5.68928571 L7.16524119,5.68928571 L7.16524119,7.52142857 L8.53315087,7.52142857 C8.89141293,7.52142857 9.28224427,7.55357143 9.57536777,7.32857143 C9.80335272,7.16785714 9.93362983,6.84642857 9.93362983,6.58928571 M10.1290455,9.99642857 C10.1290455,9.675 9.93362983,9.35357143 9.64050633,9.19285714 C9.34738283,9.03214286 8.95655149,9.03214286 8.63085871,9.03214286 L7.16524119,9.03214286 L7.16524119,11.0571429 L8.53315087,11.0571429 C8.89141293,11.0571429 9.34738283,11.0892857 9.67307561,10.8642857 C9.96619911,10.7035714 10.1290455,10.35 10.1290455,9.99642857 M10.4547383,8.22857143 L10.4547383,8.22857143 C11.4969552,8.45357143 12.2460486,9.25714286 12.2460486,10.35 C12.2460486,11.0892857 11.7900787,11.7321429 11.2038317,12.15 C10.5850154,12.6 9.73821416,12.6 9.02169004,12.6 L5.17851522,12.6 L5.17851522,4.21071429 L8.98912077,4.21071429 C9.67307561,4.21071429 10.3570304,4.21071429 10.9432775,4.56428571 C11.6272323,4.98214286 11.9854944,5.59285714 11.9854944,6.39642857 C11.9854944,7.36071429 11.3341088,8.00357143 10.4547383,8.22857143 M17.0337325,8.42142857 C17.0337325,3.76071429 13.2231269,0 8.53315087,0 C3.81060554,0 0,3.76071429 0,8.42142857 C0,13.0821429 3.81060554,16.8428571 8.53315087,16.8428571 C13.2231269,16.8107143 17.0337325,13.05 17.0337325,8.42142857" id="Shape" fill="#ffffff"></path>
                <path d="M35.4679439,8.87142857 C34.1651728,5.20714286 31.0710913,3.88928571 27.3256244,3.88928571 C25.3388984,3.88928571 23.5150188,4.30714286 21.9516935,5.625 C20.4209374,6.87857143 19.6392747,8.61428571 19.6392747,10.6071429 C19.6392747,15.2357143 23.3847417,16.3607143 27.2279165,17.1321429 C28.5306876,17.4214286 30.9733835,17.7428571 30.9733835,19.5107143 C30.9733835,21.2785714 29.0517961,21.7928571 27.6187479,21.7928571 C25.4040369,21.7928571 23.775573,21.0214286 23.1241875,18.8035714 L18.49935,19.8642857 C19.443859,23.9785714 23.1241875,25.7142857 27.162778,25.7142857 C29.3123503,25.7142857 31.6573384,25.3285714 33.3835101,23.9785714 C35.0445433,22.725 36.0541909,20.7321429 36.0541909,18.675 C36.0541909,16.5857143 34.9794047,14.8178571 33.2206637,13.6607143 C31.7224769,12.6642857 29.3774889,12.2464286 27.6187479,11.8607143 C26.3811153,11.6357143 24.5246664,11.2821429 24.5246664,9.73928571 C24.5246664,8.1 26.1531303,7.74642857 27.4884707,7.74642857 C29.4100582,7.74642857 30.5499829,8.45357143 31.1687992,10.2535714 L35.4679439,8.87142857 L35.4679439,8.87142857 Z" id="Shape" fill="#1D1D1B"></path>
            </g>
            <path d="M12.423375,10.11625 C12.1196235,9.22524554 11.6791904,8.59243937 11.1020625,8.2178125 C10.5249346,7.84318563 9.77062966,7.655875 8.839125,7.655875 C8.51512338,7.655875 8.18100172,7.68118725 7.83675,7.7318125 C7.49249828,7.78243775 7.18368887,7.87862429 6.9103125,8.020375 C6.63693613,8.16212571 6.40912591,8.35956123 6.226875,8.6126875 C6.04462409,8.86581377 5.9535,9.19487297 5.9535,9.599875 C5.9535,9.98462692 6.05474899,10.2984988 6.25725,10.5415 C6.45975101,10.7845012 6.71287348,10.9819367 7.016625,11.1338125 C7.32037652,11.2856883 7.64437328,11.4021246 7.988625,11.483125 C8.33287672,11.5641254 8.65687348,11.6349997 8.960625,11.69575 C9.38587713,11.7970005 9.84149757,11.8982495 10.3275,11.9995 C10.8135024,12.1007505 11.2944351,12.2171868 11.7703125,12.3488125 C12.2461899,12.4804382 12.7119352,12.6373741 13.1675625,12.819625 C13.6231898,13.0018759 14.0332482,13.2144988 14.39775,13.4575 C15.2482543,14.0245028 15.9164976,14.7281833 16.4025,15.5685625 C16.8885024,16.4089417 17.1315,17.3454948 17.1315,18.37825 C17.1315,19.4110052 16.9036898,20.3829954 16.4480625,21.29425 C15.9924352,22.2055046 15.3596291,22.9749969 14.549625,23.60275 C13.6991207,24.2507532 12.7423178,24.6962488 11.6791875,24.93925 C10.6160572,25.1822512 9.55800527,25.30375 8.505,25.30375 C7.53299514,25.30375 6.59137956,25.1923761 5.680125,24.969625 C4.76887044,24.7468739 3.93862875,24.4026273 3.189375,23.936875 C2.44012125,23.4711227 1.79719018,22.8737536 1.2605625,22.14475 C0.723934817,21.4157464 0.334126215,20.5450051 0.091125,19.5325 L4.586625,18.49975 C4.89037652,19.5932555 5.41687125,20.3576853 6.166125,20.7930625 C6.91537875,21.2284397 7.83674453,21.446125 8.93025,21.446125 C9.27450172,21.446125 9.63899808,21.4106879 10.02375,21.3398125 C10.4085019,21.2689371 10.7578109,21.1474384 11.0716875,20.9753125 C11.3855641,20.8031866 11.6488114,20.570314 11.8614375,20.2766875 C12.0740636,19.983061 12.180375,19.6236271 12.180375,19.198375 C12.180375,18.7731229 12.0487513,18.4238139 11.7855,18.1504375 C11.5222487,17.8770611 11.2033144,17.6543134 10.8286875,17.4821875 C10.4540606,17.3100616 10.0591896,17.178438 9.6440625,17.0873125 C9.22893542,16.996187 8.85937662,16.9202503 8.535375,16.8595 C7.60387034,16.6772491 6.6976919,16.4545013 5.8168125,16.19125 C4.9359331,15.9279987 4.15125344,15.5584399 3.46275,15.0825625 C2.77424656,14.6066851 2.22243958,13.9991912 1.8073125,13.2600625 C1.39218542,12.5209338 1.184625,11.5843807 1.184625,10.450375 C1.184625,9.47837014 1.37193563,8.57725415 1.7465625,7.747 C2.12118937,6.91674585 2.68312125,6.18775314 3.432375,5.56 C4.20187885,4.91199676 5.02199565,4.46650121 5.89275,4.2235 C6.76350435,3.98049878 7.68487014,3.859 8.656875,3.859 C9.56812956,3.859 10.4338084,3.94506164 11.2539375,4.1171875 C12.0740666,4.28931336 12.8233091,4.56774808 13.5016875,4.9525 C14.1800659,5.33725192 14.7774349,5.83843441 15.2938125,6.4560625 C15.8101901,7.07369059 16.2303734,7.83812044 16.554375,8.749375 L12.423375,10.11625 Z M25.895875,12.212125 C25.288372,12.212125 24.8175642,12.3690609 24.4834375,12.6829375 C24.1493108,12.9968141 23.8961884,13.3866227 23.7240625,13.852375 C23.5519366,14.3181273 23.4456252,14.8142474 23.405125,15.34075 C23.3646248,15.8672526 23.344375,16.3532478 23.344375,16.79875 C23.344375,17.2442522 23.3544999,17.7808719 23.37475,18.408625 C23.3950001,19.0363781 23.4861242,19.6388096 23.648125,20.2159375 C23.8101258,20.7930654 24.0581858,21.2891854 24.3923125,21.7043125 C24.7264392,22.1194396 25.2174968,22.327 25.8655,22.327 C26.4932531,22.327 26.9843107,22.1599392 27.3386875,21.8258125 C27.6930643,21.4916858 27.9563116,21.076565 28.1284375,20.5804375 C28.3005634,20.08431 28.4068748,19.5527528 28.447375,18.98575 C28.4878752,18.4187472 28.508125,17.9023773 28.508125,17.436625 C28.508125,16.829122 28.4828128,16.1861909 28.4321875,15.5078125 C28.3815622,14.8294341 28.2448761,14.1966279 28.022125,13.609375 C27.8398741,13.1031225 27.5715643,12.7436886 27.2171875,12.5310625 C26.8628107,12.3184364 26.4223776,12.212125 25.895875,12.212125 L25.895875,12.212125 Z M25.8655,9.26575 C27.0805061,9.26575 28.1486829,9.47837287 29.0700625,9.903625 C29.9914421,10.3288771 30.7659969,10.9059964 31.39375,11.635 C32.0215031,12.3640036 32.4973734,13.22462 32.821375,14.216875 C33.1453766,15.20913 33.307375,16.2722443 33.307375,17.40625 C33.307375,18.4997555 33.1352517,19.5274327 32.791,20.4893125 C32.4467483,21.4511923 31.9506282,22.2915589 31.302625,23.0104375 C30.6546218,23.7293161 29.8699421,24.291248 28.9485625,24.69625 C28.0271829,25.101252 26.9995057,25.30375 25.8655,25.30375 C24.670744,25.30375 23.622817,25.0961896 22.7216875,24.6810625 C21.820558,24.2659354 21.0561281,23.6938786 20.428375,22.964875 C19.8006219,22.2358714 19.3298141,21.3803174 19.0159375,20.3981875 C18.7020609,19.4160576 18.545125,18.3681306 18.545125,17.254375 C18.545125,16.1406194 18.7071234,15.0926924 19.031125,14.1105625 C19.3551266,13.1284326 19.8259344,12.2830035 20.4435625,11.57425 C21.0611906,10.8654965 21.8256204,10.3035646 22.736875,9.8884375 C23.6481296,9.47331042 24.6909941,9.26575 25.8655,9.26575 L25.8655,9.26575 Z M35.298125,4.16275 L39.76325,4.16275 L39.76325,25 L35.298125,25 L35.298125,4.16275 Z M50.107125,25 L46.55325,25 L41.268,9.5695 L46.0065,9.5695 L48.98325,19.35025 L51.990375,9.5695 L55.362,9.5695 L50.107125,25 Z M61.24075,8.17225 L56.775625,8.17225 L56.775625,3.859 L61.24075,3.859 L61.24075,8.17225 Z M61.24075,25 L56.775625,25 L56.775625,9.5695 L61.24075,9.5695 L61.24075,25 Z M72.981875,17.618875 C72.5566229,17.6593752 72.0655653,17.725187 71.5086875,17.8163125 C70.9518097,17.907438 70.425315,18.054249 69.9291875,18.25675 C69.43306,18.459251 69.0128767,18.7326233 68.668625,19.076875 C68.3243733,19.4211267 68.15225,19.8767472 68.15225,20.44375 C68.15225,21.051253 68.3243733,21.5423106 68.668625,21.9169375 C69.0128767,22.2915644 69.4988719,22.478875 70.126625,22.478875 C70.5923773,22.478875 71.0176231,22.3675011 71.402375,22.14475 C71.7871269,21.9219989 72.1111237,21.608127 72.374375,21.203125 C72.6983766,20.7171226 72.8806248,20.2361899 72.921125,19.7603125 C72.9616252,19.2844351 72.981875,18.7731277 72.981875,18.226375 L72.981875,17.618875 Z M73.407125,25 C73.3058745,24.594998 73.2400627,24.1950645 73.2096875,23.8001875 C73.1793123,23.4053105 73.1742499,23.005377 73.1945,22.600375 C72.5464968,23.5116296 71.8529412,24.1899978 71.1138125,24.6355 C70.3746838,25.0810022 69.4280058,25.30375 68.27375,25.30375 C67.5852466,25.30375 66.9473779,25.2126259 66.360125,25.030375 C65.7728721,24.8481241 65.2615647,24.5747518 64.8261875,24.21025 C64.3908103,23.8457482 64.0465638,23.3901277 63.7934375,22.843375 C63.5403112,22.2966223 63.41375,21.6587536 63.41375,20.92975 C63.41375,19.7754942 63.7326843,18.8186913 64.3705625,18.0593125 C65.0084407,17.2999337 65.8437448,16.7278769 66.8765,16.343125 C67.7675045,15.9988733 68.7698694,15.7761255 69.883625,15.674875 C70.9973806,15.5736245 72.0301202,15.4723755 72.981875,15.371125 L72.981875,15.006625 C72.981875,14.6623733 72.9717501,14.3080018 72.9515,13.9435 C72.9312499,13.5789982 72.8097511,13.2550014 72.587,12.9715 C72.384499,12.7082487 72.1161892,12.5209381 71.7820625,12.4095625 C71.4479358,12.2981869 71.1087517,12.2425 70.7645,12.2425 C70.0557465,12.2425 69.4330652,12.4247482 68.8964375,12.78925 C68.3598098,13.1537518 68.0915,13.7207462 68.0915,14.49025 L63.869375,14.095375 C63.9908756,13.1638703 64.2895601,12.3893156 64.7654375,11.7716875 C65.2413149,11.1540594 65.8184341,10.6579394 66.4968125,10.2833125 C67.1751909,9.90868563 67.9294958,9.64543826 68.75975,9.4935625 C69.5900042,9.34168674 70.4101209,9.26575 71.220125,9.26575 C71.6048769,9.26575 72.0199978,9.29106225 72.4655,9.3416875 C72.9110022,9.39231275 73.3514353,9.47331194 73.7868125,9.5846875 C74.2221897,9.69606306 74.642373,9.83781164 75.047375,10.0099375 C75.452377,10.1820634 75.8067485,10.3997487 76.1105,10.663 C76.4952519,10.9870016 76.788874,11.3312482 76.991375,11.69575 C77.193876,12.0602518 77.3356246,12.4500604 77.416625,12.8651875 C77.4976254,13.2803146 77.538125,13.7106228 77.538125,14.156125 L77.538125,15.492625 L77.538125,22.6915 C77.538125,23.096502 77.5583748,23.4863106 77.598875,23.8609375 C77.6393752,24.2355644 77.7203744,24.6152481 77.841875,25 L73.407125,25 Z M97.370875,25 L97.370875,15.09775 L87.711625,15.09775 L87.711625,25 L85.099375,25 L85.099375,4.16275 L87.711625,4.16275 L87.711625,12.819625 L97.370875,12.819625 L97.370875,4.16275 L99.983125,4.16275 L99.983125,25 L97.370875,25 Z M105.983375,17.16325 C105.983375,17.8720035 106.044124,18.6009963 106.165625,19.35025 C106.287126,20.0995037 106.519998,20.777872 106.86425,21.385375 C107.208502,21.9726279 107.67931,22.4434357 108.276687,22.7978125 C108.874065,23.1521893 109.527121,23.329375 110.235875,23.329375 C111.025629,23.329375 111.724247,23.1370019 112.33175,22.75225 C112.939253,22.3674981 113.425248,21.8207535 113.78975,21.112 C114.113752,20.504497 114.321312,19.8615659 114.412437,19.1831875 C114.503563,18.5048091 114.549125,17.8315033 114.549125,17.16325 C114.549125,16.4342464 114.488376,15.7052536 114.366875,14.97625 C114.245374,14.2472464 113.982127,13.5688781 113.577125,12.941125 C113.212623,12.3741222 112.73169,11.9286266 112.134312,11.604625 C111.536935,11.2806234 110.904128,11.118625 110.235875,11.118625 C109.486621,11.118625 108.803191,11.3160605 108.185563,11.7109375 C107.567934,12.1058145 107.087002,12.6373717 106.74275,13.305625 C106.459249,13.8726278 106.261813,14.5003716 106.150437,15.188875 C106.039062,15.8773784 105.983375,16.5354969 105.983375,17.16325 L105.983375,17.16325 Z M103.34075,17.16325 C103.34075,16.0899946 103.492623,15.0724423 103.796375,14.1105625 C104.100127,13.1486827 104.545622,12.3032536 105.132875,11.57425 C105.720128,10.8452464 106.459246,10.2630647 107.35025,9.8276875 C108.241254,9.39231032 109.263869,9.174625 110.418125,9.174625 C111.552131,9.174625 112.544371,9.40243522 113.394875,9.8580625 C114.245379,10.3136898 114.94906,10.9161213 115.505938,11.665375 C116.062815,12.4146287 116.482999,13.2701827 116.7665,14.2320625 C117.050001,15.1939423 117.19175,16.1811199 117.19175,17.193625 C117.19175,18.2668804 117.039877,19.2945576 116.736125,20.2766875 C116.432373,21.2588174 115.976753,22.1244963 115.36925,22.87375 C114.761747,23.6230037 114.012504,24.2153103 113.1215,24.6506875 C112.230496,25.0860647 111.197756,25.30375 110.02325,25.30375 C108.868994,25.30375 107.871692,25.0708773 107.031312,24.605125 C106.190933,24.1393727 105.497378,23.5268163 104.950625,22.7674375 C104.403872,22.0080587 103.998876,21.1373174 103.735625,20.1551875 C103.472374,19.1730576 103.34075,18.1757551 103.34075,17.16325 L103.34075,17.16325 Z M122.189625,9.5695 L122.189625,12.54625 L122.250375,12.54625 C122.655377,11.6147453 123.252746,10.8199408 124.0425,10.1618125 C124.832254,9.50368421 125.77387,9.174625 126.867375,9.174625 C128.001381,9.174625 128.948059,9.51380911 129.707437,10.1921875 C130.466816,10.8705659 130.967999,11.7564945 131.211,12.85 C131.636252,11.7767446 132.274121,10.8958784 133.124625,10.207375 C133.975129,9.51887156 134.997744,9.174625 136.1925,9.174625 C136.982254,9.174625 137.726434,9.37712297 138.425062,9.782125 C139.123691,10.187127 139.675498,10.7237467 140.0805,11.392 C140.465252,12.0400032 140.682937,12.7588711 140.733563,13.548625 C140.784188,14.3383789 140.8095,15.0876215 140.8095,15.796375 L140.8095,25 L138.44025,25 L138.44025,15.796375 C138.44025,15.2698724 138.430125,14.7433776 138.409875,14.216875 C138.389625,13.6903724 138.258001,13.1942523 138.015,12.7285 C137.751749,12.2222475 137.387252,11.8273764 136.9215,11.543875 C136.455748,11.2603736 135.959628,11.118625 135.433125,11.118625 C134.845872,11.118625 134.289003,11.2806234 133.7625,11.604625 C133.235997,11.9286266 132.800627,12.3437475 132.456375,12.85 C132.010873,13.4777531 131.75775,14.0903095 131.697,14.6876875 C131.63625,15.2850655 131.605875,15.9482464 131.605875,16.67725 L131.605875,25 L129.236625,25 L129.236625,15.21925 C129.236625,14.7939979 129.20625,14.3485023 129.1455,13.88275 C129.08475,13.4169977 128.943001,12.9917519 128.72025,12.607 C128.436749,12.1412477 128.06719,11.7767513 127.611563,11.5135 C127.155935,11.2502487 126.664878,11.118625 126.138375,11.118625 C125.611872,11.118625 125.095503,11.2704985 124.58925,11.57425 C124.082997,11.8780015 123.667877,12.232373 123.343875,12.637375 C122.938873,13.1436275 122.680688,13.6954345 122.569313,14.2928125 C122.457937,14.8901905 122.40225,15.5128718 122.40225,16.160875 L122.40225,25 L120.033,25 L120.033,9.5695 L122.189625,9.5695 Z M154.768,15.70525 C154.768,15.0774969 154.681938,14.4750654 154.509813,13.8979375 C154.337687,13.3208096 154.079502,12.8196271 153.73525,12.394375 C153.390998,11.9691229 152.96069,11.6299388 152.444312,11.3768125 C151.927935,11.1236862 151.325503,10.997125 150.637,10.997125 C149.988997,10.997125 149.401753,11.1287487 148.87525,11.392 C148.348747,11.6552513 147.898189,12.0045603 147.523562,12.4399375 C147.148936,12.8753147 146.855314,13.3764972 146.642687,13.9435 C146.430061,14.5105028 146.313625,15.097747 146.293375,15.70525 L154.768,15.70525 Z M157.13725,20.777875 C156.914499,21.4866285 156.58544,22.1194347 156.150062,22.6763125 C155.714685,23.2331903 155.20844,23.7090605 154.631313,24.1039375 C154.054185,24.4988145 153.416316,24.797499 152.717688,25 C152.019059,25.202501 151.305254,25.30375 150.57625,25.30375 C149.401744,25.30375 148.374067,25.0860647 147.493188,24.6506875 C146.612308,24.2153103 145.87319,23.6331286 145.275813,22.904125 C144.678435,22.1751214 144.232939,21.3246299 143.939312,20.352625 C143.645686,19.3806201 143.498875,18.3580054 143.498875,17.28475 C143.498875,16.2317447 143.655811,15.2141924 143.969687,14.2320625 C144.283564,13.2499326 144.739185,12.3842537 145.336563,11.635 C145.93394,10.8857463 146.678121,10.2883772 147.569125,9.842875 C148.460129,9.39737277 149.482744,9.174625 150.637,9.174625 C151.831756,9.174625 152.864496,9.40749767 153.73525,9.87325 C154.606004,10.3390023 155.314747,10.9566212 155.8615,11.726125 C156.408253,12.4956288 156.803124,13.376495 157.046125,14.36875 C157.289126,15.361005 157.4005,16.3937446 157.38025,17.467 L146.171875,17.467 C146.171875,18.074503 146.207312,18.6617472 146.278188,19.22875 C146.349063,19.7957528 146.526249,20.3728721 146.80975,20.960125 C147.174252,21.6891286 147.720996,22.2611854 148.45,22.6763125 C149.179004,23.0914396 149.948496,23.299 150.7585,23.299 C151.771005,23.299 152.626559,23.0306902 153.325187,22.4940625 C154.023816,21.9574348 154.545248,21.2335046 154.8895,20.32225 L157.13725,20.777875 Z" id="Solvia-Home" fill="#000000" sketch:type="MSShapeGroup"></path>
        </g>
    </g>
</svg>