<?xml version="1.0" standalone="no"?>
<!DOCTYPE svg PUBLIC "-//W3C//DTD SVG 1.1//EN" "http://www.w3.org/Graphics/SVG/1.1/DTD/svg11.dtd" >
<svg xmlns="http://www.w3.org/2000/svg" xmlns:xlink="http://www.w3.org/1999/xlink" version="1.1">
<metadata></metadata>
<defs>
<font id="akzidenzgroteskregular" horiz-adv-x="1024" >
<font-face units-per-em="2048" ascent="1638" descent="-410" />
<missing-glyph horiz-adv-x="569" />
<glyph horiz-adv-x="0" />
<glyph horiz-adv-x="682" />
<glyph horiz-adv-x="378" d="M-106 1413h79q18 -90 73.5 -129t141.5 -39q88 0 143.5 39t74.5 129h79q-2 -31 -18 -75t-52 -85t-91.5 -69.5t-135.5 -28.5q-78 0 -133 28.5t-91 69.5t-52 85t-18 75z" />
<glyph horiz-adv-x="378" d="M129 1163v209h123v-209h-123z" />
<glyph horiz-adv-x="378" d="M-14 1319q0 86 58 145.5t144 59.5t145.5 -59.5t59.5 -145.5q0 -41 -16.5 -78t-44 -64.5t-64.5 -44t-80 -16.5t-79.5 16.5t-64.5 44t-43 64.5t-15 78zM51 1319q0 -57 40 -97t97 -40t98.5 40t41.5 97q0 59 -41 99t-99 40q-57 0 -97 -40t-40 -99z" />
<glyph unicode="&#xa;" horiz-adv-x="378" d="M-76 1143l228 284h157l-280 -284h-105zM201 1143l227 284h158l-281 -284h-104z" />
<glyph horiz-adv-x="378" d="M322 -221q0 39 19 72.5t49 62.5t66 53.5t70 42.5h90q-18 -12 -47.5 -34.5t-59.5 -50t-51.5 -58.5t-21.5 -57q0 -39 17.5 -64t44 -36t59.5 -10t64 13v-73q-49 -18 -105 -19q-39 0 -73.5 8.5t-61.5 26.5t-43 49t-16 74z" />
<glyph horiz-adv-x="378" d="M-111 1427h131l168 -208l168 208h133l-233 -284h-137z" />
<glyph unicode="&#xd;" horiz-adv-x="569" />
<glyph horiz-adv-x="342" d="M-338 -37l903 1532h115l-905 -1532h-113z" />
<glyph horiz-adv-x="948" d="M27 881v102h215v328q0 98 65.5 141t167.5 43q23 0 58.5 -4t58.5 -16v-117q-18 10 -45 16t-68 6q-57 0 -85.5 -35.5t-28.5 -117.5v-244h215v-102h-215v-881h-123v881h-215zM696 0v983h123v-983h-123zM696 1196v193h123v-193h-123z" />
<glyph horiz-adv-x="948" d="M27 881v102h215v328q0 98 65.5 141t167.5 43q23 0 58.5 -4t58.5 -16v-117q-18 10 -45 16t-68 6q-57 0 -85.5 -35.5t-28.5 -117.5v-244h215v-102h-215v-881h-123v881h-215zM696 0v1458h123v-1458h-123z" />
<glyph horiz-adv-x="1138" d="M39 539v114l125 74v731h139v-649l408 240v-115l-408 -240v-567h805v-127h-944v612z" />
<glyph horiz-adv-x="380" d="M-2 633v106l131 97v622h123v-534l131 96v-107l-131 -96v-817h-123v729z" />
<glyph horiz-adv-x="1175" d="M49 0v90l883 1241h-836v127h1030v-90l-882 -1241h874v-127h-1069zM288 1830h131l168 -208l168 208h133l-233 -284h-137z" />
<glyph horiz-adv-x="757" d="M20 0v84l537 797h-491v102h663v-68l-547 -813h555v-102h-717zM79 1427h131l168 -208l168 208h133l-233 -284h-137z" />
<glyph unicode=" "  horiz-adv-x="569" />
<glyph unicode="&#x09;" horiz-adv-x="569" />
<glyph unicode="&#xa0;" horiz-adv-x="569" />
<glyph unicode="!" horiz-adv-x="569" d="M207 0v238h155v-238h-155zM215 674v784h139v-784l-18 -328h-103z" />
<glyph unicode="&#x22;" horiz-adv-x="645" d="M158 897v561h102v-561h-102zM385 897v561h102v-561h-102z" />
<glyph unicode="#" horiz-adv-x="1138" d="M55 477v90h246l45 326h-233v90h245l66 475h102l-65 -475h287l65 475h102l-65 -475h233v-90h-245l-45 -326h233v-90h-246l-65 -477h-103l66 477h-287l-65 -477h-103l66 477h-234zM403 567h287l45 326h-286z" />
<glyph unicode="$" horiz-adv-x="1138" d="M-10 358l149 15q20 -51 58.5 -98.5t86.5 -84t103 -60.5t111 -28v615q-92 27 -168 58.5t-131.5 76.5t-86 107.5t-30.5 152.5q0 102 42 173t104.5 114t135 63.5t134.5 20.5v135h123v-135q164 -18 269 -96t159 -257l-150 -10q-16 45 -40.5 86t-59.5 73t-79 52.5t-99 24.5 v-531q113 -35 202.5 -67.5t152 -79.5t95.5 -114.5t33 -172.5q0 -94 -42 -171t-110.5 -131t-155.5 -84t-175 -30v-198h-123v198q-88 0 -168 32t-146.5 86t-117 123t-76.5 142zM221 1128q0 -66 24.5 -109.5t64.5 -74.5t89.5 -51.5t98.5 -34.5v498q-45 0 -94.5 -14.5t-89.5 -42 t-66.5 -69.5t-26.5 -102zM621 102q47 0 106 13.5t112.5 46.5t89.5 89t36 140q0 72 -31 119t-80 79t-110.5 53.5t-122.5 39.5v-580z" />
<glyph unicode="%" horiz-adv-x="1820" d="M213 1100q0 68 17.5 136.5t53 122.5t92 89t134.5 35t134 -35t92 -89t53.5 -123t17.5 -136q0 -68 -16.5 -136.5t-51 -124t-91 -89t-136.5 -33.5h-4q-80 0 -136.5 33.5t-91 89t-51 124t-16.5 136.5zM315 1100q0 -47 8.5 -96.5t29 -90.5t58.5 -67.5t99 -26.5t99 26.5 t59.5 67.5t29 90.5t7.5 96.5q0 45 -7.5 95t-29 91t-59.5 67.5t-99 26.5t-99 -26.5t-59.5 -67.5t-29 -91t-7.5 -95zM457 -37l807 1555l77 -39l-806 -1553zM1014 358q0 68 17.5 136.5t53 123t92 89t134.5 34.5t134 -34.5t92 -89t53.5 -123t17.5 -136.5t-16.5 -136 t-51.5 -123.5t-91 -89.5t-136 -34h-4q-80 0 -136.5 34t-91 89.5t-51 124t-16.5 135.5zM1116 358q0 -47 8.5 -96t29 -90t58.5 -67.5t99 -26.5t99 26.5t59.5 67.5t28.5 90t7 96q0 45 -7 95.5t-28.5 91.5t-59.5 67.5t-99 26.5t-99 -26.5t-60 -67.5t-29 -91.5t-7 -95.5z" />
<glyph unicode="&#x26;" horiz-adv-x="1290" d="M90 397q0 82 33 154t85 133t118.5 111.5t134.5 87.5q-53 78 -86 145.5t-33 165.5q0 135 80 212t215 77q125 0 203 -68.5t78 -195.5q0 -68 -25 -122.5t-65 -99.5t-90 -82.5t-99 -72.5q72 -121 149.5 -233.5t155.5 -227.5q27 63 42 131t22 135h122q-8 -98 -29.5 -192.5 t-74.5 -178.5q23 -29 47.5 -58.5t52 -55t61.5 -42t75 -18.5v-127q-53 0 -97.5 14.5t-81 40t-68.5 59.5t-65 71q-88 -94 -181 -139.5t-224 -45.5q-94 0 -177 30t-144.5 85t-97.5 133t-36 174zM229 397q0 -72 27 -128t70 -96t100 -61.5t119 -21.5q102 0 185 45t149 123 q-98 123 -182.5 254t-168.5 264q-55 -35 -108 -71.5t-96 -80.5t-69 -100.5t-26 -126.5zM465 1194q0 -66 36 -129.5t68 -116.5q37 23 77 49.5t73 58t54.5 72t21.5 91.5q0 70 -46.5 109.5t-111.5 39.5q-80 0 -126 -48t-46 -126z" />
<glyph unicode="'" horiz-adv-x="569" d="M233 897v561h103v-561h-103z" />
<glyph unicode="(" horiz-adv-x="606" d="M94 590q0 145 29 289.5t89 272.5t154.5 234.5t225.5 178.5v-107q-102 -80 -171 -182t-111 -216t-59.5 -234.5t-17.5 -235.5t17.5 -236t59.5 -234.5t110.5 -216t171.5 -182.5v-106q-129 72 -222.5 178.5t-154.5 234.5t-91 272t-30 290z" />
<glyph unicode=")" horiz-adv-x="606" d="M14 -279q102 80 171 182.5t111 216t59.5 234.5t17.5 236t-17.5 235.5t-59.5 234.5t-110.5 216t-171.5 182v107q129 -72 222.5 -178.5t155 -234.5t91 -272.5t29.5 -289.5t-28.5 -289.5t-89 -272.5t-155 -234.5t-225.5 -178.5v106z" />
<glyph unicode="*" horiz-adv-x="569" d="M39 1237l24 98l173 -61l-7 184h111l-10 -184l176 61l24 -98l-178 -51l111 -139l-88 -56l-92 156l-95 -156l-88 56l113 143z" />
<glyph unicode="+" horiz-adv-x="1228" d="M96 467v102h467v467h103v-467h467v-102h-467v-467h-103v467h-467z" />
<glyph unicode="," horiz-adv-x="569" d="M186 -272q49 57 69.5 128.5t18.5 143.5h-67v238h155v-222q0 -18 -2 -51t-12 -77t-31.5 -98t-60.5 -114z" />
<glyph unicode="-" horiz-adv-x="757" d="M92 475v127h574v-127h-574z" />
<glyph unicode="." horiz-adv-x="569" d="M207 0v238h155v-238h-155z" />
<glyph unicode="/" horiz-adv-x="948" d="M27 -37l786 1532h109l-787 -1532h-108z" />
<glyph unicode="0" horiz-adv-x="1138" d="M55 729q0 199 42 342t114 234.5t164 134.5t194 43q100 0 193.5 -43t165 -134.5t113.5 -234.5t42 -342q0 -201 -42 -343t-113.5 -233.5t-164.5 -134.5t-194 -43q-102 0 -194 43t-164 134.5t-114 233.5t-42 343zM195 729q0 -203 38.5 -328t96 -194.5t122 -93t117.5 -23.5 q51 0 117 23.5t123 93t96 194.5t39 328t-39 328t-96 194.5t-122.5 93t-117.5 23.5q-53 0 -117.5 -23.5t-122 -93t-96 -194.5t-38.5 -328z" />
<glyph unicode="1" horiz-adv-x="1138" d="M297 1120v115q45 -2 92 5t87 31.5t66.5 69.5t28.5 117h119v-1458h-123v1184q-61 -37 -129.5 -50.5t-140.5 -13.5z" />
<glyph unicode="2" horiz-adv-x="1138" d="M86 1053q0 98 34 177t96.5 135t150.5 87t196 31q246 0 376 -128t130 -343q0 -96 -39 -188.5t-102.5 -177.5t-144.5 -162.5t-168 -145.5t-172 -123t-154 -96v-4h712v-115h-911v115q53 41 136 94t176.5 119.5t187.5 143.5t170 164t123 183t47 201q0 78 -28 142.5t-75 110.5 t-113.5 70.5t-142.5 24.5t-141 -21.5t-114.5 -63.5t-78 -103.5t-28.5 -141.5q0 -68 24.5 -131t67.5 -114l-164 16q-27 57 -39 118.5t-12 125.5z" />
<glyph unicode="3" horiz-adv-x="1138" d="M61 420l140 45q0 -117 39 -189.5t96 -114.5t123.5 -56.5t120.5 -14.5q68 0 130 20.5t110 59.5t77 95.5t29 129.5q0 111 -38 172.5t-96.5 91t-130 36.5t-139.5 7h-67h-58.5t-62.5 -4v121q31 -2 60.5 -2h60.5h63q182 0 280.5 66.5t98.5 187.5q0 150 -90 223.5t-229 73.5 q-158 0 -245 -84t-104 -235l-139 36q51 209 176 303.5t326 94.5q123 0 208 -37t137 -94.5t75.5 -125t23.5 -130.5q0 -68 -19.5 -125.5t-58 -101.5t-95 -70.5t-132.5 -28.5v-4q10 0 39 -2t66.5 -14.5t77.5 -35t74 -63.5t55.5 -102.5t21.5 -147.5q0 -104 -39 -184t-104.5 -133 t-153.5 -81t-186 -28q-223 0 -360.5 113t-160.5 332z" />
<glyph unicode="4" horiz-adv-x="1138" d="M70 365v114l637 979h135v-979h231v-114h-231v-365h-123v365h-649zM209 479h510v768h-4z" />
<glyph unicode="5" horiz-adv-x="1138" d="M66 393l135 39q16 -154 102 -248t234 -94q72 0 139 21.5t119.5 69.5t83 127t30.5 194q0 86 -22.5 158.5t-66.5 124t-111.5 80t-157.5 28.5q-121 0 -199 -77t-108 -189l-119 8l43 823h770v-127h-655l-27 -485h4q25 45 60.5 75.5t77.5 50t87 28t86 8.5q147 0 239.5 -53.5 t146 -130t73 -166t19.5 -158.5q0 -68 -20.5 -158t-76 -172t-156 -138.5t-259.5 -56.5q-193 0 -316 107.5t-155 310.5z" />
<glyph unicode="6" horiz-adv-x="1138" d="M70 680q0 176 25.5 304t68.5 217t98 144.5t117.5 86t126 41t121.5 10.5q166 0 275.5 -80t154.5 -246l-139 -45q-10 88 -42 138t-75 77t-90 34t-86 7q-123 0 -199 -50t-121 -131t-65.5 -185.5t-30.5 -215.5h4q31 43 72 80t90 62.5t102 40t107 14.5q82 0 168 -24.5 t156.5 -85t115.5 -160t45 -248.5q0 -92 -28.5 -180t-89 -157t-153.5 -111t-225 -42q-143 0 -239 56.5t-154.5 153t-84 224.5t-25.5 271zM209 508q0 -96 30.5 -174t82 -132.5t118 -83t138.5 -28.5q68 0 131 22.5t112 68.5t79 118t30 168q0 72 -16.5 143.5t-56.5 129 t-104.5 93t-160.5 35.5q-84 0 -153.5 -27.5t-121 -76.5t-80 -114.5t-28.5 -141.5z" />
<glyph unicode="7" horiz-adv-x="1138" d="M111 1006v452h938v-115q-117 -145 -210.5 -311t-160 -340t-104 -350t-44.5 -342h-139q18 203 57 374t100.5 327.5t149.5 309t207 320.5h-672v-325h-122z" />
<glyph unicode="8" horiz-adv-x="1138" d="M59 416q0 70 22.5 129t62.5 106t92.5 80t111.5 51v4q-37 6 -81 29t-80.5 63t-61.5 96t-25 126q0 43 15.5 108.5t65.5 126t142 104.5t246 44t246 -44t142.5 -104.5t65.5 -126t15 -108.5q0 -70 -24.5 -126t-61.5 -96t-81 -62.5t-80 -29.5v-4q59 -18 111 -53t92 -83 t62.5 -106.5t22.5 -123.5q0 -111 -37.5 -193t-105.5 -137t-161 -83t-206 -28q-84 0 -174 22.5t-164.5 75t-123 136.5t-48.5 207zM199 397q0 -72 29.5 -129t79.5 -97t118 -60.5t143 -20.5q76 0 143.5 20.5t118 60.5t80 97.5t29.5 128.5q0 141 -94.5 230.5t-276.5 87.5 q-182 2 -276 -87t-94 -231zM240 1102q0 -47 20.5 -95.5t61 -87t102 -64.5t145.5 -26q94 0 158 30t102.5 73t54 89t15.5 81q0 37 -13.5 83t-49 87t-100 68.5t-167.5 27.5q-94 0 -157.5 -23.5t-101.5 -62.5t-54 -86t-16 -94z" />
<glyph unicode="9" horiz-adv-x="1138" d="M70 993q0 92 28.5 180.5t87 157t149.5 110.5t218 42q150 0 249 -53.5t158.5 -145.5t84 -216t24.5 -265q0 -184 -25.5 -317.5t-68.5 -225.5t-98.5 -147.5t-118 -86t-126 -41t-120.5 -10.5q-166 0 -275.5 80t-154.5 246l139 45q10 -88 42 -139t75 -77t89 -33t87 -7 q123 0 198.5 50t121 131t66 185.5t30.5 215.5h-4q-31 -43 -72 -80t-90 -62.5t-102.5 -40t-106.5 -14.5q-82 0 -168 25.5t-156.5 86t-115.5 160t-45 246.5zM209 991q0 -70 16.5 -140.5t56.5 -128.5t104.5 -95t160.5 -37q82 0 152.5 27.5t121.5 76.5t80 116t29 144 q0 86 -31 162t-82 131.5t-117.5 88t-138.5 32.5q-68 0 -131 -22.5t-112.5 -68.5t-79 -118t-29.5 -168z" />
<glyph unicode=":" horiz-adv-x="569" d="M207 0v238h155v-238h-155zM207 731v238h155v-238h-155z" />
<glyph unicode=";" horiz-adv-x="569" d="M186 -272q49 57 69.5 128.5t18.5 143.5h-67v238h155v-222q0 -18 -2 -51t-12 -77t-31.5 -98t-60.5 -114zM207 731v238h155v-238h-155z" />
<glyph unicode="&#x3c;" horiz-adv-x="1228" d="M96 463v110l1037 480v-113l-912 -422l912 -422v-112z" />
<glyph unicode="=" horiz-adv-x="1228" d="M96 268v103h1037v-103h-1037zM96 666v102h1037v-102h-1037z" />
<glyph unicode="&#x3e;" horiz-adv-x="1228" d="M96 -16v112l912 422l-912 422v113l1037 -480v-110z" />
<glyph unicode="?" horiz-adv-x="985" d="M86 1124q0 57 20.5 123t66.5 121t123 91t191 36q90 0 166 -28.5t130.5 -81t85 -127t30.5 -164.5q0 -96 -28.5 -165t-70.5 -122t-91.5 -95t-91.5 -84t-70.5 -90.5t-28.5 -111.5v-70h-123v123q0 66 27 116t67.5 92t88 82t88.5 86t67.5 103.5t26.5 135.5q0 61 -20.5 111 t-57.5 86t-87 56.5t-108 20.5q-59 0 -110 -20.5t-88 -55.5t-58.5 -82t-21.5 -102q0 -35 4 -61.5t11 -51t17.5 -50t22.5 -56.5l-153 45q-16 47 -20.5 95t-4.5 95zM379 0v238h156v-238h-156z" />
<glyph unicode="@" horiz-adv-x="1638" d="M53 735q0 156 63.5 294t172 241.5t254 164t311.5 60.5q143 0 276.5 -45t233.5 -129t160.5 -202t60.5 -261q0 -92 -37 -194.5t-102.5 -190.5t-156.5 -145.5t-199 -57.5q-68 0 -103 39t-29 103h-4q-59 -57 -138 -99.5t-165 -42.5q-68 0 -122 23.5t-92 65.5t-58.5 97.5 t-20.5 118.5q0 104 37 213t105.5 197t167 144.5t221.5 56.5q90 0 147.5 -50.5t87.5 -127.5l56 139h116l-213 -610q-6 -16 -14 -45t-8 -58q0 -25 10 -43t43 -18q86 0 154.5 52t116 127t73 160t25.5 152q0 125 -54.5 223.5t-142.5 166t-200.5 103.5t-227.5 36 q-141 0 -268 -51.5t-223.5 -140.5t-153.5 -213t-57 -267q0 -152 57 -272.5t152.5 -205.5t220.5 -131t262 -46q176 0 330.5 68.5t244.5 205.5h125q-49 -88 -123.5 -157.5t-166 -119t-192.5 -75t-204 -25.5q-176 0 -324.5 55.5t-256 156.5t-168 243.5t-60.5 316.5zM498 590 q0 -94 47 -155.5t137 -61.5q78 0 143.5 57t112.5 137t73.5 167t26.5 147q0 35 -11 69.5t-32.5 61t-53.5 43t-73 16.5q-84 0 -152.5 -51t-116.5 -126t-74.5 -158t-26.5 -146z" />
<glyph unicode="A" horiz-adv-x="1251" d="M-10 0l594 1458h112l566 -1458h-150l-164 438h-641l-174 -438h-143zM354 553h549l-270 719z" />
<glyph unicode="B" horiz-adv-x="1327" d="M133 0v1458h627q143 0 229 -42t132 -98t59.5 -113.5t13.5 -88.5q0 -143 -63.5 -221t-202.5 -104v-5q80 -8 140 -40.5t100 -85t59.5 -118t19.5 -136.5q0 -80 -26.5 -153t-84 -129t-147.5 -90t-215 -34h-641zM272 127h504q88 0 151.5 23.5t103.5 63.5t58.5 89t18.5 103 q0 139 -97.5 225t-283.5 86h-455v-590zM272 844h447q160 0 248 62.5t88 183.5q0 135 -80 188t-244 53h-459v-487z" />
<glyph unicode="C" horiz-adv-x="1327" d="M90 729q0 207 51.5 352.5t136 237.5t195.5 134t229 42q109 0 197 -20.5t158.5 -65.5t126 -116.5t98.5 -174.5l-139 -69q-23 76 -55.5 135t-82 100t-120 62.5t-168.5 21.5q-123 0 -214 -46t-151.5 -130t-91.5 -202t-31 -261q0 -174 38 -296t106.5 -197.5t162 -110.5 t203.5 -35q172 0 266.5 83t143.5 226l133 -71q-78 -197 -222.5 -281t-346.5 -84q-129 0 -243 42t-199 134t-133 237.5t-48 352.5z" />
<glyph unicode="D" horiz-adv-x="1402" d="M164 0v1458h573q111 0 198 -31.5t150.5 -86t107.5 -127t70.5 -153.5t38 -166t11.5 -165q0 -115 -30 -244t-100.5 -236.5t-188 -178t-296.5 -70.5h-534zM303 127h387q135 0 228.5 53t149.5 138t81 192.5t25 218.5q0 100 -23 207.5t-76 195t-140 143.5t-216 56h-416v-1204z " />
<glyph unicode="E" horiz-adv-x="1214" d="M133 0v1458h954v-127h-815v-516h736v-127h-736v-561h858v-127h-997z" />
<glyph unicode="F" horiz-adv-x="1138" d="M133 0v1458h950v-127h-811v-487h725v-127h-725v-717h-139z" />
<glyph unicode="G" horiz-adv-x="1402" d="M90 729q0 147 39 285.5t121 245t205 171t293 64.5q209 0 340 -90t210 -277l-133 -71q-53 164 -150 237.5t-257 73.5q-139 0 -238.5 -57.5t-164 -148.5t-95.5 -205.5t-31 -227.5q0 -115 28 -228.5t88.5 -204.5t153.5 -148.5t222 -57.5q119 0 203 43t137 110.5t76.5 151.5 t23.5 164v80h-540v127h663v-766h-123v211h-4q-27 -68 -73 -115t-104 -76.5t-125 -43t-134 -13.5q-160 0 -278.5 60.5t-196.5 165t-117 243.5t-39 297z" />
<glyph unicode="H" horiz-adv-x="1478" d="M164 0v1458h139v-643h873v643h139v-1458h-139v688h-873v-688h-139z" />
<glyph unicode="I" horiz-adv-x="454" d="M158 0v1458h139v-1458h-139z" />
<glyph unicode="J" horiz-adv-x="985" d="M-16 365v36l139 25v-53q0 -123 71.5 -203t219.5 -80q80 0 132 23.5t84 67.5t45 105.5t13 139.5v1032h139v-1022q0 -106 -22.5 -193t-71.5 -149.5t-128 -96.5t-191 -34q-205 0 -317.5 100.5t-112.5 301.5z" />
<glyph unicode="K" horiz-adv-x="1290" d="M133 0v1458h139v-811l793 811h195l-570 -573l619 -885h-170l-549 784l-318 -321v-463h-139z" />
<glyph unicode="L" horiz-adv-x="1138" d="M164 0v1458h139v-1331h805v-127h-944z" />
<glyph unicode="M" horiz-adv-x="1593" d="M152 0v1458h170l473 -1220h4l473 1220h170v-1458h-139v1192h-5l-454 -1192h-94l-455 1192h-4v-1192h-139z" />
<glyph unicode="N" horiz-adv-x="1441" d="M164 0v1458h137l834 -1225h4v1225h139v-1458h-137l-834 1225h-4v-1225h-139z" />
<glyph unicode="O" horiz-adv-x="1441" d="M90 729q0 145 38 282.5t116 245t196.5 173t280.5 65.5t280.5 -65.5t196.5 -173t116 -245t38 -282.5t-38 -282.5t-116 -245t-196.5 -173t-280.5 -65.5t-280.5 65.5t-196.5 173t-116 245t-38 282.5zM229 729q0 -115 28 -228.5t88.5 -204.5t153.5 -148.5t222 -57.5t222 57.5 t153.5 148.5t88 204.5t27.5 228.5q0 113 -27.5 227.5t-88 205.5t-153.5 148.5t-222 57.5t-222 -57.5t-153.5 -148.5t-88.5 -205.5t-28 -227.5z" />
<glyph unicode="P" horiz-adv-x="1290" d="M164 0v1458h719q106 0 179 -36t118 -93t63.5 -128t18.5 -140q0 -106 -33 -182t-91.5 -124t-139 -70.5t-179.5 -22.5h-516v-662h-139zM303 788h463q356 0 356 273q0 33 -7 79t-35.5 89t-89 72.5t-167.5 29.5h-520v-543z" />
<glyph unicode="Q" horiz-adv-x="1441" d="M90 729q0 145 38 282.5t116 245t196.5 173t280.5 65.5t280.5 -65.5t196.5 -173t116 -245t38 -282.5q0 -131 -31 -256t-94 -229l200 -181l-94 -100l-184 180q-78 -84 -183.5 -132t-244.5 -48q-162 0 -280.5 65.5t-196.5 173t-116 245t-38 282.5zM229 729q0 -115 28 -228.5 t88.5 -204.5t153.5 -148.5t222 -57.5t222 57.5t153.5 148.5t88 204.5t27.5 228.5q0 113 -27.5 227.5t-88 205.5t-153.5 148.5t-222 57.5t-222 -57.5t-153.5 -148.5t-88.5 -205.5t-28 -227.5z" />
<glyph unicode="R" horiz-adv-x="1251" d="M133 0v1458h645q113 0 194 -34.5t132 -91t75.5 -130.5t24.5 -149q0 -188 -114.5 -286.5t-313.5 -113.5l467 -653h-176l-463 647h-332v-647h-139zM272 774h433q111 0 180 25.5t109 65.5t55.5 89.5t15.5 98.5q0 127 -76 202.5t-262 75.5h-455v-557z" />
<glyph unicode="S" horiz-adv-x="1251" d="M82 367l139 71q4 -92 35 -157.5t84 -108.5t127 -62.5t164 -19.5q86 0 158.5 21.5t127 60.5t84 93t29.5 122q0 84 -38 136t-98 87t-139 56.5t-160 43t-160 49t-139 73t-98 116t-38 176.5q0 100 44 170t111.5 115t149.5 65.5t160 20.5q186 0 321 -71.5t199 -254.5l-129 -69 q-45 143 -149.5 205.5t-241.5 62.5q-55 0 -113.5 -15.5t-106 -46t-77 -76.5t-29.5 -106q0 -82 38 -132t98.5 -82.5t139 -53t159.5 -41t160 -47.5t139.5 -71t98 -113.5t37.5 -173.5q0 -217 -141 -332t-397 -115q-111 0 -202 21.5t-161.5 69.5t-118 125t-67.5 188z" />
<glyph unicode="T" horiz-adv-x="1097" d="M23 1331v127h1052v-127h-457v-1331h-139v1331h-456z" />
<glyph unicode="U" horiz-adv-x="1363" d="M145 473v985h140v-981q0 -106 31.5 -180t85 -120t126 -66.5t154.5 -20.5t154.5 20.5t126 66.5t85 120t31.5 180v981h140v-985q0 -125 -38 -220t-109 -159.5t-170 -97.5t-220 -33t-220.5 33t-170 97.5t-108.5 159.5t-38 220z" />
<glyph unicode="V" horiz-adv-x="1214" d="M0 1458h150l456 -1237l465 1237h143l-546 -1458h-123z" />
<glyph unicode="W" horiz-adv-x="1781" d="M6 1458h146l337 -1212h5l350 1212h102l361 -1204h4l321 1204h144l-416 -1458h-113l-354 1176h-4l-338 -1176h-109z" />
<glyph unicode="X" horiz-adv-x="1290" d="M0 0l551 795l-479 663h180l395 -575l400 575h174l-480 -672l549 -786h-174l-471 702l-483 -702h-162z" />
<glyph unicode="Y" horiz-adv-x="1249" d="M6 1458h168l455 -721l454 721h160l-549 -850v-608h-139v608z" />
<glyph unicode="Z" horiz-adv-x="1175" d="M49 0v90l883 1241h-836v127h1030v-90l-882 -1241h874v-127h-1069z" />
<glyph unicode="[" horiz-adv-x="606" d="M190 -385v1950h347v-103h-224v-1745h224v-102h-347z" />
<glyph unicode="\" horiz-adv-x="948" d="M27 1495h108l787 -1532h-109z" />
<glyph unicode="]" horiz-adv-x="606" d="M70 -283h223v1745h-223v103h346v-1950h-346v102z" />
<glyph unicode="^" horiz-adv-x="1228" d="M90 530l471 928h107l471 -928h-117l-408 805l-405 -805h-119z" />
<glyph unicode="_" d="M0 -154h1024v-102h-1024v102z" />
<glyph unicode="`" horiz-adv-x="378" d="M-70 1427h158l227 -284h-104z" />
<glyph unicode="a" horiz-adv-x="985" d="M68 236q0 78 30.5 131t80.5 87.5t113.5 56t127.5 38.5l301 78v98q0 96 -64.5 138t-181.5 42q-123 0 -181 -59.5t-63 -177.5l-139 24q61 315 387 316q137 0 211 -35t107.5 -83t40 -100.5t6.5 -89.5v-481q0 -47 10 -73.5t28.5 -39t45 -14.5t57.5 -2v-102q-57 0 -102 3 t-78 18.5t-52.5 50t-23.5 100.5h-4q-57 -100 -144 -142.5t-200 -42.5q-59 0 -115.5 15.5t-100.5 47.5t-70.5 81t-26.5 117zM190 238q0 -41 18.5 -69t47.5 -45.5t64.5 -25.5t70.5 -8q45 0 101.5 16.5t107.5 53.5t86 97t35 151v112l-354 -98q-74 -20 -125.5 -60t-51.5 -124z " />
<glyph unicode="b" d="M129 0v1458h123v-627h4q33 84 111.5 130.5t177.5 46.5q84 0 158.5 -34t131 -101.5t89 -166t32.5 -227.5q0 -137 -41 -232t-102 -155.5t-135 -88.5t-139 -28q-92 0 -170 42t-113 135h-4v-152h-123zM246 492q0 -72 13 -144t46 -129t89.5 -93t142.5 -36q133 0 215 108 t82 294t-83 293.5t-223 107.5q-88 0 -143 -36t-86 -93t-42 -129t-11 -143z" />
<glyph unicode="c" horiz-adv-x="948" d="M68 492q2 117 35.5 212t96 162.5t148.5 104.5t193 37q45 0 98 -10.5t104.5 -38t97.5 -74.5t79 -121l-125 -25q-37 82 -110 118t-161 36q-63 0 -122.5 -24.5t-106.5 -75t-76 -126t-29 -175.5q0 -102 29 -177t74 -125.5t102.5 -75t116.5 -24.5q98 0 168 46t102 114l125 -31 q-53 -123 -156.5 -183.5t-238.5 -60.5q-92 0 -173 37t-140.5 104.5t-94 163t-36.5 212.5z" />
<glyph unicode="d" d="M68 479q0 129 32.5 227.5t89 166t131 101.5t158.5 34q104 0 174 -41t115 -113h4v604h123v-1458h-123v133h-4q-43 -88 -122 -123t-165 -35q-70 0 -142.5 28t-133 88.5t-99 155.5t-38.5 232zM190 492q0 -186 82 -294t215 -108q86 0 142.5 36t89.5 93t46 129t13 144 t-11 143.5t-42 128.5t-86 93t-143 36q-139 0 -222.5 -107.5t-83.5 -293.5z" />
<glyph unicode="e" d="M68 492q0 125 34.5 222t95 161.5t141.5 98.5t173 34q109 0 190.5 -39t137 -107.5t84 -163t32.5 -202.5h-749v-27q0 -82 18.5 -151.5t57.5 -120t98 -79t141 -28.5q129 0 202 55.5t118 153.5l114 -31q-55 -137 -167.5 -215t-276.5 -78q-92 0 -173 34t-141.5 98.5t-95 161 t-34.5 223.5zM207 598h610q-10 53 -30.5 106.5t-55.5 95.5t-89 67.5t-130 25.5q-66 0 -119 -23.5t-92 -63.5t-62.5 -93.5t-31.5 -114.5z" />
<glyph unicode="f" horiz-adv-x="606" d="M27 881v102h215v311q0 111 67.5 156t173.5 45q16 0 51 -4t58 -16v-117q-18 10 -45 16t-68 6q-63 0 -88.5 -35.5t-25.5 -109.5v-252h215v-102h-215v-881h-123v881h-215z" />
<glyph unicode="g" horiz-adv-x="1062" d="M68 479q0 129 32.5 227.5t89 166t131 101.5t158.5 34q117 0 202 -47.5t126 -139.5h4v162h123v-1026q0 -76 -11.5 -158t-55.5 -150.5t-130 -112.5t-235 -44q-188 0 -299 79t-131 273l125 27q16 -143 98 -203.5t207 -60.5q63 0 120.5 11t98.5 47t65.5 103.5t24.5 178.5v203 l-2 4q-55 -94 -139 -136.5t-185 -42.5q-66 0 -139.5 28t-134.5 88.5t-102 155.5t-41 232zM190 492q0 -186 83 -294t223 -108q88 0 148.5 30t96 81t51 120.5t15.5 151.5q0 80 -12.5 154.5t-46 134t-95 95.5t-157.5 36q-139 0 -222.5 -107.5t-83.5 -293.5z" />
<glyph unicode="h" d="M129 0v1458h123v-620h4q47 94 127 132t166 38q90 0 155.5 -25t107.5 -70t62.5 -108.5t20.5 -138.5v-666h-123v629q0 150 -61.5 207t-178.5 57q-55 0 -106 -18.5t-89 -58.5t-61.5 -100.5t-23.5 -142.5v-573h-123z" />
<glyph unicode="i" horiz-adv-x="380" d="M129 0v983h123v-983h-123zM129 1196v193h123v-193h-123z" />
<glyph unicode="j" horiz-adv-x="380" d="M-115 -344q23 -18 67 -33.5t85 -15.5q66 0 79 42t13 111v1223h123v-1264q0 -127 -58.5 -177t-148.5 -50q-37 0 -82 8t-78 27v129zM129 1196v193h123v-193h-123z" />
<glyph unicode="k" horiz-adv-x="985" d="M129 0v1458h123v-993l536 518h156l-399 -387l438 -596h-149l-377 512l-205 -199v-313h-123z" />
<glyph unicode="l" horiz-adv-x="380" d="M129 0v1458h123v-1458h-123z" />
<glyph unicode="m" horiz-adv-x="1556" d="M139 0v983h123v-158h4q33 78 100.5 130.5t172.5 52.5q111 0 188.5 -52.5t93.5 -162.5h4q39 100 112 157.5t196 57.5q106 0 164.5 -39t85 -95.5t30.5 -118t4 -106.5v-649h-123v635q0 41 -3 87t-21.5 84t-56 62.5t-107.5 24.5q-66 0 -115 -27.5t-83 -75t-51 -110 t-17 -133.5v-547h-123v618q0 47 -5 96.5t-23.5 89.5t-56.5 64.5t-104 24.5q-115 0 -190.5 -94t-75.5 -258v-541h-123z" />
<glyph unicode="n" d="M129 0v983h123v-143h4q47 92 127 130t166 38q90 0 155.5 -25t107.5 -70t62.5 -108.5t20.5 -138.5v-666h-123v629q0 150 -61.5 207t-178.5 57q-55 0 -106 -18.5t-89 -58.5t-61.5 -100.5t-23.5 -142.5v-573h-123z" />
<glyph unicode="o" d="M68 492q0 125 34.5 222t95 161.5t141.5 98.5t173 34t173 -34t141.5 -98.5t95 -162t34.5 -221.5q0 -127 -34.5 -223.5t-95 -161t-141.5 -98.5t-173 -34t-173 34t-141.5 98.5t-95 161t-34.5 223.5zM190 492q0 -96 25 -170t68 -126.5t102 -79t127 -26.5t127 26.5t102 79 t68 126t25 170.5q0 94 -25 168.5t-68 126t-102 79t-127 27.5t-127 -27.5t-102 -79t-68 -126t-25 -168.5z" />
<glyph unicode="p" d="M129 -508v1491h123v-147h4q29 72 106.5 122t182.5 50q80 0 154.5 -32t132 -94.5t91 -156.5t33.5 -217q0 -154 -35.5 -256t-93 -163.5t-129 -87.5t-145.5 -26q-109 0 -185.5 40t-111.5 124h-4v-647h-123zM246 492q0 -72 11 -144t43 -129t89 -93t148 -36q133 0 215 108 t82 294t-82 293.5t-213 107.5q-92 0 -148.5 -36t-89.5 -94t-44 -130t-11 -141z" />
<glyph unicode="q" d="M68 508q0 123 33.5 217t91 156.5t132 94.5t154.5 32q104 0 182 -50.5t107 -121.5h4v147h123v-1491h-123v660h-4q-41 -94 -119 -135.5t-178 -41.5q-74 0 -145.5 26t-129 87.5t-93 163.5t-35.5 256zM190 492q0 -186 82 -294t215 -108q90 0 147.5 36t89.5 93t43 129t11 144 q0 70 -11 141.5t-44 129.5t-89 94t-149 36q-131 0 -213 -107.5t-82 -293.5z" />
<glyph unicode="r" horiz-adv-x="606" d="M147 0v983h123v-137h4q51 78 110.5 120t156.5 42q25 0 45 -1t43 -3v-107q-39 8 -82 8q-143 0 -210 -94t-67 -246v-565h-123z" />
<glyph unicode="s" horiz-adv-x="909" d="M51 236l119 36q41 -106 104.5 -150t180.5 -44q37 0 80 8t77.5 30.5t58 61.5t23.5 101q0 74 -43 108.5t-107.5 53t-140 30.5t-140 39t-107.5 78t-43 149q0 53 21.5 102.5t64.5 86.5t105.5 59.5t144.5 22.5q145 0 240 -49.5t130 -174.5l-117 -28q-33 92 -91 120.5 t-144 28.5q-70 0 -115 -13t-70.5 -35.5t-35.5 -54.5t-10 -69q0 -63 43 -94t107.5 -49.5t140 -32.5t140 -44t107.5 -85t43 -154q0 -61 -24.5 -115.5t-73.5 -95t-120 -64.5t-163 -24q-55 0 -109.5 10.5t-103.5 38t-93 79t-79 133.5z" />
<glyph unicode="t" horiz-adv-x="569" d="M16 881v102h201v420h123v-420h213v-102h-213v-650q0 -29 1 -53t8 -44.5t21.5 -32t41.5 -11.5q43 0 73.5 14.5t61.5 34.5v-123q-92 -41 -162 -41q-33 0 -63.5 9.5t-53 30t-37 53t-14.5 82.5v731h-201z" />
<glyph unicode="u" d="M129 317v666h123v-629q0 -150 61.5 -207t178.5 -57q55 0 106 18.5t89 58.5t61.5 99.5t23.5 143.5v573h123v-983h-123v143h-4q-47 -92 -127 -130t-166 -38q-182 0 -264 95.5t-82 246.5z" />
<glyph unicode="v" horiz-adv-x="833" d="M4 983h121l268 -788h4l305 788h127l-391 -983h-96z" />
<glyph unicode="w" horiz-adv-x="1366" d="M-2 983h127l258 -772h4l246 772h100l246 -772h4l258 772h127l-336 -983h-102l-246 793h-4l-244 -793h-102z" />
<glyph unicode="x" horiz-adv-x="872" d="M8 0l363 516l-324 467h137l256 -371l260 371h138l-328 -467l354 -516h-135l-289 420l-295 -420h-137z" />
<glyph unicode="y" horiz-adv-x="872" d="M8 -344q29 -16 60.5 -32.5t66.5 -16.5q27 0 47.5 14t34.5 34.5t24.5 43t16.5 41.5l100 258l-338 985h115l285 -827h4l324 827h116l-485 -1247q-16 -43 -34.5 -86t-45.5 -78t-64.5 -57.5t-95.5 -22.5q-35 0 -67.5 11.5t-63.5 25.5v127z" />
<glyph unicode="z" horiz-adv-x="757" d="M20 0v84l537 797h-491v102h663v-68l-547 -813h555v-102h-717z" />
<glyph unicode="{" horiz-adv-x="681" d="M170 539v102q53 -2 83 35t44 89t17 107.5t3 90.5v342q0 43 8.5 89t30 84t55 62.5t87.5 24.5h102v-103h-78q-51 0 -66.5 -51t-15.5 -156v-327q0 -41 -8 -91.5t-25.5 -97.5t-45 -87t-68.5 -60v-4q41 -20 68.5 -60.5t45 -87.5t25.5 -97t8 -91v-328q0 -104 15.5 -155.5 t66.5 -51.5h78v-102h-102q-53 0 -87 24.5t-55.5 62.5t-30 84t-8.5 89v342q0 33 -2 89t-16 108.5t-44 89.5t-85 35z" />
<glyph unicode="|" horiz-adv-x="454" d="M176 -438v2048h103v-2048h-103z" />
<glyph unicode="}" horiz-adv-x="681" d="M82 -283h78q51 0 66.5 51.5t15.5 155.5v328q0 41 8 91t25.5 97t45 87t68.5 61v4q-41 20 -68.5 60t-45 87t-25.5 97.5t-8 91.5v327q0 104 -15.5 155.5t-66.5 51.5h-78v103h102q51 0 86 -24.5t56.5 -62.5t30 -84t8.5 -89v-342q0 -35 3 -90.5t17 -107.5t44 -89t83 -35v-102 q-55 2 -85 -35t-44 -89.5t-16 -108.5t-2 -89v-342q0 -43 -8.5 -89t-30 -84t-56 -62.5t-86.5 -24.5h-102v102z" />
<glyph unicode="~" horiz-adv-x="1228" d="M141 463q16 33 40 64.5t54.5 56t68.5 40t83 15.5q61 0 124.5 -21.5t123.5 -48.5q59 -27 110.5 -48t85.5 -21q33 0 57.5 12t46 33.5t41 47t38.5 54.5l73 -74q-25 -35 -50 -66.5t-55 -56t-66.5 -39t-84.5 -14.5q-59 0 -109 21.5t-101 48.5t-106.5 48.5t-127.5 21.5 q-68 0 -105.5 -43t-66.5 -105z" />
<glyph unicode="&#xa1;" horiz-adv-x="569" d="M207 770v238h155v-238h-155zM215 334l18 328h103l18 -328v-785h-139v785z" />
<glyph unicode="&#xa2;" horiz-adv-x="1138" d="M143 492q4 211 105.5 349t283.5 163v225h103v-221q47 -2 98 -15.5t99.5 -41t90.5 -74t72 -113.5l-125 -25q-33 72 -95 111t-140 43v-803q80 12 137 56t86 104l125 -31q-49 -111 -138 -172t-210 -72v-221h-103v226q-82 8 -152.5 49t-122.5 108.5t-82 156.5t-32 198z M266 492q0 -90 22.5 -160t59.5 -120t85 -80t99 -40v797q-53 -10 -101 -41t-85 -81t-58.5 -118.5t-21.5 -156.5z" />
<glyph unicode="&#xa3;" horiz-adv-x="1138" d="M29 143q0 37 17 66t45 47t63.5 27.5t70.5 9.5q61 0 118.5 -12.5t121.5 -40.5q20 35 27.5 76.5t7.5 82.5q-2 53 -22.5 93t-51.5 88h-283v114h189q-41 41 -84 85t-78 94.5t-57.5 108.5t-22.5 128q0 111 48 183.5t121 114.5t155 58.5t149 16.5q88 0 171 -25.5t147.5 -76 t103.5 -127t39 -181.5l-139 -22q0 76 -27 132t-72 95t-104 58.5t-125 19.5q-70 0 -129 -15.5t-103 -46t-70 -80t-26 -116.5q0 -63 32 -118.5t77 -106t94 -94.5t82 -85h313v-114h-243q25 -43 40 -90.5t15 -94.5q0 -53 -13.5 -100t-47.5 -98q20 -10 49.5 -25.5t64.5 -31 t73 -27t73 -11.5q43 0 69.5 17.5t41 49.5t18.5 75t4 94v45l139 -14q0 -82 -13.5 -154t-46 -125t-85 -84t-131.5 -31q-86 0 -167 37t-151 74q-16 -23 -44 -42t-61.5 -34.5t-72.5 -25t-78 -9.5q-45 0 -87 7.5t-73.5 27t-51 52t-19.5 81.5zM152 129q0 -29 29.5 -40t58.5 -11 q51 0 96 15.5t70 49.5q-35 20 -84.5 33.5t-88.5 13.5q-31 0 -56 -10t-25 -51z" />
<glyph unicode="&#xa4;" horiz-adv-x="1138" d="M61 287l111 116q-53 66 -82 145t-29 169q0 92 30 172t83 145l-113 113l78 78l115 -113q66 53 145.5 83t169.5 30q92 0 172 -30t146 -81l112 111l78 -78l-108 -119q53 -66 80.5 -144.5t27.5 -166.5t-28.5 -168t-79.5 -148l108 -114l-78 -78l-108 119q-66 -57 -147.5 -88 t-174.5 -31q-92 0 -174 30.5t-147 88.5l-109 -119zM164 717q0 -84 31.5 -158t87 -129t129 -87t157.5 -32t158 32t129 87t87 129t32 158t-32 157.5t-87 129t-129 87t-158 31.5t-157.5 -31.5t-129 -87t-87 -129t-31.5 -157.5z" />
<glyph unicode="&#xa5;" horiz-adv-x="1138" d="M14 1458h158l397 -717l404 717h151l-409 -725h258v-102h-316l-18 -33v-166h334v-102h-334v-330h-139v330h-334v102h334v166l-19 33h-315v102h258z" />
<glyph unicode="&#xa6;" horiz-adv-x="454" d="M176 -182v512h103v-512h-103zM176 842v512h103v-512h-103z" />
<glyph unicode="&#xa7;" horiz-adv-x="1138" d="M106 -31l99 97q76 -68 170 -114t198 -46q43 0 88.5 10t81 33.5t59 59.5t23.5 85q0 53 -48 97.5t-165 97.5l-262 119q-55 25 -97 51t-69.5 59t-42 75t-14.5 97q0 53 19.5 101.5t51 87.5t75.5 68.5t94 45.5q-74 47 -111 96.5t-37 129.5q0 66 27.5 116.5t74 86.5t104.5 54.5 t120 18.5q111 0 213 -47t180 -123l-92 -92q-72 61 -138.5 98t-162.5 37q-33 0 -66 -8t-59.5 -24.5t-44 -43t-17.5 -63.5q0 -106 97 -150l372 -174q86 -41 137.5 -100.5t51.5 -157.5q0 -102 -59.5 -190t-163.5 -121q78 -37 125 -94.5t47 -147.5q0 -78 -34 -136t-87 -98 t-122 -60.5t-138 -20.5q-74 0 -136.5 12t-119 37t-110.5 60.5t-112 80.5zM266 692q0 -41 19.5 -70.5t48 -53t64.5 -40t67 -30.5l227 -103q33 18 66 45t59.5 58.5t43 68.5t16.5 78q0 61 -39 99t-86 61l-281 129q-31 -18 -66.5 -44t-66.5 -56.5t-51.5 -66.5t-20.5 -75z" />
<glyph unicode="&#xa8;" horiz-adv-x="378" d="M-41 1163v209h123v-209h-123zM297 1163v209h123v-209h-123z" />
<glyph unicode="&#xa9;" horiz-adv-x="1638" d="M53 729q0 160 60.5 299t165 242.5t244 164t296.5 60.5q160 0 299 -60.5t242.5 -165t164 -243.5t60.5 -297t-60.5 -297t-164 -243.5t-242.5 -165t-299 -60.5q-158 0 -297 60.5t-243.5 165t-165 243.5t-60.5 297zM176 729q0 -139 49 -260t135 -211t204 -141t255 -51t255 51 t204 141t135 211t49 260q0 137 -49 259t-135 211t-204 141.5t-255 52.5q-135 0 -252.5 -52.5t-205 -141.5t-136.5 -211t-49 -259zM369 729q0 106 31.5 196.5t93 157t148.5 103.5t198 37q76 0 144.5 -21.5t121.5 -63.5t89 -102.5t46 -138.5h-115q-20 92 -94 157.5t-190 65.5 q-84 0 -149.5 -30.5t-109.5 -84t-67.5 -125t-23.5 -151.5q0 -76 24.5 -146.5t70.5 -126t111.5 -88t147.5 -32.5q115 0 188.5 67.5t91.5 165.5h115q-16 -74 -52 -136t-87 -106t-116.5 -69t-139.5 -25q-109 0 -197 38t-150.5 105.5t-96 158t-33.5 194.5z" />
<glyph unicode="&#xaa;" horiz-adv-x="641" d="M23 1020q0 49 20 82t53 54.5t74 34.5t82 23l190 48v41q0 18 -3 36.5t-18 32.5t-47 23.5t-91 9.5q-147 0 -154 -125l-90 14q39 188 248 189q90 0 139 -20.5t72.5 -50.5t28.5 -61.5t5 -52.5v-288q0 -51 23 -59.5t63 -8.5v-78q-37 0 -66.5 2t-51 12.5t-34.5 33t-17 63.5h-5 q-37 -59 -91 -85t-128 -26q-39 0 -74.5 9.5t-64.5 28t-46 48t-17 70.5zM113 1022q0 -47 37.5 -63.5t82.5 -16.5q37 0 74 12.5t66.5 34t49 49t19.5 58.5v88l-225 -60q-43 -10 -73.5 -32.5t-30.5 -69.5z" />
<glyph unicode="&#xab;" horiz-adv-x="720" d="M43 539l250 383l98 -66l-211 -317l211 -318l-98 -65zM330 539l250 383l98 -66l-211 -317l211 -318l-98 -65z" />
<glyph unicode="&#xac;" horiz-adv-x="1228" d="M96 666v102h1037v-547h-103v445h-934z" />
<glyph unicode="&#xad;" horiz-adv-x="1228" d="M96 467v102h1037v-102h-1037z" />
<glyph unicode="&#xae;" horiz-adv-x="1638" d="M53 729q0 160 60.5 299t165 242.5t244 164t296.5 60.5q160 0 299 -60.5t242.5 -165t164 -243.5t60.5 -297t-60.5 -297t-164 -243.5t-242.5 -165t-299 -60.5q-158 0 -297 60.5t-243.5 165t-165 243.5t-60.5 297zM176 729q0 -139 49 -260t135 -211t204 -141t255 -51t255 51 t204 141t135 211t49 260q0 137 -49 259t-135 211t-204 141.5t-255 52.5q-135 0 -252.5 -52.5t-205 -141.5t-136.5 -211t-49 -259zM541 264v934h338q61 0 113 -15.5t90 -47t60.5 -80.5t22.5 -115q0 -111 -57 -180.5t-164 -79.5l262 -416h-127l-248 416h-188v-416h-102z M643 770h211q45 0 84 6t66.5 24.5t43 52.5t15.5 87q0 90 -60.5 129t-148.5 39h-211v-338z" />
<glyph unicode="&#xaf;" horiz-adv-x="378" d="M-74 1223v90h527v-90h-527z" />
<glyph unicode="&#xb0;" horiz-adv-x="819" d="M117 1190q0 61 22.5 114.5t62.5 93.5t93 62.5t115 22.5q61 0 114.5 -22.5t93 -62.5t62 -93.5t22.5 -114.5t-22.5 -114.5t-62 -93.5t-93 -62.5t-114.5 -22.5t-114.5 22.5t-93.5 62.5t-62.5 93.5t-22.5 114.5zM195 1190q0 -45 16 -84t46 -68.5t69 -46t84 -16.5t83.5 16.5 t67.5 46t46.5 68.5t17.5 84t-17.5 84t-46.5 67.5t-67.5 46t-83.5 17.5t-84 -17.5t-69 -46t-46 -67.5t-16 -84z" />
<glyph unicode="&#xb1;" horiz-adv-x="1228" d="M96 0v102h1037v-102h-1037zM96 559v103h467v374h103v-374h467v-103h-467v-375h-103v375h-467z" />
<glyph unicode="&#xb2;" horiz-adv-x="739" d="M63 1225q0 68 27 116t71 79.5t99 47t115 15.5q43 0 98 -10.5t103.5 -42t82 -89t33.5 -149.5q0 -82 -51 -161t-125 -145.5t-152.5 -118.5t-134.5 -81v2v-4h430v-90h-591v90q35 23 86 55.5t109.5 71.5t116.5 84t104 95t76 104.5t30 111.5q0 86 -58.5 136.5t-152.5 50.5 q-92 0 -152.5 -43t-60.5 -133q0 -41 14.5 -79t42.5 -69l-127 10q-16 35 -24.5 72t-8.5 74z" />
<glyph unicode="&#xb3;" horiz-adv-x="739" d="M41 846l102 26q0 -68 23.5 -107.5t58.5 -61t76 -27.5t76 -6q39 0 77 9t68.5 29.5t49 51.5t18.5 71q0 61 -22.5 96.5t-58.5 51.5t-80 20.5t-89 4.5h-45h-37.5t-40.5 -3v95q20 -2 38.5 -2h39.5h41q111 0 173 38.5t62 104.5q0 88 -57 122t-139 34q-102 0 -152.5 -39 t-60.5 -131l-103 22q35 127 115 182.5t211 55.5q80 0 135 -22.5t89 -56.5t49.5 -75t15.5 -78q0 -80 -50.5 -135t-148.5 -59v-4q10 0 46 -4.5t74 -26t67.5 -65.5t29.5 -121q0 -63 -24.5 -111.5t-67.5 -80.5t-100.5 -48t-120.5 -16q-145 0 -234.5 67.5t-103.5 198.5z" />
<glyph unicode="&#xb4;" horiz-adv-x="378" d="M63 1143l228 284h158l-281 -284h-105z" />
<glyph unicode="&#xb5;" d="M129 -508v1491h123v-629q0 -150 61.5 -207t178.5 -57q55 0 106 18.5t89 58.5t61.5 99.5t23.5 143.5v573h123v-983h-123v156h-4q-47 -102 -127 -141.5t-166 -39.5q-78 0 -133 29t-90 62v-574h-123z" />
<glyph unicode="&#xb6;" horiz-adv-x="1228" d="M135 1063q0 180 117 287.5t340 107.5h444v-1642h-102v1552h-272v-1552h-103v852q-84 0 -160.5 29.5t-135 81.5t-93.5 125t-35 159z" />
<glyph unicode="&#xb7;" horiz-adv-x="569" d="M174 641q0 47 32 79t79 32t78.5 -32t31.5 -79t-31.5 -79t-78.5 -32t-79 32t-32 79z" />
<glyph unicode="&#xb8;" horiz-adv-x="378" d="M45 -387l31 61q23 -12 58.5 -24t74.5 -12q25 0 48.5 5t42.5 17t31.5 30.5t12.5 47.5q0 27 -11 43t-27.5 25.5t-36 13.5t-33.5 4q-29 0 -51.5 -7t-37.5 -14l-30 27l123 170h77l-94 -119l4 -4q16 8 32.5 10t45.5 2q18 0 45 -6t50.5 -22.5t41 -45t17.5 -73.5 q0 -23 -9.5 -52.5t-36 -55t-71.5 -44t-115 -18.5q-55 0 -101 13.5t-81 27.5z" />
<glyph unicode="&#xb9;" horiz-adv-x="739" d="M184 1245v90q29 0 60.5 4t57.5 18.5t43 41t17 69.5h101v-874h-103v688q-41 -23 -85 -30t-91 -7z" />
<glyph unicode="&#xba;" horiz-adv-x="665" d="M45 1176q0 61 18.5 116.5t54.5 98.5t89 67.5t125 24.5t126 -24.5t90 -67.5t54.5 -98.5t18.5 -116.5q2 -63 -15.5 -120t-53.5 -100t-90 -67.5t-128 -24.5t-128 24.5t-90 67.5t-53.5 100t-17.5 120zM135 1171q0 -43 10.5 -83.5t34 -73.5t60 -52.5t92.5 -19.5q55 0 93 19.5 t61.5 52.5t33.5 73.5t10 83.5t-10 85t-33.5 75t-61.5 53.5t-93 20.5t-92 -20.5t-60.5 -53.5t-34 -75t-10.5 -85z" />
<glyph unicode="&#xbb;" horiz-adv-x="720" d="M43 221l211 318l-211 317l98 66l250 -383l-250 -383zM330 221l211 318l-211 317l98 66l250 -383l-250 -383z" />
<glyph unicode="&#xbc;" horiz-adv-x="1708" d="M184 1245v90q29 0 60.5 4t57.5 18.5t43 41t17 69.5h101v-874h-103v688q-41 -23 -85 -30t-91 -7zM287 -37l903 1532h113l-906 -1532h-110zM885 209v78l413 587h111v-575h127v-90h-127v-209h-102v209h-422zM997 299h310v436h-4z" />
<glyph unicode="&#xbd;" horiz-adv-x="1708" d="M184 1245v90q29 0 60.5 4t57.5 18.5t43 41t17 69.5h101v-874h-103v688q-41 -23 -85 -30t-91 -7zM225 -37l903 1532h113l-905 -1532h-111zM909 631q0 68 27 116t71 79.5t99 47t115 15.5q43 0 98 -10.5t103 -42t82 -89t34 -149.5q0 -82 -51 -161t-125 -145.5t-153 -118.5 t-134 -81v2v-4h430v-90h-592v90q33 23 85.5 55.5t110.5 71.5t116.5 84t104.5 95t76 104.5t30 111.5q0 86 -58.5 136.5t-152.5 50.5q-92 0 -152.5 -43t-60.5 -133q0 -41 14 -79t43 -69l-127 10q-16 35 -24.5 72t-8.5 74z" />
<glyph unicode="&#xbe;" horiz-adv-x="1708" d="M33 846l102 26q0 -66 23.5 -105.5t59.5 -61t77 -28.5t76 -7q43 0 80.5 10t67.5 30.5t47.5 50.5t17.5 70q0 61 -26 96.5t-64 53.5q-35 18 -75 21.5t-85 3.5h-45h-38t-40 -2v94q20 -2 38.5 -2h39.5h41q111 0 173 39t62 102q0 82 -54 119t-142 37q-193 0 -215 -170l-103 22 q35 127 115 182.5t213 55.5q80 0 135 -22.5t89 -56.5t49.5 -75t15.5 -78q0 -80 -50.5 -135t-148.5 -59v-4q10 0 45 -4.5t74 -26t68.5 -65.5t29.5 -121q0 -63 -25.5 -111.5t-68.5 -80.5t-100.5 -48t-120.5 -16q-143 0 -233.5 67.5t-104.5 198.5zM410 -37l903 1532h112 l-905 -1532h-110zM973 209v78l413 587h111v-575h127v-90h-127v-209h-102v209h-422zM1085 299h310v436h-4z" />
<glyph unicode="&#xbf;" horiz-adv-x="985" d="M86 -86q0 96 28.5 164.5t70.5 122t91.5 95.5t91.5 84t70.5 89t28.5 113v69h123v-123q0 -66 -26.5 -116t-67.5 -91.5t-88.5 -81.5t-88 -86.5t-67.5 -103.5t-27 -135q0 -61 20.5 -111.5t57.5 -86t86 -56t109 -20.5q59 0 110 20.5t88 55t58.5 81.5t21.5 103q0 35 -4 61.5 t-11 51t-17.5 50t-22.5 56.5l153 -45q16 -47 20.5 -95.5t4.5 -95.5q0 -59 -20.5 -123.5t-66.5 -120t-124 -91t-190 -35.5q-90 0 -166 28.5t-130.5 80.5t-85 127t-30.5 165zM451 770v238h155v-238h-155z" />
<glyph unicode="&#xc0;" horiz-adv-x="1251" d="M-10 0l594 1458h112l566 -1458h-150l-164 438h-641l-174 -438h-143zM354 553h549l-270 719zM366 1830h158l227 -284h-104z" />
<glyph unicode="&#xc1;" horiz-adv-x="1251" d="M-10 0l594 1458h112l566 -1458h-150l-164 438h-641l-174 -438h-143zM354 553h549l-270 719zM499 1546l228 284h158l-281 -284h-105z" />
<glyph unicode="&#xc2;" horiz-adv-x="1251" d="M-10 0l594 1458h112l566 -1458h-150l-164 438h-641l-174 -438h-143zM325 1546l230 284h137l233 -284h-133l-168 209l-170 -209h-129zM354 553h549l-270 719z" />
<glyph unicode="&#xc3;" horiz-adv-x="1251" d="M-10 0l594 1458h112l566 -1458h-150l-164 438h-641l-174 -438h-143zM305 1568q8 63 31.5 103.5t52.5 62t54.5 28.5t35.5 7q41 0 81 -14.5t77 -30.5t71.5 -29.5t69.5 -13.5q45 0 61.5 26.5t28.5 69.5h78q-4 -35 -15.5 -70.5t-33 -64.5t-51 -46t-68.5 -17q-41 0 -80 14 t-76 33q-39 16 -73.5 28.5t-69.5 12.5q-45 0 -66.5 -32t-31.5 -67h-76zM354 553h549l-270 719z" />
<glyph unicode="&#xc4;" horiz-adv-x="1251" d="M-10 0l594 1458h112l566 -1458h-150l-164 438h-641l-174 -438h-143zM354 553h549l-270 719zM395 1566v209h123v-209h-123zM733 1566v209h123v-209h-123z" />
<glyph unicode="&#xc5;" horiz-adv-x="1251" d="M-10 0l594 1458h112l566 -1458h-150l-164 438h-641l-174 -438h-143zM354 553h549l-270 719zM437 1702q0 86 58 145.5t144 59.5t145.5 -59.5t59.5 -145.5q0 -41 -16.5 -78t-44 -64.5t-64.5 -44t-80 -16.5t-79.5 16.5t-64.5 44t-43 64.5t-15 78zM502 1702q0 -57 40 -97 t97 -40t98.5 40t41.5 97q0 59 -41 99t-99 40q-57 0 -97 -40t-40 -99z" />
<glyph unicode="&#xc6;" horiz-adv-x="2048" d="M-31 0l936 1458h1022v-127h-842v-516h758v-127h-758v-561h879v-127h-1018v422h-553l-262 -422h-162zM479 549h467v745h-4z" />
<glyph unicode="&#xc7;" horiz-adv-x="1327" d="M90 729q0 207 51.5 352.5t136 237.5t195.5 134t229 42q109 0 197 -20.5t158.5 -65.5t126 -116.5t98.5 -174.5l-139 -69q-23 76 -55.5 135t-82 100t-120 62.5t-168.5 21.5q-123 0 -214 -46t-151.5 -130t-91.5 -202t-31 -261q0 -174 38 -296t106.5 -197.5t162 -110.5 t203.5 -35q172 0 266.5 83t143.5 226l133 -71q-72 -184 -204 -269.5t-314 -93.5l-66 -84l4 -4q16 8 33 10t45 2q18 0 45 -6t50.5 -22.5t41 -45t17.5 -73.5q0 -23 -9.5 -52.5t-36 -55t-71.5 -44t-115 -18.5q-55 0 -101 13.5t-81 27.5l31 61q23 -12 58.5 -24t74.5 -12 q25 0 48.5 5t43 17t31.5 30.5t12 47.5q0 27 -11 43t-27.5 25.5t-36 13.5t-33.5 4q-29 0 -51.5 -7t-36.5 -14l-31 27l96 135q-125 2 -234.5 47t-190.5 137.5t-127 235.5t-46 344z" />
<glyph unicode="&#xc8;" horiz-adv-x="1214" d="M133 0v1458h954v-127h-815v-516h736v-127h-736v-561h858v-127h-997zM348 1830h158l227 -284h-104z" />
<glyph unicode="&#xc9;" horiz-adv-x="1214" d="M133 0v1458h954v-127h-815v-516h736v-127h-736v-561h858v-127h-997zM481 1546l228 284h158l-281 -284h-105z" />
<glyph unicode="&#xca;" horiz-adv-x="1214" d="M133 0v1458h954v-127h-815v-516h736v-127h-736v-561h858v-127h-997zM307 1546l230 284h137l233 -284h-133l-168 209l-170 -209h-129z" />
<glyph unicode="&#xcb;" horiz-adv-x="1214" d="M133 0v1458h954v-127h-815v-516h736v-127h-736v-561h858v-127h-997zM377 1566v209h123v-209h-123zM715 1566v209h123v-209h-123z" />
<glyph unicode="&#xcc;" horiz-adv-x="454" d="M-31 1830h158l227 -284h-104zM158 0v1458h139v-1458h-139z" />
<glyph unicode="&#xcd;" horiz-adv-x="454" d="M102 1546l228 284h158l-281 -284h-105zM158 0v1458h139v-1458h-139z" />
<glyph unicode="&#xce;" horiz-adv-x="454" d="M-72 1546l230 284h137l233 -284h-133l-168 209l-170 -209h-129zM158 0v1458h139v-1458h-139z" />
<glyph unicode="&#xcf;" horiz-adv-x="454" d="M-2 1566v209h123v-209h-123zM158 0v1458h139v-1458h-139zM336 1566v209h123v-209h-123z" />
<glyph unicode="&#xd0;" horiz-adv-x="1402" d="M51 754v90h113v614h598q100 0 180 -31.5t141.5 -86t104.5 -127t70.5 -153.5t41 -166t13.5 -165q0 -111 -30 -239t-101.5 -236.5t-189.5 -181t-294 -72.5h-534v754h-113zM303 127h445q115 0 195.5 56.5t131.5 143.5t75 193.5t24 208.5q0 100 -24 207.5t-75 195t-132 143.5 t-195 56h-445v-487h414v-90h-414v-627z" />
<glyph unicode="&#xd1;" horiz-adv-x="1441" d="M164 0v1458h137l834 -1225h4v1225h139v-1458h-137l-834 1225h-4v-1225h-139zM401 1568q8 63 31.5 103.5t52.5 62t54.5 28.5t35.5 7q41 0 81 -14.5t77 -30.5t71.5 -29.5t69.5 -13.5q45 0 61.5 26.5t28.5 69.5h78q-4 -35 -15.5 -70.5t-33 -64.5t-51 -46t-68.5 -17 q-41 0 -80 14t-76 33q-39 16 -73.5 28.5t-69.5 12.5q-45 0 -66.5 -32t-31.5 -67h-76z" />
<glyph unicode="&#xd2;" horiz-adv-x="1441" d="M90 729q0 145 38 282.5t116 245t196.5 173t280.5 65.5t280.5 -65.5t196.5 -173t116 -245t38 -282.5t-38 -282.5t-116 -245t-196.5 -173t-280.5 -65.5t-280.5 65.5t-196.5 173t-116 245t-38 282.5zM229 729q0 -115 28 -228.5t88.5 -204.5t153.5 -148.5t222 -57.5t222 57.5 t153.5 148.5t88 204.5t27.5 228.5q0 113 -27.5 227.5t-88 205.5t-153.5 148.5t-222 57.5t-222 -57.5t-153.5 -148.5t-88.5 -205.5t-28 -227.5zM462 1830h158l227 -284h-104z" />
<glyph unicode="&#xd3;" horiz-adv-x="1441" d="M90 729q0 145 38 282.5t116 245t196.5 173t280.5 65.5t280.5 -65.5t196.5 -173t116 -245t38 -282.5t-38 -282.5t-116 -245t-196.5 -173t-280.5 -65.5t-280.5 65.5t-196.5 173t-116 245t-38 282.5zM229 729q0 -115 28 -228.5t88.5 -204.5t153.5 -148.5t222 -57.5t222 57.5 t153.5 148.5t88 204.5t27.5 228.5q0 113 -27.5 227.5t-88 205.5t-153.5 148.5t-222 57.5t-222 -57.5t-153.5 -148.5t-88.5 -205.5t-28 -227.5zM595 1546l228 284h158l-281 -284h-105z" />
<glyph unicode="&#xd4;" horiz-adv-x="1441" d="M90 729q0 145 38 282.5t116 245t196.5 173t280.5 65.5t280.5 -65.5t196.5 -173t116 -245t38 -282.5t-38 -282.5t-116 -245t-196.5 -173t-280.5 -65.5t-280.5 65.5t-196.5 173t-116 245t-38 282.5zM229 729q0 -115 28 -228.5t88.5 -204.5t153.5 -148.5t222 -57.5t222 57.5 t153.5 148.5t88 204.5t27.5 228.5q0 113 -27.5 227.5t-88 205.5t-153.5 148.5t-222 57.5t-222 -57.5t-153.5 -148.5t-88.5 -205.5t-28 -227.5zM421 1546l230 284h137l233 -284h-133l-168 209l-170 -209h-129z" />
<glyph unicode="&#xd5;" horiz-adv-x="1441" d="M90 729q0 145 38 282.5t116 245t196.5 173t280.5 65.5t280.5 -65.5t196.5 -173t116 -245t38 -282.5t-38 -282.5t-116 -245t-196.5 -173t-280.5 -65.5t-280.5 65.5t-196.5 173t-116 245t-38 282.5zM229 729q0 -115 28 -228.5t88.5 -204.5t153.5 -148.5t222 -57.5t222 57.5 t153.5 148.5t88 204.5t27.5 228.5q0 113 -27.5 227.5t-88 205.5t-153.5 148.5t-222 57.5t-222 -57.5t-153.5 -148.5t-88.5 -205.5t-28 -227.5zM401 1568q8 63 31.5 103.5t52.5 62t54.5 28.5t35.5 7q41 0 81 -14.5t77 -30.5t71.5 -29.5t69.5 -13.5q45 0 61.5 26.5t28.5 69.5 h78q-4 -35 -15.5 -70.5t-33 -64.5t-51 -46t-68.5 -17q-41 0 -80 14t-76 33q-39 16 -73.5 28.5t-69.5 12.5q-45 0 -66.5 -32t-31.5 -67h-76z" />
<glyph unicode="&#xd6;" horiz-adv-x="1441" d="M90 729q0 145 38 282.5t116 245t196.5 173t280.5 65.5t280.5 -65.5t196.5 -173t116 -245t38 -282.5t-38 -282.5t-116 -245t-196.5 -173t-280.5 -65.5t-280.5 65.5t-196.5 173t-116 245t-38 282.5zM229 729q0 -115 28 -228.5t88.5 -204.5t153.5 -148.5t222 -57.5t222 57.5 t153.5 148.5t88 204.5t27.5 228.5q0 113 -27.5 227.5t-88 205.5t-153.5 148.5t-222 57.5t-222 -57.5t-153.5 -148.5t-88.5 -205.5t-28 -227.5zM491 1566v209h123v-209h-123zM829 1566v209h123v-209h-123z" />
<glyph unicode="&#xd7;" horiz-adv-x="1228" d="M152 129l391 389l-391 389l73 74l389 -387l390 387l73 -74l-391 -389l391 -389l-73 -74l-390 391l-389 -391z" />
<glyph unicode="&#xd8;" horiz-adv-x="1441" d="M90 729q0 145 38 282.5t116 245t196.5 173t280.5 65.5q139 0 244.5 -48t179.5 -128l125 151l82 -67l-140 -168q72 -104 106 -235.5t34 -270.5q0 -145 -38 -282.5t-116 -245t-196.5 -173t-280.5 -65.5q-135 0 -239.5 46t-180.5 126l-123 -147l-84 65l139 168 q-74 104 -108.5 236.5t-34.5 271.5zM229 729q0 -104 23.5 -206.5t73.5 -190.5l731 882q-59 70 -142.5 112t-193.5 42q-129 0 -222 -57.5t-153.5 -148.5t-88.5 -205.5t-28 -227.5zM389 240q57 -68 139 -109t193 -41q129 0 222 57.5t153.5 148.5t88 204.5t27.5 228.5 q0 102 -22.5 204.5t-71.5 188.5z" />
<glyph unicode="&#xd9;" horiz-adv-x="1363" d="M145 473v985h140v-981q0 -106 31.5 -180t85 -120t126 -66.5t154.5 -20.5t154.5 20.5t126 66.5t85 120t31.5 180v981h140v-985q0 -125 -38 -220t-109 -159.5t-170 -97.5t-220 -33t-220.5 33t-170 97.5t-108.5 159.5t-38 220zM424 1830h158l227 -284h-104z" />
<glyph unicode="&#xda;" horiz-adv-x="1363" d="M145 473v985h140v-981q0 -106 31.5 -180t85 -120t126 -66.5t154.5 -20.5t154.5 20.5t126 66.5t85 120t31.5 180v981h140v-985q0 -125 -38 -220t-109 -159.5t-170 -97.5t-220 -33t-220.5 33t-170 97.5t-108.5 159.5t-38 220zM557 1546l228 284h158l-281 -284h-105z" />
<glyph unicode="&#xdb;" horiz-adv-x="1363" d="M145 473v985h140v-981q0 -106 31.5 -180t85 -120t126 -66.5t154.5 -20.5t154.5 20.5t126 66.5t85 120t31.5 180v981h140v-985q0 -125 -38 -220t-109 -159.5t-170 -97.5t-220 -33t-220.5 33t-170 97.5t-108.5 159.5t-38 220zM383 1546l230 284h137l233 -284h-133l-168 209 l-170 -209h-129z" />
<glyph unicode="&#xdc;" horiz-adv-x="1363" d="M145 473v985h140v-981q0 -106 31.5 -180t85 -120t126 -66.5t154.5 -20.5t154.5 20.5t126 66.5t85 120t31.5 180v981h140v-985q0 -125 -38 -220t-109 -159.5t-170 -97.5t-220 -33t-220.5 33t-170 97.5t-108.5 159.5t-38 220zM453 1566v209h123v-209h-123zM791 1566v209 h123v-209h-123z" />
<glyph unicode="&#xdd;" horiz-adv-x="1249" d="M6 1458h168l455 -721l454 721h160l-549 -850v-608h-139v608zM499 1546l228 284h158l-281 -284h-105z" />
<glyph unicode="&#xde;" horiz-adv-x="1290" d="M164 0v1458h139v-231h606q88 0 154.5 -34t111 -89t66 -127t21.5 -148q0 -102 -36 -178t-91.5 -125t-124 -72.5t-133.5 -23.5h-574v-430h-139zM303 557h561q39 0 85 15.5t84 48t63.5 85t25.5 123.5q0 33 -6 79t-30.5 89t-71.5 73t-129 30h-582v-543z" />
<glyph unicode="&#xdf;" horiz-adv-x="950" d="M106 0v1077q0 195 89.5 306.5t275.5 111.5q88 0 152.5 -25.5t106.5 -71.5t62.5 -108.5t20.5 -134.5q0 -123 -52 -197.5t-175 -115.5v-4q92 -18 152.5 -62.5t96 -106t51 -137t15.5 -157.5q0 -80 -19.5 -155t-60.5 -132t-104.5 -91t-151.5 -34q-51 0 -112.5 18.5 t-102.5 43.5v141q53 -35 104.5 -61.5t118.5 -26.5q61 0 100.5 30.5t63 76.5t32.5 101.5t9 102.5q0 199 -110.5 288t-294.5 89h-51v115h40q59 0 118 11t106 41t75.5 79t28.5 127q0 106 -54 173.5t-169 67.5q-104 0 -171 -69.5t-67 -220.5v-1090h-123z" />
<glyph unicode="&#xe0;" horiz-adv-x="985" d="M68 236q0 78 30.5 131t80.5 87.5t113.5 56t127.5 38.5l301 78v98q0 96 -64.5 138t-181.5 42q-123 0 -181 -59.5t-63 -177.5l-139 24q61 315 387 316q137 0 211 -35t107.5 -83t40 -100.5t6.5 -89.5v-481q0 -47 10 -73.5t28.5 -39t45 -14.5t57.5 -2v-102q-57 0 -102 3 t-78 18.5t-52.5 50t-23.5 100.5h-4q-57 -100 -144 -142.5t-200 -42.5q-59 0 -115.5 15.5t-100.5 47.5t-70.5 81t-26.5 117zM190 238q0 -41 18.5 -69t47.5 -45.5t64.5 -25.5t70.5 -8q45 0 101.5 16.5t107.5 53.5t86 97t35 151v112l-354 -98q-74 -20 -125.5 -60t-51.5 -124z M233 1427h158l227 -284h-104z" />
<glyph unicode="&#xe1;" horiz-adv-x="985" d="M68 236q0 78 30.5 131t80.5 87.5t113.5 56t127.5 38.5l301 78v98q0 96 -64.5 138t-181.5 42q-123 0 -181 -59.5t-63 -177.5l-139 24q61 315 387 316q137 0 211 -35t107.5 -83t40 -100.5t6.5 -89.5v-481q0 -47 10 -73.5t28.5 -39t45 -14.5t57.5 -2v-102q-57 0 -102 3 t-78 18.5t-52.5 50t-23.5 100.5h-4q-57 -100 -144 -142.5t-200 -42.5q-59 0 -115.5 15.5t-100.5 47.5t-70.5 81t-26.5 117zM190 238q0 -41 18.5 -69t47.5 -45.5t64.5 -25.5t70.5 -8q45 0 101.5 16.5t107.5 53.5t86 97t35 151v112l-354 -98q-74 -20 -125.5 -60t-51.5 -124z M366 1143l228 284h158l-281 -284h-105z" />
<glyph unicode="&#xe2;" horiz-adv-x="985" d="M68 236q0 78 30.5 131t80.5 87.5t113.5 56t127.5 38.5l301 78v98q0 96 -64.5 138t-181.5 42q-123 0 -181 -59.5t-63 -177.5l-139 24q61 315 387 316q137 0 211 -35t107.5 -83t40 -100.5t6.5 -89.5v-481q0 -47 10 -73.5t28.5 -39t45 -14.5t57.5 -2v-102q-57 0 -102 3 t-78 18.5t-52.5 50t-23.5 100.5h-4q-57 -100 -144 -142.5t-200 -42.5q-59 0 -115.5 15.5t-100.5 47.5t-70.5 81t-26.5 117zM190 238q0 -41 18.5 -69t47.5 -45.5t64.5 -25.5t70.5 -8q45 0 101.5 16.5t107.5 53.5t86 97t35 151v112l-354 -98q-74 -20 -125.5 -60t-51.5 -124z M192 1143l230 284h137l233 -284h-133l-168 209l-170 -209h-129z" />
<glyph unicode="&#xe3;" horiz-adv-x="985" d="M68 236q0 78 30.5 131t80.5 87.5t113.5 56t127.5 38.5l301 78v98q0 96 -64.5 138t-181.5 42q-123 0 -181 -59.5t-63 -177.5l-139 24q61 315 387 316q137 0 211 -35t107.5 -83t40 -100.5t6.5 -89.5v-481q0 -47 10 -73.5t28.5 -39t45 -14.5t57.5 -2v-102q-57 0 -102 3 t-78 18.5t-52.5 50t-23.5 100.5h-4q-57 -100 -144 -142.5t-200 -42.5q-59 0 -115.5 15.5t-100.5 47.5t-70.5 81t-26.5 117zM172 1165q8 63 31.5 103.5t52.5 62t54.5 28.5t35.5 7q41 0 81 -14.5t77 -30.5t71.5 -29.5t69.5 -13.5q45 0 61.5 26.5t28.5 69.5h78 q-4 -35 -15.5 -70.5t-33 -64.5t-51 -46t-68.5 -17q-41 0 -80 14t-76 33q-39 16 -73.5 28.5t-69.5 12.5q-45 0 -66.5 -32t-31.5 -67h-76zM190 238q0 -41 18.5 -69t47.5 -45.5t64.5 -25.5t70.5 -8q45 0 101.5 16.5t107.5 53.5t86 97t35 151v112l-354 -98q-74 -20 -125.5 -60 t-51.5 -124z" />
<glyph unicode="&#xe4;" horiz-adv-x="985" d="M68 236q0 78 30.5 131t80.5 87.5t113.5 56t127.5 38.5l301 78v98q0 96 -64.5 138t-181.5 42q-123 0 -181 -59.5t-63 -177.5l-139 24q61 315 387 316q137 0 211 -35t107.5 -83t40 -100.5t6.5 -89.5v-481q0 -47 10 -73.5t28.5 -39t45 -14.5t57.5 -2v-102q-57 0 -102 3 t-78 18.5t-52.5 50t-23.5 100.5h-4q-57 -100 -144 -142.5t-200 -42.5q-59 0 -115.5 15.5t-100.5 47.5t-70.5 81t-26.5 117zM190 238q0 -41 18.5 -69t47.5 -45.5t64.5 -25.5t70.5 -8q45 0 101.5 16.5t107.5 53.5t86 97t35 151v112l-354 -98q-74 -20 -125.5 -60t-51.5 -124z M262 1163v209h123v-209h-123zM600 1163v209h123v-209h-123z" />
<glyph unicode="&#xe5;" horiz-adv-x="985" d="M68 236q0 78 30.5 131t80.5 87.5t113.5 56t127.5 38.5l301 78v98q0 96 -64.5 138t-181.5 42q-123 0 -181 -59.5t-63 -177.5l-139 24q61 315 387 316q137 0 211 -35t107.5 -83t40 -100.5t6.5 -89.5v-481q0 -47 10 -73.5t28.5 -39t45 -14.5t57.5 -2v-102q-57 0 -102 3 t-78 18.5t-52.5 50t-23.5 100.5h-4q-57 -100 -144 -142.5t-200 -42.5q-59 0 -115.5 15.5t-100.5 47.5t-70.5 81t-26.5 117zM190 238q0 -41 18.5 -69t47.5 -45.5t64.5 -25.5t70.5 -8q45 0 101.5 16.5t107.5 53.5t86 97t35 151v112l-354 -98q-74 -20 -125.5 -60t-51.5 -124z M289 1319q0 86 58 145.5t144 59.5t145.5 -59.5t59.5 -145.5q0 -41 -16.5 -78t-44 -64.5t-64.5 -44t-80 -16.5t-79.5 16.5t-64.5 44t-43 64.5t-15 78zM354 1319q0 -57 40 -97t97 -40t98.5 40t41.5 97q0 59 -41 99t-99 40q-57 0 -97 -40t-40 -99z" />
<glyph unicode="&#xe6;" horiz-adv-x="1669" d="M68 236q0 78 30.5 130t80.5 86.5t113.5 56t127.5 40.5l319 78v98q0 102 -68.5 141t-187.5 39q-129 0 -188 -59.5t-64 -177.5l-139 24q61 315 387 316q119 0 209 -31t150 -127q59 78 148 118t188 40q109 0 190.5 -39t136.5 -107.5t84 -163t33 -202.5h-756v-27 q0 -82 18.5 -151.5t57.5 -120t98.5 -79t141.5 -28.5q133 0 206.5 55.5t118.5 153.5l115 -31q-55 -137 -167 -215t-267 -78q-129 0 -236.5 56.5t-154.5 167.5q-72 -121 -177.5 -172.5t-234.5 -51.5q-59 0 -115.5 15.5t-100.5 47.5t-70.5 81t-26.5 117zM190 238 q0 -41 18.5 -69t45.5 -45.5t58.5 -25.5t60.5 -8q68 0 133 19.5t117.5 59.5t84 100.5t31.5 140.5v110l-372 -98q-74 -20 -125.5 -60t-51.5 -124zM862 598h617q-10 53 -27.5 106.5t-51.5 95.5t-89.5 67.5t-136.5 25.5q-68 0 -122.5 -23.5t-94 -63.5t-63.5 -93.5t-32 -114.5z " />
<glyph unicode="&#xe7;" horiz-adv-x="948" d="M68 492q2 117 35.5 212t96 162.5t148.5 104.5t193 37q45 0 98 -10.5t104.5 -38t97.5 -74.5t79 -121l-125 -25q-37 82 -110 118t-161 36q-63 0 -122.5 -24.5t-106.5 -75t-76 -126t-29 -175.5q0 -102 29 -177t74 -125.5t102.5 -75t116.5 -24.5q98 0 168 46t102 114l125 -31 q-47 -109 -133 -168t-201 -71l-77 -99l4 -4q16 8 32.5 10t45.5 2q18 0 44.5 -6t50 -22.5t41 -45t17.5 -73.5q0 -23 -9 -52.5t-36 -55t-72 -44t-114 -18.5q-55 0 -101.5 13.5t-81.5 27.5l31 61q23 -12 58.5 -24t74.5 -12q25 0 48.5 5t43 17t31.5 30.5t12 47.5q0 27 -11 43 t-27.5 25.5t-36 13.5t-33.5 4q-29 0 -51.5 -7t-36.5 -14l-31 27l107 147q-90 2 -167 41t-134.5 105.5t-91 160t-35.5 208.5z" />
<glyph unicode="&#xe8;" d="M68 492q0 125 34.5 222t95 161.5t141.5 98.5t173 34q109 0 190.5 -39t137 -107.5t84 -163t32.5 -202.5h-749v-27q0 -82 18.5 -151.5t57.5 -120t98 -79t141 -28.5q129 0 202 55.5t118 153.5l114 -31q-55 -137 -167.5 -215t-276.5 -78q-92 0 -173 34t-141.5 98.5t-95 161 t-34.5 223.5zM207 598h610q-10 53 -30.5 106.5t-55.5 95.5t-89 67.5t-130 25.5q-66 0 -119 -23.5t-92 -63.5t-62.5 -93.5t-31.5 -114.5zM254 1427h158l227 -284h-104z" />
<glyph unicode="&#xe9;" d="M68 492q0 125 34.5 222t95 161.5t141.5 98.5t173 34q109 0 190.5 -39t137 -107.5t84 -163t32.5 -202.5h-749v-27q0 -82 18.5 -151.5t57.5 -120t98 -79t141 -28.5q129 0 202 55.5t118 153.5l114 -31q-55 -137 -167.5 -215t-276.5 -78q-92 0 -173 34t-141.5 98.5t-95 161 t-34.5 223.5zM207 598h610q-10 53 -30.5 106.5t-55.5 95.5t-89 67.5t-130 25.5q-66 0 -119 -23.5t-92 -63.5t-62.5 -93.5t-31.5 -114.5zM387 1143l228 284h158l-281 -284h-105z" />
<glyph unicode="&#xea;" d="M68 492q0 125 34.5 222t95 161.5t141.5 98.5t173 34q109 0 190.5 -39t137 -107.5t84 -163t32.5 -202.5h-749v-27q0 -82 18.5 -151.5t57.5 -120t98 -79t141 -28.5q129 0 202 55.5t118 153.5l114 -31q-55 -137 -167.5 -215t-276.5 -78q-92 0 -173 34t-141.5 98.5t-95 161 t-34.5 223.5zM207 598h610q-10 53 -30.5 106.5t-55.5 95.5t-89 67.5t-130 25.5q-66 0 -119 -23.5t-92 -63.5t-62.5 -93.5t-31.5 -114.5zM213 1143l230 284h137l233 -284h-133l-168 209l-170 -209h-129z" />
<glyph unicode="&#xeb;" d="M68 492q0 125 34.5 222t95 161.5t141.5 98.5t173 34q109 0 190.5 -39t137 -107.5t84 -163t32.5 -202.5h-749v-27q0 -82 18.5 -151.5t57.5 -120t98 -79t141 -28.5q129 0 202 55.5t118 153.5l114 -31q-55 -137 -167.5 -215t-276.5 -78q-92 0 -173 34t-141.5 98.5t-95 161 t-34.5 223.5zM207 598h610q-10 53 -30.5 106.5t-55.5 95.5t-89 67.5t-130 25.5q-66 0 -119 -23.5t-92 -63.5t-62.5 -93.5t-31.5 -114.5zM283 1163v209h123v-209h-123zM621 1163v209h123v-209h-123z" />
<glyph unicode="&#xec;" horiz-adv-x="569" d="M-68 1427h158l227 -284h-104z" />
<glyph unicode="&#xed;" horiz-adv-x="569" d="M65 1143l228 284h158l-281 -284h-105z" />
<glyph unicode="&#xee;" horiz-adv-x="569" d="M-109 1143l230 284h137l233 -284h-133l-168 209l-170 -209h-129z" />
<glyph unicode="&#xef;" horiz-adv-x="569" d="M-39 1163v209h123v-209h-123zM299 1163v209h123v-209h-123z" />
<glyph unicode="&#xf0;" d="M68 492q0 125 34.5 222t95 161.5t141.5 98.5t173 34q86 0 137 -29t103 -72h4q-61 104 -148.5 197.5t-185.5 175.5l-174 -119l-60 58l166 110q-29 25 -60.5 46.5t-62.5 43.5l76 76q39 -23 75 -47.5t71 -50.5l165 110l60 -53l-162 -111q94 -78 174 -163.5t139.5 -185 t93 -214t33.5 -250.5q0 -274 -116.5 -414.5t-327.5 -140.5q-92 0 -173 34t-141.5 98.5t-95 161t-34.5 223.5zM190 492q0 -106 25 -182.5t68 -125.5t102 -71.5t127 -22.5q70 0 128 22.5t101 71.5t68 125.5t25 182.5t-25 182t-68 125t-101 71.5t-128 22.5q-68 0 -127 -22.5 t-102 -71.5t-68 -125t-25 -182z" />
<glyph unicode="&#xf1;" d="M129 0v983h123v-143h4q47 92 127 130t166 38q90 0 155.5 -25t107.5 -70t62.5 -108.5t20.5 -138.5v-666h-123v629q0 150 -61.5 207t-178.5 57q-55 0 -106 -18.5t-89 -58.5t-61.5 -100.5t-23.5 -142.5v-573h-123zM193 1165q8 63 31.5 103.5t52.5 62t54.5 28.5t35.5 7 q41 0 81 -14.5t77 -30.5t71.5 -29.5t69.5 -13.5q45 0 61.5 26.5t28.5 69.5h78q-4 -35 -15.5 -70.5t-33 -64.5t-51 -46t-68.5 -17q-41 0 -80 14t-76 33q-39 16 -73.5 28.5t-69.5 12.5q-45 0 -66.5 -32t-31.5 -67h-76z" />
<glyph unicode="&#xf2;" d="M68 492q0 125 34.5 222t95 161.5t141.5 98.5t173 34t173 -34t141.5 -98.5t95 -162t34.5 -221.5q0 -127 -34.5 -223.5t-95 -161t-141.5 -98.5t-173 -34t-173 34t-141.5 98.5t-95 161t-34.5 223.5zM190 492q0 -96 25 -170t68 -126.5t102 -79t127 -26.5t127 26.5t102 79 t68 126t25 170.5q0 94 -25 168.5t-68 126t-102 79t-127 27.5t-127 -27.5t-102 -79t-68 -126t-25 -168.5zM254 1427h158l227 -284h-104z" />
<glyph unicode="&#xf3;" d="M68 492q0 125 34.5 222t95 161.5t141.5 98.5t173 34t173 -34t141.5 -98.5t95 -162t34.5 -221.5q0 -127 -34.5 -223.5t-95 -161t-141.5 -98.5t-173 -34t-173 34t-141.5 98.5t-95 161t-34.5 223.5zM190 492q0 -96 25 -170t68 -126.5t102 -79t127 -26.5t127 26.5t102 79 t68 126t25 170.5q0 94 -25 168.5t-68 126t-102 79t-127 27.5t-127 -27.5t-102 -79t-68 -126t-25 -168.5zM387 1143l228 284h158l-281 -284h-105z" />
<glyph unicode="&#xf4;" d="M68 492q0 125 34.5 222t95 161.5t141.5 98.5t173 34t173 -34t141.5 -98.5t95 -162t34.5 -221.5q0 -127 -34.5 -223.5t-95 -161t-141.5 -98.5t-173 -34t-173 34t-141.5 98.5t-95 161t-34.5 223.5zM190 492q0 -96 25 -170t68 -126.5t102 -79t127 -26.5t127 26.5t102 79 t68 126t25 170.5q0 94 -25 168.5t-68 126t-102 79t-127 27.5t-127 -27.5t-102 -79t-68 -126t-25 -168.5zM213 1143l230 284h137l233 -284h-133l-168 209l-170 -209h-129z" />
<glyph unicode="&#xf5;" d="M68 492q0 125 34.5 222t95 161.5t141.5 98.5t173 34t173 -34t141.5 -98.5t95 -162t34.5 -221.5q0 -127 -34.5 -223.5t-95 -161t-141.5 -98.5t-173 -34t-173 34t-141.5 98.5t-95 161t-34.5 223.5zM190 492q0 -96 25 -170t68 -126.5t102 -79t127 -26.5t127 26.5t102 79 t68 126t25 170.5q0 94 -25 168.5t-68 126t-102 79t-127 27.5t-127 -27.5t-102 -79t-68 -126t-25 -168.5zM193 1165q8 63 31.5 103.5t52.5 62t54.5 28.5t35.5 7q41 0 81 -14.5t77 -30.5t71.5 -29.5t69.5 -13.5q45 0 61.5 26.5t28.5 69.5h78q-4 -35 -15.5 -70.5t-33 -64.5 t-51 -46t-68.5 -17q-41 0 -80 14t-76 33q-39 16 -73.5 28.5t-69.5 12.5q-45 0 -66.5 -32t-31.5 -67h-76z" />
<glyph unicode="&#xf6;" d="M68 492q0 125 34.5 222t95 161.5t141.5 98.5t173 34t173 -34t141.5 -98.5t95 -162t34.5 -221.5q0 -127 -34.5 -223.5t-95 -161t-141.5 -98.5t-173 -34t-173 34t-141.5 98.5t-95 161t-34.5 223.5zM190 492q0 -96 25 -170t68 -126.5t102 -79t127 -26.5t127 26.5t102 79 t68 126t25 170.5q0 94 -25 168.5t-68 126t-102 79t-127 27.5t-127 -27.5t-102 -79t-68 -126t-25 -168.5zM283 1163v209h123v-209h-123zM621 1163v209h123v-209h-123z" />
<glyph unicode="&#xf7;" horiz-adv-x="1228" d="M96 467v102h1037v-102h-1037zM500 94q0 47 33.5 81t80.5 34t81 -34t34 -81q0 -43 -33.5 -78.5t-79.5 -35.5q-47 0 -81.5 33.5t-34.5 80.5zM500 942q0 47 33.5 81t80.5 34t81 -34t34 -81q0 -43 -33.5 -79t-79.5 -36q-47 0 -81.5 34t-34.5 81z" />
<glyph unicode="&#xf8;" d="M68 492q0 125 34.5 222t95 161.5t141.5 98.5t173 34q61 0 117.5 -14.5t103.5 -41.5l51 90l66 -41l-55 -94q74 -66 117.5 -170t43.5 -245q0 -127 -34.5 -223.5t-95 -161t-141.5 -98.5t-173 -34q-123 0 -219 60l-51 -90l-68 37l57 98q-76 61 -119.5 165.5t-43.5 246.5z M190 492q0 -100 28 -176t75 -130l379 660q-70 47 -160 47q-68 0 -127 -27.5t-102 -79t-68 -126t-25 -168.5zM352 137q35 -25 76 -36t84 -11q68 0 127 26.5t102 79t68 126t25 170.5q0 100 -28 178t-75 127z" />
<glyph unicode="&#xf9;" d="M129 317v666h123v-629q0 -150 61.5 -207t178.5 -57q55 0 106 18.5t89 58.5t61.5 99.5t23.5 143.5v573h123v-983h-123v143h-4q-47 -92 -127 -130t-166 -38q-182 0 -264 95.5t-82 246.5zM254 1427h158l227 -284h-104z" />
<glyph unicode="&#xfa;" d="M129 317v666h123v-629q0 -150 61.5 -207t178.5 -57q55 0 106 18.5t89 58.5t61.5 99.5t23.5 143.5v573h123v-983h-123v143h-4q-47 -92 -127 -130t-166 -38q-182 0 -264 95.5t-82 246.5zM387 1143l228 284h158l-281 -284h-105z" />
<glyph unicode="&#xfb;" d="M129 317v666h123v-629q0 -150 61.5 -207t178.5 -57q55 0 106 18.5t89 58.5t61.5 99.5t23.5 143.5v573h123v-983h-123v143h-4q-47 -92 -127 -130t-166 -38q-182 0 -264 95.5t-82 246.5zM213 1143l230 284h137l233 -284h-133l-168 209l-170 -209h-129z" />
<glyph unicode="&#xfc;" d="M129 317v666h123v-629q0 -150 61.5 -207t178.5 -57q55 0 106 18.5t89 58.5t61.5 99.5t23.5 143.5v573h123v-983h-123v143h-4q-47 -92 -127 -130t-166 -38q-182 0 -264 95.5t-82 246.5zM283 1163v209h123v-209h-123zM621 1163v209h123v-209h-123z" />
<glyph unicode="&#xfd;" horiz-adv-x="872" d="M8 -344q29 -16 60.5 -32.5t66.5 -16.5q27 0 47.5 14t34.5 34.5t24.5 43t16.5 41.5l100 258l-338 985h115l285 -827h4l324 827h116l-485 -1247q-16 -43 -34.5 -86t-45.5 -78t-64.5 -57.5t-95.5 -22.5q-35 0 -67.5 11.5t-63.5 25.5v127zM311 1143l228 284h158l-281 -284 h-105z" />
<glyph unicode="&#xfe;" d="M129 -508v1966h123v-635h4q29 80 106.5 132.5t182.5 52.5q84 0 158.5 -34t131 -101.5t89 -166t32.5 -227.5q0 -137 -41 -232t-102 -155.5t-135 -88.5t-139 -28q-92 0 -170 42t-113 135h-4v-660h-123zM246 492q0 -72 11 -144t42 -129t86 -93t143 -36q139 0 222.5 108 t83.5 294t-83 293.5t-223 107.5q-88 0 -143 -36t-86 -93t-42 -129t-11 -143z" />
<glyph unicode="&#xff;" horiz-adv-x="872" d="M8 -344q29 -16 60.5 -32.5t66.5 -16.5q27 0 47.5 14t34.5 34.5t24.5 43t16.5 41.5l100 258l-338 985h115l285 -827h4l324 827h116l-485 -1247q-16 -43 -34.5 -86t-45.5 -78t-64.5 -57.5t-95.5 -22.5q-35 0 -67.5 11.5t-63.5 25.5v127zM207 1163v209h123v-209h-123z M545 1163v209h123v-209h-123z" />
<glyph unicode="&#x152;" horiz-adv-x="2162" d="M90 729q0 172 47 313.5t137.5 241.5t223.5 155.5t305 55.5q92 0 172 -12.5t141 -24.5h948v-127h-854v-516h770v-127h-770v-561h901v-127h-1009q-29 -6 -59.5 -12t-65.5 -13q-35 -4 -72 -8t-80 -4q-178 0 -314 55.5t-230.5 155.5t-142.5 241.5t-48 313.5zM229 729 q0 -143 38 -261t114 -202t190.5 -130t266.5 -46q59 0 122.5 9.5t110.5 23.5v1212q-57 12 -118.5 22.5t-114.5 10.5q-152 0 -266.5 -46t-190.5 -130t-114 -202t-38 -261z" />
<glyph unicode="&#x153;" horiz-adv-x="1820" d="M68 492q0 125 34.5 222t95 161.5t141.5 98.5t173 34q125 0 222 -50.5t163 -179.5q61 109 165.5 169.5t229.5 60.5q109 0 191 -39t137 -107.5t84 -163t33 -202.5h-764v-27q0 -82 18.5 -151.5t57 -120t98 -79t141.5 -28.5q139 0 214 55.5t120 153.5l115 -31 q-55 -137 -167 -215t-267 -78q-166 0 -261.5 62.5t-144.5 167.5q-27 -63 -69 -106.5t-94 -71t-109.5 -40t-112.5 -12.5q-92 0 -173 34t-141.5 98.5t-95 161t-34.5 223.5zM190 492q0 -98 27 -173t71 -126.5t104.5 -77t127.5 -25.5q68 0 128.5 25.5t104.5 77t70.5 126 t26.5 173.5q0 98 -26.5 172.5t-70.5 126t-104.5 77t-128.5 25.5t-128 -25.5t-104 -77t-71 -126t-27 -172.5zM973 598h624q-10 53 -28.5 106.5t-53 95.5t-93 67.5t-148.5 25.5q-63 0 -115.5 -23.5t-91.5 -63.5t-62.5 -93.5t-31.5 -114.5z" />
<glyph unicode="&#x178;" horiz-adv-x="1249" d="M6 1458h168l455 -721l454 721h160l-549 -850v-608h-139v608zM395 1566v209h123v-209h-123zM733 1566v209h123v-209h-123z" />
<glyph unicode="&#x2c6;" horiz-adv-x="378" d="M-111 1143l230 284h137l233 -284h-133l-168 209l-170 -209h-129z" />
<glyph unicode="&#x2dc;" horiz-adv-x="378" d="M-131 1165q8 63 31.5 103.5t52.5 62t54.5 28.5t35.5 7q41 0 81 -14.5t77 -30.5t71.5 -29.5t69.5 -13.5q45 0 61.5 26.5t28.5 69.5h78q-4 -35 -15.5 -70.5t-33 -64.5t-51 -46t-68.5 -17q-41 0 -80 14t-76 33q-39 16 -73.5 28.5t-69.5 12.5q-45 0 -66.5 -32t-31.5 -67h-76z " />
<glyph unicode="&#x2000;" horiz-adv-x="953" />
<glyph unicode="&#x2001;" horiz-adv-x="1907" />
<glyph unicode="&#x2002;" horiz-adv-x="953" />
<glyph unicode="&#x2003;" horiz-adv-x="1907" />
<glyph unicode="&#x2004;" horiz-adv-x="635" />
<glyph unicode="&#x2005;" horiz-adv-x="476" />
<glyph unicode="&#x2006;" horiz-adv-x="317" />
<glyph unicode="&#x2007;" horiz-adv-x="317" />
<glyph unicode="&#x2008;" horiz-adv-x="238" />
<glyph unicode="&#x2009;" horiz-adv-x="381" />
<glyph unicode="&#x200a;" horiz-adv-x="105" />
<glyph unicode="&#x2010;" horiz-adv-x="757" d="M92 475v127h574v-127h-574z" />
<glyph unicode="&#x2011;" horiz-adv-x="757" d="M92 475v127h574v-127h-574z" />
<glyph unicode="&#x2012;" horiz-adv-x="757" d="M92 475v127h574v-127h-574z" />
<glyph unicode="&#x2013;" d="M0 481v115h1024v-115h-1024z" />
<glyph unicode="&#x2014;" horiz-adv-x="2048" d="M266 481v115h1516v-115h-1516z" />
<glyph unicode="&#x2018;" horiz-adv-x="569" d="M197 897v221q0 106 31.5 196.5t74.5 143.5l70 -51q-49 -57 -69.5 -129t-18.5 -143h67v-238h-155z" />
<glyph unicode="&#x2019;" horiz-adv-x="569" d="M197 948q49 57 69.5 129t18.5 144h-68v237h156v-221q0 -18 -2 -51t-12.5 -77t-32 -98.5t-60.5 -113.5z" />
<glyph unicode="&#x201a;" horiz-adv-x="569" d="M197 -272q49 57 69.5 128.5t18.5 143.5h-68v238h156v-222q0 -106 -32 -196t-75 -144z" />
<glyph unicode="&#x201c;" horiz-adv-x="645" d="M109 897v221q0 106 31.5 196.5t74.5 143.5l70 -51q-49 -57 -69.5 -129t-18.5 -143h67v-238h-155zM360 897v221q0 106 32 196.5t75 143.5l70 -51q-49 -57 -70 -129t-18 -143h67v-238h-156z" />
<glyph unicode="&#x201d;" horiz-adv-x="645" d="M109 948q49 57 69.5 129t18.5 144h-68v237h156v-221q0 -18 -2 -51t-12.5 -77t-32 -98.5t-60.5 -113.5zM360 948q49 57 70 129t19 144h-68v237h156v-221q0 -18 -2.5 -51t-12.5 -77t-31.5 -98.5t-60.5 -113.5z" />
<glyph unicode="&#x201e;" horiz-adv-x="645" d="M109 -272q49 57 69.5 128.5t18.5 143.5h-68v238h156v-222q0 -106 -32 -196t-75 -144zM360 -272q49 57 70 128.5t19 143.5h-68v238h156v-222q0 -106 -32 -196t-75 -144z" />
<glyph unicode="&#x2022;" d="M147 729q0 76 29 142.5t78 115.5t115.5 78t142.5 29t142.5 -29t115.5 -78t78 -115.5t29 -142.5t-29 -142.5t-78 -115.5t-115.5 -77.5t-142.5 -28.5t-142.5 28.5t-115.5 77.5t-78 115.5t-29 142.5z" />
<glyph unicode="&#x2026;" horiz-adv-x="2048" d="M264 0v238h156v-238h-156zM946 0v238h156v-238h-156zM1628 0v238h156v-238h-156z" />
<glyph unicode="&#x202f;" horiz-adv-x="381" />
<glyph unicode="&#x2039;" horiz-adv-x="569" d="M111 539l249 383l99 -66l-211 -317l211 -318l-99 -65z" />
<glyph unicode="&#x203a;" horiz-adv-x="569" d="M111 221l211 318l-211 317l98 66l250 -383l-250 -383z" />
<glyph unicode="&#x205f;" horiz-adv-x="476" />
<glyph unicode="&#x2122;" horiz-adv-x="2027" d="M147 1368v90h656v-90h-277v-754h-102v754h-277zM954 614v844h174l273 -684l264 684h174v-844h-102v754h-4l-306 -754h-61l-305 754h-4v-754h-103z" />
<glyph unicode="&#x25fc;" horiz-adv-x="983" d="M0 0v983h983v-983h-983z" />
</font>
</defs>
</svg>
