<?xml version="1.0" standalone="no"?>
<!DOCTYPE svg PUBLIC "-//W3C//DTD SVG 1.1//EN" "http://www.w3.org/Graphics/SVG/1.1/DTD/svg11.dtd" >
<svg xmlns="http://www.w3.org/2000/svg" xmlns:xlink="http://www.w3.org/1999/xlink" version="1.1">
<metadata></metadata>
<defs>
<font id="harriet_displaythin" horiz-adv-x="1126" >
<font-face units-per-em="2048" ascent="1638" descent="-410" />
<missing-glyph horiz-adv-x="399" />
<glyph unicode="&#xfb01;" horiz-adv-x="1181" d="M23 0v27l86 10q76 9 101.5 36.5t25.5 98.5v746l-193 18v29l193 18v193q0 109 28 190t79 129t118 71t151 23q122 0 207.5 -56.5t85.5 -148.5q0 -44 -26 -70t-66 -26q-33 0 -56.5 21t-23.5 51q0 32 27.5 63t27.5 52q0 31 -44.5 57.5t-129.5 26.5q-142 0 -216 -85.5 t-74 -273.5v-223h495l111 22l26 -12q-12 -83 -12 -201v-614q0 -71 25.5 -98.5t101.5 -36.5l86 -10v-27q-42 0 -130 1t-130 1t-127 -1t-127 -1v27l86 10q76 9 101.5 36.5t25.5 98.5v625q0 25 -1 38.5t-5.5 32t-15.5 28.5t-29.5 20t-48.5 14t-72 4q-190 0 -360 -10v-744 q0 -76 27.5 -105t109.5 -38l86 -10v-27q-42 0 -135.5 1t-135.5 1t-126.5 -1t-126.5 -1z" />
<glyph unicode="&#xfb02;" horiz-adv-x="1187" d="M23 0v27l86 10q76 9 101.5 37t25.5 100v744l-193 18v29l193 18v193q0 109 30 190t84.5 129t123.5 71t153 23q82 0 149.5 -30t100.5 -86l63 104l23 -4q-19 -145 -19 -195v-1206q0 -71 25.5 -98.5t101.5 -36.5l86 -10v-27q-42 0 -130 1t-130 1t-127 -1t-127 -1v27l86 10 q76 9 101.5 36.5t25.5 98.5v768l-532 -16v-744q0 -76 27.5 -105t109.5 -38l86 -10v-27q-42 0 -135.5 1t-135.5 1t-126.5 -1t-126.5 -1zM324 977h532v315q-13 -8 -37 -8q-34 0 -57 21.5t-23 52.5q0 28 14 45t28 31t14 34q0 31 -47 61t-123 30q-150 0 -225.5 -85t-75.5 -274 v-223z" />
<glyph unicode="&#xfb03;" horiz-adv-x="1802" d="M23 0v27l86 10q76 9 101.5 37t25.5 100v744l-193 18v29l193 18v162q0 138 56 235.5t147.5 143t207.5 45.5q90 0 162.5 -35.5t105.5 -99.5q94 155 318 155q122 0 207.5 -56.5t85.5 -148.5q0 -44 -26 -70t-66 -26q-33 0 -56.5 21t-23.5 51q0 32 27.5 63t27.5 52 q0 31 -44.5 57.5t-129.5 26.5q-142 0 -216.5 -86t-74.5 -273v-223h496l110 22l27 -12q-12 -83 -12 -201v-614q0 -71 25.5 -98.5t101.5 -36.5l86 -10v-27q-42 0 -130 1t-130 1t-127 -1t-127 -1v27l86 10q76 9 101.5 36.5t25.5 98.5v625q0 25 -1 38.5t-5.5 32t-15.5 28.5 t-29.5 20t-48.5 14t-72 4q-203 0 -361 -2v-752q0 -76 27.5 -105t109.5 -38l86 -10v-27q-42 0 -135 1t-135 1t-127 -1t-127 -1v27l86 10q76 9 101.5 37t25.5 100v756q-454 -4 -532 -6v-744q0 -76 27.5 -105t109.5 -38l86 -10v-27q-42 0 -135.5 1t-135.5 1t-126.5 -1 t-126.5 -1zM324 977h532v199l2 41v8h-2q-33 0 -56.5 21.5t-23.5 51.5q0 24 9 42t20 26.5t20 22t9 30.5q0 40 -47 79.5t-142 39.5q-157 0 -239 -98t-82 -291v-172z" />
<glyph unicode="&#xfb04;" horiz-adv-x="1808" d="M23 0v27l86 10q76 9 101.5 37t25.5 102v742l-193 18v29l193 18v162q0 138 56 235.5t147.5 143t207.5 45.5q94 0 167.5 -38t105.5 -106q100 164 327 164q82 0 149.5 -30t100.5 -86l64 104l22 -4q-18 -137 -18 -195v-1206q0 -71 25.5 -98.5t101.5 -36.5l86 -10v-27 q-42 0 -130 1t-130 1t-127 -1t-127 -1v27l86 10q76 9 101.5 36.5t25.5 98.5v768l-533 -6v-754q0 -76 27.5 -105t109.5 -38l86 -10v-27q-42 0 -135 1t-135 1t-127 -1t-127 -1v27l86 10q76 9 101.5 37t25.5 100v760l-532 -6v-748q0 -76 27.5 -105t109.5 -38l86 -10v-27 q-42 0 -135.5 1t-135.5 1t-126.5 -1t-126.5 -1zM324 977h532v178l2 41l2 29h-4q-33 0 -56.5 21.5t-23.5 51.5q0 24 9 42t20 26.5t20 22t9 30.5q0 40 -47 79.5t-142 39.5q-157 0 -239 -98t-82 -291v-172zM944 977h533v315q-13 -8 -37 -8q-34 0 -57 21.5t-23 52.5q0 22 8.5 38 t19 23.5t19 20t8.5 28.5q0 31 -47 61t-123 30q-150 0 -225.5 -90t-75.5 -289v-203z" />
<glyph horiz-adv-x="0" />
<glyph horiz-adv-x="682" />
<glyph unicode=" "  horiz-adv-x="399" />
<glyph unicode="&#x09;" horiz-adv-x="399" />
<glyph unicode="&#xa0;" horiz-adv-x="399" />
<glyph unicode="!" horiz-adv-x="563" d="M184 86q0 44 29 70t68 26q40 0 69 -26.5t29 -69.5t-29 -69.5t-69 -26.5q-37 0 -67 27.5t-30 68.5zM199 1313q0 50 22.5 78t61.5 28t61.5 -28t22.5 -78q0 -39 -26.5 -159.5t-33.5 -252.5q-12 -250 -12 -524h-25q0 274 -12 524q-7 131 -33 252t-26 160z" />
<glyph unicode="&#x22;" horiz-adv-x="751" d="M174 1501q0 29 17 47.5t47 18.5t46.5 -18.5t16.5 -47.5q0 -23 -4.5 -65t-19 -164t-29.5 -273h-21q-15 155 -28.5 275.5t-19 164t-5.5 62.5zM451 1501q0 29 16.5 47.5t46.5 18.5t47 -18.5t17 -47.5q0 -23 -5 -65.5t-19.5 -163.5t-29.5 -273h-20q-15 155 -28.5 275.5 t-19 164t-5.5 62.5z" />
<glyph unicode="#" horiz-adv-x="1067" d="M96 924h275l39 350h43l-39 -350h305l39 350h43l-39 -350h188l19 -90h-217l-41 -379h239l21 -90h-271l-38 -365h-44l39 365h-305l-39 -365h-43l39 365h-192l-19 90h221l41 379h-243zM362 455h306l41 379h-306z" />
<glyph unicode="$" horiz-adv-x="1017" d="M61 260q0 62 26 94.5t67 32.5q31 0 52 -22t21 -50q0 -26 -11 -43t-24.5 -24t-24.5 -19t-11 -28q0 -57 67 -115t185 -72l86 598q-85 29 -142 57t-108 68.5t-76 96.5t-25 129q0 149 115.5 244.5t298.5 95.5l37 -3l22 162h41l-24 -164q139 -17 220 -86t81 -161 q0 -56 -24.5 -85.5t-63.5 -29.5q-32 0 -54 22t-22 50q0 25 11 42t25 24t25 19t11 27q0 43 -55 88.5t-158 59.5l-82 -570l16 -6q84 -29 141 -57.5t107.5 -70.5t75 -100.5t24.5 -135.5q0 -146 -121.5 -247t-316.5 -101h-31l-32 -228h-41l32 232q-152 17 -246 96.5t-94 179.5z M219 999q0 -61 21.5 -107t65.5 -79.5t88.5 -55t113.5 -46.5l80 559l-31 2q-157 0 -247.5 -81.5t-90.5 -191.5zM446 10h27q90 0 161.5 25.5t114 67.5t65 90.5t22.5 97.5q0 47 -10.5 86t-33 69t-47 52t-63.5 41.5t-70.5 32t-79.5 28.5z" />
<glyph unicode="%" horiz-adv-x="1314" d="M72 1012q0 129 85 207.5t208 78.5q126 0 211.5 -77t85.5 -207t-85.5 -209.5t-209.5 -79.5t-209.5 78.5t-85.5 208.5zM100 0l525 643l508 631h61l-541 -662l-491 -612h-62zM162 1012q0 -117 57.5 -184.5t147.5 -67.5t147 67.5t57 186.5q0 117 -57 183.5t-149 66.5 q-89 0 -146 -67t-57 -185zM653 266q0 130 85 208.5t208 78.5q126 0 211.5 -77.5t85.5 -207.5q0 -131 -85.5 -209.5t-209.5 -78.5q-125 0 -210 77.5t-85 208.5zM743 266q0 -117 57.5 -184.5t147.5 -67.5t147.5 67.5t57.5 186.5q0 117 -57.5 183.5t-149.5 66.5q-89 0 -146 -67 t-57 -185z" />
<glyph unicode="&#x26;" horiz-adv-x="1447" d="M51 346q0 93 31 167.5t89.5 129.5t126 93.5t157.5 72.5q-82 204 -82 309q0 136 79 219.5t218 83.5q118 0 188 -63.5t70 -169.5q0 -59 -23 -110t-56.5 -86.5t-88.5 -70.5t-99.5 -56t-109.5 -48q72 -167 131 -276q101 -187 186 -301q28 58 52 122q12 36 30 93t29.5 94.5 t30.5 87.5t35.5 82.5t41.5 68t52 56t63.5 34t79.5 13.5q62 0 98.5 -31.5t36.5 -77.5q0 -41 -23.5 -65.5t-62.5 -24.5q-33 0 -54.5 20.5t-21.5 51.5q0 11 3.5 27t3.5 20q0 23 -27 23q-31 0 -58 -13.5t-49.5 -43t-40.5 -60t-37 -81t-32 -89t-33 -101t-33 -100.5 q-22 -69 -59 -137q147 -186 262 -186q88 0 131.5 57.5t69.5 206.5l26 -4q-24 -168 -83.5 -241t-186.5 -73q-136 0 -270 162q-126 -162 -363 -162q-190 0 -309 104.5t-119 272.5zM147 358q0 -153 91.5 -249.5t259.5 -96.5q223 0 321 146q-90 112 -213 334q-88 159 -141 292 q-78 -33 -133 -69t-98.5 -86t-65 -117.5t-21.5 -153.5zM457 1141q0 -83 84 -299l4 2q307 124 307 338q0 92 -47 150.5t-137 58.5q-107 0 -159 -70.5t-52 -179.5z" />
<glyph unicode="'" horiz-adv-x="475" d="M174 1501q0 29 17 47.5t47 18.5t46.5 -18.5t16.5 -47.5q0 -23 -4.5 -65t-19 -164t-29.5 -273h-21q-15 155 -28.5 275.5t-19 164t-5.5 62.5z" />
<glyph unicode="(" horiz-adv-x="684" d="M174 594v10q0 115 21.5 226t54.5 197t80 169t88.5 139t91.5 110.5t78 80t57 49.5l19 -21q-29 -27 -60.5 -63t-81 -99.5t-91.5 -143.5t-81 -176t-61.5 -218t-22.5 -250v-10q0 -128 22.5 -250t61.5 -218t81 -176t91.5 -143.5t81 -99.5t60.5 -63l-19 -21q-29 24 -57 49.5 t-78 80t-91.5 110.5t-88.5 139t-80 169t-54.5 197t-21.5 226z" />
<glyph unicode=")" horiz-adv-x="684" d="M20 -356q29 27 60.5 63t81 99.5t91.5 143.5t81 176t61.5 218t22.5 250v10q0 128 -22.5 250t-61.5 218t-81 176t-91.5 143.5t-81 99.5t-60.5 63l19 21q29 -24 57 -49.5t78 -80t91.5 -110.5t88.5 -139t80 -169t54.5 -197t21.5 -226v-10q0 -115 -21.5 -226t-54.5 -197 t-80 -169t-88.5 -139t-91.5 -110.5t-78 -80t-57 -49.5z" />
<glyph unicode="*" horiz-adv-x="868" d="M104 1061q-7 24 7 45t41 27q34 7 56.5 3t83 -1t130.5 20q-53 50 -100.5 80t-78.5 44.5t-44 27.5q-20 20 -21 44.5t17 41.5q18 18 42 16t46 -23q13 -13 26.5 -43.5t42.5 -78.5t80 -101q21 100 19 180t2 89q7 29 26 41t43 6q25 -6 35.5 -27t3.5 -49q-4 -19 -22 -45t-45 -76 t-50 -123q70 21 119 48t76.5 46.5t46.5 24.5q27 6 49.5 -4t28.5 -33q6 -25 -6.5 -45t-40.5 -27q-11 -3 -92 -1t-176 -21q53 -50 100 -80t77.5 -44.5t43.5 -27.5q21 -21 22.5 -45t-16.5 -41q-19 -18 -43 -16.5t-45 22.5q-12 12 -23.5 34t-22 45.5t-37.5 63t-67 81.5 q-21 -100 -18.5 -181t-1.5 -90q-6 -26 -26.5 -38.5t-45.5 -6.5q-24 6 -34 26.5t-3 49.5q5 19 23 45t44.5 76t49.5 123q-71 -21 -120 -48.5t-75.5 -47t-46.5 -23.5q-28 -8 -51 3t-29 34z" />
<glyph unicode="+" d="M115 463v57h420v416h57v-416h420v-57h-420v-420h-57v420h-420z" />
<glyph unicode="," horiz-adv-x="499" d="M123 -295q97 52 148 123.5t51 142.5q0 37 -25 37q-8 0 -25.5 -6t-33.5 -6q-37 0 -61.5 24.5t-24.5 63.5q0 42 29 70t73 28q57 0 91 -40t34 -122q0 -112 -63 -199.5t-177 -146.5z" />
<glyph unicode="-" horiz-adv-x="571" d="M51 459v61h469v-61h-469z" />
<glyph unicode="." horiz-adv-x="440" d="M123 86q0 44 28.5 70t67.5 26q40 0 69 -26.5t29 -69.5t-29 -69.5t-69 -26.5q-37 0 -66.5 27.5t-29.5 68.5z" />
<glyph unicode="/" horiz-adv-x="645" d="M31 -102l528 1595h55l-528 -1595h-55z" />
<glyph unicode="0" horiz-adv-x="1226" d="M94 535q0 162 68 291t187 200.5t265 71.5t264.5 -71.5t186.5 -200.5t68 -291q0 -247 -148 -406.5t-371 -159.5q-109 0 -205 42t-165.5 116t-109.5 180t-40 228zM205 535q0 -147 48.5 -268t143 -194t217.5 -73t217 73t142.5 194t48.5 268q0 146 -48.5 266.5t-142.5 193 t-217 72.5t-217.5 -72.5t-143 -192.5t-48.5 -267z" />
<glyph unicode="1" horiz-adv-x="884" d="M133 967v28l96 6q224 15 256 66h27q-8 -117 -8 -289v-590q0 -74 27.5 -106t111.5 -41l129 -14v-27q-54 0 -156 1t-157 1t-158 -1t-158 -1v27l129 14q81 9 111.5 42t30.5 105v598q0 58 -4 85.5t-22.5 49.5t-50.5 29t-95 11z" />
<glyph unicode="2" horiz-adv-x="1019" d="M86 0v39q259 169 434 323q130 114 193 213.5t63 221.5q0 121 -64.5 195.5t-187.5 74.5q-74 0 -135.5 -26.5t-99.5 -69.5t-59 -94t-21 -103q0 -78 33 -124t86 -46q46 0 81 41.5t48 128.5l26 -2q-27 -221 -190 -221q-72 0 -123 55t-51 142q0 144 113 247t292 103 q152 0 255.5 -86.5t103.5 -225.5q0 -56 -17.5 -108.5t-42 -91.5t-73.5 -87.5t-87 -80t-108 -86.5q-185 -144 -338 -242h684l-39 -235h-28v59q0 52 -23 69t-80 17h-645z" />
<glyph unicode="3" horiz-adv-x="974" d="M41 -133q0 49 26.5 81t71.5 32q32 0 54 -20t22 -54q0 -26 -11 -42.5t-24 -23.5t-24 -18.5t-11 -28.5q0 -42 55.5 -79.5t170.5 -37.5q187 0 313.5 128t126.5 315q0 91 -22 155t-60.5 96.5t-79 46t-88.5 13.5q-51 0 -98 -18t-75 -39.5t-58.5 -39.5t-53.5 -18q-53 0 -53 60 q33 19 134 46.5t153 59.5q51 31 90 64t71.5 75t50 94.5t17.5 112.5q0 114 -60 177t-185 63q-73 0 -134 -26t-98.5 -67t-58.5 -88.5t-21 -94.5q0 -70 27.5 -109t79.5 -39q87 0 117 150l26 -2q-15 -98 -63.5 -149.5t-120.5 -51.5q-65 0 -110.5 49.5t-45.5 124.5 q0 140 114.5 237t287.5 97q146 0 247 -72.5t101 -198.5q0 -57 -26 -110t-64 -93t-97.5 -81t-109 -67.5t-115.5 -57.5q76 37 166 37q39 0 78.5 -8t83.5 -31t77.5 -58t55.5 -94t22 -135q0 -107 -47.5 -200t-125 -153.5t-173.5 -95t-194 -34.5q-152 0 -242 61.5t-90 159.5z" />
<glyph unicode="4" horiz-adv-x="1050" d="M20 168l43 2h560v532q0 176 8 283l-568 -815l-43 -2l625 899h66v-897h63q83 0 119 30.5t70 127.5l30 88h27l-51 -301q-132 8 -215 8h-43v-281q0 -61 23 -88t100 -37l112 -14v-27q-50 0 -140 1t-140 1q-51 0 -139.5 -1t-139.5 -1v27l121 14q71 8 93 36t22 89v281h-586z " />
<glyph unicode="5" horiz-adv-x="1042" d="M63 -133q0 48 27 80.5t72 32.5q32 0 54 -20t22 -54q0 -26 -11 -42.5t-24 -23.5t-24 -18.5t-11 -28.5q0 -42 56 -79.5t175 -37.5q186 0 310.5 128t124.5 315q0 194 -78.5 291.5t-223.5 97.5q-91 0 -170 -42.5t-124 -117.5l-74 8l63 713h47q138 -55 342 -55q103 0 194.5 21 t127.5 57l8 -7q-35 -57 -100.5 -94.5t-138.5 -53.5t-159.5 -19.5t-156.5 2.5t-137 18l-47 -524q62 57 147.5 91t184.5 34q80 0 149 -23.5t126 -71t89.5 -128.5t32.5 -187q0 -107 -47 -200t-123 -153.5t-171.5 -95t-193.5 -34.5q-156 0 -247 61.5t-91 159.5z" />
<glyph unicode="6" horiz-adv-x="1097" d="M92 557q0 399 162.5 631.5t435.5 232.5q141 0 227.5 -64.5t86.5 -158.5q0 -50 -27.5 -80.5t-71.5 -30.5q-32 0 -54 20t-22 54q0 26 11 42.5t24 23.5t24 18.5t11 28.5q0 41 -51.5 79t-157.5 38q-253 0 -379.5 -246.5t-126.5 -716.5q0 181 117 309.5t299 128.5 q183 0 299.5 -120t116.5 -312q0 -124 -61.5 -231t-168 -170.5t-231.5 -63.5q-98 0 -181.5 36t-146.5 107t-99 185t-36 260zM207 428q0 -113 39 -209t119.5 -157.5t187.5 -61.5q70 0 128.5 24.5t99 66.5t69 97.5t42 117.5t13.5 128q0 177 -80 284t-241 107 q-158 0 -267.5 -115t-109.5 -282z" />
<glyph unicode="7" horiz-adv-x="972" d="M72 752l57 362h23q2 -27 11.5 -37t39.5 -10h719v-45q-175 -279 -269 -496q-166 -395 -166 -786q0 -35 -16 -56.5t-47 -21.5q-32 0 -51 21.5t-19 56.5q0 298 264 811q119 229 248 428h-553q-83 0 -119.5 -33t-74.5 -145l-17 -49h-30z" />
<glyph unicode="8" horiz-adv-x="1122" d="M92 356q0 155 111.5 259.5t275.5 127.5q-130 25 -221.5 113t-91.5 217q0 108 57 189t145.5 120t192.5 39t192.5 -39t145.5 -120t57 -189q0 -129 -91.5 -217t-221.5 -113q164 -23 275.5 -127.5t111.5 -259.5q0 -77 -26 -141.5t-71 -109t-105 -76t-127.5 -46t-139.5 -14.5 t-139.5 14.5t-127.5 46t-105 76t-71 109t-26 141.5zM203 354q0 -166 101 -260t257 -94q157 0 258 94t101 260q0 167 -102.5 266t-256.5 99t-256 -99t-102 -266zM270 1075q0 -142 83.5 -227.5t207.5 -85.5t207.5 85.5t83.5 227.5q0 148 -82.5 232t-208.5 84t-208.5 -84 t-82.5 -232z" />
<glyph unicode="9" horiz-adv-x="1107" d="M92 633q0 124 61.5 231t168 170.5t231.5 63.5q98 0 181.5 -36t146.5 -107t99 -185t36 -260q0 -399 -162.5 -631.5t-435.5 -232.5q-141 0 -227.5 64.5t-86.5 158.5q0 50 27.5 80.5t71.5 30.5q32 0 54 -20t22 -54q0 -26 -11 -42.5t-24 -23.5t-24 -18.5t-11 -28.5 q0 -41 51.5 -79t157.5 -38q253 0 379.5 246.5t126.5 716.5q0 -181 -117 -309.5t-299 -128.5q-183 0 -299.5 120t-116.5 312zM203 633q0 -177 80 -284t241 -107q158 0 267.5 115t109.5 282q0 113 -39 209t-119.5 157.5t-187.5 61.5q-70 0 -128.5 -24.5t-99 -66.5t-69 -97.5 t-42 -117.5t-13.5 -128z" />
<glyph unicode=":" horiz-adv-x="440" d="M123 86q0 44 28.5 70t67.5 26q40 0 69 -26.5t29 -69.5t-29 -69.5t-69 -26.5q-37 0 -66.5 27.5t-29.5 68.5zM123 897q0 44 28.5 70t67.5 26q40 0 69 -26.5t29 -69.5t-29 -69.5t-69 -26.5q-37 0 -66.5 27.5t-29.5 68.5z" />
<glyph unicode=";" horiz-adv-x="499" d="M123 -295q97 52 148 123.5t51 142.5q0 37 -25 37q-8 0 -25.5 -6t-33.5 -6q-37 0 -61.5 24.5t-24.5 63.5q0 42 29 70t73 28q57 0 91 -40t34 -122q0 -112 -63 -199.5t-177 -146.5zM123 897q0 44 28.5 70t67.5 26q40 0 69 -26.5t29 -69.5t-29 -69.5t-69 -26.5 q-37 0 -66.5 27.5t-29.5 68.5z" />
<glyph unicode="&#x3c;" d="M123 453v69l823 414l27 -51l-797 -398l797 -397l-27 -51z" />
<glyph unicode="=" d="M115 266v58h897v-58h-897zM115 655v58h897v-58h-897z" />
<glyph unicode="&#x3e;" d="M154 90l796 397l-796 398l26 51l824 -414v-69l-824 -414z" />
<glyph unicode="?" horiz-adv-x="980" d="M82 1083q0 147 122 242.5t306 95.5q78 0 151.5 -24.5t134 -70.5t97.5 -121.5t37 -168.5q0 -77 -26 -142t-68.5 -109.5t-97 -75.5t-110 -45.5t-108.5 -14.5t-92 8l-33 -280h-20l-21 317l35 13q63 -25 129 -25q57 0 109 21t95.5 62t70 112.5t26.5 162.5q0 165 -88.5 258 t-222.5 93q-158 0 -247 -87t-89 -206q0 -83 33.5 -126.5t85.5 -43.5q117 0 141 188l27 -2q-23 -237 -191 -237q-79 0 -132.5 56.5t-53.5 149.5zM293 86q0 44 28.5 70t67.5 26q40 0 69 -26.5t29 -69.5t-29 -69.5t-69 -26.5q-37 0 -66.5 27.5t-29.5 68.5z" />
<glyph unicode="@" horiz-adv-x="1804" d="M123 354q0 199 71.5 375.5t193 300.5t285.5 196t345 72q144 0 270 -47t217.5 -131t144 -206t52.5 -265q0 -131 -46 -247t-121 -194.5t-169 -123.5t-190 -45q-92 0 -140.5 45.5t-48.5 120.5q0 41 37 145q-58 -165 -125 -236t-149 -71q-85 0 -136 63.5t-51 178.5 q0 103 33.5 208t91 189t142 137t178.5 53q114 0 180 -84l84 84h20l-86 -190l-112 -342q-29 -86 -29 -131q2 -68 33.5 -101.5t103.5 -33.5q51 0 107.5 19.5t113.5 62t102.5 102.5t74 149.5t28.5 194.5q0 186 -77.5 331.5t-222.5 228.5t-335 83q-177 0 -326.5 -60.5 t-254.5 -170t-163.5 -267.5t-58.5 -348q0 -225 96.5 -402t270 -275.5t393.5 -98.5q156 0 290.5 49.5t215.5 132.5l17 -14q-196 -242 -549 -242q-174 0 -324 62t-254.5 169t-163.5 255.5t-59 318.5zM670 262q0 -172 106 -172q129 0 217 254l137 406q-33 94 -116 94 q-80 0 -148 -61t-109 -152.5t-64 -189t-23 -179.5z" />
<glyph unicode="A" horiz-adv-x="1431" d="M-20 0v27l38 6q54 8 85 20t61 45.5t53 82.5t59 143l355 933l47 142h63l455 -1188q36 -94 67.5 -126t102.5 -44l86 -14v-27q-47 0 -140.5 1t-140.5 1t-141 -1t-141 -1v27l104 12q84 9 109 44q12 17 12 43q0 28 -14 67l-101 268h-622l-55 -148q-41 -111 -45 -167v-13 q-1 -46 25 -67q30 -24 106 -31l79 -8v-27q-42 0 -127 1t-127 1t-126.5 -1t-126.5 -1zM391 504h592l-297 792z" />
<glyph unicode="B" horiz-adv-x="1282" d="M51 0v27l129 14q76 9 102.5 37.5t26.5 87.5v1059q0 59 -26.5 87.5t-102.5 37.5l-129 14v27h545q118 0 209.5 -15t165.5 -50t113.5 -98.5t39.5 -152.5q0 -146 -119.5 -237t-306.5 -107v-2q502 -18 502 -342q0 -127 -73 -215t-198.5 -130t-293.5 -42h-584zM401 180 q0 -76 33 -109.5t111 -33.5h90q224 0 337 85.5t113 266.5q0 175 -120.5 248.5t-370.5 73.5h-193v-531zM401 748h193q218 0 317 83t99 242q0 70 -19.5 120.5t-52.5 81.5t-87 48.5t-113 24t-140 6.5h-197v-606z" />
<glyph unicode="C" horiz-adv-x="1413" d="M88 696q0 206 83 371.5t231 259.5t333 94q142 0 256 -57t183 -160l55 207h20v-567h-37q-104 547 -477 547q-158 0 -279 -90.5t-185 -248t-64 -356.5q0 -201 63.5 -358.5t184 -247.5t278.5 -90q184 0 301.5 126t177.5 394h37v-540h-20l-55 210q-69 -104 -182.5 -162.5 t-258.5 -58.5q-185 0 -332.5 93.5t-230 260t-82.5 373.5z" />
<glyph unicode="D" horiz-adv-x="1421" d="M51 0v27l129 14q76 9 102.5 37.5t26.5 87.5v1059q0 59 -26.5 87.5t-102.5 37.5l-129 14v27h590q320 0 511 -191t191 -504q0 -314 -190 -505t-512 -191h-590zM401 180q0 -76 33 -109.5t111 -33.5h94q148 0 261.5 48t184.5 136t106.5 207.5t35.5 267.5q0 146 -36 265 t-106.5 207.5t-184 137t-261.5 48.5h-238v-1174z" />
<glyph unicode="E" horiz-adv-x="1267" d="M51 0v27l129 14q76 9 102.5 37.5t26.5 87.5v1059q0 59 -26.5 87.5t-102.5 37.5l-129 14v27h1047l30 -445h-32q-13 82 -21.5 128.5t-21 96t-21.5 73.5t-27 49t-33.5 33.5t-45 17t-58 9.5t-75.5 1h-392v-619h230q38 0 63 4.5t46 18.5t33.5 33.5t24 57t18.5 80t15 111.5h29 q-2 -106 -2 -321t2 -324h-29q-9 79 -17.5 126t-22 85.5t-35 56t-51 26.5t-74.5 9h-230v-518q0 -76 33 -109.5t111 -33.5h301q47 0 76 1.5t59 10.5t47 20t36 36.5t29.5 54t23.5 80t23 106t23 139.5h33l-33 -485h-1112z" />
<glyph unicode="F" horiz-adv-x="1187" d="M51 0v27l129 14q76 9 102.5 37.5t26.5 87.5v1059q0 59 -26.5 87.5t-102.5 37.5l-129 14v27h1045l30 -445h-32q-13 82 -21.5 128.5t-21 96t-21.5 73.5t-27 49t-33.5 33.5t-45 17t-58 9.5t-75.5 1h-390v-623h209q38 0 63.5 4.5t46.5 18.5t33.5 33.5t23.5 57t18.5 80.5 t15.5 111h29q-2 -106 -2 -321t2 -324h-29q-9 79 -17.5 126t-22 85t-35 56t-51.5 27t-75 9h-209v-518q0 -66 27.5 -96t112.5 -39l141 -14v-27q-52 0 -157.5 1t-157.5 1t-158 -1t-158 -1z" />
<glyph unicode="G" horiz-adv-x="1482" d="M88 696q0 205 85.5 371t236 260t335.5 94q139 0 249 -57.5t180 -161.5l55 209h20v-567h-37q-24 126 -61 222t-80.5 157t-98 99t-109.5 53.5t-118 15.5q-158 0 -281 -89.5t-190 -247.5t-67 -358t59 -355.5t180 -248t287 -92.5q179 0 302.5 94t123.5 232v108 q0 70 -35 105.5t-118 44.5l-129 14v27q104 -2 313 -2t313 2v-27l-127 -14q-76 -9 -101.5 -37.5t-25.5 -87.5v-226l4 -260h-18l-47 201q-69 -95 -185.5 -150t-273.5 -55q-193 0 -340 97t-224 261.5t-77 368.5z" />
<glyph unicode="H" horiz-adv-x="1595" d="M51 0v27l129 14q76 9 102.5 37.5t26.5 87.5v1059q0 59 -26.5 87.5t-102.5 37.5l-129 14v27q100 -2 303 -2q201 0 301 2v-27l-127 -14q-76 -9 -101.5 -37.5t-25.5 -87.5v-492h793v492q0 59 -25.5 87.5t-101.5 37.5l-127 14v27q100 -2 303 -2q201 0 301 2v-27l-129 -14 q-76 -9 -102.5 -37.5t-26.5 -87.5v-1059q0 -59 26.5 -87.5t102.5 -37.5l129 -14v-27q-50 0 -150.5 1t-150.5 1t-151.5 -1t-151.5 -1v27l127 14q76 9 101.5 37.5t25.5 87.5v524h-793v-524q0 -59 25.5 -87.5t101.5 -37.5l127 -14v-27q-50 0 -150.5 1t-150.5 1t-151.5 -1 t-151.5 -1z" />
<glyph unicode="I" horiz-adv-x="710" d="M51 0v27l129 14q76 9 102.5 37.5t26.5 87.5v1059q0 59 -26.5 87.5t-102.5 37.5l-129 14v27q102 -2 305 -2t303 2v-27l-129 -14q-76 -9 -102.5 -37.5t-26.5 -87.5v-1059q0 -59 26.5 -87.5t102.5 -37.5l129 -14v-27q-50 0 -151.5 1t-151.5 1q-51 0 -152.5 -1t-152.5 -1z " />
<glyph unicode="J" horiz-adv-x="1032" d="M23 250q0 62 28 97.5t76 35.5q34 0 56 -21t22 -55q0 -36 -20.5 -52.5t-55.5 -23.5q-31 -5 -31 -45q0 -28 13 -58t39.5 -59t75.5 -48t112 -19q173 0 249.5 96.5t76.5 286.5v829q0 66 -28.5 96.5t-113.5 39.5l-141 14v27q104 -2 315 -2q212 0 316 2v-27l-129 -14 q-76 -9 -102.5 -37.5t-26.5 -87.5v-791q0 -231 -110 -348t-306 -117q-148 0 -231.5 80.5t-83.5 200.5z" />
<glyph unicode="K" horiz-adv-x="1429" d="M51 0v27l129 14q76 9 102.5 37.5t26.5 87.5v1059q0 59 -26.5 87.5t-102.5 37.5l-129 14v27q102 -2 305 -2t303 2v-27l-129 -14q-76 -9 -102.5 -37.5t-26.5 -87.5v-1059q0 -59 26.5 -87.5t102.5 -37.5l129 -14v-27q-50 0 -151.5 1t-151.5 1q-51 0 -152.5 -1t-152.5 -1z M422 727l422 406q83 79 107 109t24 56q0 23 -24 35.5t-83 20.5l-82 10v27q96 -2 287 -2t287 2v-27l-70 -8q-99 -11 -185.5 -61.5t-230.5 -188.5l-360 -344l485 -516q112 -120 171 -157t167 -52l76 -10v-27q-53 0 -158.5 1t-158.5 1t-159 -1t-159 -1v27l88 8q64 6 92.5 18.5 t28.5 36.5q0 22 -17 45t-81 92z" />
<glyph unicode="L" horiz-adv-x="1265" d="M51 0v27l129 14q76 9 102.5 37.5t26.5 87.5v1059q0 59 -26.5 87.5t-102.5 37.5l-129 14v27q104 -2 316 -2q211 0 315 2v-27l-141 -14q-85 -9 -112.5 -39.5t-27.5 -96.5v-1034q0 -76 33 -109.5t111 -33.5h313q44 0 73.5 2.5t58 12.5t46 22.5t35.5 40.5t29 58t24 84t23 109 t24 142h33l-33 -508h-1120z" />
<glyph unicode="M" horiz-adv-x="1918" d="M51 0v27l82 12q60 9 91.5 20.5t52.5 39.5t26.5 69.5t5.5 118.5v938q0 59 -26.5 87.5t-102.5 37.5l-129 14v27h377l530 -1293l535 1293h375v-27l-129 -14q-76 -9 -102.5 -37.5t-26.5 -87.5v-1059q0 -59 26.5 -87.5t102.5 -37.5l129 -14v-27q-50 0 -151.5 1t-151.5 1 q-51 0 -152.5 -1t-152.5 -1v27l129 14q76 9 102.5 37.5t26.5 87.5v1163l-555 -1337h-56l-549 1337v-1042q0 -76 6 -118t26.5 -70t51.5 -39.5t90 -20.5l84 -12v-27q-47 0 -141 1t-141 1t-141.5 -1t-141.5 -1z" />
<glyph unicode="N" horiz-adv-x="1595" d="M51 0v27l82 12q60 9 91.5 20.5t52.5 39.5t26.5 69.5t5.5 118.5v938q0 59 -26.5 87.5t-102.5 37.5l-129 14v27h359l858 -1264v977q0 76 -6 118t-26.5 70t-51.5 39.5t-90 20.5l-84 12v27q94 -2 282 -2q189 0 283 2v-27l-82 -12q-60 -9 -91.5 -20.5t-52.5 -39.5t-26.5 -69.5 t-5.5 -118.5v-1112h-68l-891 1306v-1011q0 -76 6 -118t26.5 -70t51.5 -39.5t90 -20.5l84 -12v-27q-47 0 -141 1t-141 1t-141.5 -1t-141.5 -1z" />
<glyph unicode="O" horiz-adv-x="1499" d="M88 696q0 213 85.5 379t236 256t340.5 90q189 0 339.5 -90t236 -256t85.5 -379t-85.5 -379.5t-236 -257t-339.5 -90.5q-190 0 -340.5 90.5t-236 256.5t-85.5 380zM207 696q0 -203 64.5 -360t188.5 -246.5t290 -89.5t290 89.5t189 246.5t65 360q0 201 -64.5 357.5 t-189 247t-290.5 90.5t-290 -90.5t-188.5 -247t-64.5 -357.5z" />
<glyph unicode="P" horiz-adv-x="1208" d="M51 0v27l129 14q76 9 102.5 37.5t26.5 87.5v1059q0 59 -26.5 87.5t-102.5 37.5l-129 14v27h524q572 0 572 -379q0 -127 -71.5 -214.5t-190 -127t-277.5 -39.5q-119 0 -207 8v-463q0 -66 27.5 -96t112.5 -39l141 -14v-27q-52 0 -157.5 1t-157.5 1t-158 -1t-158 -1z M401 674q99 -6 193 -6q206 0 323 87.5t117 256.5q0 179 -111.5 260.5t-344.5 81.5h-177v-680z" />
<glyph unicode="Q" horiz-adv-x="1499" d="M88 696q0 213 85.5 379t236 256t340.5 90q189 0 339.5 -90t236 -256t85.5 -379q0 -214 -89 -384.5t-245 -258.5q-70 -40 -237.5 -108.5t-272.5 -126.5q101 37 207 37q90 0 182 -32t168.5 -78t151 -92t156 -78t157.5 -32q129 0 197 69.5t96 225.5h27q-23 -183 -116.5 -284 t-244.5 -101q-71 0 -138.5 20.5t-122.5 53t-109.5 71.5t-108 78.5t-108 72t-121 53t-135.5 20.5q-65 0 -133.5 -25.5t-109 -51t-110.5 -75.5q-29 -21 -62 -21q-10 0 -20 2q-43 8 -63 50q88 75 315 123q51 29 112 58.5t96.5 44.5t109 44t92.5 37q-104 -35 -199 -35 q-186 0 -334 94t-229.5 259t-81.5 370zM207 696q0 -203 64.5 -360t188.5 -246.5t290 -89.5t290 89.5t189 246.5t65 360q0 201 -64.5 357.5t-189 247t-290.5 90.5t-290 -90.5t-188.5 -247t-64.5 -357.5z" />
<glyph unicode="R" horiz-adv-x="1347" d="M51 0v27l129 14q76 9 102.5 37.5t26.5 87.5v1059q0 59 -26.5 87.5t-102.5 37.5l-129 14v27h531q561 0 561 -369q0 -133 -91.5 -221t-234.5 -121q20 -27 62 -109l182 -366q50 -100 88.5 -130t134.5 -40l74 -8v-27h-228q-45 0 -65 12t-39 51l-289 594q-75 -10 -159 -10 q-78 0 -177 6v-479q0 -65 27 -94.5t109 -38.5l135 -14v-27q-51 0 -155 1t-155 1q-52 0 -155.5 -1t-155.5 -1zM401 692q81 -8 179 -8q448 0 448 340q0 182 -106 257t-336 75h-185v-664z" />
<glyph unicode="S" horiz-adv-x="1146" d="M123 -25v564h37q24 -151 65 -256.5t99.5 -167t128 -88.5t159.5 -27q147 0 239.5 84t92.5 221q0 60 -18 109t-47.5 84t-80.5 67t-103 54t-128 49q-73 25 -126.5 49t-108.5 58.5t-89.5 74t-56.5 94t-22 119.5q0 165 116.5 261.5t288.5 96.5q223 0 351 -161l51 155h20v-541 h-37q-30 192 -84 307.5t-126.5 162.5t-174.5 47q-140 0 -229.5 -77.5t-89.5 -209.5q0 -59 19.5 -107.5t50.5 -83.5t83 -66t103.5 -52.5t124.5 -46.5q99 -33 165 -65t124 -79.5t86 -112.5t28 -151q0 -114 -61 -200.5t-155.5 -128.5t-205.5 -42q-262 0 -411 181l-58 -175h-20z " />
<glyph unicode="T" horiz-adv-x="1325" d="M61 922l19 469h1165l19 -469h-29q-11 71 -17.5 111t-16.5 88.5t-16 72.5t-18 54t-21 42t-26 27.5t-32 20t-40.5 10t-50 6t-61.5 0.5h-227v-1180q0 -66 26 -95t111 -38l139 -14v-27q-53 0 -160.5 1t-160.5 1q-54 0 -162 -1t-162 -1v27l139 14q85 9 111 38t26 95v1180h-227 q-37 0 -61.5 -0.5t-50 -6t-40.5 -10t-32 -20t-26 -27.5t-21 -42t-18 -54t-16 -72.5t-16.5 -88.5t-17.5 -111h-29z" />
<glyph unicode="U" horiz-adv-x="1583" d="M31 1364v27q102 -2 305 -2t303 2v-27l-129 -14q-76 -9 -102.5 -37.5t-26.5 -87.5v-740q0 -109 23.5 -191.5t62 -133t95.5 -81.5t117.5 -42.5t135.5 -11.5q215 0 327.5 119t112.5 337v623q0 76 -6 118t-26.5 70t-51.5 39.5t-90 20.5l-84 12v27q94 -2 283 -2t283 2v-27 l-82 -12q-60 -9 -91.5 -20.5t-52.5 -39.5t-26.5 -69.5t-5.5 -118.5v-623q0 -245 -132.5 -377.5t-384.5 -132.5q-82 0 -150.5 13t-135 48t-112 91t-73.5 148.5t-28 213.5v740q0 59 -26.5 87.5t-102.5 37.5z" />
<glyph unicode="V" horiz-adv-x="1411" d="M-31 1364v27q94 -2 283 -2q186 0 280 2v-27l-104 -12q-84 -9 -108 -45q-12 -17 -12 -43q0 -29 14 -68l411 -1106l367 987q42 111 46 167v12q0 46 -26 68q-30 24 -106 32l-80 8v27q84 -2 254 -2t254 2v-27l-39 -6q-54 -8 -85 -20t-61 -45.5t-53 -82.5t-59 -143l-354 -934 l-50 -143h-61l-455 1190q-36 94 -67.5 126t-102.5 44z" />
<glyph unicode="W" horiz-adv-x="2015" d="M-31 1364v27q94 -2 283 -2q186 0 280 2v-27l-112 -14q-82 -10 -104 -47q-10 -17 -10 -43q0 -28 13 -66l310 -1075l358 1276h74l373 -1276l280 966q18 63 24 105q4 26 5 47q0 13 -2 25q-4 31 -24 49t-50.5 28.5t-81.5 16.5l-65 8v27q88 -2 264 -2q174 0 262 2v-27l-49 -8 q-39 -7 -64.5 -14t-48.5 -22t-36.5 -31t-29.5 -49.5t-27 -67.5t-30 -95l-288 -962l-35 -125h-56l-381 1296l-329 -1161l-37 -135h-55l-351 1181q-28 95 -66 131t-122 50z" />
<glyph unicode="X" horiz-adv-x="1544" d="M10 0v27l41 6q123 19 194.5 71.5t198.5 219.5l289 378l-350 465q-78 102 -123 136.5t-117 46.5l-84 14v27q96 -2 287 -2t287 2v-27l-117 -14q-80 -10 -90 -44q-2 -6 -2 -12q0 -31 37 -77l332 -447l245 326q57 75 79 114.5t22 67.5q0 32 -34 51t-124 29l-55 6v27 q96 -2 288 -2q193 0 289 2v-27l-41 -6q-123 -19 -194.5 -71.5t-198.5 -219.5l-252 -330l387 -514q76 -100 124 -135t122 -47l84 -14v-27q-49 0 -146.5 1t-146.5 1t-146.5 -1t-146.5 -1v27l117 14q84 10 95 44q2 7 2 14q0 31 -36 75l-368 498l-283 -377q-58 -77 -79 -116.5 t-21 -67.5q0 -60 166 -78l55 -6v-27q-49 0 -146.5 1t-146.5 1t-146.5 -1t-146.5 -1z" />
<glyph unicode="Y" horiz-adv-x="1327" d="M-31 1364v27q92 -2 279 -2q186 0 278 2v-27l-116 -14q-81 -10 -99 -43q-6 -11 -6 -25q0 -27 23 -65l354 -629l274 475q53 93 72 137t19 74q0 35 -30 52.5t-116 29.5l-61 8v27q86 -2 260 -2q172 0 258 2v-27l-47 -8q-98 -17 -156.5 -74t-163.5 -235l-286 -490v-383 q0 -66 26 -95t111 -38l139 -14v-27q-53 0 -161 1t-161 1q-55 0 -161.5 -1t-161.5 -1v27l139 14q85 9 111 38t26 95v371l-370 639q-57 98 -96.5 130t-118.5 42z" />
<glyph unicode="Z" horiz-adv-x="1261" d="M72 0v37l966 1317h-594q-36 0 -61 -1t-50 -6t-41 -10.5t-33 -20t-26.5 -28.5t-21.5 -42t-19 -54t-16.5 -72t-16.5 -88.5t-18 -109.5h-35l31 469h1016v-37l-967 -1317h650q37 0 65 1.5t53.5 9t43.5 14t35.5 25t28 32.5t23 47t20 58t18.5 76t18.5 90t19.5 110h31l-31 -500 h-1089z" />
<glyph unicode="[" horiz-adv-x="737" d="M246 -375v1948l450 -8v-31l-368 -21v-1828l368 -23v-29z" />
<glyph unicode="\" horiz-adv-x="651" d="M37 1493h55l529 -1595h-56z" />
<glyph unicode="]" horiz-adv-x="737" d="M41 -338l369 23v1828l-369 21v31l451 8v-1948l-451 8v29z" />
<glyph unicode="^" horiz-adv-x="1054" d="M102 946l375 621h101l374 -621h-51l-373 531l-374 -531h-52z" />
<glyph unicode="_" horiz-adv-x="1060" d="M0 -47h1061v-57h-1061v57z" />
<glyph unicode="`" horiz-adv-x="1019" d="M250 1530v6h131q69 -160 205 -352h-13q-179 141 -323 346z" />
<glyph unicode="a" horiz-adv-x="989" d="M72 188q0 80 50 141.5t139 100.5t190.5 62t226.5 36v156v10q0 142 -56 211q-58 72 -182 72q-92 0 -154.5 -42.5t-62.5 -80.5q0 -15 11.5 -26t25.5 -18t25.5 -24.5t11.5 -44.5q0 -32 -23.5 -52.5t-58.5 -20.5q-42 0 -66 28.5t-24 75.5q0 96 94.5 166t220.5 70 q326 0 326 -342l-2 -500q0 -76 20.5 -112t65.5 -36q43 0 69 41t33 142h27q-4 -117 -41 -169t-109 -52q-73 0 -109.5 42t-35.5 136q-40 -87 -127 -137t-203 -50q-125 0 -203.5 56t-78.5 161zM174 193q0 -82 56.5 -131.5t142.5 -49.5q45 0 85 7t81 27.5t70 52.5t47.5 86 t19.5 124l2 189q-94 -10 -164 -23t-137 -36.5t-109.5 -55t-68 -80t-25.5 -110.5z" />
<glyph unicode="b" horiz-adv-x="1032" d="M-72 1507v21l299 55l27 -12q-12 -91 -12 -193v-352q0 -108 -12.5 -282t-12.5 -250q0 244 100 379t271 135q176 0 282.5 -144t106.5 -375q0 -124 -35.5 -224t-97 -164t-142 -98t-172.5 -34q-194 0 -319 131l-53 -123h-19l15 254v1149q0 68 -19.5 89.5t-87.5 27.5zM242 180 q44 -85 118 -132.5t170 -47.5q172 0 256 130.5t84 358.5q0 136 -30.5 240.5t-99 170t-169.5 65.5q-145 0 -237 -121.5t-92 -349.5v-314z" />
<glyph unicode="c" horiz-adv-x="966" d="M55 489q0 118 40 217t108 164.5t156.5 101.5t185.5 36q131 0 215 -60.5t84 -150.5q0 -51 -26.5 -81t-67.5 -30q-36 0 -59 21t-23 57q0 24 10 41t22.5 24.5t22.5 18t10 22.5q0 39 -51.5 73t-134.5 34q-166 0 -275.5 -129.5t-109.5 -355.5q0 -136 37.5 -241t118 -169 t194.5 -64q99 0 182.5 51.5t143.5 149.5l26 -14q-63 -110 -157 -172t-207 -62q-198 0 -321.5 144.5t-123.5 373.5z" />
<glyph unicode="d" horiz-adv-x="1122" d="M55 487q0 122 39 223t104.5 165t147 98.5t170.5 34.5q162 0 275 -95v467q0 66 -19.5 86.5t-89.5 26.5l-129 12v21l311 57l27 -12q-12 -91 -12 -193v-1206q0 -71 25.5 -98.5t101.5 -36.5l86 -10v-27h-275l-16 18q0 77 7 213.5t7 202.5q0 -212 -95.5 -338.5t-262.5 -126.5 q-186 0 -294 143t-108 375zM162 487q0 -134 33.5 -239.5t105 -170.5t172.5 -65q141 0 229.5 116t88.5 306v367q-96 176 -275 176q-165 0 -259.5 -134.5t-94.5 -355.5z" />
<glyph unicode="e" horiz-adv-x="960" d="M55 489q0 142 57 260t162 188.5t238 70.5q116 0 196.5 -49.5t117 -128t36.5 -179.5q0 -46 -8 -106l-690 2q-2 -18 -2 -55q0 -99 20.5 -183t61.5 -150t110 -103.5t158 -37.5q211 0 340 211l27 -14q-141 -244 -379 -244q-203 0 -324 144t-121 374zM166 578l590 18l2 37 q2 20 2 49q0 62 -12.5 112.5t-40 93t-77 66t-116.5 23.5q-99 0 -174.5 -54.5t-117.5 -142.5t-56 -202z" />
<glyph unicode="f" horiz-adv-x="665" d="M23 0v27l86 10q76 9 101.5 36.5t25.5 98.5v746l-193 18v29l193 18v193q0 111 26.5 193t73.5 129t105.5 69t129.5 22q97 0 162.5 -49t65.5 -121q0 -45 -24.5 -72.5t-63.5 -27.5q-37 0 -60.5 21t-23.5 53q0 23 9.5 40t21 24.5t21 17t9.5 20.5q0 25 -29.5 44.5t-87.5 19.5 q-123 0 -185 -85t-62 -274v-223h274v-43l-274 -10v-744q0 -76 27.5 -105t109.5 -38l86 -10v-27q-42 0 -135.5 1t-135.5 1t-126.5 -1t-126.5 -1z" />
<glyph unicode="g" horiz-adv-x="993" d="M20 -211q0 86 48 141.5t116 55.5q40 0 53.5 -16t10.5 -48q-74 0 -117 -38.5t-43 -108.5q0 -109 102 -175.5t269 -66.5q184 0 299.5 66t115.5 186q0 219 -409 225q-168 3 -249 53t-81 138q0 83 72.5 121t187.5 38q-136 0 -228.5 86t-92.5 228q0 146 99.5 240t252.5 94 q135 0 231 -80q90 90 193 90q56 0 87.5 -27.5t31.5 -72.5q0 -38 -23 -61t-59 -23q-33 0 -52.5 20t-19.5 49q0 9 3 24t3 19q0 23 -30 23q-49 0 -115 -60q100 -94 100 -235q0 -145 -100 -238.5t-252 -93.5q-118 -5 -179 -32.5t-61 -88.5t70 -84t227 -26q129 -3 219 -26 t141 -65t73 -95t22 -124q0 -138 -136 -218.5t-341 -80.5q-193 0 -316 77.5t-123 209.5zM178 674q0 -132 65 -216.5t181 -84.5q118 0 183 84.5t65 216.5q0 133 -65 218t-183 85q-116 0 -181 -85t-65 -218z" />
<glyph unicode="h" horiz-adv-x="1210" d="M10 1507v21l299 55l27 -12q-12 -91 -12 -193v-317q0 -152 -11.5 -328t-11.5 -284q0 111 22 207.5t66.5 177t122.5 127.5t180 47q137 0 211 -78.5t74 -227.5v-530q0 -71 25.5 -98.5t101.5 -36.5l86 -10v-27q-42 0 -127 1t-127 1t-127 -1t-127 -1v27l74 10q77 11 105 38.5 t28 96.5v530q0 123 -54.5 192t-156.5 69q-89 0 -158.5 -45t-111 -120t-63 -164t-21.5 -185v-277q0 -69 28 -96.5t105 -38.5l73 -10v-27q-42 0 -127 1t-127 1t-126.5 -1t-126.5 -1v27l86 10q76 9 101.5 36.5t25.5 98.5v1208q0 68 -19.5 89.5t-87.5 27.5z" />
<glyph unicode="i" horiz-adv-x="565" d="M14 913v21l299 65l27 -12q-12 -83 -12 -201v-614q0 -71 25.5 -98.5t101.5 -36.5l86 -10v-27q-42 0 -130 1t-130 1t-127 -1t-127 -1v27l86 10q76 9 101.5 36.5t25.5 98.5v621q0 66 -25 89t-113 27zM164 1393q0 40 27 67t67 27t67 -27t27 -67t-27 -66.5t-67 -26.5t-67 26.5 t-27 66.5z" />
<glyph unicode="j" horiz-adv-x="581" d="M-174 -330q0 46 25 75.5t69 29.5q34 0 56 -20t22 -52q0 -24 -9.5 -41t-21 -24t-21 -17.5t-9.5 -23.5q0 -27 34.5 -46.5t89.5 -19.5q236 0 236 342v915q0 47 -8.5 69.5t-39 35.5t-93.5 16l-95 4v21l310 65l26 -12q-12 -83 -12 -203v-888q0 -88 -20 -158t-51.5 -113.5 t-75 -72.5t-87 -40.5t-90.5 -11.5q-105 0 -170 49.5t-65 120.5zM219 1393q0 40 27 67t67 27t67.5 -27t27.5 -67t-27.5 -66.5t-67.5 -26.5t-67 26.5t-27 66.5z" />
<glyph unicode="k" horiz-adv-x="1085" d="M10 1507v21l299 55l27 -12q-12 -91 -12 -193v-1206q0 -72 23 -99t97 -36l82 -10v-27q-42 0 -125 1t-125 1t-126.5 -1t-126.5 -1v27l86 10q76 9 101.5 36.5t25.5 98.5v1208q0 68 -19.5 89.5t-87.5 27.5zM344 516l272 266q70 70 70 109q0 21 -22.5 32t-71.5 17l-76 10v27 q84 -2 250 -2t248 2v-27l-64 -10q-74 -11 -142.5 -50t-168.5 -134l-211 -203l344 -346q99 -101 147 -132t117 -42l41 -6v-27q-41 0 -117.5 1t-117.5 1t-122 -1t-122 -1v27l72 8q45 6 62.5 16.5t17.5 28.5q0 14 -11 30t-41 48z" />
<glyph unicode="l" horiz-adv-x="567" d="M10 1507v21l299 55l27 -12q-12 -91 -12 -193v-1206q0 -71 25.5 -98.5t101.5 -36.5l86 -10v-27q-42 0 -130.5 1t-130.5 1t-126.5 -1t-126.5 -1v27l86 10q76 9 101.5 36.5t25.5 98.5v1208q0 68 -19.5 89.5t-87.5 27.5z" />
<glyph unicode="m" horiz-adv-x="1798" d="M10 913v21l287 65l27 -12q-7 -93 -15 -275.5t-8 -273.5q0 109 22 208t66 181.5t118 131.5t169 49q131 0 194.5 -75t63.5 -208q0 -67 -10 -209q8 100 34 187t70.5 156t113 109t154.5 40q134 0 201.5 -80.5t67.5 -222.5v-545q0 -57 28.5 -85.5t98.5 -37.5l86 -10v-27 q-42 0 -127 1t-127 1q-43 0 -128 -1t-128 -1v27l75 10q70 9 102 38t32 85v545q0 258 -191 258q-58 0 -108 -22.5t-86.5 -61.5t-65.5 -90t-46.5 -110t-26.5 -120t-9 -121v-278q0 -56 31.5 -85t101.5 -38l76 -10v-27q-42 0 -126 1t-126 1t-127 -1t-127 -1v27l76 10 q70 9 101.5 38t31.5 85v545q0 55 -9.5 99.5t-31 81t-60 57t-91.5 20.5q-83 0 -150 -47.5t-107 -124.5t-61.5 -167.5t-21.5 -183.5v-280q0 -56 31.5 -85t101.5 -38l75 -10v-27q-42 0 -126.5 1t-126.5 1q-43 0 -128 -1t-128 -1v27l86 10q70 9 98.5 37.5t28.5 85.5v633 q0 64 -24.5 88t-109.5 28zM922 438v27v-27z" />
<glyph unicode="n" horiz-adv-x="1204" d="M10 913v21l287 65l27 -12q-7 -92 -15 -280t-8 -279q0 107 22 206t66.5 185t122 137.5t178.5 51.5q137 0 212 -79t75 -227v-530q0 -69 28 -96.5t105 -38.5l74 -10v-27q-42 0 -127 1t-127 1t-127 -1t-127 -1v27l86 10q76 9 101.5 36.5t25.5 98.5v530q0 127 -55 194t-158 67 q-71 0 -130.5 -33t-100 -87t-68.5 -124.5t-40.5 -144t-12.5 -146.5v-256q0 -69 28 -96.5t105 -38.5l73 -10v-27q-42 0 -127 1t-127 1t-126.5 -1t-126.5 -1v27l86 10q76 9 101.5 36.5t25.5 98.5v621q0 64 -24.5 88t-109.5 28z" />
<glyph unicode="o" horiz-adv-x="1007" d="M55 489q0 228 123.5 373.5t325.5 145.5t325 -145.5t123 -373.5t-123 -374t-325 -146t-325.5 146t-123.5 374zM162 489q0 -138 36.5 -246t115 -175.5t190.5 -67.5t190.5 67.5t115 175.5t36.5 246t-36.5 246t-115 175t-190.5 67t-190.5 -67t-115 -175t-36.5 -246z" />
<glyph unicode="p" horiz-adv-x="1087" d="M-25 913v21l287 65l27 -12q-25 -341 -25 -493q0 244 101.5 379t273.5 135q176 0 284.5 -144.5t108.5 -374.5q0 -100 -24.5 -185.5t-67.5 -146.5t-100.5 -104t-123 -63.5t-136.5 -20.5q-167 0 -291 103v-363q0 -76 27.5 -105t109.5 -38l86 -10v-27q-42 0 -135 1t-135 1 t-127 -1t-127 -1v27l86 10q76 9 101.5 36.5t25.5 98.5v1092q0 64 -24 88t-109 28zM289 182q50 -88 124.5 -135t166.5 -47q165 0 255.5 131t90.5 358q0 135 -31.5 240t-101 170.5t-170.5 65.5q-146 0 -240 -121.5t-94 -349.5v-312z" />
<glyph unicode="q" horiz-adv-x="1071" d="M55 487q0 122 39 223t104.5 165t147 98.5t170.5 34.5q189 0 301 -121l53 129h23l-14 -225v-1090q0 -71 25.5 -98.5t101.5 -36.5l86 -10v-27q-42 0 -127 1t-127 1t-135.5 -1t-135.5 -1v27l86 10q83 9 110.5 38t27.5 105v158q0 124 11 299t11 268q0 -218 -93 -341.5 t-259 -123.5q-187 0 -296.5 142t-109.5 376zM162 487q0 -134 33.5 -239.5t105 -170.5t172.5 -65q142 0 230 112t88 312v365q-96 176 -275 176q-165 0 -259.5 -134.5t-94.5 -355.5z" />
<glyph unicode="r" horiz-adv-x="794" d="M10 918v20l287 61l27 -12q-6 -85 -14.5 -311.5t-8.5 -321.5q0 90 21 214t57 220q38 102 103.5 161t160.5 59q57 0 91 -33t34 -76t-25.5 -66.5t-62.5 -23.5t-56.5 21.5t-19.5 54.5q0 7 1 20t1 17q0 26 -26 26q-54 0 -99.5 -47.5t-77.5 -128.5q-37 -93 -59 -208.5 t-22 -209.5v-174q0 -76 26.5 -105t108.5 -38l86 -10v-27q-42 0 -133.5 1t-133.5 1t-126.5 -1t-126.5 -1v27l86 10q76 9 101.5 36.5t25.5 98.5v627q0 61 -24.5 83.5t-109.5 28.5z" />
<glyph unicode="s" horiz-adv-x="823" d="M68 -29v418h36q12 -89 32 -155t56 -121.5t93.5 -84t136.5 -28.5q104 0 167.5 58.5t63.5 152.5q0 53 -19.5 94t-60 71.5t-82.5 50.5t-108 44q-53 19 -90 35.5t-77 41.5t-63.5 52t-39 65.5t-15.5 84.5q0 112 88.5 185t212.5 73q152 0 250 -101l47 99h17v-375h-35 q-12 79 -31.5 138t-51.5 108t-82 74.5t-116 25.5q-98 0 -158.5 -55t-60.5 -140q0 -39 15.5 -71t36.5 -53.5t60 -42.5t70 -33.5t82 -30.5q70 -25 117 -48.5t89 -58t62.5 -83t20.5 -111.5q0 -127 -86 -204t-225 -77q-181 0 -291 119l-45 -117h-16z" />
<glyph unicode="t" horiz-adv-x="696" d="M-10 936v27l55 6q98 10 126.5 39t43.5 125l23 143h45l-13 -299h355v-41l-355 -12v-709q0 -105 35 -154t109 -49q142 0 202 226l29 -7q-35 -132 -95.5 -194t-152.5 -62q-108 0 -161.5 55.5t-53.5 188.5v699z" />
<glyph unicode="u" d="M-25 950v27h308l-7 -160v-526q0 -135 57 -206t161 -71q67 0 120.5 25.5t89 68.5t58.5 103t33 124.5t10 137.5v332q0 71 -25.5 98.5t-101.5 36.5l-86 10v27h307l-6 -160v-645q0 -71 25.5 -98.5t101.5 -36.5l86 -10v-27h-275l-16 18q0 78 6 233t6 222q0 -104 -18 -190.5 t-56.5 -159t-108.5 -113.5t-165 -41q-137 0 -214 83t-77 239v514q0 71 -25.5 98.5t-101.5 36.5z" />
<glyph unicode="v" horiz-adv-x="1112" d="M-10 950v27q84 -2 250 -2q165 0 249 2v-27l-106 -12q-33 -4 -53 -12t-30 -19t-10.5 -29.5t4.5 -36.5t15 -46l260 -713l262 645q37 88 37 137q0 33 -30.5 53t-100.5 27l-53 6v27q74 -2 219 -2t219 2v-27l-32 -4q-82 -10 -126 -57.5t-100 -177.5l-307 -731h-35l-303 796 q-37 95 -71 127t-109 41z" />
<glyph unicode="w" horiz-adv-x="1593" d="M-10 950v27q84 -2 250 -2q165 0 249 2v-27l-106 -12q-73 -9 -87 -42q-5 -12 -5 -29q0 -30 16 -76l217 -693l258 885h62l274 -885l199 607q29 96 29 131q0 55 -31 76.5t-109 31.5l-51 6v27q76 -2 225 -2q150 0 224 2v-27l-31 -4q-87 -12 -130 -62.5t-91 -193.5l-242 -710 h-43l-283 901l-264 -901h-43l-260 796q-29 89 -67.5 124t-110.5 44z" />
<glyph unicode="x" horiz-adv-x="1124" d="M0 0v27l39 6q83 12 143 57.5t154 169.5l186 242l-192 274q-65 92 -109.5 123t-120.5 43l-51 8v27q82 -2 246 -2t246 2v-27l-88 -10q-65 -6 -71 -42q-1 -4 -1 -9q0 -34 39 -90l162 -242l135 182q74 102 74 148q0 24 -22 37t-79 20l-49 6v27q74 -2 219 -2t217 2v-27l-41 -6 q-83 -12 -140 -57t-153 -170l-143 -185l234 -331q63 -89 107 -121.5t126 -44.5l57 -8v-27q-43 0 -128 1t-128 1t-128 -1t-128 -1v27l82 10q78 10 86 44q1 5 2 11q0 33 -39 86l-204 301l-177 -241q-71 -99 -71 -140q0 -26 22 -41t80 -22l64 -8v-27q-38 0 -114 1t-114 1 t-114.5 -1t-114.5 -1z" />
<glyph unicode="y" horiz-adv-x="1112" d="M-10 950v27q84 -2 250 -2q165 0 249 2v-27l-106 -12q-78 -9 -92 -42q-4 -11 -4 -24q0 -30 22 -77l283 -695l239 627q37 102 37 137q0 33 -30.5 53t-100.5 27l-53 6v27q74 -2 219 -2t219 2v-27l-32 -4q-84 -10 -129 -58t-97 -177l-258 -658q-55 -141 -107.5 -243.5 t-94.5 -160t-86 -91t-76.5 -43t-71.5 -9.5q-70 0 -115 41.5t-45 102.5q0 43 24.5 72.5t69.5 29.5q35 0 56.5 -20t21.5 -51q0 -24 -9 -40.5t-20.5 -23.5t-20.5 -17.5t-9 -23.5q0 -14 16 -24.5t41 -10.5q37 0 73 17t82 61.5t98 136t106 224.5l8 20l-328 776q-40 95 -74 127 t-108 41z" />
<glyph unicode="z" horiz-adv-x="964" d="M72 0v39l684 903h-377q-79 0 -121.5 -27.5t-70 -100t-52.5 -224.5h-33l23 387h739v-39l-684 -903h398q55 0 90 8t65 29t49.5 64t35.5 105t32 160h33l-25 -401h-786z" />
<glyph unicode="{" horiz-adv-x="856" d="M51 563v72q175 5 253.5 63.5t78.5 194.5q0 41 -14.5 187t-14.5 202q0 136 76 210.5t213 74.5h172v-31l-170 -8q-203 -11 -203 -238q0 -47 9.5 -207t9.5 -178q0 -148 -84 -216t-236 -83v-14q152 -15 236 -83t84 -216q0 -18 -9.5 -178t-9.5 -207q0 -227 203 -238l170 -8 v-31h-172q-137 0 -213 74.5t-76 210.5q0 56 14.5 202t14.5 187q0 136 -78.5 194.5t-253.5 63.5z" />
<glyph unicode="|" horiz-adv-x="540" d="M236 -205v1698h69v-1698h-69z" />
<glyph unicode="}" horiz-adv-x="856" d="M41 -338l170 8q203 11 203 238q0 47 -9.5 207t-9.5 178q0 148 84 216t236 83v14q-152 15 -236 83t-84 216q0 18 9.5 178t9.5 207q0 227 -203 238l-170 8v31h172q137 0 213 -74.5t76 -210.5q0 -56 -14.5 -202t-14.5 -187q0 -136 78.5 -194.5t253.5 -63.5v-72 q-175 -5 -253.5 -63.5t-78.5 -194.5q0 -41 14.5 -187t14.5 -202q0 -136 -76 -210.5t-213 -74.5h-172v31z" />
<glyph unicode="~" horiz-adv-x="1089" d="M133 420q6 196 189 196q51 0 116 -24t116.5 -53.5t113.5 -53.5t108 -24q65 0 98.5 31.5t34.5 101.5h47q0 -205 -192 -205q-51 0 -115.5 24.5t-115.5 53.5t-112.5 53.5t-109.5 24.5q-68 0 -100.5 -40t-28.5 -134h-47q-2 25 -2 49z" />
<glyph unicode="&#xa1;" horiz-adv-x="563" d="M184 897q0 41 30 68.5t67 27.5q40 0 69 -26.5t29 -69.5t-29 -69.5t-69 -26.5q-39 0 -68 26t-29 70zM199 -330q0 39 26 160t33 252q12 250 12 524h25q0 -274 12 -524q7 -132 33.5 -252.5t26.5 -159.5q0 -50 -22.5 -78t-61.5 -28t-61.5 28t-22.5 78z" />
<glyph unicode="&#xa2;" horiz-adv-x="1036" d="M113 471q0 122 42.5 225.5t112 170.5t156.5 104t178 37h27l55 237h41l-55 -241q116 -15 189 -75t73 -143q0 -41 -25.5 -69.5t-64.5 -28.5q-35 0 -59.5 20.5t-24.5 55.5q0 22 9.5 39t21 24.5t21 17.5t9.5 21q0 33 -42 64t-115 41l-205 -893q67 -27 135 -27q233 0 334 146 l18 -17q-59 -92 -163 -150.5t-224 -58.5q-59 0 -121 19l-69 -299h-41l71 311q-125 49 -204.5 169.5t-79.5 299.5zM205 502q0 -152 60 -254t155 -152l201 879h-21q-77 0 -146 -29t-125.5 -84.5t-90 -148.5t-33.5 -211z" />
<glyph unicode="&#xa3;" horiz-adv-x="1148" d="M31 137q0 75 56.5 126.5t139.5 51.5q89 0 224 -71q24 107 24 241q0 48 -4 146l-268 12l2 31l264 18q-6 91 -6 172q0 131 36 228.5t114.5 155t193.5 57.5q94 0 156.5 -46.5t62.5 -121.5q0 -45 -23.5 -71t-60.5 -26q-32 0 -54 19.5t-22 46.5q0 24 9.5 40t20.5 22.5 t20.5 16.5t9.5 23q0 28 -29 47t-90 19q-51 0 -91 -19t-66.5 -55.5t-44.5 -77t-28.5 -95.5t-15.5 -98.5t-8 -97.5q-1 -10 -4 -60t-4 -81h321v-41l-325 -10q-6 -95 -13 -182q-11 -125 -45 -232q20 -11 75 -42t82 -45t70.5 -33.5t79 -28t68.5 -8.5q78 0 112.5 61t8.5 188h22 q45 -154 -7.5 -243.5t-168.5 -89.5q-24 0 -49.5 4.5t-45.5 10t-49 19t-44 20.5t-47.5 27t-43 27l-46.5 31t-43 29q-86 -183 -244 -183q-76 0 -129 43.5t-53 124.5zM66 137q0 -67 41.5 -102t101.5 -35q153 0 217 170q-144 92 -238 92q-56 0 -89 -34.5t-33 -90.5z" />
<glyph unicode="&#xa4;" horiz-adv-x="1060" d="M82 80l186 182q-80 96 -80 227q0 132 80 228l-186 182l31 31l182 -182q97 94 235 94q139 0 236 -97l182 185l31 -31l-186 -182q79 -94 79 -228q0 -133 -79 -227l186 -182l-31 -31l-182 182q-97 -94 -236 -94t-235 96l-182 -184zM256 489q0 -123 77 -207.5t197 -84.5 t197.5 84.5t77.5 207.5t-77.5 208t-197.5 85t-197 -85t-77 -208z" />
<glyph unicode="&#xa5;" horiz-adv-x="1327" d="M0 1247v27q92 -2 268 -2q187 0 279 2v-27l-117 -14q-80 -10 -97.5 -44t19.5 -89l326 -529h4l248 379q98 150 98 209q0 31 -32.5 49.5t-116.5 30.5l-62 8v27q86 -2 260 -2q164 0 250 2v-27l-41 -8q-92 -18 -150 -74.5t-171 -230.5l-234 -363h363v-49h-392v-160h392v-49 h-392v-139q0 -66 26.5 -95t111.5 -38l139 -14v-27q-53 0 -161 1t-161 1q-55 0 -162 -1t-161 -1v27l139 14q85 9 111 38t26 95v139h-409v49h409v154l-4 6h-405v49h374l-309 496q-61 98 -99.5 130t-111.5 42z" />
<glyph unicode="&#xa6;" horiz-adv-x="540" d="M236 -205v707h69v-707h-69zM236 788v705h69v-705h-69z" />
<glyph unicode="&#xa7;" horiz-adv-x="1005" d="M123 588q0 85 50 157t124 113l12 -20q-57 -36 -90 -94.5t-33 -127.5q0 -66 32.5 -125t84.5 -104t115 -87.5t126 -85.5t115 -89t84.5 -106.5t32.5 -129.5q0 -127 -90 -208.5t-256 -81.5q-127 0 -214 62t-87 153q0 53 26 82.5t68 29.5q32 0 55 -19.5t23 -53.5 q0 -24 -10 -41t-21.5 -25t-21.5 -19.5t-10 -25.5q0 -42 53 -77.5t137 -35.5q143 0 212 64.5t69 156.5q0 67 -32.5 125t-84 101.5t-114 85t-125 84.5t-114 90t-84 111.5t-32.5 140.5zM229 1130q0 127 90.5 209t255.5 82q127 0 214.5 -62t87.5 -153q0 -53 -26.5 -82.5 t-68.5 -29.5q-32 0 -54.5 19.5t-22.5 53.5q0 24 10 41t21.5 25t21.5 19.5t10 25.5q0 42 -53 77.5t-137 35.5q-143 0 -212 -65t-69 -157q0 -67 32.5 -125t84 -101.5t114 -85t125 -84t114 -89.5t84 -111.5t32.5 -140.5q0 -85 -50 -157t-124 -113l-13 20q57 36 90 94t33 127 q0 66 -32.5 125t-84.5 104t-115 87.5t-126 85.5t-115 89t-84.5 106.5t-32.5 129.5z" />
<glyph unicode="&#xa8;" horiz-adv-x="1019" d="M236 1356q0 38 25.5 64t62.5 26t62.5 -25t25.5 -63t-25.5 -64t-62.5 -26t-62.5 25t-25.5 63zM612 1356q0 38 25.5 64t62.5 26t62.5 -25t25.5 -63t-25.5 -64t-62.5 -26t-62.5 25t-25.5 63z" />
<glyph unicode="&#xa9;" horiz-adv-x="1687" d="M133 492q0 147 56.5 278.5t152 225t227 148t275.5 54.5q193 0 356 -92.5t258.5 -255t95.5 -358.5q0 -147 -56.5 -278.5t-151.5 -225t-226.5 -148.5t-275.5 -55t-275.5 55t-227 148.5t-152 225t-56.5 278.5zM184 492q0 -139 51.5 -262t139.5 -210.5t210.5 -138.5 t258.5 -51q182 0 333 86t238.5 238.5t87.5 337.5t-87.5 337t-238.5 238t-333 86t-333.5 -86t-239 -238t-87.5 -337zM444 492q0 175 111.5 296t286.5 121q167 0 256 -114l24 108h29v-315h-35l-31 90q-64 190 -239 190q-95 0 -162.5 -51t-99 -134t-31.5 -189q0 -163 75.5 -267 t217.5 -104q172 0 237 184l33 92h35v-311h-29l-26 111q-94 -115 -252 -115q-178 0 -289 116.5t-111 291.5z" />
<glyph unicode="&#xaa;" horiz-adv-x="759" d="M86 856q0 57 26.5 101t64.5 70.5t99.5 46.5t112 29.5t121.5 18.5v107q0 78 -40.5 124t-115.5 46q-62 0 -106.5 -28.5t-61.5 -67.5l13 6q23 0 39 -16.5t16 -41.5q0 -28 -18.5 -45.5t-49.5 -17.5q-30 0 -49 21t-18 55q0 63 67 114.5t172 51.5q114 0 174 -55.5t60 -155.5 v-388q0 -53 14.5 -72.5t42.5 -19.5t46 23t28 82l27 -2q-11 -71 -37 -105.5t-74 -34.5q-53 0 -86.5 31.5t-32.5 81.5q-33 -55 -92 -88t-141 -33q-92 0 -146.5 45t-54.5 117zM106 465v49h576v-49h-576zM178 862q0 -66 33.5 -101.5t97.5 -35.5q90 0 145.5 58t55.5 137v174 q-60 -8 -105 -17.5t-89.5 -27.5t-73.5 -42t-46.5 -61t-17.5 -84z" />
<glyph unicode="&#xab;" horiz-adv-x="905" d="M113 475v27l342 375h30l-262 -388l262 -387h-30zM399 475v27l342 375h31l-262 -388l262 -387h-31z" />
<glyph unicode="&#xac;" d="M115 618v58h897v-395h-58v337h-839z" />
<glyph unicode="&#xad;" horiz-adv-x="571" d="M51 459v61h469v-61h-469z" />
<glyph unicode="&#xae;" horiz-adv-x="1687" d="M133 492q0 147 56.5 278.5t152 225t227 148t275.5 54.5q193 0 356 -92.5t258.5 -255t95.5 -358.5q0 -147 -56.5 -278.5t-151.5 -225t-226.5 -148.5t-275.5 -55t-275.5 55t-227 148.5t-152 225t-56.5 278.5zM184 492q0 -139 51.5 -262t139.5 -210.5t210.5 -138.5 t258.5 -51q182 0 333 86t238.5 238.5t87.5 337.5t-87.5 337t-238.5 238t-333 86t-333.5 -86t-239 -238t-87.5 -337zM473 102v21l119 22q24 3 24 27v647q0 24 -24 29l-119 20v21h41q37 0 138 2t149 2q164 0 252 -56.5t88 -164.5q0 -77 -58.5 -129.5t-144.5 -63.5 q22 -29 37 -63l106 -230q9 -21 19.5 -30.5t29.5 -14.5l76 -18v-21h-190l-152 361q-18 -2 -53 -2q-28 0 -102 4v-293q0 -25 22 -27l125 -22v-21h-383zM709 500q49 -4 104 -4q110 0 164.5 48t54.5 128q0 91 -52 137.5t-179 46.5q-34 0 -92 -4v-352z" />
<glyph unicode="&#xaf;" horiz-adv-x="1019" d="M229 1331v53q111 -6 283 -6q175 0 283 6v-53q-108 6 -281 6q-174 0 -285 -6z" />
<glyph unicode="&#xb0;" horiz-adv-x="704" d="M111 1194q0 106 68.5 172t172.5 66t173 -66t69 -172t-69 -172t-173 -66t-172.5 66t-68.5 172zM160 1194q0 -87 54.5 -142t137.5 -55t138 55t55 142t-55 142t-138 55t-137.5 -55t-54.5 -142z" />
<glyph unicode="&#xb1;" d="M115 0v57h420v406h-420v57h420v416h57v-416h420v-57h-420v-406h420v-57h-897z" />
<glyph unicode="&#xb2;" horiz-adv-x="675" d="M98 1065q12 11 73 67t102 97t77 82q142 163 142 280q0 69 -39.5 110.5t-114.5 41.5q-70 0 -124.5 -38t-51.5 -75l16 6q21 0 35 -13t14 -34q0 -24 -15.5 -38.5t-39.5 -14.5q-29 0 -46 19t-17 51q0 68 67.5 118t169.5 50t171 -48.5t69 -138.5q0 -130 -178 -284 q-43 -39 -127 -109.5t-113 -95.5h315q30 0 42.5 8.5t19.5 34.5l22 71h27l-19 -188h-473z" />
<glyph unicode="&#xb3;" horiz-adv-x="690" d="M66 1128q0 27 18 45.5t45 18.5q26 0 41.5 -14.5t15.5 -38.5t-13.5 -39t-31.5 -15q31 -49 127 -49q103 0 172.5 57.5t69.5 155.5q0 164 -143 164q-39 0 -69.5 -13.5t-52 -27.5t-38.5 -14q-38 0 -41 43q65 27 143 33q75 32 118 74.5t44 111.5q0 59 -37 91t-108 32 q-64 0 -107.5 -27t-56.5 -65l16 6q21 0 35 -13t14 -34q0 -24 -15.5 -39t-39.5 -15q-30 0 -48 18.5t-18 51.5q0 59 66 103.5t162 44.5q100 0 164.5 -40t64.5 -108q0 -65 -55.5 -108t-153.5 -80h4q0 -1 1 -3t1 -3q28 4 43 4q83 0 141 -45t58 -138q0 -73 -51.5 -131.5 t-126.5 -87t-154 -28.5q-92 0 -148 34t-56 88z" />
<glyph unicode="&#xb4;" horiz-adv-x="1019" d="M434 1184q136 192 205 352h131v-6q-143 -203 -324 -346h-12z" />
<glyph unicode="&#xb5;" d="M-25 950v27h308l-7 -160v-526q0 -135 57 -206t161 -71q67 0 120.5 25.5t89 68.5t58.5 103t33 124.5t10 137.5v332q0 71 -25.5 98.5t-101.5 36.5l-86 10v27h307l-6 -160v-645q0 -71 25.5 -98.5t101.5 -36.5l86 -10v-27h-275l-16 18q0 78 6 233t6 222q0 -103 -18 -190 t-55.5 -159.5t-103 -113.5t-152.5 -41q-180 0 -242 129q2 -43 7.5 -140t9 -187t3.5 -185v-57h-88v1276q0 71 -25.5 98.5t-101.5 36.5z" />
<glyph unicode="&#xb6;" horiz-adv-x="1224" d="M82 969q0 87 26 162.5t78.5 135t139 94t198.5 34.5q24 0 78 -2t66 -2v-1760h-47v959q-64 -29 -152 -29q-78 0 -146.5 24.5t-123 73t-86 128t-31.5 182.5zM838 -369v1760h315v-27l-129 -14q-77 -9 -108 -38.5t-31 -86.5v-1594h-47z" />
<glyph unicode="&#xb7;" horiz-adv-x="522" d="M164 489q0 44 28.5 70.5t67.5 26.5q40 0 69 -27t29 -70t-29 -69.5t-69 -26.5q-37 0 -66.5 27.5t-29.5 68.5z" />
<glyph unicode="&#xb8;" horiz-adv-x="944" d="M279 -444l16 24q68 -33 139 -33q78 0 120 37t42 109q0 57 -30.5 90t-88.5 33q-35 0 -84 -17l-20 15l57 176h27l-31 -156q41 12 88 12q70 0 123 -40.5t53 -116.5q0 -63 -36 -105.5t-86 -59t-109 -16.5q-102 0 -180 48z" />
<glyph unicode="&#xb9;" horiz-adv-x="606" d="M111 1024v27l145 16q18 2 18 18v549q0 30 -14.5 40.5t-62.5 15.5l-86 8v18l114 10q49 4 71.5 12t33.5 23h35l-7 -88v-588q0 -15 21 -18l139 -16v-27h-407z" />
<glyph unicode="&#xba;" horiz-adv-x="788" d="M72 1057q0 161 88 263.5t233 102.5q146 0 236 -102.5t90 -263.5q0 -162 -90 -265.5t-236 -103.5q-145 0 -233 103.5t-88 265.5zM111 465v49h571v-49h-571zM170 1057q0 -149 56 -243.5t167 -94.5q113 0 170.5 94.5t57.5 243.5q0 148 -57.5 242t-170.5 94 q-111 0 -167 -93.5t-56 -242.5z" />
<glyph unicode="&#xbb;" horiz-adv-x="905" d="M133 102l262 387l-262 388h31l342 -375v-27l-342 -373h-31zM420 102l262 387l-262 388h31l342 -375v-27l-342 -373h-31z" />
<glyph unicode="&#xbc;" horiz-adv-x="1716" d="M164 662v26l145 17q19 2 19 18v549q0 30 -15 40t-63 15l-86 8v19l115 10q49 4 71 12t33 23h35l-6 -88v-588q0 -15 20 -18l139 -17v-26h-407zM324 10l512 695l475 716l63 -41l-516 -694l-475 -717zM1057 41q12 11 73 67t102 97t77 82q141 162 141 280q0 69 -39.5 110.5 t-114.5 41.5q-70 0 -124.5 -38t-51.5 -75l17 6q21 0 35 -13t14 -34q0 -24 -16 -38.5t-40 -14.5q-29 0 -46 19t-17 51q0 68 68 118t170 50t170.5 -48t68.5 -139q0 -130 -178 -284q-43 -39 -127 -109.5t-113 -95.5h316q29 0 41.5 8.5t19.5 34.5l23 71h26l-18 -188h-473z" />
<glyph unicode="&#xbd;" horiz-adv-x="1728" d="M164 662v26l145 17q19 2 19 18v549q0 30 -15 40t-63 15l-86 8v19l115 10q49 4 71 12t33 23h35l-6 -88v-588q0 -15 20 -18l139 -17v-26h-407zM336 10l512 695l475 716l63 -41l-516 -694l-475 -717zM975 260l354 469h64v-471h65q25 0 36.5 10t21.5 35l24 76h25l-19 -154 h-153v-162q0 -17 22 -20l98 -16v-27h-333v25l108 18q21 3 21 20v162h-324zM1020 262l289 -4v268l2 123z" />
<glyph unicode="&#xbe;" horiz-adv-x="1814" d="M156 766q0 27 18 45t45 18q26 0 41.5 -14.5t15.5 -38.5t-13.5 -38.5t-31.5 -14.5q31 -49 127 -49q103 0 172.5 57.5t69.5 155.5q0 164 -143 164q-39 0 -69.5 -14t-52 -28t-38.5 -14q-38 0 -41 43q65 27 143 33q75 32 118 74.5t44 111.5q0 59 -37 91t-108 32 q-64 0 -107.5 -27t-56.5 -65l16 6q21 0 35 -13t14 -34q0 -24 -15.5 -38.5t-39.5 -14.5q-30 0 -47.5 18.5t-17.5 51.5q0 59 65.5 103t161.5 44q100 0 164.5 -39.5t64.5 -107.5q0 -35 -16.5 -64t-48 -52t-65 -39.5t-79.5 -33.5h5q0 -1 1 -3t1 -3q28 4 43 4q83 0 140.5 -44.5 t57.5 -137.5q0 -73 -51.5 -131.5t-126.5 -87.5t-154 -29q-92 0 -148 34.5t-56 88.5zM397 10l512 695l475 716l64 -41l-516 -694l-475 -717zM1061 260l354 469h64v-471h65q25 0 36.5 10t21.5 35l24 76h25l-19 -154h-153v-162q0 -17 22 -20l98 -16v-27h-333v25l108 18 q21 3 21 20v162h-324zM1106 262l289 -4v268l2 123z" />
<glyph unicode="&#xbf;" horiz-adv-x="1032" d="M92 -53q0 77 26 142t68.5 109.5t97 75.5t110 45.5t108.5 14.5t92 -8l33 280h20l21 -317l-35 -13q-62 25 -129 25q-57 0 -109 -21t-95.5 -62t-70 -112.5t-26.5 -162.5q0 -165 88.5 -258t222.5 -93q158 0 247 87t89 206q0 83 -33.5 126.5t-85.5 43.5q-117 0 -141 -188 l-27 2q23 237 191 237q79 0 132.5 -56.5t53.5 -149.5q0 -147 -122 -242.5t-306 -95.5q-78 0 -151.5 24.5t-134 70.5t-97.5 121.5t-37 168.5zM535 897q0 43 29 69.5t69 26.5q37 0 66.5 -27.5t29.5 -68.5q0 -44 -28.5 -70t-67.5 -26q-40 0 -69 26.5t-29 69.5z" />
<glyph unicode="&#xc0;" horiz-adv-x="1431" d="M-20 0v27l38 6q54 8 85 20t61 45.5t53 82.5t59 143l355 933l47 142h63l455 -1188q36 -94 67.5 -126t102.5 -44l86 -14v-27q-47 0 -140.5 1t-140.5 1t-141 -1t-141 -1v27l104 12q84 9 109 44t-2 110l-101 268h-622l-55 -148q-41 -111 -45 -167t25.5 -80t105.5 -31l79 -8 v-27q-42 0 -127 1t-127 1t-126.5 -1t-126.5 -1zM391 504h592l-297 792zM489 1782v4h140q85 -126 219 -256h-12q-226 126 -347 252z" />
<glyph unicode="&#xc1;" horiz-adv-x="1431" d="M-20 0v27l38 6q54 8 85 20t61 45.5t53 82.5t59 143l355 933l47 142h63l455 -1188q36 -94 67.5 -126t102.5 -44l86 -14v-27q-47 0 -140.5 1t-140.5 1t-141 -1t-141 -1v27l104 12q84 9 109 44t-2 110l-101 268h-622l-55 -148q-41 -111 -45 -167t25.5 -80t105.5 -31l79 -8 v-27q-42 0 -127 1t-127 1t-126.5 -1t-126.5 -1zM391 504h592l-297 792zM584 1530q134 130 219 256h139v-4q-122 -127 -346 -252h-12z" />
<glyph unicode="&#xc2;" horiz-adv-x="1431" d="M-20 0v27l38 6q54 8 85 20t61 45.5t53 82.5t59 143l355 933l47 142h63l455 -1188q36 -94 67.5 -126t102.5 -44l86 -14v-27q-47 0 -140.5 1t-140.5 1t-141 -1t-141 -1v27l104 12q84 9 109 44t-2 110l-101 268h-622l-55 -148q-41 -111 -45 -167t25.5 -80t105.5 -31l79 -8 v-27q-42 0 -127 1t-127 1t-126.5 -1t-126.5 -1zM391 504h592l-297 792zM418 1530l254 256h104l234 -256h-19l-293 186l-270 -186h-10z" />
<glyph unicode="&#xc3;" horiz-adv-x="1431" d="M-20 0v27l38 6q54 8 85 20t61 45.5t53 82.5t59 143l355 933l47 142h63l455 -1188q36 -94 67.5 -126t102.5 -44l86 -14v-27q-47 0 -140.5 1t-140.5 1t-141 -1t-141 -1v27l104 12q84 9 109 44t-2 110l-101 268h-622l-55 -148q-41 -111 -45 -167t25.5 -80t105.5 -31l79 -8 v-27q-42 0 -127 1t-127 1t-126.5 -1t-126.5 -1zM391 504h592l-297 792zM455 1642q0 47 27.5 80t84.5 33q37 0 84 -20t83.5 -43.5t77.5 -43.5t67 -20q42 0 65 24t29 85h8q0 -90 -31 -142.5t-96 -52.5q-37 0 -82 20t-80.5 43.5t-75.5 43.5t-67 20q-35 0 -51.5 -21t-16.5 -53 q0 -21 11 -63l-7 -2q-30 62 -30 112z" />
<glyph unicode="&#xc4;" horiz-adv-x="1431" d="M-20 0v27l38 6q54 8 85 20t61 45.5t53 82.5t59 143l355 933l47 142h63l455 -1188q36 -94 67.5 -126t102.5 -44l86 -14v-27q-47 0 -140.5 1t-140.5 1t-141 -1t-141 -1v27l104 12q84 9 109 44t-2 110l-101 268h-622l-55 -148q-41 -111 -45 -167t25.5 -80t105.5 -31l79 -8 v-27q-42 0 -127 1t-127 1t-126.5 -1t-126.5 -1zM391 504h592l-297 792zM436 1618q0 38 25.5 64t62.5 26t62.5 -25t25.5 -63t-25.5 -64t-62.5 -26t-62.5 25t-25.5 63zM813 1618q0 38 25.5 64t62.5 26t62.5 -25t25.5 -63t-25.5 -64t-62.5 -26t-62.5 25t-25.5 63z" />
<glyph unicode="&#xc5;" horiz-adv-x="1431" d="M-20 0v27l38 6q54 8 85 20t61 45.5t53 82.5t59 143l355 933l47 142h63l455 -1188q36 -94 67.5 -126t102.5 -44l86 -14v-27q-47 0 -140.5 1t-140.5 1t-141 -1t-141 -1v27l104 12q84 9 109 44t-2 110l-101 268h-622l-55 -148q-41 -111 -45 -167t25.5 -80t105.5 -31l79 -8 v-27q-42 0 -127 1t-127 1t-126.5 -1t-126.5 -1zM391 504h592l-297 792zM510 1683q0 81 56.5 137t144.5 56q89 0 145.5 -56t56.5 -137q0 -83 -56 -138t-146 -56q-88 0 -144.5 55.5t-56.5 138.5zM567 1683q0 -69 38 -117t106 -48q70 0 107.5 48t37.5 117q0 68 -37.5 116 t-107.5 48q-68 0 -106 -48t-38 -116z" />
<glyph unicode="&#xc6;" horiz-adv-x="1878" d="M-61 0v27l38 6q56 8 89 19t70.5 40.5t72 79t82.5 135.5l450 807q62 113 62 170q0 29 -23 44.5t-82 21.5l-129 14v27h1139l31 -445h-33q-13 82 -21.5 128.5t-21 96t-21.5 73.5t-27 49t-34 33.5t-46 17t-58.5 9.5t-75.5 1h-389v-619h231q45 0 73 8t49.5 25.5t35 55.5 t22.5 86t19 130h28q-2 -106 -2 -321t2 -324h-28q-11 98 -22 151.5t-33.5 90.5t-55 49t-88.5 12h-231v-518q0 -76 32.5 -109.5t110.5 -33.5h301q62 0 97.5 3.5t70 21.5t51.5 42.5t36.5 80.5t32 121.5t30.5 178.5h32l-32 -485h-1112v27l129 14q76 9 102.5 37.5t26.5 87.5v362 h-455l-131 -235q-58 -104 -70 -155.5t14.5 -73.5t102.5 -29l78 -8v-27q-43 0 -130 1t-130 1t-130 -1t-130 -1zM487 571h433v781z" />
<glyph unicode="&#xc7;" horiz-adv-x="1413" d="M88 696q0 206 83 371.5t231 259.5t333 94q142 0 256 -57t183 -160l55 207h20v-567h-37q-104 547 -477 547q-158 0 -279 -90.5t-185 -248t-64 -356.5q0 -201 63.5 -358.5t184 -247.5t278.5 -90q184 0 301.5 126t177.5 394h37v-540h-20l-55 210q-69 -104 -182.5 -162.5 t-258.5 -58.5q-43 0 -84 6l-28 -141q41 12 88 12q70 0 123 -40.5t53 -116.5q0 -63 -36.5 -105.5t-86.5 -59t-109 -16.5q-102 0 -180 48l16 24q68 -33 140 -33q78 0 120 37t42 109q0 57 -30.5 90t-88.5 33q-35 0 -84 -17l-21 15l54 166q-237 40 -385 237t-148 479z" />
<glyph unicode="&#xc8;" horiz-adv-x="1267" d="M51 0v27l129 14q76 9 102.5 37.5t26.5 87.5v1059q0 59 -26.5 87.5t-102.5 37.5l-129 14v27h1047l30 -445h-32q-13 82 -21.5 128.5t-21 96t-21.5 73.5t-27 49t-33.5 33.5t-45 17t-58 9.5t-75.5 1h-392v-619h230q38 0 63 4.5t46 18.5t33.5 33.5t24 57t18.5 80t15 111.5h29 q-2 -106 -2 -321t2 -324h-29q-9 79 -17.5 126t-22 85.5t-35 56t-51 26.5t-74.5 9h-230v-518q0 -76 33 -109.5t111 -33.5h301q47 0 76 1.5t59 10.5t47 20t36 36.5t29.5 54t23.5 80t23 106t23 139.5h33l-33 -485h-1112zM399 1782v4h140q85 -126 219 -256h-13 q-224 125 -346 252z" />
<glyph unicode="&#xc9;" horiz-adv-x="1267" d="M51 0v27l129 14q76 9 102.5 37.5t26.5 87.5v1059q0 59 -26.5 87.5t-102.5 37.5l-129 14v27h1047l30 -445h-32q-13 82 -21.5 128.5t-21 96t-21.5 73.5t-27 49t-33.5 33.5t-45 17t-58 9.5t-75.5 1h-392v-619h230q38 0 63 4.5t46 18.5t33.5 33.5t24 57t18.5 80t15 111.5h29 q-2 -106 -2 -321t2 -324h-29q-9 79 -17.5 126t-22 85.5t-35 56t-51 26.5t-74.5 9h-230v-518q0 -76 33 -109.5t111 -33.5h301q47 0 76 1.5t59 10.5t47 20t36 36.5t29.5 54t23.5 80t23 106t23 139.5h33l-33 -485h-1112zM614 1530q137 133 220 256h139v-4q-122 -127 -346 -252 h-13z" />
<glyph unicode="&#xca;" horiz-adv-x="1267" d="M51 0v27l129 14q76 9 102.5 37.5t26.5 87.5v1059q0 59 -26.5 87.5t-102.5 37.5l-129 14v27h1047l30 -445h-32q-13 82 -21.5 128.5t-21 96t-21.5 73.5t-27 49t-33.5 33.5t-45 17t-58 9.5t-75.5 1h-392v-619h230q38 0 63 4.5t46 18.5t33.5 33.5t24 57t18.5 80t15 111.5h29 q-2 -106 -2 -321t2 -324h-29q-9 79 -17.5 126t-22 85.5t-35 56t-51 26.5t-74.5 9h-230v-518q0 -76 33 -109.5t111 -33.5h301q47 0 76 1.5t59 10.5t47 20t36 36.5t29.5 54t23.5 80t23 106t23 139.5h33l-33 -485h-1112zM346 1530l254 256h105l233 -256h-18l-293 186l-271 -186 h-10z" />
<glyph unicode="&#xcb;" horiz-adv-x="1267" d="M51 0v27l129 14q76 9 102.5 37.5t26.5 87.5v1059q0 59 -26.5 87.5t-102.5 37.5l-129 14v27h1047l30 -445h-32q-13 82 -21.5 128.5t-21 96t-21.5 73.5t-27 49t-33.5 33.5t-45 17t-58 9.5t-75.5 1h-392v-619h230q38 0 63 4.5t46 18.5t33.5 33.5t24 57t18.5 80t15 111.5h29 q-2 -106 -2 -321t2 -324h-29q-9 79 -17.5 126t-22 85.5t-35 56t-51 26.5t-74.5 9h-230v-518q0 -76 33 -109.5t111 -33.5h301q47 0 76 1.5t59 10.5t47 20t36 36.5t29.5 54t23.5 80t23 106t23 139.5h33l-33 -485h-1112zM406 1618q0 38 25.5 64t62.5 26t62.5 -25t25.5 -63 t-25.5 -64t-62.5 -26t-62.5 25t-25.5 63zM782 1618q0 38 25.5 64t62.5 26t62.5 -25t25.5 -63t-25.5 -64t-62.5 -26t-62.5 25t-25.5 63z" />
<glyph unicode="&#xcc;" horiz-adv-x="710" d="M51 0v27l129 14q76 9 102.5 37.5t26.5 87.5v1059q0 59 -26.5 87.5t-102.5 37.5l-129 14v27q102 -2 305 -2t303 2v-27l-129 -14q-76 -9 -102.5 -37.5t-26.5 -87.5v-1059q0 -59 26.5 -87.5t102.5 -37.5l129 -14v-27q-50 0 -151.5 1t-151.5 1q-51 0 -152.5 -1t-152.5 -1z M145 1782v4h140q85 -126 219 -256h-12q-226 126 -347 252z" />
<glyph unicode="&#xcd;" horiz-adv-x="710" d="M51 0v27l129 14q76 9 102.5 37.5t26.5 87.5v1059q0 59 -26.5 87.5t-102.5 37.5l-129 14v27q102 -2 305 -2t303 2v-27l-129 -14q-76 -9 -102.5 -37.5t-26.5 -87.5v-1059q0 -59 26.5 -87.5t102.5 -37.5l129 -14v-27q-50 0 -151.5 1t-151.5 1q-51 0 -152.5 -1t-152.5 -1z M225 1530q134 130 219 256h140v-4q-122 -127 -346 -252h-13z" />
<glyph unicode="&#xce;" horiz-adv-x="710" d="M51 0v27l129 14q76 9 102.5 37.5t26.5 87.5v1059q0 59 -26.5 87.5t-102.5 37.5l-129 14v27q102 -2 305 -2t303 2v-27l-129 -14q-76 -9 -102.5 -37.5t-26.5 -87.5v-1059q0 -59 26.5 -87.5t102.5 -37.5l129 -14v-27q-50 0 -151.5 1t-151.5 1q-51 0 -152.5 -1t-152.5 -1z M57 1530l254 256h105l233 -256h-18l-293 186l-270 -186h-11z" />
<glyph unicode="&#xcf;" horiz-adv-x="710" d="M51 0v27l129 14q76 9 102.5 37.5t26.5 87.5v1059q0 59 -26.5 87.5t-102.5 37.5l-129 14v27q102 -2 305 -2t303 2v-27l-129 -14q-76 -9 -102.5 -37.5t-26.5 -87.5v-1059q0 -59 26.5 -87.5t102.5 -37.5l129 -14v-27q-50 0 -151.5 1t-151.5 1q-51 0 -152.5 -1t-152.5 -1z M84 1618q0 38 25.5 64t62.5 26t62.5 -25t25.5 -63t-25.5 -64t-62.5 -26t-62.5 25t-25.5 63zM461 1618q0 38 25.5 64t62.5 26t62.5 -25t25.5 -63t-25.5 -64t-62.5 -26t-62.5 25t-25.5 63z" />
<glyph unicode="&#xd0;" horiz-adv-x="1421" d="M51 0v27l129 14q76 9 102.5 37.5t26.5 87.5v510h-243v43h243v506q0 59 -26.5 87.5t-102.5 37.5l-129 14v27h590q320 0 511 -191t191 -504q0 -314 -190 -505t-512 -191h-590zM401 180q0 -76 33 -109.5t111 -33.5h94q148 0 261.5 48t184.5 136t106.5 207.5t35.5 267.5 q0 146 -36 265t-106.5 207.5t-184 137t-261.5 48.5h-238v-635h357v-43h-357v-496z" />
<glyph unicode="&#xd1;" horiz-adv-x="1595" d="M51 0v27l82 12q60 9 91.5 20.5t52.5 39.5t26.5 69.5t5.5 118.5v938q0 59 -26.5 87.5t-102.5 37.5l-129 14v27h359l858 -1264v977q0 76 -6 118t-26.5 70t-51.5 39.5t-90 20.5l-84 12v27q94 -2 282 -2q189 0 283 2v-27l-82 -12q-60 -9 -91.5 -20.5t-52.5 -39.5t-26.5 -69.5 t-5.5 -118.5v-1112h-68l-891 1306v-1011q0 -76 6 -118t26.5 -70t51.5 -39.5t90 -20.5l84 -12v-27q-47 0 -141 1t-141 1t-141.5 -1t-141.5 -1zM588 1642q0 47 27.5 80t84.5 33q37 0 84 -20t83.5 -43.5t77.5 -43.5t67 -20q42 0 65 24t29 85h8q0 -90 -31 -142.5t-96 -52.5 q-37 0 -82 20t-80.5 43.5t-75.5 43.5t-67 20q-35 0 -51.5 -21t-16.5 -53q0 -21 11 -63l-7 -2q-30 62 -30 112z" />
<glyph unicode="&#xd2;" horiz-adv-x="1499" d="M88 696q0 213 85.5 379t236 256t340.5 90q189 0 339.5 -90t236 -256t85.5 -379t-85.5 -379.5t-236 -257t-339.5 -90.5q-190 0 -340.5 90.5t-236 256.5t-85.5 380zM207 696q0 -203 64.5 -360t188.5 -246.5t290 -89.5t290 89.5t189 246.5t65 360q0 201 -64.5 357.5 t-189 247t-290.5 90.5t-290 -90.5t-188.5 -247t-64.5 -357.5zM535 1782v4h139q85 -126 219 -256h-12q-224 125 -346 252z" />
<glyph unicode="&#xd3;" horiz-adv-x="1499" d="M88 696q0 213 85.5 379t236 256t340.5 90q189 0 339.5 -90t236 -256t85.5 -379t-85.5 -379.5t-236 -257t-339.5 -90.5q-190 0 -340.5 90.5t-236 256.5t-85.5 380zM207 696q0 -203 64.5 -360t188.5 -246.5t290 -89.5t290 89.5t189 246.5t65 360q0 201 -64.5 357.5 t-189 247t-290.5 90.5t-290 -90.5t-188.5 -247t-64.5 -357.5zM610 1530q134 130 219 256h140v-4q-122 -127 -346 -252h-13z" />
<glyph unicode="&#xd4;" horiz-adv-x="1499" d="M88 696q0 213 85.5 379t236 256t340.5 90q189 0 339.5 -90t236 -256t85.5 -379t-85.5 -379.5t-236 -257t-339.5 -90.5q-190 0 -340.5 90.5t-236 256.5t-85.5 380zM207 696q0 -203 64.5 -360t188.5 -246.5t290 -89.5t290 89.5t189 246.5t65 360q0 201 -64.5 357.5 t-189 247t-290.5 90.5t-290 -90.5t-188.5 -247t-64.5 -357.5zM461 1530l254 256h104l234 -256h-19l-293 186l-270 -186h-10z" />
<glyph unicode="&#xd5;" horiz-adv-x="1499" d="M88 696q0 213 85.5 379t236 256t340.5 90q189 0 339.5 -90t236 -256t85.5 -379t-85.5 -379.5t-236 -257t-339.5 -90.5q-190 0 -340.5 90.5t-236 256.5t-85.5 380zM207 696q0 -203 64.5 -360t188.5 -246.5t290 -89.5t290 89.5t189 246.5t65 360q0 201 -64.5 357.5 t-189 247t-290.5 90.5t-290 -90.5t-188.5 -247t-64.5 -357.5zM492 1642q0 47 27.5 80t84.5 33q37 0 84 -20t83.5 -43.5t77 -43.5t66.5 -20q43 0 66 24t29 85h8q0 -90 -31 -142.5t-96 -52.5q-37 0 -82 20t-80.5 43.5t-75.5 43.5t-67 20q-35 0 -51.5 -21t-16.5 -53 q0 -25 10 -63l-6 -2q-30 62 -30 112z" />
<glyph unicode="&#xd6;" horiz-adv-x="1499" d="M88 696q0 213 85.5 379t236 256t340.5 90q189 0 339.5 -90t236 -256t85.5 -379t-85.5 -379.5t-236 -257t-339.5 -90.5q-190 0 -340.5 90.5t-236 256.5t-85.5 380zM207 696q0 -203 64.5 -360t188.5 -246.5t290 -89.5t290 89.5t189 246.5t65 360q0 201 -64.5 357.5 t-189 247t-290.5 90.5t-290 -90.5t-188.5 -247t-64.5 -357.5zM473 1618q0 38 25.5 64t62.5 26t62.5 -25t25.5 -63t-25.5 -64t-62.5 -26t-62.5 25t-25.5 63zM850 1618q0 38 25.5 64t62.5 26t62.5 -25t25.5 -63t-25.5 -64t-62.5 -26t-62.5 25t-25.5 63z" />
<glyph unicode="&#xd7;" d="M227 193l295 294l-295 295l41 41l295 -295l295 295l41 -41l-295 -295l295 -294l-41 -41l-295 294l-295 -294z" />
<glyph unicode="&#xd8;" horiz-adv-x="1499" d="M88 696q0 213 85.5 379t236 256t340.5 90q256 0 434 -161l125 151l34 -27l-129 -153q94 -99 145.5 -235.5t51.5 -299.5q0 -213 -85.5 -379.5t-236 -257t-339.5 -90.5q-266 0 -445 170l-133 -159l-35 26l137 164q-186 205 -186 526zM207 696q0 -281 119 -463l815 971 q-150 187 -391 187q-166 0 -290 -90.5t-188.5 -247t-64.5 -357.5zM350 197q151 -197 400 -197q166 0 290 89.5t189 246.5t65 360q0 286 -129 475z" />
<glyph unicode="&#xd9;" horiz-adv-x="1583" d="M31 1364v27q102 -2 305 -2t303 2v-27l-129 -14q-76 -9 -102.5 -37.5t-26.5 -87.5v-740q0 -109 23.5 -191.5t62 -133t95.5 -81.5t117.5 -42.5t135.5 -11.5q215 0 327.5 119t112.5 337v623q0 76 -6 118t-26.5 70t-51.5 39.5t-90 20.5l-84 12v27q94 -2 283 -2t283 2v-27 l-82 -12q-60 -9 -91.5 -20.5t-52.5 -39.5t-26.5 -69.5t-5.5 -118.5v-623q0 -245 -132.5 -377.5t-384.5 -132.5q-82 0 -150.5 13t-135 48t-112 91t-73.5 148.5t-28 213.5v740q0 59 -26.5 87.5t-102.5 37.5zM551 1782v4h139q85 -126 219 -256h-12q-224 125 -346 252z" />
<glyph unicode="&#xda;" horiz-adv-x="1583" d="M31 1364v27q102 -2 305 -2t303 2v-27l-129 -14q-76 -9 -102.5 -37.5t-26.5 -87.5v-740q0 -109 23.5 -191.5t62 -133t95.5 -81.5t117.5 -42.5t135.5 -11.5q215 0 327.5 119t112.5 337v623q0 76 -6 118t-26.5 70t-51.5 39.5t-90 20.5l-84 12v27q94 -2 283 -2t283 2v-27 l-82 -12q-60 -9 -91.5 -20.5t-52.5 -39.5t-26.5 -69.5t-5.5 -118.5v-623q0 -245 -132.5 -377.5t-384.5 -132.5q-82 0 -150.5 13t-135 48t-112 91t-73.5 148.5t-28 213.5v740q0 59 -26.5 87.5t-102.5 37.5zM756 1530q134 130 219 256h139v-4q-122 -127 -346 -252h-12z" />
<glyph unicode="&#xdb;" horiz-adv-x="1583" d="M31 1364v27q102 -2 305 -2t303 2v-27l-129 -14q-76 -9 -102.5 -37.5t-26.5 -87.5v-740q0 -109 23.5 -191.5t62 -133t95.5 -81.5t117.5 -42.5t135.5 -11.5q215 0 327.5 119t112.5 337v623q0 76 -6 118t-26.5 70t-51.5 39.5t-90 20.5l-84 12v27q94 -2 283 -2t283 2v-27 l-82 -12q-60 -9 -91.5 -20.5t-52.5 -39.5t-26.5 -69.5t-5.5 -118.5v-623q0 -245 -132.5 -377.5t-384.5 -132.5q-82 0 -150.5 13t-135 48t-112 91t-73.5 148.5t-28 213.5v740q0 59 -26.5 87.5t-102.5 37.5zM512 1530l254 256h104l234 -256h-19l-292 186l-271 -186h-10z" />
<glyph unicode="&#xdc;" horiz-adv-x="1583" d="M31 1364v27q102 -2 305 -2t303 2v-27l-129 -14q-76 -9 -102.5 -37.5t-26.5 -87.5v-740q0 -109 23.5 -191.5t62 -133t95.5 -81.5t117.5 -42.5t135.5 -11.5q215 0 327.5 119t112.5 337v623q0 76 -6 118t-26.5 70t-51.5 39.5t-90 20.5l-84 12v27q94 -2 283 -2t283 2v-27 l-82 -12q-60 -9 -91.5 -20.5t-52.5 -39.5t-26.5 -69.5t-5.5 -118.5v-623q0 -245 -132.5 -377.5t-384.5 -132.5q-82 0 -150.5 13t-135 48t-112 91t-73.5 148.5t-28 213.5v740q0 59 -26.5 87.5t-102.5 37.5zM551 1618q0 38 25.5 64t62.5 26t62.5 -25t25.5 -63t-25.5 -64 t-62.5 -26t-62.5 25t-25.5 63zM928 1618q0 38 25.5 64t62.5 26t62.5 -25t25.5 -63t-25.5 -64t-62.5 -26t-62.5 25t-25.5 63z" />
<glyph unicode="&#xdd;" horiz-adv-x="1327" d="M-31 1364v27q92 -2 279 -2q186 0 278 2v-27l-116 -14q-81 -10 -99 -43t17 -90l354 -629l274 475q53 93 72 137t19 74q0 35 -30 52.5t-116 29.5l-61 8v27q86 -2 260 -2q172 0 258 2v-27l-47 -8q-98 -17 -156.5 -74t-163.5 -235l-286 -490v-383q0 -66 26 -95t111 -38 l139 -14v-27q-53 0 -161 1t-161 1q-55 0 -161.5 -1t-161.5 -1v27l139 14q85 9 111 38t26 95v371l-370 639q-57 98 -96.5 130t-118.5 42zM629 1530q134 130 219 256h139v-4q-122 -127 -346 -252h-12z" />
<glyph unicode="&#xde;" horiz-adv-x="1208" d="M51 0v27l129 14q76 9 102.5 37.5t26.5 87.5v1059q0 59 -26.5 87.5t-102.5 37.5l-129 14v27q102 -2 305 -2t303 2v-27l-129 -14q-76 -9 -102.5 -37.5t-26.5 -87.5v-144h174q572 0 572 -379q0 -96 -40.5 -169.5t-113.5 -119t-170 -68.5t-215 -23q-119 0 -207 8v-164 q0 -59 26.5 -87.5t102.5 -37.5l129 -14v-27q-50 0 -151.5 1t-151.5 1q-51 0 -152.5 -1t-152.5 -1zM401 365q116 -7 193 -7q206 0 323 87.5t117 256.5q0 179 -111.5 260.5t-344.5 81.5h-177v-679z" />
<glyph unicode="&#xdf;" horiz-adv-x="1134" d="M23 0v27l86 10q76 9 101.5 36.5t25.5 98.5v746l-193 18v29l193 18v180q0 92 22 166t58 121.5t84 79.5t97 45.5t101 13.5q148 0 230.5 -78t82.5 -194q0 -78 -36 -132.5t-123 -137.5q-77 -75 -101 -108.5t-24 -80.5q0 -49 36.5 -94t143.5 -129q54 -42 88 -72.5t74.5 -78 t61 -102t20.5 -114.5q0 -61 -19.5 -111.5t-51.5 -84.5t-74.5 -57.5t-88 -34.5t-92.5 -11q-116 0 -184 51t-68 127q0 42 24.5 69.5t61.5 27.5q35 0 56.5 -22.5t21.5 -55.5q0 -24 -16.5 -40t-33 -27.5t-16.5 -24.5q0 -8 7.5 -19.5t23.5 -24t47.5 -21.5t73.5 -9q103 0 173.5 61 t70.5 181q0 38 -8 72t-28 65t-36 53t-49 51t-49 42t-54 42q-95 72 -138.5 126t-43.5 122q0 62 35.5 113t128.5 141q62 61 87.5 119.5t25.5 138.5q0 99 -59.5 165.5t-182.5 66.5q-55 0 -101 -18t-86 -59t-62.5 -118.5t-22.5 -185.5v-1178h-301z" />
<glyph unicode="&#xe0;" horiz-adv-x="989" d="M72 188q0 80 50 141.5t139 100.5t190.5 62t226.5 36v156q2 149 -56.5 221t-181.5 72q-92 0 -154.5 -42.5t-62.5 -80.5q0 -15 11.5 -26t25.5 -18t25.5 -24.5t11.5 -44.5q0 -32 -23.5 -52.5t-58.5 -20.5q-42 0 -66 28.5t-24 75.5q0 96 94.5 166t220.5 70q326 0 326 -342 l-2 -500q0 -76 20.5 -112t65.5 -36q43 0 69 41t33 142h27q-4 -117 -41 -169t-109 -52q-73 0 -109.5 42t-35.5 136q-40 -87 -127 -137t-203 -50q-125 0 -203.5 56t-78.5 161zM174 193q0 -82 56.5 -131.5t142.5 -49.5q45 0 85 7t81 27.5t70 52.5t47.5 86t19.5 124l2 189 q-94 -10 -164 -23t-137 -36.5t-109.5 -55t-68 -80t-25.5 -110.5zM207 1530v6h131q69 -160 205 -352h-13q-179 141 -323 346z" />
<glyph unicode="&#xe1;" horiz-adv-x="989" d="M72 188q0 80 50 141.5t139 100.5t190.5 62t226.5 36v156q2 149 -56.5 221t-181.5 72q-92 0 -154.5 -42.5t-62.5 -80.5q0 -15 11.5 -26t25.5 -18t25.5 -24.5t11.5 -44.5q0 -32 -23.5 -52.5t-58.5 -20.5q-42 0 -66 28.5t-24 75.5q0 96 94.5 166t220.5 70q326 0 326 -342 l-2 -500q0 -76 20.5 -112t65.5 -36q43 0 69 41t33 142h27q-4 -117 -41 -169t-109 -52q-73 0 -109.5 42t-35.5 136q-40 -87 -127 -137t-203 -50q-125 0 -203.5 56t-78.5 161zM174 193q0 -82 56.5 -131.5t142.5 -49.5q45 0 85 7t81 27.5t70 52.5t47.5 86t19.5 124l2 189 q-94 -10 -164 -23t-137 -36.5t-109.5 -55t-68 -80t-25.5 -110.5zM383 1184q136 192 205 352h131v-6q-143 -203 -324 -346h-12z" />
<glyph unicode="&#xe2;" horiz-adv-x="989" d="M72 188q0 80 50 141.5t139 100.5t190.5 62t226.5 36v156q2 149 -56.5 221t-181.5 72q-92 0 -154.5 -42.5t-62.5 -80.5q0 -15 11.5 -26t25.5 -18t25.5 -24.5t11.5 -44.5q0 -32 -23.5 -52.5t-58.5 -20.5q-42 0 -66 28.5t-24 75.5q0 96 94.5 166t220.5 70q326 0 326 -342 l-2 -500q0 -76 20.5 -112t65.5 -36q43 0 69 41t33 142h27q-4 -117 -41 -169t-109 -52q-73 0 -109.5 42t-35.5 136q-40 -87 -127 -137t-203 -50q-125 0 -203.5 56t-78.5 161zM172 1184l256 352h86l236 -352h-19l-274 266l-273 -266h-12zM174 193q0 -82 56.5 -131.5 t142.5 -49.5q45 0 85 7t81 27.5t70 52.5t47.5 86t19.5 124l2 189q-94 -10 -164 -23t-137 -36.5t-109.5 -55t-68 -80t-25.5 -110.5z" />
<glyph unicode="&#xe3;" horiz-adv-x="989" d="M72 188q0 80 50 141.5t139 100.5t190.5 62t226.5 36v156q2 149 -56.5 221t-181.5 72q-92 0 -154.5 -42.5t-62.5 -80.5q0 -15 11.5 -26t25.5 -18t25.5 -24.5t11.5 -44.5q0 -32 -23.5 -52.5t-58.5 -20.5q-42 0 -66 28.5t-24 75.5q0 96 94.5 166t220.5 70q326 0 326 -342 l-2 -500q0 -76 20.5 -112t65.5 -36q43 0 69 41t33 142h27q-4 -117 -41 -169t-109 -52q-73 0 -109.5 42t-35.5 136q-40 -87 -127 -137t-203 -50q-125 0 -203.5 56t-78.5 161zM174 193q0 -82 56.5 -131.5t142.5 -49.5q45 0 85 7t81 27.5t70 52.5t47.5 86t19.5 124l2 189 q-94 -10 -164 -23t-137 -36.5t-109.5 -55t-68 -80t-25.5 -110.5zM178 1350q0 46 28 79t85 33q47 0 108 -32t116 -63.5t87 -31.5q42 0 65 24t29 85h9q0 -90 -31 -142.5t-96 -52.5q-37 0 -82.5 20t-81 43.5t-75.5 43.5t-67 20q-34 0 -50.5 -20.5t-16.5 -52.5q0 -26 10 -64 l-6 -2q-31 64 -31 113z" />
<glyph unicode="&#xe4;" horiz-adv-x="989" d="M72 188q0 80 50 141.5t139 100.5t190.5 62t226.5 36v156q2 149 -56.5 221t-181.5 72q-92 0 -154.5 -42.5t-62.5 -80.5q0 -15 11.5 -26t25.5 -18t25.5 -24.5t11.5 -44.5q0 -32 -23.5 -52.5t-58.5 -20.5q-42 0 -66 28.5t-24 75.5q0 96 94.5 166t220.5 70q326 0 326 -342 l-2 -500q0 -76 20.5 -112t65.5 -36q43 0 69 41t33 142h27q-4 -117 -41 -169t-109 -52q-73 0 -109.5 42t-35.5 136q-40 -87 -127 -137t-203 -50q-125 0 -203.5 56t-78.5 161zM174 193q0 -82 56.5 -131.5t142.5 -49.5q45 0 85 7t81 27.5t70 52.5t47.5 86t19.5 124l2 189 q-94 -10 -164 -23t-137 -36.5t-109.5 -55t-68 -80t-25.5 -110.5zM178 1356q0 38 25.5 64t62.5 26t62.5 -25t25.5 -63t-25.5 -64t-62.5 -26t-62.5 25t-25.5 63zM555 1356q0 38 25.5 64t62.5 26t62.5 -25t25.5 -63t-25.5 -64t-62.5 -26t-62.5 25t-25.5 63z" />
<glyph unicode="&#xe5;" horiz-adv-x="989" d="M72 188q0 80 50 141.5t139 100.5t190.5 62t226.5 36v156q2 149 -56.5 221t-181.5 72q-92 0 -154.5 -42.5t-62.5 -80.5q0 -15 11.5 -26t25.5 -18t25.5 -24.5t11.5 -44.5q0 -32 -23.5 -52.5t-58.5 -20.5q-42 0 -66 28.5t-24 75.5q0 96 94.5 166t220.5 70q326 0 326 -342 l-2 -500q0 -76 20.5 -112t65.5 -36q43 0 69 41t33 142h27q-4 -117 -41 -169t-109 -52q-73 0 -109.5 42t-35.5 136q-40 -87 -127 -137t-203 -50q-125 0 -203.5 56t-78.5 161zM174 193q0 -82 56.5 -131.5t142.5 -49.5q45 0 85 7t81 27.5t70 52.5t47.5 86t19.5 124l2 189 q-94 -10 -164 -23t-137 -36.5t-109.5 -55t-68 -80t-25.5 -110.5zM242 1337q0 81 56 137t144 56q89 0 146 -56t57 -137q0 -83 -56.5 -138t-146.5 -56q-88 0 -144 55.5t-56 138.5zM299 1337q0 -69 37.5 -117.5t105.5 -48.5q70 0 108 48.5t38 117.5q0 68 -38 116t-108 48 q-68 0 -105.5 -48t-37.5 -116z" />
<glyph unicode="&#xe6;" horiz-adv-x="1568" d="M72 188q0 64 33.5 117t89.5 89.5t135.5 64t163.5 43.5t182 26v156q0 149 -58 221t-180 72q-92 0 -154.5 -42.5t-62.5 -80.5q0 -15 11.5 -26t25.5 -18t25.5 -24.5t11.5 -44.5q0 -32 -23.5 -52.5t-58.5 -20.5q-42 0 -66 28.5t-24 75.5q0 96 94.5 166t220.5 70 q267 0 312 -232q56 108 150.5 170t219.5 62q116 0 196.5 -49.5t117 -128t36.5 -179.5q0 -46 -8 -106l-690 2q-2 -18 -2 -55q0 -99 20.5 -183t61.5 -150t110 -103.5t158 -37.5q211 0 340 211l27 -14q-141 -244 -379 -244q-143 0 -246.5 73t-154.5 202q-10 -111 -105 -193 t-248 -82q-125 0 -203.5 56t-78.5 161zM174 193q0 -82 56.5 -131.5t142.5 -49.5q45 0 85 7t81.5 27.5t70.5 52.5t47.5 86t18.5 124v189q-94 -10 -164 -23t-136.5 -36.5t-108.5 -55t-67.5 -80t-25.5 -110.5zM774 578l590 18l2 37q2 20 2 49q0 62 -12.5 112.5t-40 93t-77 66 t-116.5 23.5q-99 0 -174.5 -54.5t-117.5 -142.5t-56 -202z" />
<glyph unicode="&#xe7;" horiz-adv-x="966" d="M55 489q0 118 40 217t108 164.5t156.5 101.5t185.5 36q131 0 215 -60.5t84 -150.5q0 -51 -26.5 -81t-67.5 -30q-36 0 -59 21t-23 57q0 24 10 41t22.5 24.5t22.5 18t10 22.5q0 39 -51.5 73t-134.5 34q-166 0 -275.5 -129.5t-109.5 -355.5q0 -136 37.5 -241t118 -169 t194.5 -64q99 0 182.5 51.5t143.5 149.5l26 -14q-63 -110 -157 -172t-207 -62q-40 0 -78 6l-29 -143q41 12 88 12q70 0 123 -40.5t53 -116.5q0 -63 -36 -105.5t-86 -59t-109 -16.5q-102 0 -180 48l16 24q68 -33 139 -33q78 0 120 37t42 109q0 57 -30.5 90t-88.5 33 q-35 0 -84 -17l-20 15l55 170q-156 37 -248 173t-92 332z" />
<glyph unicode="&#xe8;" horiz-adv-x="960" d="M55 489q0 142 57 260t162 188.5t238 70.5q116 0 196.5 -49.5t117 -128t36.5 -179.5q0 -46 -8 -106l-690 2q-2 -18 -2 -55q0 -99 20.5 -183t61.5 -150t110 -103.5t158 -37.5q211 0 340 211l27 -14q-141 -244 -379 -244q-203 0 -324 144t-121 374zM166 578l590 18l2 37 q2 20 2 49q0 62 -12.5 112.5t-40 93t-77 66t-116.5 23.5q-99 0 -174.5 -54.5t-117.5 -142.5t-56 -202zM268 1530v6h131q69 -160 205 -352h-12q-181 143 -324 346z" />
<glyph unicode="&#xe9;" horiz-adv-x="960" d="M55 489q0 142 57 260t162 188.5t238 70.5q116 0 196.5 -49.5t117 -128t36.5 -179.5q0 -46 -8 -106l-690 2q-2 -18 -2 -55q0 -99 20.5 -183t61.5 -150t110 -103.5t158 -37.5q211 0 340 211l27 -14q-141 -244 -379 -244q-203 0 -324 144t-121 374zM166 578l590 18l2 37 q2 20 2 49q0 62 -12.5 112.5t-40 93t-77 66t-116.5 23.5q-99 0 -174.5 -54.5t-117.5 -142.5t-56 -202zM391 1184q136 192 205 352h131v-6q-143 -203 -324 -346h-12z" />
<glyph unicode="&#xea;" horiz-adv-x="960" d="M55 489q0 142 57 260t162 188.5t238 70.5q116 0 196.5 -49.5t117 -128t36.5 -179.5q0 -46 -8 -106l-690 2q-2 -18 -2 -55q0 -99 20.5 -183t61.5 -150t110 -103.5t158 -37.5q211 0 340 211l27 -14q-141 -244 -379 -244q-203 0 -324 144t-121 374zM166 578l590 18l2 37 q2 20 2 49q0 62 -12.5 112.5t-40 93t-77 66t-116.5 23.5q-99 0 -174.5 -54.5t-117.5 -142.5t-56 -202zM215 1184l256 352h86l236 -352h-19l-274 266l-273 -266h-12z" />
<glyph unicode="&#xeb;" horiz-adv-x="960" d="M55 489q0 142 57 260t162 188.5t238 70.5q116 0 196.5 -49.5t117 -128t36.5 -179.5q0 -46 -8 -106l-690 2q-2 -18 -2 -55q0 -99 20.5 -183t61.5 -150t110 -103.5t158 -37.5q211 0 340 211l27 -14q-141 -244 -379 -244q-203 0 -324 144t-121 374zM166 578l590 18l2 37 q2 20 2 49q0 62 -12.5 112.5t-40 93t-77 66t-116.5 23.5q-99 0 -174.5 -54.5t-117.5 -142.5t-56 -202zM221 1356q0 38 25.5 64t62.5 26t62.5 -25t25.5 -63t-25.5 -64t-62.5 -26t-62.5 25t-25.5 63zM598 1356q0 38 25.5 64t62.5 26t62.5 -25t25.5 -63t-25.5 -64t-62.5 -26 t-62.5 25t-25.5 63z" />
<glyph unicode="&#xec;" horiz-adv-x="565" d="M12 1530v6h131q69 -160 205 -352h-12q-181 143 -324 346zM14 913v21l299 65l27 -12q-12 -83 -12 -201v-614q0 -71 25.5 -98.5t101.5 -36.5l86 -10v-27q-42 0 -130 1t-130 1t-127 -1t-127 -1v27l86 10q76 9 101.5 36.5t25.5 98.5v621q0 66 -25 89t-113 27z" />
<glyph unicode="&#xed;" horiz-adv-x="565" d="M14 913v21l299 65l27 -12q-12 -83 -12 -201v-614q0 -71 25.5 -98.5t101.5 -36.5l86 -10v-27q-42 0 -130 1t-130 1t-127 -1t-127 -1v27l86 10q76 9 101.5 36.5t25.5 98.5v621q0 66 -25 89t-113 27zM158 1184q134 189 204 352h132v-6q-143 -203 -324 -346h-12z" />
<glyph unicode="&#xee;" horiz-adv-x="565" d="M-31 1184l256 352h86l236 -352h-19l-274 266l-272 -266h-13zM14 913v21l299 65l27 -12q-12 -83 -12 -201v-614q0 -71 25.5 -98.5t101.5 -36.5l86 -10v-27q-42 0 -130 1t-130 1t-127 -1t-127 -1v27l86 10q76 9 101.5 36.5t25.5 98.5v621q0 66 -25 89t-113 27z" />
<glyph unicode="&#xef;" horiz-adv-x="565" d="M-43 1356q0 38 25.5 64t62.5 26t62.5 -25t25.5 -63t-25.5 -64t-62.5 -26t-62.5 25t-25.5 63zM14 913v21l299 65l27 -12q-12 -83 -12 -201v-614q0 -71 25.5 -98.5t101.5 -36.5l86 -10v-27q-42 0 -130 1t-130 1t-127 -1t-127 -1v27l86 10q76 9 101.5 36.5t25.5 98.5v621 q0 66 -25 89t-113 27zM334 1356q0 38 25.5 64t62.5 26t62.5 -25t25.5 -63t-25.5 -64t-62.5 -26t-62.5 25t-25.5 63z" />
<glyph unicode="&#xf0;" horiz-adv-x="1007" d="M61 506q0 222 123 365t310 143q87 0 154.5 -37t109 -102.5t64 -147t26.5 -178.5q-17 428 -356 764l-299 -129l-21 43l281 123q-135 122 -306 223l13 20q209 -96 356 -217l275 119l20 -43l-254 -111q369 -325 369 -804q0 -140 -37.5 -251.5t-99.5 -178.5t-137 -102.5 t-156 -35.5q-198 0 -316.5 148.5t-118.5 388.5zM166 498q0 -137 37 -248t113 -180.5t180 -69.5q99 0 175 70t114 182t38 246q0 91 -18.5 173.5t-56 152.5t-103 111.5t-151.5 41.5q-150 0 -239 -135.5t-89 -343.5zM848 510v25v6v-31z" />
<glyph unicode="&#xf1;" horiz-adv-x="1204" d="M10 913v21l287 65l27 -12q-7 -92 -15 -280t-8 -279q0 107 22 206t66.5 185t122 137.5t178.5 51.5q137 0 212 -79t75 -227v-530q0 -69 28 -96.5t105 -38.5l74 -10v-27q-42 0 -127 1t-127 1t-127 -1t-127 -1v27l86 10q76 9 101.5 36.5t25.5 98.5v530q0 127 -55 194t-158 67 q-71 0 -130.5 -33t-100 -87t-68.5 -124.5t-40.5 -144t-12.5 -146.5v-256q0 -69 28 -96.5t105 -38.5l73 -10v-27q-42 0 -127 1t-127 1t-126.5 -1t-126.5 -1v27l86 10q76 9 101.5 36.5t25.5 98.5v621q0 64 -24.5 88t-109.5 28zM332 1350q0 47 27.5 79.5t84.5 32.5q37 0 84 -20 t83.5 -43.5t77.5 -43.5t67 -20q42 0 65 24t29 85h8q0 -90 -31 -142.5t-96 -52.5q-37 0 -82 20t-80.5 43.5t-75.5 43.5t-67 20q-35 0 -51.5 -20.5t-16.5 -52.5q0 -22 11 -64l-7 -2q-30 62 -30 113z" />
<glyph unicode="&#xf2;" horiz-adv-x="1007" d="M55 489q0 228 123.5 373.5t325.5 145.5t325 -145.5t123 -373.5t-123 -374t-325 -146t-325.5 146t-123.5 374zM162 489q0 -138 36.5 -246t115 -175.5t190.5 -67.5t190.5 67.5t115 175.5t36.5 246t-36.5 246t-115 175t-190.5 67t-190.5 -67t-115 -175t-36.5 -246zM287 1530 v6h131q69 -160 205 -352h-13q-179 141 -323 346z" />
<glyph unicode="&#xf3;" horiz-adv-x="1007" d="M55 489q0 228 123.5 373.5t325.5 145.5t325 -145.5t123 -373.5t-123 -374t-325 -146t-325.5 146t-123.5 374zM162 489q0 -138 36.5 -246t115 -175.5t190.5 -67.5t190.5 67.5t115 175.5t36.5 246t-36.5 246t-115 175t-190.5 67t-190.5 -67t-115 -175t-36.5 -246zM379 1184 q136 192 205 352h131v-6q-143 -203 -324 -346h-12z" />
<glyph unicode="&#xf4;" horiz-adv-x="1007" d="M55 489q0 228 123.5 373.5t325.5 145.5t325 -145.5t123 -373.5t-123 -374t-325 -146t-325.5 146t-123.5 374zM162 489q0 -138 36.5 -246t115 -175.5t190.5 -67.5t190.5 67.5t115 175.5t36.5 246t-36.5 246t-115 175t-190.5 67t-190.5 -67t-115 -175t-36.5 -246zM233 1184 l256 352h86l236 -352h-18l-275 266l-272 -266h-13z" />
<glyph unicode="&#xf5;" horiz-adv-x="1007" d="M55 489q0 228 123.5 373.5t325.5 145.5t325 -145.5t123 -373.5t-123 -374t-325 -146t-325.5 146t-123.5 374zM162 489q0 -138 36.5 -246t115 -175.5t190.5 -67.5t190.5 67.5t115 175.5t36.5 246t-36.5 246t-115 175t-190.5 67t-190.5 -67t-115 -175t-36.5 -246zM227 1350 q0 46 28 79t85 33q47 0 108 -32t116 -63.5t87 -31.5q42 0 65 24t29 85h9q0 -90 -31 -142.5t-96 -52.5q-37 0 -82 20t-80.5 43.5t-75.5 43.5t-67 20q-35 0 -51.5 -20.5t-16.5 -52.5q0 -26 10 -64l-6 -2q-31 64 -31 113z" />
<glyph unicode="&#xf6;" horiz-adv-x="1007" d="M55 489q0 228 123.5 373.5t325.5 145.5t325 -145.5t123 -373.5t-123 -374t-325 -146t-325.5 146t-123.5 374zM162 489q0 -138 36.5 -246t115 -175.5t190.5 -67.5t190.5 67.5t115 175.5t36.5 246t-36.5 246t-115 175t-190.5 67t-190.5 -67t-115 -175t-36.5 -246zM236 1356 q0 38 25.5 64t62.5 26t62.5 -25t25.5 -63t-25.5 -64t-62.5 -26t-62.5 25t-25.5 63zM612 1356q0 38 25.5 64t62.5 26t62.5 -25t25.5 -63t-25.5 -64t-62.5 -26t-62.5 25t-25.5 63z" />
<glyph unicode="&#xf7;" d="M115 461v57h897v-57h-897zM496 170q0 33 18.5 50.5t48.5 17.5q31 0 49.5 -17.5t18.5 -50.5q0 -32 -18.5 -50t-49.5 -18q-30 0 -48.5 18t-18.5 50zM496 809q0 33 18.5 50.5t48.5 17.5q31 0 49.5 -17.5t18.5 -50.5q0 -32 -18.5 -50t-49.5 -18q-30 0 -48.5 18t-18.5 50z" />
<glyph unicode="&#xf8;" horiz-adv-x="1007" d="M35 4l121 141q-101 138 -101 344q0 228 123.5 373.5t325.5 145.5q172 0 293 -111l98 113l33 -25l-103 -119q127 -142 127 -377q0 -228 -123 -374t-325 -146q-197 0 -322 144l-114 -133zM162 489q0 -162 49 -278l543 635q-91 131 -250 131q-112 0 -190.5 -67t-115 -175 t-36.5 -246zM231 170q90 -170 273 -170q112 0 190.5 67.5t115 175.5t36.5 246q0 192 -70 320z" />
<glyph unicode="&#xf9;" d="M-25 950v27h308l-7 -160v-526q0 -135 57 -206t161 -71q67 0 120.5 25.5t89 68.5t58.5 103t33 124.5t10 137.5v332q0 71 -25.5 98.5t-101.5 36.5l-86 10v27h307l-6 -160v-645q0 -71 25.5 -98.5t101.5 -36.5l86 -10v-27h-275l-16 18q0 78 6 233t6 222q0 -104 -18 -190.5 t-56.5 -159t-108.5 -113.5t-165 -41q-137 0 -214 83t-77 239v514q0 71 -25.5 98.5t-101.5 36.5zM201 1530v6h131q69 -160 205 -352h-13q-179 141 -323 346z" />
<glyph unicode="&#xfa;" d="M-25 950v27h308l-7 -160v-526q0 -135 57 -206t161 -71q67 0 120.5 25.5t89 68.5t58.5 103t33 124.5t10 137.5v332q0 71 -25.5 98.5t-101.5 36.5l-86 10v27h307l-6 -160v-645q0 -71 25.5 -98.5t101.5 -36.5l86 -10v-27h-275l-16 18q0 78 6 233t6 222q0 -104 -18 -190.5 t-56.5 -159t-108.5 -113.5t-165 -41q-137 0 -214 83t-77 239v514q0 71 -25.5 98.5t-101.5 36.5zM434 1184q136 192 205 352h131v-6q-143 -203 -324 -346h-12z" />
<glyph unicode="&#xfb;" d="M-25 950v27h308l-7 -160v-526q0 -135 57 -206t161 -71q67 0 120.5 25.5t89 68.5t58.5 103t33 124.5t10 137.5v332q0 71 -25.5 98.5t-101.5 36.5l-86 10v27h307l-6 -160v-645q0 -71 25.5 -98.5t101.5 -36.5l86 -10v-27h-275l-16 18q0 78 6 233t6 222q0 -104 -18 -190.5 t-56.5 -159t-108.5 -113.5t-165 -41q-137 0 -214 83t-77 239v514q0 71 -25.5 98.5t-101.5 36.5zM246 1184l256 352h86l235 -352h-18l-275 266l-272 -266h-12z" />
<glyph unicode="&#xfc;" d="M-25 950v27h308l-7 -160v-526q0 -135 57 -206t161 -71q67 0 120.5 25.5t89 68.5t58.5 103t33 124.5t10 137.5v332q0 71 -25.5 98.5t-101.5 36.5l-86 10v27h307l-6 -160v-645q0 -71 25.5 -98.5t101.5 -36.5l86 -10v-27h-275l-16 18q0 78 6 233t6 222q0 -104 -18 -190.5 t-56.5 -159t-108.5 -113.5t-165 -41q-137 0 -214 83t-77 239v514q0 71 -25.5 98.5t-101.5 36.5zM242 1356q0 38 25.5 64t62.5 26t62.5 -25t25.5 -63t-25.5 -64t-62.5 -26t-62.5 25t-25.5 63zM618 1356q0 38 26 64t63 26t62.5 -25t25.5 -63t-25.5 -64t-62.5 -26t-63 25 t-26 63z" />
<glyph unicode="&#xfd;" horiz-adv-x="1112" d="M-10 950v27q84 -2 250 -2q165 0 249 2v-27l-106 -12q-78 -9 -92 -42.5t18 -100.5l283 -695l239 627q37 102 37 137q0 33 -30.5 53t-100.5 27l-53 6v27q74 -2 219 -2t219 2v-27l-32 -4q-84 -10 -129 -58t-97 -177l-258 -658q-55 -141 -107.5 -243.5t-94.5 -160t-86 -91 t-76.5 -43t-71.5 -9.5q-70 0 -115 41.5t-45 102.5q0 43 24.5 72.5t69.5 29.5q35 0 56.5 -20t21.5 -51q0 -24 -9 -40.5t-20.5 -23.5t-20.5 -17.5t-9 -23.5q0 -14 16 -24.5t41 -10.5q37 0 73 17t82 61.5t98 136t106 224.5l8 20l-328 776q-40 95 -74 127t-108 41zM502 1184 q136 192 205 352h131v-6q-143 -203 -324 -346h-12z" />
<glyph unicode="&#xfe;" horiz-adv-x="1081" d="M-31 1507v21l299 55l27 -12q-12 -91 -12 -193v-372q0 -108 -12.5 -272t-12.5 -240q0 244 101.5 379t273.5 135q176 0 284.5 -144.5t108.5 -374.5q0 -125 -38 -226t-101.5 -164t-144 -96.5t-169.5 -33.5q-166 0 -290 103v-363q0 -76 27.5 -105t109.5 -38l86 -10v-27 q-42 0 -135 1t-135 1t-127 -1t-127 -1v27l86 10q76 9 101.5 36.5t25.5 98.5v1679q0 69 -18 90t-89 27zM283 182q104 -182 290 -182q165 0 256 131t91 358q0 135 -31.5 240t-101.5 170.5t-171 65.5q-146 0 -239.5 -121.5t-93.5 -349.5v-312z" />
<glyph unicode="&#xff;" horiz-adv-x="1112" d="M-10 950v27q84 -2 250 -2q165 0 249 2v-27l-106 -12q-78 -9 -92 -42.5t18 -100.5l283 -695l239 627q37 102 37 137q0 33 -30.5 53t-100.5 27l-53 6v27q74 -2 219 -2t219 2v-27l-32 -4q-84 -10 -129 -58t-97 -177l-258 -658q-55 -141 -107.5 -243.5t-94.5 -160t-86 -91 t-76.5 -43t-71.5 -9.5q-70 0 -115 41.5t-45 102.5q0 43 24.5 72.5t69.5 29.5q35 0 56.5 -20t21.5 -51q0 -24 -9 -40.5t-20.5 -23.5t-20.5 -17.5t-9 -23.5q0 -14 16 -24.5t41 -10.5q37 0 73 17t82 61.5t98 136t106 224.5l8 20l-328 776q-40 95 -74 127t-108 41zM303 1356 q0 38 25.5 64t62.5 26t62.5 -25t25.5 -63t-25.5 -64t-62.5 -26t-62.5 25t-25.5 63zM680 1356q0 38 25.5 64t62.5 26t62.5 -25t25.5 -63t-25.5 -64t-62.5 -26t-62.5 25t-25.5 63z" />
<glyph unicode="&#x152;" horiz-adv-x="2011" d="M82 696q0 208 88 374t245 259.5t355 93.5q117 0 223 -32h848l31 -445h-33q-13 82 -21.5 128.5t-21 96t-21.5 73.5t-27 49t-34 33.5t-46 17t-58.5 9.5t-75.5 1h-389v-619h231q45 0 73 8t49.5 25.5t35 55.5t22.5 86t19 130h29q-2 -106 -2 -321t2 -324h-29q-11 98 -22 151.5 t-33.5 90.5t-55 49t-88.5 12h-231v-518q0 -77 31.5 -110t111.5 -33h301q62 0 97.5 3.5t70 21.5t51.5 42.5t36.5 80.5t32 121.5t30.5 178.5h32l-32 -485h-916q-112 -33 -221 -33q-148 0 -276 55t-218.5 151.5t-142 232t-51.5 290.5zM201 696q0 -203 67 -360t197 -246.5 t305 -89.5q156 0 219.5 65.5t63.5 243.5v772q0 178 -63.5 244t-219.5 66q-174 0 -304.5 -90.5t-197.5 -247t-67 -357.5z" />
<glyph unicode="&#x153;" horiz-adv-x="1751" d="M55 489q0 228 123.5 373.5t325.5 145.5q143 0 246 -76t151 -209q52 130 158 207.5t244 77.5q116 0 196.5 -49.5t117 -128t36.5 -179.5q0 -46 -8 -106l-691 2q-2 -18 -2 -55q0 -99 20.5 -183t62 -150t110.5 -103.5t158 -37.5q210 0 339 211l27 -14q-141 -244 -379 -244 q-142 0 -243 73.5t-148 203.5q-51 -131 -152.5 -205t-242.5 -74q-202 0 -325.5 146t-123.5 374zM162 489q0 -138 36.5 -246t115 -175.5t190.5 -67.5t190.5 67.5t115 175.5t36.5 246t-36.5 246t-115 175t-190.5 67t-190.5 -67t-115 -175t-36.5 -246zM956 578l590 18l2 37 q2 20 2 49q0 62 -12.5 112.5t-40 93t-76.5 66t-116 23.5q-99 0 -175 -54.5t-118 -142.5t-56 -202z" />
<glyph unicode="&#x178;" horiz-adv-x="1327" d="M-31 1364v27q92 -2 279 -2q186 0 278 2v-27l-116 -14q-81 -10 -99 -43t17 -90l354 -629l274 475q53 93 72 137t19 74q0 35 -30 52.5t-116 29.5l-61 8v27q86 -2 260 -2q172 0 258 2v-27l-47 -8q-98 -17 -156.5 -74t-163.5 -235l-286 -490v-383q0 -66 26 -95t111 -38 l139 -14v-27q-53 0 -161 1t-161 1q-55 0 -161.5 -1t-161.5 -1v27l139 14q85 9 111 38t26 95v371l-370 639q-57 98 -96.5 130t-118.5 42zM406 1618q0 38 25.5 64t62.5 26t62.5 -25t25.5 -63t-25.5 -64t-62.5 -26t-62.5 25t-25.5 63zM782 1618q0 38 25.5 64t62.5 26t62.5 -25 t25.5 -63t-25.5 -64t-62.5 -26t-62.5 25t-25.5 63z" />
<glyph unicode="&#x2c6;" horiz-adv-x="1019" d="M250 1184l256 352h86l235 -352h-18l-274 266l-273 -266h-12z" />
<glyph unicode="&#x2dc;" horiz-adv-x="1019" d="M276 1350q0 46 28 79t85 33q47 0 108 -32t116 -63.5t87 -31.5q43 0 66 24t29 85h8q0 -90 -31 -142.5t-96 -52.5q-37 0 -82 20t-80.5 43.5t-75.5 43.5t-67 20q-35 0 -51.5 -20.5t-16.5 -52.5q0 -26 10 -64l-6 -2q-31 64 -31 113z" />
<glyph unicode="&#x2000;" horiz-adv-x="938" />
<glyph unicode="&#x2001;" horiz-adv-x="1876" />
<glyph unicode="&#x2002;" horiz-adv-x="938" />
<glyph unicode="&#x2003;" horiz-adv-x="1876" />
<glyph unicode="&#x2004;" horiz-adv-x="625" />
<glyph unicode="&#x2005;" horiz-adv-x="469" />
<glyph unicode="&#x2006;" horiz-adv-x="312" />
<glyph unicode="&#x2007;" horiz-adv-x="312" />
<glyph unicode="&#x2008;" horiz-adv-x="234" />
<glyph unicode="&#x2009;" horiz-adv-x="375" />
<glyph unicode="&#x200a;" horiz-adv-x="104" />
<glyph unicode="&#x2010;" horiz-adv-x="571" d="M51 459v61h469v-61h-469z" />
<glyph unicode="&#x2011;" horiz-adv-x="571" d="M51 459v61h469v-61h-469z" />
<glyph unicode="&#x2012;" horiz-adv-x="571" d="M51 459v61h469v-61h-469z" />
<glyph unicode="&#x2013;" horiz-adv-x="1021" d="M51 459v61h920v-61h-920z" />
<glyph unicode="&#x2014;" horiz-adv-x="1878" d="M51 459v61h1776v-61h-1776z" />
<glyph unicode="&#x2018;" horiz-adv-x="436" d="M113 1171q0 196 202 320l17 -25q-81 -49 -122.5 -115.5t-41.5 -131.5q0 -31 25 -31q7 0 24.5 5t32.5 5q36 0 60 -22.5t24 -61.5q0 -40 -29 -67t-74 -27q-55 0 -86.5 39.5t-31.5 111.5z" />
<glyph unicode="&#x2019;" horiz-adv-x="446" d="M113 1382q0 40 28.5 67.5t73.5 27.5q55 0 87 -40t32 -112q0 -194 -203 -319l-16 24q81 49 122.5 116t41.5 132q0 31 -25 31q-7 0 -24.5 -5.5t-32.5 -5.5q-36 0 -60 22.5t-24 61.5z" />
<glyph unicode="&#x201a;" horiz-adv-x="456" d="M123 61q0 40 28.5 67.5t73.5 27.5q55 0 87 -40t32 -112q0 -194 -203 -319l-16 24q81 49 122.5 116t41.5 132q0 31 -25 31q-7 0 -24.5 -5.5t-32.5 -5.5q-36 0 -60 22.5t-24 61.5z" />
<glyph unicode="&#x201c;" horiz-adv-x="727" d="M113 1171q0 196 202 320l17 -25q-81 -49 -122.5 -115.5t-41.5 -131.5q0 -31 25 -31q7 0 24.5 5t32.5 5q36 0 60 -22.5t24 -61.5q0 -40 -29 -67t-74 -27q-55 0 -86.5 39.5t-31.5 111.5zM403 1171q0 195 203 320l17 -25q-81 -49 -122.5 -115.5t-41.5 -131.5q0 -31 24 -31 q7 0 25 5t33 5q36 0 60 -22.5t24 -61.5q0 -40 -29 -67t-74 -27q-55 0 -87 39.5t-32 111.5z" />
<glyph unicode="&#x201d;" horiz-adv-x="737" d="M113 1382q0 40 28.5 67.5t73.5 27.5q55 0 87 -40t32 -112q0 -194 -203 -319l-16 24q81 49 122.5 116t41.5 132q0 31 -25 31q-7 0 -24.5 -5.5t-32.5 -5.5q-36 0 -60 22.5t-24 61.5zM403 1382q0 40 29 67.5t74 27.5q55 0 87 -40t32 -112q0 -194 -203 -319l-16 24 q81 49 122 115.5t41 132.5q0 31 -24 31q-7 0 -25 -5.5t-33 -5.5q-36 0 -60 22.5t-24 61.5z" />
<glyph unicode="&#x201e;" horiz-adv-x="747" d="M123 61q0 40 28.5 67.5t73.5 27.5q55 0 87 -40t32 -112q0 -194 -203 -319l-16 24q81 49 122.5 116t41.5 132q0 31 -25 31q-7 0 -24.5 -5.5t-32.5 -5.5q-36 0 -60 22.5t-24 61.5zM414 61q0 40 28.5 67.5t73.5 27.5q55 0 87 -40t32 -112q0 -194 -203 -319l-16 24 q81 49 122.5 116t41.5 132q0 31 -25 31q-7 0 -24.5 -5.5t-32.5 -5.5q-36 0 -60 22.5t-24 61.5z" />
<glyph unicode="&#x2022;" horiz-adv-x="884" d="M174 489q0 113 77 191t189 78q113 0 192 -78.5t79 -190.5t-79 -190t-192 -78q-112 0 -189 77.5t-77 190.5z" />
<glyph unicode="&#x2026;" horiz-adv-x="1247" d="M123 86q0 44 28.5 70t67.5 26q40 0 69 -26.5t29 -69.5t-29 -69.5t-69 -26.5q-37 0 -66.5 27.5t-29.5 68.5zM481 86q0 44 29 70t68 26q40 0 69 -26.5t29 -69.5t-29 -69.5t-69 -26.5q-37 0 -67 27.5t-30 68.5zM840 86q0 44 28.5 70t67.5 26q40 0 69 -26.5t29 -69.5 t-29 -69.5t-69 -26.5q-37 0 -66.5 27.5t-29.5 68.5z" />
<glyph unicode="&#x202f;" horiz-adv-x="375" />
<glyph unicode="&#x2039;" horiz-adv-x="618" d="M113 475v27l342 375h30l-262 -388l262 -387h-30z" />
<glyph unicode="&#x203a;" horiz-adv-x="618" d="M133 102l262 387l-262 388h31l342 -375v-27l-342 -373h-31z" />
<glyph unicode="&#x205f;" horiz-adv-x="469" />
<glyph unicode="&#x20ac;" horiz-adv-x="1159" d="M20 766v22l162 29q35 223 156.5 355.5t310.5 132.5q100 0 184.5 -40.5t141.5 -121.5l51 153h21v-485h-37q-26 136 -63 229t-84 143.5t-97.5 71.5t-114.5 21q-159 0 -248.5 -121.5t-113.5 -339.5h442l-12 -45l-436 -16q-4 -74 -4 -115q0 -69 2 -100h376l-12 -45l-358 -15 q21 -226 111 -353.5t251 -127.5q142 0 222.5 100t138.5 338h37v-459h-21l-53 152q-53 -75 -139.5 -118.5t-186.5 -43.5q-191 0 -312.5 136t-154.5 366l-157 25v24l149 21q-4 66 -4 100q0 36 4 106z" />
<glyph unicode="&#x2122;" horiz-adv-x="1761" d="M102 1180l11 211h569l8 -211h-28l-31 114q-8 29 -24 41.5t-52 12.5h-113v-533q0 -19 21 -22l100 -17v-26h-332v26l99 17q12 1 16 6t4 16v533h-112q-38 0 -53 -11.5t-23 -42.5l-29 -114h-31zM782 750v26l86 19q14 3 19.5 9t5.5 21v500q0 20 -19 23l-92 16v27h205l172 -402 l51 -139h4l240 541h195v-17l-82 -16q-19 -3 -19 -23v-520q0 -19 19 -22l82 -17v-26h-301v26l90 17q18 3 18 22v471h-4l-240 -538h-45l-180 413l-47 125h-4v-461q0 -15 5.5 -21t19.5 -9l83 -19v-26h-262z" />
<glyph unicode="&#x25fc;" horiz-adv-x="972" d="M0 0v973h973v-973h-973z" />
</font>
</defs>
</svg>
