<?xml version="1.0" standalone="no"?>
<!DOCTYPE svg PUBLIC "-//W3C//DTD SVG 1.1//EN" "http://www.w3.org/Graphics/SVG/1.1/DTD/svg11.dtd" >
<svg xmlns="http://www.w3.org/2000/svg" xmlns:xlink="http://www.w3.org/1999/xlink" version="1.1">
<metadata></metadata>
<defs>
<font id="harriet_textbold" horiz-adv-x="1552" >
<font-face units-per-em="2048" ascent="1638" descent="-410" />
<missing-glyph horiz-adv-x="409" />
<glyph unicode="&#xfb01;" horiz-adv-x="1398" d="M51 909v74l193 27v88q0 241 133.5 369t406.5 128q174 0 273.5 -73.5t99.5 -186.5q0 -80 -45.5 -126t-120.5 -46q-71 0 -114 40.5t-43 107.5t40 108t97 39q-61 58 -187 58q-78 0 -130 -23t-80 -69.5t-39 -103t-11 -136.5v-183h408l209 27l71 -16l-16 -238v-624 q0 -33 31 -41l125 -31v-78h-574v78l107 31q30 8 30 41v714q0 24 -10 36t-37 11l-344 -12v-752q0 -30 33 -38l109 -31v-78h-574v78l121 31q31 8 31 41v731z" />
<glyph unicode="&#xfb02;" horiz-adv-x="1400" d="M51 909v74l193 27v110q0 221 124 347t367 126q215 0 312 -102l96 86l71 -10l-18 -250v-1167q0 -33 31 -41l125 -31v-78h-574v78l107 31q30 8 30 41v768l-391 -19v-749q0 -32 33 -41l109 -31v-78h-574v78l121 31q31 8 31 41v731zM518 1219q0 -36 3 -112.5t3 -105.5h391 v347q0 76 -44.5 122t-137.5 46q-64 0 -107.5 -21.5t-66.5 -63.5t-32 -92.5t-9 -119.5z" />
<glyph unicode="&#xfb03;" horiz-adv-x="2070" d="M51 909v74l193 27v82q0 229 130.5 355t377.5 126q190 0 313 -92q135 114 391 114q175 0 275 -73.5t100 -186.5q0 -80 -46.5 -126t-121.5 -46q-71 0 -114.5 40.5t-43.5 107.5t40 108t97 39q-61 58 -184 58q-79 0 -131.5 -23t-80.5 -69.5t-39 -103t-11 -136.5v-183h408 l211 27l71 -16l-16 -238v-624q0 -34 28 -41l127 -31v-78h-575v78l109 31q28 8 28 41v714q0 24 -10 36t-37 11l-344 -4v-760q0 -30 33 -38l108 -31v-78h-555v78l103 31q30 8 30 41v753l-391 -4v-749q0 -32 33 -41l111 -31v-78h-576v78l121 31q31 8 31 41v731zM524 1001h391 v97v32q6 128 50 220q-57 143 -215 143q-118 0 -172 -76t-54 -225v-191z" />
<glyph unicode="&#xfb04;" horiz-adv-x="2072" d="M51 909v74l193 27v82q0 229 130.5 355t377.5 126q189 0 307 -88q127 108 348 108q102 0 183.5 -26.5t127.5 -73.5l97 84l71 -10l-16 -250v-1167q0 -34 28 -41l127 -31v-78h-575v78l109 31q28 8 28 41v768l-391 -7v-761q0 -32 33 -41l108 -31v-78h-555v78l103 31 q30 8 30 41v755l-391 -6v-749q0 -32 33 -41l111 -31v-78h-576v78l121 31q31 8 31 41v731zM524 1001h391v119v33q6 120 48 205q-59 135 -213 135q-118 0 -172 -76t-54 -225v-191zM1192 1219q0 -36 2 -112.5t2 -105.5h391v347q0 76 -44 122t-136 46q-65 0 -108.5 -21.5 t-66 -63.5t-31.5 -92t-9 -120z" />
<glyph horiz-adv-x="0" />
<glyph horiz-adv-x="682" />
<glyph unicode=" "  horiz-adv-x="409" />
<glyph unicode="&#x09;" horiz-adv-x="409" />
<glyph unicode="&#xa0;" horiz-adv-x="409" />
<glyph unicode="!" horiz-adv-x="741" d="M186 1231q0 88 52 138t133 50t132.5 -49t51.5 -137q0 -56 -20.5 -131.5t-45.5 -148.5t-48.5 -207.5t-28.5 -292.5h-84q-4 157 -27 291.5t-48.5 207t-46 148.5t-20.5 131zM205 139q0 72 48 118t118 46q69 0 116.5 -46.5t47.5 -117.5q0 -72 -47.5 -118t-116.5 -46 q-70 0 -118 46.5t-48 117.5z" />
<glyph unicode="&#x22;" horiz-adv-x="1017" d="M209 1567h235l-79 -656h-89zM596 1567h235l-79 -656h-88z" />
<glyph unicode="#" horiz-adv-x="1228" d="M131 535h252l29 253h-199l-53 209h276l37 310h80l-37 -310h289l37 310h80l-37 -310h172l53 -209h-250l-29 -253h197l53 -209h-274l-39 -326h-80l39 326h-289l-39 -326h-80l39 326h-174zM463 535h289l28 253h-288z" />
<glyph unicode="$" horiz-adv-x="1228" d="M123 279q0 69 41.5 112t107.5 43q61 0 99.5 -39.5t38.5 -99.5q0 -46 -25.5 -79t-67.5 -44q37 -42 108 -67t159 -25h6l6 450l-29 11q-71 27 -120.5 50.5t-102 58.5t-84 73.5t-52 93.5t-20.5 121q0 159 111.5 255t290.5 112l-2 125h88l-2 -123q106 -3 197 -33t151.5 -91.5 t60.5 -142.5q0 -67 -42 -111t-107 -44q-61 0 -99 39t-38 100q0 50 27 83t71 42q-34 36 -93.5 58t-127.5 22l-6 -434l28 -11q51 -19 87 -34.5t79 -37.5t72.5 -43t58.5 -51t46.5 -62.5t28.5 -75t11 -91.5q0 -86 -32.5 -156.5t-89 -116.5t-128 -74t-155.5 -38l2 -240h-88l2 236 h-2q-124 0 -228.5 33t-170.5 97.5t-66 148.5zM383 1036q0 -80 52.5 -126t158.5 -87l-4 402q-101 -13 -154 -63.5t-53 -125.5zM668 502l4 -416l26 4q91 20 137 69.5t46 121.5q0 84 -52.5 131.5t-160.5 89.5z" />
<glyph unicode="%" horiz-adv-x="1306" d="M68 1028q0 138 85 222.5t214 84.5t214 -84.5t85 -224.5q0 -138 -85 -222.5t-214 -84.5t-214 84.5t-85 224.5zM125 27l502 637l469 673l84 -57l-502 -637l-471 -674zM240 1028q0 -235 127 -235t127 233q0 236 -127 236t-127 -234zM641 281q0 138 85 222.5t214 84.5 t214 -84.5t85 -224.5q0 -138 -85 -223t-214 -85t-214 85t-85 225zM813 281q0 -236 127 -236t127 234q0 235 -127 235t-127 -233z" />
<glyph unicode="&#x26;" horiz-adv-x="1601" d="M53 365q0 323 406 446q-45 148 -45 264q0 155 102.5 249.5t263.5 94.5q63 0 116 -14t95.5 -42.5t67 -76.5t24.5 -110q0 -229 -362 -353q32 -85 94 -202q83 -159 133 -238q5 14 19 68q13 54 25 96.5t30.5 93.5t39 89.5t49.5 76t62.5 61.5t77.5 39t95 15q92 0 143 -46.5 t51 -119.5t-40 -116.5t-109 -43.5q-62 0 -101 37.5t-39 95.5t31 92q-30 -8 -56.5 -26t-46 -39.5t-38.5 -55t-31.5 -61.5t-26.5 -70.5t-21.5 -71.5t-19.5 -73q-16 -70 -38 -123q148 -207 272 -207q79 0 123 51.5t71 182.5l72 -6q-26 -184 -107 -265.5t-243 -81.5 q-166 0 -313 123q-130 -127 -357 -127q-94 0 -178 25t-149.5 73t-103.5 124.5t-38 171.5zM338 397q0 -164 66.5 -246.5t191.5 -82.5q131 0 223 86q-119 122 -231 335q-69 139 -109 259q-141 -98 -141 -351zM633 1180q0 -112 63 -295l25 10q93 41 143.5 117t50.5 172 q0 76 -35.5 115.5t-97.5 39.5q-68 0 -108.5 -42.5t-40.5 -116.5z" />
<glyph unicode="'" horiz-adv-x="634" d="M203 1567h239l-82 -656h-88z" />
<glyph unicode="(" horiz-adv-x="860" d="M180 594v8q0 142 38 277.5t95.5 238.5t136 197.5t148 156t143.5 113.5l43 -45q-65 -71 -120 -155.5t-107.5 -200t-82.5 -265.5t-30 -317v-8q0 -168 30.5 -319.5t83 -268t108 -201t120.5 -155.5l-45 -43q-60 42 -118 92.5t-124 120t-121 152.5t-100.5 177.5t-71.5 209.5 t-26 235z" />
<glyph unicode=")" horiz-adv-x="849" d="M72 -350q64 71 118.5 155.5t107 201t82.5 268t30 319.5v8q0 167 -30 317t-81.5 265.5t-106 200t-118.5 155.5l43 45q73 -52 141 -113.5t145.5 -156t134.5 -197t94.5 -238.5t37.5 -278v-8q0 -143 -37.5 -279.5t-94.5 -239.5t-134.5 -198t-145.5 -156.5t-141 -113.5z" />
<glyph unicode="*" horiz-adv-x="1021" d="M147 1282q0 42 25 71t61 29q18 0 33 -6q31 -10 86 -61.5t105 -79.5l-11 -37q-32 8 -108 1t-82 -7q-46 0 -77.5 24.5t-31.5 65.5zM240 969q0 29 20 55q20 25 88.5 61t112.5 72l26 -22q-25 -49 -41.5 -125t-39.5 -105q-26 -33 -68 -33q-38 0 -68 30t-30 67zM418 1495 q0 39 25.5 64.5t66.5 25.5t66.5 -25.5t25.5 -64.5q0 -38 -31.5 -106.5t-42.5 -122.5h-36q-11 54 -42.5 122.5t-31.5 106.5zM532 1135l29 22q44 -37 111.5 -72.5t87.5 -60.5q20 -26 20 -55q0 -37 -30 -67t-68 -30q-42 0 -68 33q-23 29 -40 105t-42 125zM563 1235 q50 29 106 80t85 61q15 6 32 6q38 0 62 -29t24 -71t-30.5 -66t-77.5 -24q-6 0 -82.5 7t-108.5 -1z" />
<glyph unicode="+" horiz-adv-x="1126" d="M115 469v106h395v392h106v-392h396v-106h-396v-395h-106v395h-395z" />
<glyph unicode="," horiz-adv-x="659" d="M133 152q0 81 51.5 132.5t130.5 51.5q97 0 154 -67.5t57 -194.5q0 -166 -96 -298t-246 -208l-45 94q119 59 187.5 157.5t68.5 203.5v4q-41 -41 -102 -41q-66 0 -113 46t-47 120z" />
<glyph unicode="-" horiz-adv-x="690" d="M94 455v131h502v-131h-502z" />
<glyph unicode="." horiz-adv-x="634" d="M137 156q0 78 52 129t128 51t127.5 -50.5t51.5 -129.5q0 -78 -52 -129.5t-127 -51.5q-76 0 -128 51t-52 130z" />
<glyph unicode="/" horiz-adv-x="882" d="M76 -205l565 1698h127l-567 -1698h-125z" />
<glyph unicode="0" horiz-adv-x="1280" d="M92 541q0 135 43.5 244.5t119 179.5t174 107.5t210.5 37.5q113 0 211.5 -37t174 -107t118.5 -180t43 -247q0 -135 -43 -244.5t-118.5 -179.5t-174 -107t-211.5 -37t-211 37t-173.5 107t-119 180t-43.5 246zM408 539q0 -258 52.5 -373t178.5 -115q125 0 178 116t53 374 q0 259 -52.5 373t-178.5 114t-178.5 -114.5t-52.5 -374.5z" />
<glyph unicode="1" horiz-adv-x="1050" d="M131 924v71l195 23q144 17 198.5 33.5t85.5 50.5h86l-12 -275v-665q0 -32 37 -37l217 -39v-86h-803v86l225 39q37 5 37 37v631q0 52 -20.5 78.5t-73.5 33.5z" />
<glyph unicode="2" horiz-adv-x="1165" d="M119 782q0 138 127 233t321 95q212 0 335.5 -84.5t123.5 -237.5q0 -49 -12.5 -92t-40.5 -81.5t-60 -69.5t-84.5 -66t-100.5 -62t-120 -65q-105 -56 -254 -143h508q39 0 56 11.5t32 47.5l41 103h72l-49 -371h-877l-14 123q223 131 403 287q104 89 153.5 184t49.5 219 q0 98 -53.5 155.5t-153.5 57.5q-82 0 -142.5 -32.5t-90.5 -88.5q62 0 101.5 -37.5t39.5 -101.5q0 -63 -42.5 -105.5t-108.5 -42.5q-69 0 -114.5 46t-45.5 118z" />
<glyph unicode="3" horiz-adv-x="1165" d="M51 -78q0 72 46 118t112 46q67 0 107 -40t40 -103q0 -52 -30 -87t-76 -46q62 -66 190 -66q146 0 242 95t96 282q0 86 -15.5 145.5t-45.5 91t-65.5 45t-82.5 13.5q-41 0 -78 -15t-59.5 -33.5t-53 -33.5t-59.5 -15q-39 0 -56 23t-17 70q46 23 122 41.5t136 23.5 q39 22 74 47q159 113 159 295q0 98 -56.5 152.5t-162.5 54.5q-77 0 -136 -27t-89 -71l6 2q58 0 95.5 -35.5t37.5 -95.5q0 -63 -40.5 -103.5t-106.5 -40.5q-68 0 -111 44t-43 116q0 125 122.5 210t317.5 85q197 0 324 -75t127 -204q0 -39 -12 -73t-30 -61t-50 -53.5 t-61.5 -45t-75.5 -40t-81.5 -35.5t-88.5 -34l-31 -12v-8q36 8 80 8q84 0 157 -21t130.5 -62.5t90.5 -110t33 -156.5q0 -113 -58 -204.5t-150.5 -147t-199.5 -84.5t-214 -29q-185 0 -297.5 71t-112.5 189z" />
<glyph unicode="4" horiz-adv-x="1198" d="M61 182l578 899h240v-884h53q43 0 62.5 16.5t37.5 65.5l39 104h78l-37 -272h-233v-261q0 -18 7.5 -27t28.5 -13l172 -35v-84h-708v82l184 37q35 8 35 40v261h-520zM168 207l430 -10v677z" />
<glyph unicode="5" horiz-adv-x="1130" d="M82 -76q0 71 45.5 116.5t112.5 45.5q66 0 105.5 -40t39.5 -101q0 -54 -30 -90t-76 -45q56 -66 182 -66t197 92t71 283q0 97 -15.5 164t-46.5 104.5t-70 53.5t-91 16q-119 0 -221 -133l-119 14l92 743h74q121 -45 332 -45q103 0 187 17t122 47l43 -27 q-47 -135 -150.5 -203.5t-277.5 -68.5q-143 0 -277 28l-49 -383q127 95 303 95q74 0 140.5 -13.5t128 -44.5t105.5 -77.5t70.5 -117.5t26.5 -159q0 -116 -51 -208t-134 -147t-180 -83.5t-198 -28.5q-186 0 -288.5 72.5t-102.5 189.5z" />
<glyph unicode="6" horiz-adv-x="1249" d="M106 610q0 191 51.5 346.5t140.5 255.5t206 153.5t250 53.5q166 0 270 -73t104 -183q0 -73 -42.5 -115t-108.5 -42q-65 0 -107.5 39t-42.5 100q0 58 35 97.5t82 37.5q-60 57 -186 57q-174 0 -265 -168.5t-106 -545.5q70 249 330 249q83 0 158.5 -28t135.5 -80t96 -136 t36 -188q0 -109 -42 -199t-113.5 -148.5t-165.5 -90t-199 -31.5q-109 0 -200 36t-163.5 110t-113 200t-40.5 293zM424 408q0 -357 201 -357q221 0 221 373q0 171 -51 257.5t-148 86.5q-107 0 -165 -92.5t-58 -267.5z" />
<glyph unicode="7" horiz-adv-x="1036" d="M39 662l61 475h74q2 -29 14 -42.5t45 -13.5h752v-90q-77 -117 -109 -167t-83.5 -146.5t-77.5 -175.5q-79 -236 -90 -654q-2 -83 -44.5 -129.5t-127.5 -46.5q-75 0 -118.5 41.5t-43.5 112.5q0 127 86 319.5t211 391.5l26 40t24 36t26 36t23.5 32t24.5 32.5t22.5 29t24 30 t22 27t23 28.5t21.5 26h-544q-56 0 -80.5 -17t-42.5 -65l-41 -110h-78z" />
<glyph unicode="8" horiz-adv-x="1208" d="M98 324q0 129 79.5 214t211.5 121q-73 40 -122.5 86.5t-81 117.5t-31.5 161q0 119 64.5 210.5t169 138t228.5 46.5q120 0 218 -35.5t160.5 -111t62.5 -178.5q0 -106 -71.5 -179t-184.5 -106q70 -30 122 -64t96 -81t66.5 -110t22.5 -140q0 -201 -146 -322t-374 -121 q-137 0 -246.5 39t-176.5 120.5t-67 193.5zM313 324q0 -134 74 -203.5t207 -69.5q136 0 207 62.5t71 171.5q0 62 -22 109t-70 83t-101 61.5t-138 55.5q-32 11 -86 35q-67 -45 -104.5 -125t-37.5 -180zM373 1135q0 -45 16.5 -82.5t44 -65.5t72.5 -54.5t92 -46t113 -42.5 l28 -10l6 4q113 87 113 262q0 117 -64.5 177t-175.5 60q-116 0 -180.5 -56.5t-64.5 -145.5z" />
<glyph unicode="9" horiz-adv-x="1239" d="M100 639q0 109 42 199t114 148t166 90t199 32q109 0 200 -36t163 -110t112.5 -200t40.5 -293q0 -191 -51.5 -346.5t-140.5 -255.5t-206 -153.5t-250 -53.5q-166 0 -270 73t-104 183q0 73 42.5 115.5t108.5 42.5q65 0 107.5 -39.5t42.5 -100.5q0 -58 -35 -97.5t-82 -37.5 q60 -57 186 -57q174 0 265 169t106 546q-71 -250 -330 -250q-83 0 -158.5 28t-135.5 80t-96 136t-36 188zM397 655q0 -171 51 -257.5t148 -86.5q107 0 165 92.5t58 268.5q0 356 -201 356q-221 0 -221 -373z" />
<glyph unicode=":" horiz-adv-x="710" d="M174 152q0 78 51.5 129t126.5 51q74 0 125 -51t51 -129t-51.5 -129.5t-124.5 -51.5q-75 0 -126.5 51.5t-51.5 129.5zM174 852q0 78 51.5 129t126.5 51q74 0 125 -51t51 -129t-51.5 -129t-124.5 -51q-75 0 -126.5 51t-51.5 129z" />
<glyph unicode=";" horiz-adv-x="735" d="M172 152q0 81 51.5 132.5t128.5 51.5q95 0 151 -67.5t56 -194.5q0 -166 -94 -298.5t-242 -207.5l-45 94q117 59 184.5 157t67.5 204v4q-38 -41 -100 -41q-64 0 -111 46t-47 120zM174 852q0 78 51.5 129t126.5 51q74 0 125 -51t51 -129t-51.5 -129t-124.5 -51 q-75 0 -126.5 51t-51.5 129z" />
<glyph unicode="&#x3c;" horiz-adv-x="1126" d="M123 481v82l811 412l45 -94l-727 -359l727 -360l-45 -92z" />
<glyph unicode="=" horiz-adv-x="1126" d="M115 272v109h897v-109h-897zM115 662v108h897v-108h-897z" />
<glyph unicode="&#x3e;" horiz-adv-x="1126" d="M147 162l727 360l-727 359l46 92l811 -412v-82l-811 -411z" />
<glyph unicode="?" horiz-adv-x="1175" d="M113 1110q0 131 126 220t316 89q104 0 197 -22.5t169 -67.5t121 -121t45 -174q0 -100 -41 -178t-109 -123t-147.5 -67.5t-166.5 -22.5q-57 0 -109 12l-16 -202h-84l-23 286l76 19q60 -35 121 -35q192 0 192 313q0 156 -67 228.5t-201 72.5q-75 0 -134 -27.5t-91 -72.5 q60 -2 98.5 -40t38.5 -101q0 -64 -43 -107t-109 -43q-70 0 -114.5 45t-44.5 119zM295 139q0 72 47.5 118t116.5 46q70 0 118 -46.5t48 -117.5q0 -72 -48.5 -118t-117.5 -46q-70 0 -117 46.5t-47 117.5z" />
<glyph unicode="@" horiz-adv-x="1984" d="M131 406q0 202 79.5 386t210.5 314.5t306.5 207.5t362.5 77q346 0 548.5 -183.5t202.5 -507.5q0 -146 -44.5 -269.5t-117 -203t-162 -124t-182.5 -44.5q-116 0 -182 59.5t-66 155.5q0 19 3 37q-54 -122 -120 -181.5t-155 -59.5q-117 0 -180.5 74t-63.5 204q0 85 24.5 170 t71.5 159.5t109.5 132.5t145.5 92t174 34q149 0 235 -96l84 96h70l-86 -227l-105 -318q-28 -86 -28 -131q0 -54 28 -87.5t86 -33.5q60 0 117.5 32t107 92t79.5 160t30 224q0 288 -182 463.5t-481 175.5q-156 0 -291 -58t-231.5 -162t-151.5 -254.5t-55 -328.5 q0 -176 62.5 -322t169.5 -241.5t248 -148t298 -52.5q134 0 261.5 37t209.5 99l35 -39q-99 -119 -256.5 -195t-354.5 -76q-182 0 -341 61.5t-274.5 172t-182 272.5t-66.5 355zM805 299q0 -123 76 -123q55 0 107.5 76.5t119.5 275.5l90 265q-20 71 -86 71q-61 0 -119.5 -59 t-98.5 -146t-64.5 -184.5t-24.5 -175.5z" />
<glyph unicode="A" horiz-adv-x="1437" d="M-6 0v84l149 43q27 9 41.5 23t26.5 43l342 937l88 271h180l441 -1237q6 -21 17.5 -31t35.5 -16l127 -33v-84h-707v86l148 31q22 4 27 18t-3 39l-78 229h-436l-67 -198q-7 -21 -9 -34t6 -25.5t29 -18.5l158 -43v-84h-516zM428 502h369l-90 270l-80 270h-13z" />
<glyph unicode="B" horiz-adv-x="1462" d="M92 0v86l152 33q24 4 32.5 14.5t8.5 32.5v1061q0 21 -8.5 31t-32.5 14l-152 33v86h682q518 0 518 -322q0 -73 -30 -131t-84 -97.5t-123.5 -64.5t-155.5 -37v-12q223 -15 343 -100.5t120 -241.5q0 -189 -142 -287t-423 -98h-705zM608 170q0 -44 17.5 -61t68.5 -17h56 q84 0 135.5 24.5t81.5 91t30 181.5q0 163 -71.5 230t-206.5 67h-111v-516zM608 774h113q126 0 183 67t57 212q0 140 -54 192.5t-178 52.5q-21 0 -62 -1t-59 -1v-522z" />
<glyph unicode="C" horiz-adv-x="1435" d="M80 694q0 169 55.5 308t151 229.5t221.5 140t268 49.5q243 0 393 -131l48 121h79l-10 -555h-96l-45 148q-46 155 -132.5 240t-213.5 85q-361 0 -361 -635t361 -635q246 0 350 318l43 131h96l6 -528h-80l-47 126q-157 -137 -393 -137q-141 0 -266.5 49t-221 139t-151 229 t-55.5 308z" />
<glyph unicode="D" horiz-adv-x="1579" d="M86 0v86l152 33q24 4 32.5 14.5t8.5 32.5v1061q0 21 -8.5 31t-32.5 14l-152 33v86h659q358 0 556 -180t198 -517q0 -336 -199.5 -515t-556.5 -179h-657zM604 170q0 -45 17 -61.5t69 -16.5h94q182 0 269.5 141.5t87.5 460.5q0 321 -88.5 462.5t-272.5 141.5h-71 q-20 0 -57 -1t-48 -1v-1126z" />
<glyph unicode="E" horiz-adv-x="1390" d="M86 0v86l152 33q24 4 32.5 14.5t8.5 32.5v1061q0 21 -8.5 31t-32.5 14l-152 33v86h1141l14 -359h-115l-65 144q-32 73 -72 97.5t-121 24.5h-151q-21 0 -61 -1t-52 -1v-540h107q62 0 91 20.5t54 83.5l51 137h82v-569h-82l-53 143q-25 61 -53 81t-90 20h-107v-502 q0 -44 18.5 -61t71.5 -17h221q74 0 111 26t70 107l84 199h116l-20 -424h-1190z" />
<glyph unicode="F" horiz-adv-x="1316" d="M86 0v86l152 33q24 4 32.5 14.5t8.5 32.5v1061q0 21 -8.5 31t-32.5 14l-152 33v86h1141l16 -359h-115l-67 144q-32 74 -71 98t-120 24h-155q-20 0 -59.5 -1t-51.5 -1v-544h111q61 0 89.5 21t53.5 83l53 137h82v-569h-84l-53 143q-25 61 -53 81t-88 20h-111v-490 q0 -26 10 -39.5t35 -19.5l170 -35v-84h-733z" />
<glyph unicode="G" horiz-adv-x="1509" d="M80 694q0 168 59.5 307.5t160 229.5t229.5 139t272 49q234 0 385 -131l47 123h78l-8 -547h-95l-45 142q-100 323 -348 323q-189 0 -283 -161.5t-94 -473.5q0 -319 88 -477t254 -158q116 0 184 56t68 155v213q0 20 -9 30.5t-32 14.5l-184 39v80h698v-80l-153 -37 q-19 -5 -26 -12t-7 -22v-252l12 -271h-82l-63 152q-65 -75 -173.5 -115.5t-244.5 -40.5q-141 0 -265 49t-218.5 139t-149.5 229t-55 308z" />
<glyph unicode="H" horiz-adv-x="1753" d="M86 0v86l152 33q24 4 32.5 14.5t8.5 32.5v1061q0 21 -8.5 31t-32.5 14l-152 33v86h694v-86l-139 -33q-22 -4 -29.5 -14t-7.5 -31v-469h545v469q0 21 -8 31t-31 14l-139 33v86h694v-86l-152 -33q-23 -4 -31.5 -14t-8.5 -31v-1061q0 -22 8.5 -32.5t31.5 -14.5l152 -33v-86 h-694v86l139 33q23 4 31 14.5t8 32.5v500h-545v-500q0 -23 7.5 -33t29.5 -14l139 -33v-86h-694z" />
<glyph unicode="I" horiz-adv-x="894" d="M92 0v86l152 33q23 4 32 14.5t9 32.5v1061q0 20 -9 30.5t-32 14.5l-152 33v86h707v-86l-150 -33q-24 -4 -31.5 -14t-7.5 -31v-1061q0 -23 7.5 -33t31.5 -14l150 -33v-86h-707z" />
<glyph unicode="J" horiz-adv-x="1187" d="M35 231q0 86 49 136.5t123 50.5q68 0 111.5 -43.5t43.5 -110.5q0 -66 -42 -108q-39 -41 -90 -41h-5q56 -62 166 -62q112 0 168.5 62.5t56.5 210.5v888q0 27 -11 40.5t-38 19.5l-159 33v84h716v-86l-147 -33q-24 -4 -33.5 -14t-9.5 -31v-740q0 -247 -142.5 -381.5 t-396.5 -134.5q-163 0 -261.5 71.5t-98.5 188.5z" />
<glyph unicode="K" horiz-adv-x="1652" d="M86 0v86l152 33q23 4 32 14.5t9 32.5v1061q0 20 -9 30.5t-32 14.5l-152 33v86h700v-86l-143 -33q-24 -4 -32.5 -14t-8.5 -31v-574l516 555q16 19 16 33q0 19 -32 27l-139 39v84h585v-86l-202 -52q-39 -8 -65 -24.5t-56 -46.5l-285 -295l475 -713q17 -25 31 -35t37 -16 l159 -39v-84h-741v84l121 29q31 6 31 29q0 12 -9 28l-317 496l-125 -129v-371q0 -22 8 -31.5t31 -15.5l127 -35v-84h-682z" />
<glyph unicode="L" horiz-adv-x="1353" d="M86 0v86l152 33q23 4 32 14.5t9 32.5v1061q0 20 -9 30.5t-32 14.5l-152 33v86h717v-84l-150 -33q-51 -10 -51 -62v-1042q0 -44 17.5 -61t68.5 -17h211q87 0 127 28t76 120l86 221h117l-21 -461h-1198z" />
<glyph unicode="M" horiz-adv-x="2011" d="M86 0v86l141 37q29 7 40.5 24t11.5 48v1032q0 21 -8 31t-31 14l-154 33v86h539l264 -670l92 -289h10l393 959h537v-86l-160 -33q-22 -4 -30.5 -13.5t-8.5 -25.5v-1073q0 -18 8.5 -27.5t30.5 -13.5l160 -33v-86h-725v84l162 35q22 4 30.5 13.5t8.5 27.5v985h-13 l-479 -1151h-71l-336 827l-107 322h-12v-948q0 -32 11 -48.5t40 -23.5l139 -37v-86h-483z" />
<glyph unicode="N" horiz-adv-x="1583" d="M86 0v84l139 39q29 9 41.5 25t12.5 47v1019q0 26 -11 39.5t-39 20.5l-143 33v84h496l481 -682l160 -250h12v737q0 31 -12.5 48t-42.5 24l-140 37v86h486v-84l-140 -39q-30 -9 -40.5 -24.5t-10.5 -47.5v-1202h-166l-616 862l-164 268h-12v-929q0 -31 12.5 -48t42.5 -24 l139 -37v-86h-485z" />
<glyph unicode="O" d="M80 694q0 211 87 376.5t246 258t363 92.5t363 -92.5t246.5 -258t87.5 -376.5q0 -210 -87.5 -375t-246.5 -257.5t-363 -92.5t-363 92.5t-246 257.5t-87 375zM438 694q0 -148 16.5 -259t54 -198.5t104.5 -132.5t163 -45q77 0 135.5 30.5t97 84t62.5 134.5t34.5 175 t10.5 211q0 148 -17 260t-55 198.5t-105.5 131.5t-162.5 45q-96 0 -163 -45t-104.5 -132t-54 -198t-16.5 -260z" />
<glyph unicode="P" horiz-adv-x="1409" d="M86 0v86l152 33q24 4 32.5 14.5t8.5 32.5v1059q0 21 -8.5 31t-32.5 14l-152 33v86h92q74 0 261 3t286 3q295 0 456.5 -98.5t161.5 -301.5q0 -102 -44.5 -179.5t-124.5 -125t-185 -71t-233 -23.5q-101 0 -152 2v-430q0 -21 9.5 -32t33.5 -17l172 -35v-84h-733zM604 694 q57 -2 144 -2q129 0 193.5 72t64.5 231q0 166 -66.5 237t-210.5 71q-64 0 -125 -7v-602z" />
<glyph unicode="Q" d="M80 694q0 211 88 376.5t247.5 258t362.5 92.5q202 0 360 -92.5t245 -257.5t87 -375q0 -189 -82.5 -345t-222.5 -253q37 -91 56 -153q25 -81 66 -120.5t106 -39.5q98 0 172 113l51 -33q-134 -227 -344 -227q-141 0 -217 69t-105 201q-9 43 -12 88q-80 -21 -164 -21 q-147 0 -275.5 53t-220.5 147t-145 228.5t-53 290.5zM418 672q0 -362 119 -516l-9 14q-22 55 -22 117q0 103 70 175.5t192 72.5q99 0 171 -50t114 -137q4 -8 12 -24.5t12 -24.5q53 156 53 408q0 148 -18.5 260t-59 194.5t-108.5 125t-162 42.5q-190 0 -277 -167t-87 -490z M571 256q0 -92 56.5 -145.5t154.5 -53.5h27q64 5 123 39q-1 18 -1.5 51t-1.5 60t-3 51q-8 87 -53.5 139t-127.5 52q-79 0 -126.5 -56t-47.5 -137z" />
<glyph unicode="R" horiz-adv-x="1513" d="M86 0v86l152 33q23 4 32 14.5t9 32.5v1059q0 20 -9 30.5t-32 14.5l-152 33v86h90q54 0 252.5 3t298.5 3q135 0 242 -19.5t191.5 -62t130.5 -115.5t46 -174q0 -131 -84.5 -215.5t-222.5 -122.5q71 -58 125 -180l154 -324q14 -29 30.5 -44t44.5 -21l136 -31v-86h-492 l-248 623q-20 -2 -57 -2q-71 0 -121 8v-461q0 -21 9.5 -32t33.5 -17l150 -35v-84h-709zM602 719q62 -6 127 -6q137 0 204.5 72.5t67.5 234.5q0 84 -17 140t-53.5 87t-84 43.5t-117.5 12.5q-62 0 -127 -7v-577z" />
<glyph unicode="S" horiz-adv-x="1212" d="M119 -25l4 531h94l51 -148q49 -145 131 -218.5t213 -73.5q123 0 191.5 54t68.5 154q0 34 -9.5 63.5t-23 51.5t-39.5 43t-48.5 35.5t-62 31.5t-67 27t-75.5 27q-203 69 -304.5 176.5t-101.5 278.5q0 126 67.5 221.5t174.5 142.5t235 47q196 0 318 -98l45 92h74l-4 -500 h-88l-50 152q-44 134 -108.5 197t-179.5 63q-117 0 -181.5 -56t-64.5 -145q0 -32 10 -60t23.5 -49t41.5 -42.5t49.5 -35t62.5 -31t66 -27t73 -27.5q77 -28 133.5 -55.5t110.5 -66.5t87.5 -84.5t53.5 -108t20 -138.5q0 -137 -70 -236t-181.5 -145.5t-250.5 -46.5 q-225 0 -362 121l-49 -117h-78z" />
<glyph unicode="T" horiz-adv-x="1406" d="M53 1032l10 359h1276l13 -359h-113l-59 144q-31 80 -69.5 103.5t-123.5 23.5h-121v-1137q0 -22 9 -32.5t34 -14.5l166 -33v-86h-745v84l168 35q25 4 34 14.5t9 32.5v1137h-123q-86 0 -124.5 -23.5t-68.5 -103.5l-59 -144h-113z" />
<glyph unicode="U" horiz-adv-x="1583" d="M61 1305v86h705v-86l-150 -33q-24 -4 -31 -13.5t-7 -31.5v-746q0 -211 78 -295t249 -84q165 0 247.5 96t82.5 294v704q0 31 -12.5 48t-42.5 24l-138 37v86h486v-86l-139 -37q-30 -7 -42 -24t-12 -48v-704q0 -521 -555 -521q-278 0 -403 123.5t-125 397.5v735 q0 21 -8.5 31t-32.5 14z" />
<glyph unicode="V" horiz-adv-x="1447" d="M-10 1305v86h715v-84l-160 -29q-16 -3 -22.5 -11t-5 -20t8.5 -33l199 -587l78 -260h12l303 817q15 38 11 55.5t-35 26.5l-154 41v84h516v-84l-156 -45q-25 -8 -38.5 -20.5t-22.5 -37.5l-467 -1216h-147l-447 1243q-11 33 -45 41z" />
<glyph unicode="W" horiz-adv-x="2058" d="M-10 1307v84h712v-86l-165 -27q-20 -4 -24 -18t5 -43l174 -539l58 -232h10l309 953h131l232 -686l67 -260h10l220 741q11 35 6.5 49.5t-27.5 20.5l-166 41v86h524v-84l-163 -45q-25 -7 -37.5 -20t-20.5 -36l-377 -1226h-120l-240 716l-72 265h-12l-317 -981h-119 l-416 1253q-6 18 -15.5 26.5t-29.5 12.5z" />
<glyph unicode="X" horiz-adv-x="1564" d="M12 0v82l162 43q62 17 94 57l371 480l-379 575q-17 28 -53 37l-156 33v84h772v-86l-153 -25q-27 -4 -30 -21t13 -45l219 -360l254 344q21 27 21 46q0 23 -33 30l-129 33v84h528v-84l-161 -41q-48 -12 -88 -58l-338 -438l413 -616q21 -29 52 -37l161 -33v-84h-788v84 l154 27q31 5 31 28q0 16 -15 41l-244 400l-284 -387q-20 -28 -20 -46q0 -24 34 -30l139 -33v-84h-547z" />
<glyph unicode="Y" horiz-adv-x="1435" d="M-10 1307v84h719v-86l-158 -27q-24 -4 -24 -23q0 -14 12 -36l188 -371l82 -186h10l291 536q18 32 14.5 48.5t-30.5 23.5l-150 37v84h502v-82l-137 -41q-53 -15 -76 -62l-363 -643v-397q0 -22 9.5 -32.5t35.5 -14.5l168 -35v-84h-747v84l168 35q26 4 34.5 14.5t8.5 32.5 v381l-369 688q-15 31 -53 39z" />
<glyph unicode="Z" horiz-adv-x="1318" d="M70 84l673 1032l142 184h-371q-101 0 -143.5 -25.5t-75.5 -109.5l-82 -213h-115l21 439h1093l9 -88l-648 -1008l-153 -205h407q102 0 144 27.5t76 115.5l92 234h112l-20 -467h-1149z" />
<glyph unicode="[" horiz-adv-x="950" d="M283 -387v1972l610 -22v-66l-367 -33v-1732l367 -33v-66z" />
<glyph unicode="\" horiz-adv-x="843" d="M100 1493h125l559 -1698h-125z" />
<glyph unicode="]" horiz-adv-x="950" d="M57 -301l367 33v1732l-367 33v66l611 22v-1972l-611 20v66z" />
<glyph unicode="^" horiz-adv-x="1173" d="M113 897l379 670h190l379 -670h-86l-387 555l-379 -555h-96z" />
<glyph unicode="_" horiz-adv-x="1060" d="M0 -27h1061v-96h-1061v96z" />
<glyph unicode="`" horiz-adv-x="1169" d="M332 1538v27h229l144 -359h-54z" />
<glyph unicode="a" horiz-adv-x="1112" d="M76 213q0 301 573 371q2 61 2 174q0 97 -41 142.5t-127 45.5q-109 0 -178 -65q47 -6 74 -40t27 -89q0 -60 -39.5 -95.5t-102.5 -35.5t-102 40t-39 111q0 111 110 184.5t283 73.5q406 0 406 -356q0 -70 -2 -235t-2 -236q0 -55 15 -78t48 -23q35 0 55 39.5t29 122.5l68 -4 q-14 -144 -66 -210t-166 -66q-168 0 -203 159q-43 -82 -133 -127t-198 -45q-139 0 -215 65.5t-76 176.5zM358 231q0 -67 32 -104t91 -37q70 0 118 51t48 135q0 146 2 230q-147 -27 -219 -88.5t-72 -186.5z" />
<glyph unicode="b" horiz-adv-x="1193" d="M8 1436v80l373 59l76 -12l-17 -246v-150l-28 -338q75 201 290 201q84 0 160.5 -35t135 -99t93.5 -162.5t35 -217.5q0 -129 -40.5 -234t-110 -172t-159.5 -103t-191 -36q-99 0 -186.5 30t-145.5 91l-76 -115l-82 7l27 297v1105q0 18 -7.5 26t-27.5 9zM440 147 q51 -96 166 -96q118 0 167.5 113.5t49.5 345.5q0 212 -40.5 312t-139.5 100q-93 0 -148 -87t-55 -249v-439z" />
<glyph unicode="c" horiz-adv-x="1040" d="M66 496q0 105 28.5 193.5t77.5 150.5t115.5 105.5t142.5 64t158 20.5q159 0 260.5 -73.5t101.5 -192.5q0 -74 -44.5 -117t-108.5 -43q-63 0 -105.5 40t-42.5 101q0 60 35 99t86 39q-52 65 -156 65q-245 0 -245 -440q0 -202 66.5 -305t193.5 -103q88 0 157 44t132 128 l61 -43q-73 -125 -176 -190.5t-252 -65.5q-75 0 -145.5 21t-132.5 65t-108 105t-72.5 146.5t-26.5 185.5z" />
<glyph unicode="d" horiz-adv-x="1234" d="M66 494q0 105 28 193.5t76 151t112 106t135.5 64.5t147.5 21q98 0 185 -37v389q0 18 -7.5 26t-25.5 9l-139 15v77l393 66l73 -12l-14 -246v-1167q0 -32 31 -41l131 -31v-78h-363l-22 23l-6 213q-34 -127 -114.5 -195t-197.5 -68q-76 0 -148 30t-135 89.5t-101.5 163.5 t-38.5 238zM369 504q0 -228 46.5 -326t143.5 -98q87 0 139 89.5t52 254.5v391q-49 133 -172 133q-101 0 -155 -105t-54 -339z" />
<glyph unicode="e" horiz-adv-x="1052" d="M66 498q0 132 43.5 237t115.5 167.5t158 95t178 32.5q191 0 298.5 -102.5t107.5 -280.5q0 -43 -13 -127h-585v-22q0 -196 68.5 -297t191.5 -101q154 0 278 160l62 -45q-152 -242 -416 -242q-94 0 -180 34t-155.5 98t-110.5 166t-41 227zM371 602l325 25l4 30q5 58 5 72 q0 221 -142 221q-170 0 -192 -348z" />
<glyph unicode="f" horiz-adv-x="851" d="M51 909v74l193 27v157q0 200 112.5 312t333.5 112q148 0 236 -65t88 -168q0 -75 -43.5 -118.5t-112.5 -43.5q-63 0 -105 39.5t-42 99.5q0 55 27.5 92t72.5 46q-37 40 -115 40q-92 0 -135 -56t-43 -171q0 -43 3 -142t3 -143h258v-90l-258 -18v-731q0 -24 9 -35.5t36 -17.5 l144 -31v-78h-621v78l121 31q31 8 31 41v731z" />
<glyph unicode="g" horiz-adv-x="1142" d="M20 -231q0 67 41.5 109t106.5 42q46 0 67 -25q16 -19 16 -48q0 -8 -1 -17q-60 -18 -60 -86q0 -69 89.5 -114.5t261.5 -45.5q183 0 283 46.5t100 127.5q0 27 -7.5 46t-27 33t-44 23t-66 15t-86 9t-111.5 5q-451 18 -451 252q0 187 244 219v7q-144 26 -222.5 111.5 t-78.5 207.5q0 151 109.5 247.5t303.5 96.5q95 0 174.5 -25t120.5 -63q91 94 211 94q70 0 110 -34.5t40 -98.5q0 -59 -32.5 -91t-86.5 -32q-48 0 -76 28.5t-28 78.5t30 74q-78 -15 -133 -76q76 -88 76 -215q0 -155 -107 -253t-299 -98q-105 0 -145.5 -18.5t-40.5 -54.5 q0 -42 68.5 -60t234.5 -24q248 -8 363.5 -76t115.5 -229q0 -177 -144.5 -265t-393.5 -88q-149 0 -265 28t-188 89t-72 148zM344 676q0 -279 148 -279q147 0 147 279q0 140 -35 207t-112 67q-148 0 -148 -274z" />
<glyph unicode="h" horiz-adv-x="1302" d="M45 0v78l121 31q33 9 33 41v1236q0 17 -7 25.5t-26 11.5l-121 15v78l373 59l76 -12l-15 -246v-219l-28 -322q41 122 129 188t221 66q147 0 228 -84t81 -241v-555q0 -32 33 -41l121 -31v-78h-559v78l94 28q32 8 32 44v583q0 89 -33 128.5t-98 39.5q-94 0 -157.5 -100.5 t-63.5 -272.5v-381q0 -34 31 -41l94 -28v-78h-559z" />
<glyph unicode="i" horiz-adv-x="718" d="M61 868v70l396 90l78 -16l-17 -234v-628q0 -33 31 -41l125 -31v-78h-592v78l125 31q31 8 31 41v671q0 18 -6.5 26t-26.5 9zM176 1374q0 81 50.5 127.5t129.5 46.5q80 0 130.5 -46.5t50.5 -127.5q0 -80 -51 -128t-130 -48q-78 0 -129 49t-51 127z" />
<glyph unicode="j" horiz-adv-x="753" d="M-168 -285q0 70 44 115t114 45q63 0 102 -41t39 -104q0 -50 -25 -83.5t-67 -45.5q35 -21 88 -21q162 0 162 211v1020q0 18 -7.5 26t-25.5 9l-178 14v70l430 96l76 -16l-15 -236v-852q0 -193 -122 -304.5t-330 -111.5q-143 0 -214 57.5t-71 151.5zM225 1374q0 81 51 127.5 t130 46.5q80 0 130 -46.5t50 -127.5q0 -80 -50.5 -128t-129.5 -48q-78 0 -129.5 49t-51.5 127z" />
<glyph unicode="k" horiz-adv-x="1267" d="M45 1438v78l373 59l74 -12l-13 -246v-864l332 387q18 20 16 32.5t-26 18.5l-129 35v75h522v-75l-174 -43q-62 -15 -102 -58l-164 -180l344 -489q26 -37 61 -47l113 -31v-78h-576v78l68 18q25 8 29 22t-13 40l-198 297l-103 -113v-195q0 -33 29 -41l90 -28v-78h-551v78 l119 31q33 9 33 41v1236q0 17 -7 25.5t-26 11.5z" />
<glyph unicode="l" horiz-adv-x="688" d="M45 0v78l125 31q33 9 33 41v1236q0 18 -7.5 26t-27.5 11l-119 15v78l373 59l76 -12l-17 -246v-1167q0 -33 33 -41l125 -31v-78h-594z" />
<glyph unicode="m" horiz-adv-x="1939" d="M61 879v69l351 78l73 -14l-14 -291q34 144 124.5 226.5t235.5 82.5q122 0 190 -69.5t77 -194.5q39 125 127.5 194.5t222.5 69.5q145 0 223 -82.5t78 -240.5v-557q0 -32 29 -41l123 -31v-78h-555v80l94 26q28 8 28 44v583q0 89 -31.5 128.5t-95.5 39.5q-86 0 -148.5 -99 t-62.5 -261v-391q0 -35 31 -44l94 -26v-80h-526v80l94 26q29 8 29 44v583q0 89 -30.5 128.5t-94.5 39.5q-86 0 -148.5 -99.5t-62.5 -260.5v-391q0 -19 6 -29.5t23 -14.5l92 -26v-80h-553v78l121 31q31 9 31 41v681q0 30 -33 33z" />
<glyph unicode="n" horiz-adv-x="1333" d="M61 879v69l351 78l75 -14l-16 -285q35 142 127.5 222.5t237.5 80.5q147 0 227 -83t80 -240v-557q0 -33 31 -41l122 -31v-78h-559v80l97 26q28 7 28 44v583q0 90 -31.5 129t-99.5 39q-86 0 -150.5 -99t-64.5 -261v-391q0 -36 29 -44l94 -26v-80h-555v78l121 31q31 8 31 41 v681q0 31 -33 33z" />
<glyph unicode="o" horiz-adv-x="1124" d="M66 500q0 126 40.5 228t109 167t157.5 100t188 35t188 -35t158 -99.5t109.5 -166.5t40.5 -227q0 -126 -40.5 -228.5t-109.5 -167.5t-158 -100t-188 -35t-188 35t-157.5 100t-109 167t-40.5 227zM369 500q0 -232 46 -339.5t146 -107.5q101 0 147 107.5t46 341.5 q0 232 -46 339t-147 107q-100 0 -146 -107.5t-46 -340.5z" />
<glyph unicode="p" horiz-adv-x="1236" d="M27 874v70l354 80l76 -16l-17 -230q33 118 110 183t195 65q82 0 157 -33.5t135 -96.5t96 -164.5t36 -227.5q0 -107 -30 -197.5t-79.5 -152t-113 -105t-130 -63t-132.5 -19.5q-111 0 -199 39v-328q0 -32 31 -40l148 -31v-78h-615v78l125 31q31 8 31 40v1149q0 31 -33 33z M485 180q47 -131 179 -131q100 0 151 108t51 347q0 217 -39.5 315.5t-136.5 98.5q-87 0 -146 -88.5t-59 -243.5v-406z" />
<glyph unicode="q" horiz-adv-x="1187" d="M66 492q0 134 43 239t115 168t159 95t182 32q98 0 184 -31.5t144 -93.5l84 150l72 -7l-19 -307v-1059q0 -32 31 -40l125 -31v-78h-613v78l146 31q31 8 31 40v144l30 348q-37 -97 -112.5 -150t-182.5 -53q-60 0 -118 18t-113 59t-96.5 100.5t-66.5 149.5t-25 198zM369 500 q0 -225 45.5 -324.5t140.5 -99.5q82 0 138.5 89.5t56.5 244.5v407q-54 127 -175 127q-104 0 -155 -104t-51 -340z" />
<glyph unicode="r" horiz-adv-x="983" d="M61 879v71l349 78l71 -16l-16 -414q10 91 31.5 165.5t57 136t91.5 96t127 34.5q86 0 136 -48t50 -126q0 -73 -44 -118.5t-111 -45.5q-63 0 -103.5 42.5t-40.5 105.5q0 60 37 90q-64 -25 -107.5 -112t-61 -188t-17.5 -208v-270q0 -38 39 -43l137 -31v-78h-604v78l123 31 q31 9 31 41v681q0 18 -7.5 26t-25.5 9z" />
<glyph unicode="s" horiz-adv-x="942" d="M96 -27l2 392h92q5 -21 27.5 -83t34.5 -83q29 -67 84.5 -107.5t130.5 -40.5q80 0 126 36.5t46 102.5q0 72 -54.5 113t-183.5 90q-63 24 -107.5 48t-87.5 62t-65 93t-22 127q0 130 98.5 218.5t255.5 88.5q154 0 244 -78l26 76h70l-2 -364h-90q-8 32 -47 145 q-51 139 -191 139q-72 0 -113.5 -37.5t-41.5 -93.5q0 -73 51 -111t180 -85q48 -18 86 -36t77.5 -47t65 -63t42 -82t16.5 -106q0 -147 -102 -231.5t-269 -84.5q-173 0 -276 86l-29 -84h-74z" />
<glyph unicode="t" horiz-adv-x="837" d="M10 907v76l156 31q56 10 86 38.5t45 82.5l51 188h141l-10 -322h318v-88l-318 -20v-653q0 -129 103 -129q54 0 88.5 41t60.5 135l70 -17q-29 -151 -106.5 -225t-209.5 -74q-138 0 -212 71t-74 208v633z" />
<glyph unicode="u" horiz-adv-x="1220" d="M6 924v77h447l-9 -172v-557q0 -95 31 -132.5t96 -37.5q80 0 133.5 85t53.5 243v420q0 18 -6 27.5t-23 13.5l-123 33v77h443l-9 -182v-667q0 -35 31 -43l121 -31v-78h-354l-23 23l-8 227q-33 -132 -120.5 -205.5t-229.5 -73.5q-137 0 -216 81.5t-79 242.5v555q0 34 -31 41 z" />
<glyph unicode="v" horiz-adv-x="1075" d="M-16 926v75h583v-75l-106 -25q-20 -4 -24 -17t5 -38l111 -332l61 -217h11l200 545q9 23 5 36t-25 19l-98 27v77h383v-75l-103 -31q-26 -7 -36.5 -18.5t-22.5 -42.5l-346 -854h-101l-340 882q-7 28 -41 37z" />
<glyph unicode="w" horiz-adv-x="1499" d="M-16 926v75h585v-75l-108 -25q-14 -3 -20 -10.5t-5 -18t6 -28.5l86 -293l50 -197h12l219 652h98l127 -396l62 -245h12l143 473q8 25 5 38t-21 17l-117 31v77h395v-75l-108 -33q-41 -11 -55 -57l-281 -856h-88l-139 395l-66 237h-12l-225 -632h-90l-308 882q-12 30 -39 37 z" />
<glyph unicode="x" horiz-adv-x="1171" d="M16 0v76l121 30q50 14 76 52l250 334l-227 364q-12 20 -24 29.5t-34 13.5l-119 27v75h590v-75l-71 -17q-27 -7 -30 -21t13 -40l121 -219l154 217q16 21 14.5 35.5t-25.5 21.5l-71 21v77h383v-75l-117 -33q-43 -12 -74 -51l-219 -291l250 -404q24 -34 55 -41l125 -30v-76 h-612v76l88 20q25 6 28 20t-12 40l-141 260l-182 -260q-12 -19 -12 -32q0 -18 22 -24l88 -24v-76h-408z" />
<glyph unicode="y" horiz-adv-x="1062" d="M-43 -305q0 73 46 117.5t114 44.5q63 0 102 -41.5t39 -100.5q0 -47 -21.5 -80t-58.5 -45h8q74 0 146.5 90.5t161.5 317.5l10 27l-354 835q-13 33 -41 39l-121 25v77h590v-77l-103 -23q-24 -5 -24 -28q0 -10 6 -25l106 -307l64 -211h10l178 510q6 17 7 26.5t-4.5 18 t-20.5 12.5l-99 27v77h379v-77l-110 -31q-20 -6 -30 -16t-19 -31l-297 -776q-88 -230 -159.5 -352t-140 -168t-163.5 -46q-96 0 -148.5 52t-52.5 139z" />
<glyph unicode="z" horiz-adv-x="1001" d="M76 74l434 688l117 160h-207q-81 0 -119.5 -29.5t-69.5 -112.5l-47 -127h-88l10 348h803l13 -71l-428 -682l-123 -170h225q82 0 121.5 31.5t73.5 123.5l51 142h86l-15 -375h-829z" />
<glyph unicode="{" horiz-adv-x="950" d="M72 539v120q123 6 189.5 33t92 76.5t25.5 138.5q0 41 -25.5 179t-25.5 194q0 141 93.5 214t266.5 73h201v-66l-178 -12q-83 -7 -108 -46t-25 -138q0 -52 11 -187t11 -182q0 -153 -93.5 -227.5t-279.5 -90.5v-38q187 -18 280 -91.5t93 -226.5q0 -46 -11 -181t-11 -187 q0 -99 25 -138.5t108 -46.5l178 -12v-66h-201q-173 0 -266.5 73t-93.5 214q0 56 25.5 194t25.5 179q0 89 -25.5 138.5t-92 76.5t-189.5 33z" />
<glyph unicode="|" horiz-adv-x="552" d="M225 -205v1698h103v-1698h-103z" />
<glyph unicode="}" horiz-adv-x="950" d="M61 -303l179 12q83 7 108 46.5t25 138.5q0 52 -11.5 187t-11.5 181q0 153 93 226.5t280 91.5v38q-186 16 -279.5 90.5t-93.5 227.5q0 47 11.5 182t11.5 187q0 99 -25 138t-108 46l-179 12v66h201q174 0 267.5 -73t93.5 -214q0 -56 -26 -194t-26 -179q0 -88 26 -138 t92.5 -77t189.5 -33v-120q-123 -6 -189.5 -33t-92.5 -77t-26 -138q0 -41 26 -179t26 -194q0 -141 -93.5 -214t-267.5 -73h-201v66z" />
<glyph unicode="~" horiz-adv-x="1093" d="M119 418q0 107 57.5 172t161.5 65q64 0 136 -24.5t124 -54t108.5 -54t92.5 -24.5q58 0 83 31t25 98h68q0 -127 -54 -202t-169 -75q-64 0 -134.5 24.5t-121.5 54t-106.5 54t-92.5 25.5q-111 3 -111 -148h-63q-4 36 -4 58z" />
<glyph unicode="&#xa1;" horiz-adv-x="733" d="M184 -221q0 55 20.5 131t45 148.5t47.5 207t27 291.5h82q5 -158 28 -292.5t48 -207.5t45 -148.5t20 -131.5q0 -88 -50.5 -137.5t-129.5 -49.5q-80 0 -131.5 50.5t-51.5 138.5zM203 870q0 71 47 117.5t117 46.5q67 0 113 -46t46 -118q0 -71 -46 -117t-113 -46 q-70 0 -117 45.5t-47 117.5z" />
<glyph unicode="&#xa2;" horiz-adv-x="1228" d="M166 457q0 103 30.5 191.5t81.5 151t117.5 107.5t138.5 66.5t144 21.5l59 277h92l-65 -281q136 -15 222.5 -85.5t86.5 -174.5q0 -76 -44 -122t-109 -46t-105.5 38t-40.5 101q0 58 37 99t88 39q-53 62 -162 71l-168 -737q68 -39 162 -39q168 0 289 127l51 -41 q-77 -118 -177 -184t-253 -66q-54 0 -111 13l-65 -293h-92l78 315q-129 52 -207 168t-78 283zM395 535q0 -211 111 -316l156 692q-125 -14 -196 -111t-71 -265z" />
<glyph unicode="&#xa3;" horiz-adv-x="1228" d="M129 131q66 17 116.5 41.5t93 62t65 94t22.5 130.5q0 73 -20 141l-234 27v67l190 23q-17 46 -26.5 75t-18 75.5t-8.5 93.5q0 179 123.5 276.5t321.5 97.5q159 0 261.5 -71.5t102.5 -190.5q0 -75 -45.5 -120.5t-111.5 -45.5q-67 0 -109.5 43t-42.5 107q0 62 34 100.5 t85 38.5q-57 57 -160 57q-182 0 -182 -225q0 -53 4 -102.5t11.5 -115t10.5 -93.5h273v-80l-269 -19v-10q0 -254 -176 -389l226 2h215q50 0 72.5 15.5t39.5 64.5l37 109h74l-43 -410h-914z" />
<glyph unicode="&#xa4;" horiz-adv-x="1228" d="M154 111l180 176q-66 98 -66 215q0 120 66 215l-180 176l67 65l168 -178q96 86 225 86q130 0 226 -86l170 178l65 -65l-178 -174q68 -96 68 -217q0 -122 -68 -215l178 -176l-65 -68l-170 180q-97 -84 -226 -84q-126 0 -223 84l-170 -180zM373 502q0 -107 69 -180.5 t172 -73.5q104 0 175 74t71 180q0 108 -71 183t-175 75q-103 0 -172 -75t-69 -183z" />
<glyph unicode="&#xa5;" horiz-adv-x="1228" d="M-43 1223v84h694v-86l-143 -27q-47 -9 -21 -57l146 -308l78 -178h10l258 461q12 21 15 35t-4.5 24t-26.5 15l-152 37v84h471v-82l-115 -41q-26 -7 -42 -21t-31 -41l-281 -487h301v-96h-334v-373q0 -22 9 -32.5t34 -14.5l168 -35v-84h-747v84l170 35q24 4 32.5 14.5 t8.5 32.5v373h-355v96h303l-276 514q-14 33 -55 43z" />
<glyph unicode="&#xa6;" horiz-adv-x="552" d="M225 -205v707h103v-707h-103zM225 788v705h103v-705h-103z" />
<glyph unicode="&#xa7;" horiz-adv-x="1216" d="M147 467q0 188 158 309l41 -43q-65 -58 -65 -133q0 -57 39 -106t101 -85.5t137.5 -72t151 -75t137.5 -85t101 -111.5t39 -145q0 -109 -60.5 -187.5t-154 -114.5t-207.5 -36q-175 0 -286 69.5t-111 188.5q0 71 44.5 115.5t111.5 44.5q66 0 107.5 -42t41.5 -105 q0 -50 -25 -85t-67 -47q58 -61 184 -61q114 0 176 46.5t62 115.5q0 48 -28 89t-74.5 71t-105.5 61.5t-120 58.5t-120 64t-105.5 77t-74.5 98t-28 126zM229 1079q0 109 61 187.5t155 114.5t208 36q174 0 285 -69.5t111 -188.5q0 -71 -44.5 -115.5t-111.5 -44.5 q-66 0 -108 42.5t-42 105.5q0 50 25.5 84.5t69.5 46.5q-58 61 -185 61q-114 0 -176.5 -46t-62.5 -115q0 -48 28 -89.5t74 -71t105 -61t120.5 -59t120.5 -64.5t105 -77t74 -98t28 -126q0 -188 -158 -309l-41 43q66 59 66 133q0 57 -39 106t-101.5 85.5t-137.5 72t-150.5 75 t-138 85t-101.5 111.5t-39 145z" />
<glyph unicode="&#xa8;" horiz-adv-x="1173" d="M268 1356q0 50 34 84.5t83 34.5t84 -34.5t35 -84.5q0 -51 -34.5 -85t-84.5 -34t-83.5 34t-33.5 85zM678 1356q0 50 34 84.5t83 34.5t82.5 -34.5t33.5 -84.5q0 -51 -33 -85t-83 -34t-83.5 34t-33.5 85z" />
<glyph unicode="&#xa9;" horiz-adv-x="1726" d="M139 500q0 149 57.5 284t155 231.5t231.5 153t281 56.5t281 -56.5t231.5 -153t155 -231.5t57.5 -284t-57.5 -283.5t-155 -230.5t-231.5 -152.5t-281 -56.5t-281 56.5t-231.5 152.5t-155 230.5t-57.5 283.5zM240 502q0 -128 50 -244.5t133.5 -200t199 -133t241.5 -49.5 q168 0 311.5 83.5t228.5 228t85 315.5q0 170 -85 314t-228.5 227t-311.5 83q-126 0 -241.5 -49t-199 -132.5t-133.5 -199.5t-50 -243zM469 502q0 100 33 181t88.5 132.5t127.5 79t152 27.5q148 0 238 -97l22 90h46l2 -315h-76l-21 76q-23 85 -67.5 129.5t-134.5 44.5 q-94 0 -146.5 -94t-52.5 -252q0 -157 52.5 -249.5t146.5 -92.5q88 0 132 42t68 126l23 78h76l-2 -312h-46l-24 94q-90 -100 -234 -100q-82 0 -154 26t-128 76t-88.5 130t-32.5 180z" />
<glyph unicode="&#xaa;" horiz-adv-x="802" d="M53 852q0 52 23.5 93t61 68t95 47.5t113.5 32t129 21.5v119q0 139 -121 139q-82 0 -127 -45q33 -4 52.5 -29t19.5 -61q0 -45 -29.5 -71.5t-76.5 -26.5q-41 0 -69 27.5t-28 76.5q0 80 78.5 134.5t202.5 54.5q143 0 225 -68t82 -197q0 -49 -2 -161.5t-2 -161.5 q0 -68 43 -68t59 117l47 -4q-9 -104 -47 -153.5t-120 -49.5q-125 0 -148 119q-30 -61 -97.5 -94t-150.5 -33q-100 0 -156.5 48.5t-56.5 125.5zM88 319v101h645v-101h-645zM270 868q0 -104 88 -104q51 0 83 34.5t32 82.5q0 110 2 180q-109 -20 -157 -65t-48 -128z" />
<glyph unicode="&#xab;" horiz-adv-x="1157" d="M106 477v90l410 387l51 -41l-231 -393l231 -391l-51 -41zM543 477v90l409 387l52 -41l-232 -393l232 -391l-52 -41z" />
<glyph unicode="&#xac;" horiz-adv-x="1126" d="M115 590v108h897v-415h-107v307h-790z" />
<glyph unicode="&#xad;" horiz-adv-x="690" d="M94 455v131h502v-131h-502z" />
<glyph unicode="&#xae;" horiz-adv-x="1726" d="M139 500q0 149 57.5 284t155 231.5t231.5 153t281 56.5t281 -56.5t231.5 -153t155 -231.5t57.5 -284t-57.5 -283.5t-155 -230.5t-231.5 -152.5t-281 -56.5t-281 56.5t-231.5 152.5t-155 230.5t-57.5 283.5zM240 502q0 -128 50 -244.5t133.5 -200t199 -133t241.5 -49.5 q168 0 311.5 83.5t228.5 228t85 315.5q0 170 -85 314t-228.5 227t-311.5 83q-126 0 -241.5 -49t-199 -132.5t-133.5 -199.5t-50 -243zM492 113v45l81 22q21 3 21 27v596q0 22 -21 28l-81 21v47h59q66 0 173.5 2t139.5 2q152 0 239 -57t87 -162q0 -142 -158 -186 q32 -45 49 -84l93 -197q9 -21 18.5 -31t26.5 -14l47 -14v-45h-260l-140 344h-18h-53v-250q0 -25 18 -27l90 -22v-45h-411zM795 520q25 -2 61 -2q139 0 139 162q0 160 -129 160q-25 0 -71 -4v-316z" />
<glyph unicode="&#xaf;" horiz-adv-x="1167" d="M301 1321v82q184 -4 283 -4q94 0 282 4v-82q-31 1 -94 2.5t-110 2.5t-78 1q-7 0 -283 -6z" />
<glyph unicode="&#xb0;" horiz-adv-x="899" d="M98 1069q0 146 100 243t248 97t248.5 -97t100.5 -243t-100.5 -244t-248.5 -98t-248 98t-100 244zM186 1069q0 -122 75 -196t185 -74t185.5 74t75.5 196t-75.5 194t-185.5 72t-185 -72t-75 -194z" />
<glyph unicode="&#xb1;" horiz-adv-x="1126" d="M115 0v109h395v360h-395v106h395v392h106v-392h396v-106h-396v-360h396v-109h-897z" />
<glyph unicode="&#xb2;" horiz-adv-x="757" d="M74 1575q0 84 75.5 142.5t206.5 58.5q130 0 218 -53t88 -154q0 -38 -14.5 -72t-32.5 -57t-57.5 -52t-63 -43.5t-76.5 -44.5q-112 -60 -201 -120l141 6h185q31 0 44.5 9.5t22.5 35.5l21 51h47l-29 -258h-563l-8 82q188 136 276 235q97 104 97 240q0 145 -140 145 q-46 0 -83.5 -20t-57.5 -55l18 4q38 0 62 -25.5t24 -62.5q0 -40 -29 -69.5t-71 -29.5q-43 0 -71.5 29t-28.5 78z" />
<glyph unicode="&#xb3;" horiz-adv-x="763" d="M59 1155q0 48 29.5 76.5t75.5 28.5q44 0 70 -27t26 -66t-24 -64.5t-46 -23.5q42 -30 109 -30q89 0 138 54.5t48 156.5q0 76 -26 107.5t-76 31.5q-33 0 -72.5 -24.5t-64.5 -24.5q-47 0 -47 55q62 26 157 33q117 58 117 176q0 53 -32 84t-91 31q-80 0 -133 -43 q36 0 59 -22.5t23 -61.5t-26.5 -65t-69.5 -26q-42 0 -69.5 26.5t-27.5 70.5q0 74 76.5 121t194.5 47q132 0 211.5 -45.5t79.5 -118.5q0 -50 -36.5 -84.5t-73 -47.5t-121.5 -36q-24 -7 -36 -10v-4q40 4 68 4q107 0 170 -45.5t63 -131.5q0 -64 -34 -114.5t-90.5 -80.5 t-124 -45.5t-140.5 -15.5q-122 0 -188 44.5t-66 109.5z" />
<glyph unicode="&#xb4;" horiz-adv-x="1169" d="M461 1206l143 359h232v-27l-322 -332h-53z" />
<glyph unicode="&#xb5;" horiz-adv-x="1267" d="M6 924v77h447l-9 -172v-557q0 -95 31 -132.5t96 -37.5q80 0 133.5 85t53.5 243v420q0 18 -6 27.5t-23 13.5l-123 33v77h443l-9 -182v-667q0 -35 31 -43l121 -31v-78h-354l-23 23l-8 221q-30 -127 -103 -200t-180 -73q-84 0 -139 49q21 -92 30 -133.5t20 -121t11 -146.5 v-90h-284v1321q0 34 -31 41z" />
<glyph unicode="&#xb6;" horiz-adv-x="1236" d="M49 907q0 78 17.5 148.5t56 132.5t94.5 107t138 71.5t182 26.5q53 0 135 -2v-1760h-92v838q-49 -14 -107 -14q-186 0 -305 122t-119 330zM840 -369v1760h329v-84l-200 -39q-37 -5 -37 -37v-1600h-92z" />
<glyph unicode="&#xb7;" horiz-adv-x="647" d="M147 520q0 78 52.5 129t128.5 51t127 -50.5t51 -129.5q0 -78 -51.5 -129t-126.5 -51q-76 0 -128.5 51t-52.5 129z" />
<glyph unicode="&#xb8;" horiz-adv-x="1054" d="M360 -451l31 52q61 -33 121 -33q59 0 92 32t33 91q0 52 -22 80t-62 28q-24 0 -51 -10l-45 35l61 184l60 -4l-33 -147q41 12 82 12q84 0 141 -45t57 -125q0 -98 -79 -150.5t-197 -52.5q-110 0 -189 53z" />
<glyph unicode="&#xb9;" horiz-adv-x="690" d="M109 1669v39l106 12q140 14 203 47h51q-6 -88 -6 -172v-485q0 -16 20 -18l119 -21v-47h-489v45l123 23q20 3 20 18v508q0 36 -41 39z" />
<glyph unicode="&#xba;" horiz-adv-x="835" d="M68 1053q0 181 101.5 279t250.5 98q70 0 132.5 -24t111.5 -69.5t77.5 -118t28.5 -163.5q0 -92 -28.5 -164.5t-77.5 -118t-111.5 -69t-132.5 -23.5t-132.5 23.5t-112 68.5t-78.5 117.5t-29 163.5zM96 319v101h647v-101h-647zM299 1055q0 -175 27 -249.5t94 -74.5t94 74.5 t27 251.5q0 174 -27 247.5t-94 73.5t-95 -74.5t-26 -248.5z" />
<glyph unicode="&#xbb;" horiz-adv-x="1157" d="M154 129l231 391l-231 393l51 41l409 -387v-90l-409 -389zM590 129l231 391l-231 393l51 41l410 -387v-90l-410 -389z" />
<glyph unicode="&#xbc;" horiz-adv-x="1792" d="M166 1307v39l106 12q140 14 203 47h51q-6 -89 -6 -172v-485q0 -16 21 -19l118 -20v-47h-489v45l123 22q20 3 20 19v507q0 36 -41 39zM348 23l510 686l463 712l78 -53l-510 -684l-463 -715zM1032 551q0 84 76 142.5t207 58.5q130 0 217.5 -53t87.5 -154q0 -38 -14.5 -72 t-32.5 -57t-57.5 -52t-63 -43.5t-76.5 -44.5q-107 -58 -200 -120l141 6h184q31 0 45 9.5t23 35.5l20 51h47l-28 -258h-564l-8 82q191 138 277 235q96 103 96 240q0 145 -139 145q-46 0 -84 -20t-58 -55l19 4q38 0 62 -25.5t24 -62.5q0 -40 -29 -69.5t-71 -29.5q-43 0 -72 29 t-29 78z" />
<glyph unicode="&#xbd;" horiz-adv-x="1781" d="M166 1307v39l106 12q140 14 203 47h51q-6 -89 -6 -172v-485q0 -16 21 -19l118 -20v-47h-489v45l123 22q20 3 20 19v507q0 36 -41 39zM348 23l510 686l463 712l78 -53l-510 -684l-463 -715zM963 252l331 477h181v-463h18q26 0 36.5 8.5t22.5 38.5l21 54h47l-21 -152h-124 v-131q0 -20 18 -23l104 -18v-43h-452v41l110 20q19 5 19 23v131h-303zM1030 270l244 -2v346z" />
<glyph unicode="&#xbe;" horiz-adv-x="1861" d="M162 793q0 48 29 76t75 28q44 0 70 -27t26 -65q0 -39 -23.5 -64.5t-45.5 -23.5q43 -31 108 -31q89 0 138.5 55t48.5 156q0 76 -26.5 107.5t-76.5 31.5q-33 0 -72.5 -24.5t-64.5 -24.5q-47 0 -47 55q62 25 158 33q58 29 87 70.5t29 105.5q0 54 -31.5 84.5t-90.5 30.5 q-81 0 -134 -43q36 0 59 -22.5t23 -61.5t-26.5 -64.5t-69.5 -25.5q-42 0 -69 26t-27 70q0 74 76 121t194 47q132 0 211.5 -45.5t79.5 -118.5q0 -50 -37 -85t-71.5 -47.5t-122.5 -35.5q-7 -3 -11.5 -4t-11 -2.5t-12.5 -3.5v-4q40 4 67 4q107 0 170.5 -45t63.5 -131 q0 -64 -34 -114.5t-90.5 -80.5t-124 -45.5t-140.5 -15.5q-122 0 -188 44.5t-66 109.5zM430 23l510 686l463 712l78 -53l-510 -684l-463 -715zM1042 252l332 477h180v-463h19q26 0 36.5 8.5t22.5 38.5l21 54h47l-21 -152h-125v-131q0 -20 19 -23l104 -18v-43h-452v41l110 20 q19 5 19 23v131h-303zM1110 270l244 -2v346z" />
<glyph unicode="&#xbf;" horiz-adv-x="1169" d="M131 -23q0 81 27 147.5t72 111t105 75.5t124 44.5t131 13.5q48 0 108 -13l15 203h84l22 -287l-76 -18q-60 35 -118 35q-88 0 -139.5 -75t-51.5 -239q0 -156 66.5 -228.5t197.5 -72.5q74 0 133 27.5t91 73.5q-59 2 -97.5 40t-38.5 101q0 64 42.5 107t107.5 43 q69 0 113.5 -45t44.5 -119q0 -131 -125 -220.5t-312 -89.5q-82 0 -157 13.5t-143 44t-117.5 74.5t-79 109t-29.5 144zM588 872q0 72 48 118t116 46t114.5 -46.5t46.5 -117.5q0 -72 -46.5 -117.5t-114.5 -45.5q-69 0 -116.5 46t-47.5 117z" />
<glyph unicode="&#xc0;" horiz-adv-x="1437" d="M-6 0v84l149 43q27 9 41.5 23t26.5 43l342 937l88 271h180l441 -1237q6 -21 17.5 -31t35.5 -16l127 -33v-84h-707v86l148 31q22 4 27 18t-3 39l-78 229h-436l-67 -198q-7 -21 -9 -34t6 -25.5t29 -18.5l158 -43v-84h-516zM428 502h369l-90 270l-80 270h-13zM471 1755v25 h285l145 -256h-57z" />
<glyph unicode="&#xc1;" horiz-adv-x="1437" d="M-6 0v84l149 43q27 9 41.5 23t26.5 43l342 937l88 271h180l441 -1237q6 -21 17.5 -31t35.5 -16l127 -33v-84h-707v86l148 31q22 4 27 18t-3 39l-78 229h-436l-67 -198q-7 -21 -9 -34t6 -25.5t29 -18.5l158 -43v-84h-516zM428 502h369l-90 270l-80 270h-13zM561 1524 l146 256h282v-25l-371 -231h-57z" />
<glyph unicode="&#xc2;" horiz-adv-x="1437" d="M-6 0v84l149 43q27 9 41.5 23t26.5 43l342 937l88 271h180l441 -1237q6 -21 17.5 -31t35.5 -16l127 -33v-84h-707v86l148 31q22 4 27 18t-3 39l-78 229h-436l-67 -198q-7 -21 -9 -34t6 -25.5t29 -18.5l158 -43v-84h-516zM397 1524l213 256h273l192 -256h-74l-294 168 l-252 -168h-58zM428 502h369l-90 270l-80 270h-13z" />
<glyph unicode="&#xc3;" horiz-adv-x="1437" d="M-6 0v84l149 43q27 9 41.5 23t26.5 43l342 937l88 271h180l441 -1237q6 -21 17.5 -31t35.5 -16l127 -33v-84h-707v86l148 31q22 4 27 18t-3 39l-78 229h-436l-67 -198q-7 -21 -9 -34t6 -25.5t29 -18.5l158 -43v-84h-516zM428 502h369l-90 270l-80 270h-13zM434 1655 q0 66 41.5 109.5t116.5 43.5q43 0 88 -18.5t76 -40.5t70 -40.5t71 -18.5q38 0 61.5 25t26.5 71l43 -2q0 -50 -8.5 -91.5t-28.5 -77t-56.5 -55.5t-88.5 -20q-41 0 -85 18t-75.5 39.5t-69.5 39.5t-69 18q-49 0 -49 -45q0 -29 16 -58l-39 -18q-41 54 -41 121z" />
<glyph unicode="&#xc4;" horiz-adv-x="1437" d="M-6 0v84l149 43q27 9 41.5 23t26.5 43l342 937l88 271h180l441 -1237q6 -21 17.5 -31t35.5 -16l127 -33v-84h-707v86l148 31q22 4 27 18t-3 39l-78 229h-436l-67 -198q-7 -21 -9 -34t6 -25.5t29 -18.5l158 -43v-84h-516zM401 1645q0 50 34 84t83 34q50 0 84.5 -34.5 t34.5 -83.5q0 -51 -34.5 -86t-84.5 -35q-49 0 -83 35t-34 86zM428 502h369l-90 270l-80 270h-13zM840 1645q0 50 33.5 84t84.5 34q49 0 83 -34t34 -84q0 -51 -34 -86t-83 -35q-51 0 -84.5 35t-33.5 86z" />
<glyph unicode="&#xc5;" horiz-adv-x="1437" d="M-6 0v84l149 43q27 9 41.5 23t26.5 43l342 937l88 271h180l441 -1237q6 -21 17.5 -31t35.5 -16l127 -33v-84h-707v86l148 31q22 4 27 18t-3 39l-78 229h-436l-67 -198q-7 -21 -9 -34t6 -25.5t29 -18.5l158 -43v-84h-516zM428 502h369l-90 270l-80 270h-13zM514 1681 q0 91 63 150t154 59q89 0 152 -59t63 -150q0 -89 -63 -147.5t-152 -58.5q-91 0 -154 58.5t-63 147.5zM600 1681q0 -72 32 -115.5t97 -43.5q64 0 97.5 44t33.5 115q0 72 -34 118t-97 46q-64 0 -96.5 -45.5t-32.5 -118.5z" />
<glyph unicode="&#xc6;" horiz-adv-x="2054" d="M-20 0v84l151 47q52 19 76 59l575 1008q19 34 14 51t-36 23l-162 35v84h1292l17 -359h-115l-68 144q-30 73 -70 97.5t-122 24.5h-152q-20 0 -59 -1t-53 -1v-540h108q61 0 90.5 21t53.5 83l53 137h82v-569h-84l-53 143q-23 61 -52 81t-90 20h-108v-502q0 -44 19.5 -61 t72.5 -17h219q74 0 110.5 26t69.5 107l84 199h117l-21 -424h-1183v86l151 33q23 4 32 14.5t9 32.5v299h-463l-151 -270q-32 -59 22 -74l140 -37v-84h-516zM539 561h409v707h-16z" />
<glyph unicode="&#xc7;" horiz-adv-x="1435" d="M80 694q0 169 55.5 308t151 229.5t221.5 140t268 49.5q243 0 393 -131l48 121h79l-10 -555h-96l-45 148q-46 155 -132.5 240t-213.5 85q-361 0 -361 -635t361 -635q246 0 350 318l43 131h96l6 -528h-80l-47 126q-157 -137 -393 -137q-44 0 -67 4l-27 -116q40 12 82 12 q84 0 141.5 -45t57.5 -125q0 -98 -79.5 -150.5t-197.5 -52.5q-109 0 -188 53l30 52q61 -33 121 -33q59 0 92 32t33 91q0 52 -22 80t-62 28q-24 0 -51 -10l-45 35l51 156q-119 21 -221 78t-178.5 146t-120 215t-43.5 275z" />
<glyph unicode="&#xc8;" horiz-adv-x="1390" d="M86 0v86l152 33q24 4 32.5 14.5t8.5 32.5v1061q0 21 -8.5 31t-32.5 14l-152 33v86h1141l14 -359h-115l-65 144q-32 73 -72 97.5t-121 24.5h-151q-21 0 -61 -1t-52 -1v-540h107q62 0 91 20.5t54 83.5l51 137h82v-569h-82l-53 143q-25 61 -53 81t-90 20h-107v-502 q0 -44 18.5 -61t71.5 -17h221q74 0 111 26t70 107l84 199h116l-20 -424h-1190zM455 1755v25h284l146 -256h-58z" />
<glyph unicode="&#xc9;" horiz-adv-x="1390" d="M86 0v86l152 33q24 4 32.5 14.5t8.5 32.5v1061q0 21 -8.5 31t-32.5 14l-152 33v86h1141l14 -359h-115l-65 144q-32 73 -72 97.5t-121 24.5h-151q-21 0 -61 -1t-52 -1v-540h107q62 0 91 20.5t54 83.5l51 137h82v-569h-82l-53 143q-25 61 -53 81t-90 20h-107v-502 q0 -44 18.5 -61t71.5 -17h221q74 0 111 26t70 107l84 199h116l-20 -424h-1190zM616 1524l146 256h282v-25l-370 -231h-58z" />
<glyph unicode="&#xca;" horiz-adv-x="1390" d="M86 0v86l152 33q24 4 32.5 14.5t8.5 32.5v1061q0 21 -8.5 31t-32.5 14l-152 33v86h1141l14 -359h-115l-65 144q-32 73 -72 97.5t-121 24.5h-151q-21 0 -61 -1t-52 -1v-540h107q62 0 91 20.5t54 83.5l51 137h82v-569h-82l-53 143q-25 61 -53 81t-90 20h-107v-502 q0 -44 18.5 -61t71.5 -17h221q74 0 111 26t70 107l84 199h116l-20 -424h-1190zM367 1524l213 256h272l192 -256h-73l-295 168l-252 -168h-57z" />
<glyph unicode="&#xcb;" horiz-adv-x="1390" d="M86 0v86l152 33q24 4 32.5 14.5t8.5 32.5v1061q0 21 -8.5 31t-32.5 14l-152 33v86h1141l14 -359h-115l-65 144q-32 73 -72 97.5t-121 24.5h-151q-21 0 -61 -1t-52 -1v-540h107q62 0 91 20.5t54 83.5l51 137h82v-569h-82l-53 143q-25 61 -53 81t-90 20h-107v-502 q0 -44 18.5 -61t71.5 -17h221q74 0 111 26t70 107l84 199h116l-20 -424h-1190zM385 1645q0 50 34 84t83 34q50 0 84.5 -34.5t34.5 -83.5q0 -51 -34.5 -86t-84.5 -35q-49 0 -83 35t-34 86zM823 1645q0 50 34 84t85 34q49 0 83 -34t34 -84q0 -51 -34 -86t-83 -35q-51 0 -85 35 t-34 86z" />
<glyph unicode="&#xcc;" horiz-adv-x="894" d="M92 0v86l152 33q23 4 32 14.5t9 32.5v1061q0 20 -9 30.5t-32 14.5l-152 33v86h707v-86l-150 -33q-24 -4 -31.5 -14t-7.5 -31v-1061q0 -23 7.5 -33t31.5 -14l150 -33v-86h-707zM182 1755v25h285l145 -256h-57z" />
<glyph unicode="&#xcd;" horiz-adv-x="894" d="M92 0v86l152 33q23 4 32 14.5t9 32.5v1061q0 20 -9 30.5t-32 14.5l-152 33v86h707v-86l-150 -33q-24 -4 -31.5 -14t-7.5 -31v-1061q0 -23 7.5 -33t31.5 -14l150 -33v-86h-707zM301 1524l145 256h283v-25l-371 -231h-57z" />
<glyph unicode="&#xce;" horiz-adv-x="894" d="M92 0v86l152 33q23 4 32 14.5t9 32.5v1061q0 20 -9 30.5t-32 14.5l-152 33v86h707v-86l-150 -33q-24 -4 -31.5 -14t-7.5 -31v-1061q0 -23 7.5 -33t31.5 -14l150 -33v-86h-707zM106 1524l213 256h273l192 -256h-73l-295 168l-252 -168h-58z" />
<glyph unicode="&#xcf;" horiz-adv-x="894" d="M92 0v86l152 33q23 4 32 14.5t9 32.5v1061q0 20 -9 30.5t-32 14.5l-152 33v86h707v-86l-150 -33q-24 -4 -31.5 -14t-7.5 -31v-1061q0 -23 7.5 -33t31.5 -14l150 -33v-86h-707zM113 1645q0 50 33.5 84t82.5 34q50 0 84.5 -34.5t34.5 -83.5q0 -51 -34.5 -86t-84.5 -35 q-49 0 -82.5 35t-33.5 86zM551 1645q0 50 34 84t85 34q49 0 82.5 -34t33.5 -84q0 -51 -33.5 -86t-82.5 -35q-51 0 -85 35t-34 86z" />
<glyph unicode="&#xd0;" horiz-adv-x="1579" d="M86 0v86l152 33q24 4 32.5 14.5t8.5 32.5v475h-173v107h173v479q0 21 -8.5 31t-32.5 14l-152 33v86h659q358 0 556 -180t198 -517q0 -336 -199.5 -515t-556.5 -179h-657zM604 170q0 -45 17 -61.5t69 -16.5h94q182 0 269.5 141.5t87.5 460.5q0 321 -88.5 462.5 t-272.5 141.5h-71q-20 0 -57 -1t-48 -1v-553h289v-98h-289v-475z" />
<glyph unicode="&#xd1;" horiz-adv-x="1583" d="M86 0v84l139 39q29 9 41.5 25t12.5 47v1019q0 26 -11 39.5t-39 20.5l-143 33v84h496l481 -682l160 -250h12v737q0 31 -12.5 48t-42.5 24l-140 37v86h486v-84l-140 -39q-30 -9 -40.5 -24.5t-10.5 -47.5v-1202h-166l-616 862l-164 268h-12v-929q0 -31 12.5 -48t42.5 -24 l139 -37v-86h-485zM537 1655q0 66 41 109.5t116 43.5q43 0 88 -18.5t76 -40.5t70 -40.5t71 -18.5q38 0 61.5 25t26.5 71l43 -2q0 -50 -8.5 -91.5t-28.5 -77t-56.5 -55.5t-88.5 -20q-41 0 -85 18t-75.5 39.5t-69.5 39.5t-69 18q-49 0 -49 -45q0 -29 16 -58l-38 -18 q-41 54 -41 121z" />
<glyph unicode="&#xd2;" d="M80 694q0 211 87 376.5t246 258t363 92.5t363 -92.5t246.5 -258t87.5 -376.5q0 -210 -87.5 -375t-246.5 -257.5t-363 -92.5t-363 92.5t-246 257.5t-87 375zM438 694q0 -148 16.5 -259t54 -198.5t104.5 -132.5t163 -45q77 0 135.5 30.5t97 84t62.5 134.5t34.5 175 t10.5 211q0 148 -17 260t-55 198.5t-105.5 131.5t-162.5 45q-96 0 -163 -45t-104.5 -132t-54 -198t-16.5 -260zM518 1755v25h285l145 -256h-57z" />
<glyph unicode="&#xd3;" d="M80 694q0 211 87 376.5t246 258t363 92.5t363 -92.5t246.5 -258t87.5 -376.5q0 -210 -87.5 -375t-246.5 -257.5t-363 -92.5t-363 92.5t-246 257.5t-87 375zM438 694q0 -148 16.5 -259t54 -198.5t104.5 -132.5t163 -45q77 0 135.5 30.5t97 84t62.5 134.5t34.5 175 t10.5 211q0 148 -17 260t-55 198.5t-105.5 131.5t-162.5 45q-96 0 -163 -45t-104.5 -132t-54 -198t-16.5 -260zM643 1524l145 256h283v-25l-371 -231h-57z" />
<glyph unicode="&#xd4;" d="M80 694q0 211 87 376.5t246 258t363 92.5t363 -92.5t246.5 -258t87.5 -376.5q0 -210 -87.5 -375t-246.5 -257.5t-363 -92.5t-363 92.5t-246 257.5t-87 375zM438 694q0 -148 16.5 -259t54 -198.5t104.5 -132.5t163 -45q77 0 135.5 30.5t97 84t62.5 134.5t34.5 175 t10.5 211q0 148 -17 260t-55 198.5t-105.5 131.5t-162.5 45q-96 0 -163 -45t-104.5 -132t-54 -198t-16.5 -260zM440 1524l213 256h273l192 -256h-74l-294 168l-252 -168h-58z" />
<glyph unicode="&#xd5;" d="M80 694q0 211 87 376.5t246 258t363 92.5t363 -92.5t246.5 -258t87.5 -376.5q0 -210 -87.5 -375t-246.5 -257.5t-363 -92.5t-363 92.5t-246 257.5t-87 375zM438 694q0 -148 16.5 -259t54 -198.5t104.5 -132.5t163 -45q77 0 135.5 30.5t97 84t62.5 134.5t34.5 175 t10.5 211q0 148 -17 260t-55 198.5t-105.5 131.5t-162.5 45q-96 0 -163 -45t-104.5 -132t-54 -198t-16.5 -260zM483 1655q0 66 41.5 109.5t116.5 43.5q43 0 88 -18.5t76 -40.5t70 -40.5t71 -18.5q38 0 61.5 25t26.5 71l43 -2q0 -50 -8.5 -91.5t-28.5 -77t-56.5 -55.5 t-88.5 -20q-41 0 -85 18t-75.5 39.5t-69.5 39.5t-69 18q-49 0 -49 -45q0 -29 16 -58l-39 -18q-41 54 -41 121z" />
<glyph unicode="&#xd6;" d="M80 694q0 211 87 376.5t246 258t363 92.5t363 -92.5t246.5 -258t87.5 -376.5q0 -210 -87.5 -375t-246.5 -257.5t-363 -92.5t-363 92.5t-246 257.5t-87 375zM438 694q0 -148 16.5 -259t54 -198.5t104.5 -132.5t163 -45q77 0 135.5 30.5t97 84t62.5 134.5t34.5 175 t10.5 211q0 148 -17 260t-55 198.5t-105.5 131.5t-162.5 45q-96 0 -163 -45t-104.5 -132t-54 -198t-16.5 -260zM442 1645q0 50 34 84t83 34q50 0 84.5 -34.5t34.5 -83.5q0 -51 -34.5 -86t-84.5 -35q-49 0 -83 35t-34 86zM881 1645q0 50 33.5 84t84.5 34q49 0 83 -34t34 -84 q0 -51 -34 -86t-83 -35q-51 0 -84.5 35t-33.5 86z" />
<glyph unicode="&#xd7;" horiz-adv-x="1126" d="M209 242l278 278l-278 277l76 77l278 -278l279 278l76 -77l-279 -277l279 -278l-76 -76l-279 278l-278 -278z" />
<glyph unicode="&#xd8;" d="M80 694q0 211 87 376.5t246 258t363 92.5q254 0 434 -141l121 131l72 -59l-123 -135q93 -96 143 -230t50 -293q0 -210 -87.5 -375t-246.5 -257.5t-363 -92.5q-270 0 -457 160l-135 -149l-71 59l141 154q-174 199 -174 501zM438 694q0 -169 23 -293l600 711 q-81 217 -285 217q-96 0 -163 -45t-104.5 -132t-54 -198t-16.5 -260zM481 309q75 -250 295 -250q77 0 135.5 30.5t97 84t62.5 134.5t34.5 175t10.5 211q0 195 -29 328z" />
<glyph unicode="&#xd9;" horiz-adv-x="1583" d="M61 1305v86h705v-86l-150 -33q-24 -4 -31 -13.5t-7 -31.5v-746q0 -211 78 -295t249 -84q165 0 247.5 96t82.5 294v704q0 31 -12.5 48t-42.5 24l-138 37v86h486v-86l-139 -37q-30 -7 -42 -24t-12 -48v-704q0 -521 -555 -521q-278 0 -403 123.5t-125 397.5v735 q0 21 -8.5 31t-32.5 14zM561 1755v25h285l145 -256h-57z" />
<glyph unicode="&#xda;" horiz-adv-x="1583" d="M61 1305v86h705v-86l-150 -33q-24 -4 -31 -13.5t-7 -31.5v-746q0 -211 78 -295t249 -84q165 0 247.5 96t82.5 294v704q0 31 -12.5 48t-42.5 24l-138 37v86h486v-86l-139 -37q-30 -7 -42 -24t-12 -48v-704q0 -521 -555 -521q-278 0 -403 123.5t-125 397.5v735 q0 21 -8.5 31t-32.5 14zM743 1524l146 256h282v-25l-370 -231h-58z" />
<glyph unicode="&#xdb;" horiz-adv-x="1583" d="M61 1305v86h705v-86l-150 -33q-24 -4 -31 -13.5t-7 -31.5v-746q0 -211 78 -295t249 -84q165 0 247.5 96t82.5 294v704q0 31 -12.5 48t-42.5 24l-138 37v86h486v-86l-139 -37q-30 -7 -42 -24t-12 -48v-704q0 -521 -555 -521q-278 0 -403 123.5t-125 397.5v735 q0 21 -8.5 31t-32.5 14zM498 1524l213 256h272l193 -256h-74l-295 168l-252 -168h-57z" />
<glyph unicode="&#xdc;" horiz-adv-x="1583" d="M61 1305v86h705v-86l-150 -33q-24 -4 -31 -13.5t-7 -31.5v-746q0 -211 78 -295t249 -84q165 0 247.5 96t82.5 294v704q0 31 -12.5 48t-42.5 24l-138 37v86h486v-86l-139 -37q-30 -7 -42 -24t-12 -48v-704q0 -521 -555 -521q-278 0 -403 123.5t-125 397.5v735 q0 21 -8.5 31t-32.5 14zM510 1645q0 50 34 84t83 34t83.5 -34.5t34.5 -83.5q0 -51 -34 -86t-84 -35q-49 0 -83 35t-34 86zM948 1645q0 50 34 84t85 34q49 0 83 -34t34 -84q0 -51 -34 -86t-83 -35q-51 0 -85 35t-34 86z" />
<glyph unicode="&#xdd;" horiz-adv-x="1435" d="M-10 1307v84h719v-86l-158 -27q-41 -6 -12 -59l188 -371l82 -186h10l291 536q18 32 14.5 48.5t-30.5 23.5l-150 37v84h502v-82l-137 -41q-53 -15 -76 -62l-363 -643v-397q0 -22 9.5 -32.5t35.5 -14.5l168 -35v-84h-747v84l168 35q26 4 34.5 14.5t8.5 32.5v381l-369 688 q-15 31 -53 39zM668 1524l145 256h283v-25l-371 -231h-57z" />
<glyph unicode="&#xde;" horiz-adv-x="1398" d="M92 0v86l152 33q23 4 32 14.5t9 32.5v1061q0 20 -9 30.5t-32 14.5l-152 33v86h707v-86l-150 -29q-24 -6 -31.5 -16t-7.5 -31v-119h121q294 0 453 -98.5t159 -300.5q0 -199 -158.5 -300.5t-445.5 -101.5q-104 0 -129 2v-147q0 -23 7.5 -33t31.5 -16l150 -29v-86h-707z M610 406q61 -3 119 -3q144 0 210.5 72t66.5 236q0 166 -66.5 237.5t-210.5 71.5q-75 0 -119 -6v-608z" />
<glyph unicode="&#xdf;" horiz-adv-x="1349" d="M51 909v74l195 27v108q0 220 127.5 346.5t365.5 126.5q179 0 292.5 -83t113.5 -220q0 -63 -26 -113.5t-63.5 -82t-75 -59t-63.5 -59t-26 -67.5q0 -32 30.5 -70.5t75.5 -75.5t98.5 -85.5t98.5 -98t75.5 -116t30.5 -135.5q0 -91 -35 -161.5t-92.5 -111.5t-125 -61.5 t-140.5 -20.5q-124 0 -188 49.5t-64 135.5q0 63 37.5 102t98.5 39q59 0 94 -36t35 -91q0 -86 -70 -117q36 -8 57 -8q72 0 119 39t47 133q0 54 -29 106.5t-72.5 92.5t-94 84.5t-94 83.5t-72.5 90.5t-29 103.5q0 45 15.5 81.5t41 63.5t56 52t60.5 52t55.5 58.5t41 77.5 t15.5 103q0 245 -230 245q-104 0 -160.5 -79t-56.5 -222q0 -31 2 -111t2 -116v-793l6 -190h-438v78l121 31q33 9 33 41v731z" />
<glyph unicode="&#xe0;" horiz-adv-x="1112" d="M76 213q0 301 573 371q2 61 2 174q0 97 -41 142.5t-127 45.5q-109 0 -178 -65q47 -6 74 -40t27 -89q0 -60 -39.5 -95.5t-102.5 -35.5t-102 40t-39 111q0 111 110 184.5t283 73.5q406 0 406 -356q0 -70 -2 -235t-2 -236q0 -55 15 -78t48 -23q35 0 55 39.5t29 122.5l68 -4 q-14 -144 -66 -210t-166 -66q-168 0 -203 159q-43 -82 -133 -127t-198 -45q-139 0 -215 65.5t-76 176.5zM315 1538v27h230l143 -359h-53zM358 231q0 -67 32 -104t91 -37q70 0 118 51t48 135q0 146 2 230q-147 -27 -219 -88.5t-72 -186.5z" />
<glyph unicode="&#xe1;" horiz-adv-x="1112" d="M76 213q0 301 573 371q2 61 2 174q0 97 -41 142.5t-127 45.5q-109 0 -178 -65q47 -6 74 -40t27 -89q0 -60 -39.5 -95.5t-102.5 -35.5t-102 40t-39 111q0 111 110 184.5t283 73.5q406 0 406 -356q0 -70 -2 -235t-2 -236q0 -55 15 -78t48 -23q35 0 55 39.5t29 122.5l68 -4 q-14 -144 -66 -210t-166 -66q-168 0 -203 159q-43 -82 -133 -127t-198 -45q-139 0 -215 65.5t-76 176.5zM358 231q0 -67 32 -104t91 -37q70 0 118 51t48 135q0 146 2 230q-147 -27 -219 -88.5t-72 -186.5zM403 1206l144 359h231v-27l-321 -332h-54z" />
<glyph unicode="&#xe2;" horiz-adv-x="1112" d="M76 213q0 301 573 371q2 61 2 174q0 97 -41 142.5t-127 45.5q-109 0 -178 -65q47 -6 74 -40t27 -89q0 -60 -39.5 -95.5t-102.5 -35.5t-102 40t-39 111q0 111 110 184.5t283 73.5q406 0 406 -356q0 -70 -2 -235t-2 -236q0 -55 15 -78t48 -23q35 0 55 39.5t29 122.5l68 -4 q-14 -144 -66 -210t-166 -66q-168 0 -203 159q-43 -82 -133 -127t-198 -45q-139 0 -215 65.5t-76 176.5zM213 1206l266 359h176l238 -359h-74l-289 232l-262 -232h-55zM358 231q0 -67 32 -104t91 -37q70 0 118 51t48 135q0 146 2 230q-147 -27 -219 -88.5t-72 -186.5z" />
<glyph unicode="&#xe3;" horiz-adv-x="1112" d="M76 213q0 301 573 371q2 61 2 174q0 97 -41 142.5t-127 45.5q-109 0 -178 -65q47 -6 74 -40t27 -89q0 -60 -39.5 -95.5t-102.5 -35.5t-102 40t-39 111q0 111 110 184.5t283 73.5q406 0 406 -356q0 -70 -2 -235t-2 -236q0 -55 15 -78t48 -23q35 0 55 39.5t29 122.5l68 -4 q-14 -144 -66 -210t-166 -66q-168 0 -203 159q-43 -82 -133 -127t-198 -45q-139 0 -215 65.5t-76 176.5zM264 1378q0 71 41.5 118.5t116.5 47.5q43 0 88.5 -21t78.5 -46.5t72 -46.5t70 -21q42 0 62.5 25.5t23.5 85.5l45 -2q0 -271 -172 -271q-43 0 -89 21t-79 46.5 t-72.5 46.5t-70.5 21q-24 0 -36.5 -15t-12.5 -38q0 -29 16 -69l-39 -21q-43 65 -43 139zM358 231q0 -67 32 -104t91 -37q70 0 118 51t48 135q0 146 2 230q-147 -27 -219 -88.5t-72 -186.5z" />
<glyph unicode="&#xe4;" horiz-adv-x="1112" d="M76 213q0 301 573 371q2 61 2 174q0 97 -41 142.5t-127 45.5q-109 0 -178 -65q47 -6 74 -40t27 -89q0 -60 -39.5 -95.5t-102.5 -35.5t-102 40t-39 111q0 111 110 184.5t283 73.5q406 0 406 -356q0 -70 -2 -235t-2 -236q0 -55 15 -78t48 -23q35 0 55 39.5t29 122.5l68 -4 q-14 -144 -66 -210t-166 -66q-168 0 -203 159q-43 -82 -133 -127t-198 -45q-139 0 -215 65.5t-76 176.5zM248 1356q0 50 34 84.5t83 34.5t83.5 -34.5t34.5 -84.5q0 -51 -34 -85t-84 -34t-83.5 34t-33.5 85zM358 231q0 -67 32 -104t91 -37q70 0 118 51t48 135q0 146 2 230 q-147 -27 -219 -88.5t-72 -186.5zM657 1356q0 50 34 84.5t83 34.5t83 -34.5t34 -84.5q0 -51 -33.5 -85t-83.5 -34t-83.5 34t-33.5 85z" />
<glyph unicode="&#xe5;" horiz-adv-x="1112" d="M76 213q0 301 573 371q2 61 2 174q0 97 -41 142.5t-127 45.5q-109 0 -178 -65q47 -6 74 -40t27 -89q0 -60 -39.5 -95.5t-102.5 -35.5t-102 40t-39 111q0 111 110 184.5t283 73.5q406 0 406 -356q0 -70 -2 -235t-2 -236q0 -55 15 -78t48 -23q35 0 55 39.5t29 122.5l68 -4 q-14 -144 -66 -210t-166 -66q-168 0 -203 159q-43 -82 -133 -127t-198 -45q-139 0 -215 65.5t-76 176.5zM338 1360q0 91 62 149t153 58q90 0 152.5 -58.5t62.5 -148.5t-62.5 -148.5t-152.5 -58.5q-91 0 -153 58t-62 149zM358 231q0 -67 32 -104t91 -37q70 0 118 51t48 135 q0 146 2 230q-147 -27 -219 -88.5t-72 -186.5zM422 1360q0 -67 33 -110.5t96 -43.5q64 0 97.5 43.5t33.5 110.5q0 69 -33.5 112.5t-97.5 43.5q-63 0 -96 -44t-33 -112z" />
<glyph unicode="&#xe6;" horiz-adv-x="1593" d="M76 213q0 313 573 367q0 34 1 102.5t1 75.5q0 97 -41 142.5t-129 45.5q-107 0 -176 -65q46 -6 73.5 -40t27.5 -89q0 -60 -39.5 -95.5t-102.5 -35.5t-102 40t-39 111q0 108 107.5 183t275.5 75q220 0 311 -143q64 70 150.5 106.5t181.5 36.5q185 0 289 -103.5t104 -281.5 q0 -51 -12 -125h-586v-22q0 -196 68.5 -298t189.5 -102q156 0 279 160l61 -43q-73 -116 -172.5 -180t-241.5 -64q-116 0 -215 48.5t-165 144.5q-49 -92 -151.5 -142.5t-221.5 -50.5q-141 0 -220 66t-79 176zM358 231q0 -67 32 -104t91 -37q84 0 146 54t63 130 q-39 106 -39 230q-148 -22 -220.5 -82t-72.5 -191zM946 600l326 27l4 30q2 20 2 72q0 219 -141 219q-169 0 -191 -348z" />
<glyph unicode="&#xe7;" horiz-adv-x="1040" d="M66 496q0 105 28.5 193.5t77.5 150.5t115.5 105.5t142.5 64t158 20.5q159 0 260.5 -73.5t101.5 -192.5q0 -74 -44.5 -117t-108.5 -43q-63 0 -105.5 40t-42.5 101q0 60 35 99t86 39q-52 65 -156 65q-245 0 -245 -440q0 -202 66.5 -305t193.5 -103q88 0 157 44t132 128 l61 -43q-73 -125 -176 -190.5t-252 -65.5q-20 0 -66 4l-26 -120q41 12 82 12q84 0 141 -45t57 -125q0 -98 -79 -150.5t-197 -52.5q-110 0 -189 53l31 52q61 -33 121 -33q59 0 92 32t33 91q0 52 -22 80t-62 28q-24 0 -51 -10l-45 35l55 166q-157 39 -258.5 171t-101.5 335z " />
<glyph unicode="&#xe8;" horiz-adv-x="1052" d="M66 498q0 132 43.5 237t115.5 167.5t158 95t178 32.5q191 0 298.5 -102.5t107.5 -280.5q0 -43 -13 -127h-585v-22q0 -196 68.5 -297t191.5 -101q154 0 278 160l62 -45q-152 -242 -416 -242q-94 0 -180 34t-155.5 98t-110.5 166t-41 227zM338 1538v27h229l144 -359h-54z M371 602l325 25l4 30q5 58 5 72q0 221 -142 221q-170 0 -192 -348z" />
<glyph unicode="&#xe9;" horiz-adv-x="1052" d="M66 498q0 132 43.5 237t115.5 167.5t158 95t178 32.5q191 0 298.5 -102.5t107.5 -280.5q0 -43 -13 -127h-585v-22q0 -196 68.5 -297t191.5 -101q154 0 278 160l62 -45q-152 -242 -416 -242q-94 0 -180 34t-155.5 98t-110.5 166t-41 227zM371 602l325 25l4 30q5 58 5 72 q0 221 -142 221q-170 0 -192 -348zM444 1206l144 359h231v-27l-321 -332h-54z" />
<glyph unicode="&#xea;" horiz-adv-x="1052" d="M66 498q0 132 43.5 237t115.5 167.5t158 95t178 32.5q191 0 298.5 -102.5t107.5 -280.5q0 -43 -13 -127h-585v-22q0 -196 68.5 -297t191.5 -101q154 0 278 160l62 -45q-152 -242 -416 -242q-94 0 -180 34t-155.5 98t-110.5 166t-41 227zM207 1206l266 359h176l238 -359 h-74l-289 232l-262 -232h-55zM371 602l325 25l4 30q5 58 5 72q0 221 -142 221q-170 0 -192 -348z" />
<glyph unicode="&#xeb;" horiz-adv-x="1052" d="M66 498q0 132 43.5 237t115.5 167.5t158 95t178 32.5q191 0 298.5 -102.5t107.5 -280.5q0 -43 -13 -127h-585v-22q0 -196 68.5 -297t191.5 -101q154 0 278 160l62 -45q-152 -242 -416 -242q-94 0 -180 34t-155.5 98t-110.5 166t-41 227zM252 1356q0 50 34 84.5t83 34.5 t83.5 -34.5t34.5 -84.5q0 -51 -34 -85t-84 -34t-83.5 34t-33.5 85zM371 602l325 25l4 30q5 58 5 72q0 221 -142 221q-170 0 -192 -348zM662 1356q0 50 33.5 84.5t82.5 34.5t83 -34.5t34 -84.5q0 -51 -33.5 -85t-83.5 -34t-83 34t-33 85z" />
<glyph unicode="&#xec;" horiz-adv-x="718" d="M61 868v70l396 90l78 -16l-17 -234v-628q0 -33 31 -41l125 -31v-78h-592v78l125 31q31 8 31 41v671q0 18 -6.5 26t-26.5 9zM160 1538v27h229l143 -359h-53z" />
<glyph unicode="&#xed;" horiz-adv-x="718" d="M61 868v70l396 90l78 -16l-17 -234v-628q0 -33 31 -41l125 -31v-78h-592v78l125 31q31 8 31 41v671q0 18 -6.5 26t-26.5 9zM215 1206l143 359h232v-27l-322 -332h-53z" />
<glyph unicode="&#xee;" horiz-adv-x="718" d="M27 1206l266 359h176l238 -359h-74l-289 232l-262 -232h-55zM61 868v70l396 90l78 -16l-17 -234v-628q0 -33 31 -41l125 -31v-78h-592v78l125 31q31 8 31 41v671q0 18 -6.5 26t-26.5 9z" />
<glyph unicode="&#xef;" horiz-adv-x="718" d="M47 1356q0 50 34 84.5t83 34.5q50 0 84.5 -34.5t34.5 -84.5q0 -51 -34.5 -85t-84.5 -34t-83.5 34t-33.5 85zM61 868v70l396 90l78 -16l-17 -234v-628q0 -33 31 -41l125 -31v-78h-592v78l125 31q31 8 31 41v671q0 18 -6.5 26t-26.5 9zM457 1356q0 50 33.5 84.5t82.5 34.5 t83 -34.5t34 -84.5q0 -51 -33.5 -85t-83.5 -34t-83 34t-33 85z" />
<glyph unicode="&#xf0;" horiz-adv-x="1153" d="M76 506q0 113 37 212t98 166t139 105.5t160 38.5q195 0 272 -182q-48 237 -202 416l-299 -132l-39 89l268 118q-109 99 -254 193l35 61q203 -77 358 -192l234 102l43 -88l-191 -84q326 -289 326 -719q0 -158 -41 -283t-111.5 -201t-160 -115.5t-191.5 -39.5 q-209 0 -345 146.5t-136 388.5zM379 496q0 -213 41 -329t139 -116q52 0 91 33.5t61.5 94.5t33.5 140.5t11 178.5q0 100 -10 176.5t-32.5 136.5t-61.5 91.5t-95 31.5q-51 0 -86.5 -31.5t-55 -92.5t-28 -137t-8.5 -177z" />
<glyph unicode="&#xf1;" horiz-adv-x="1333" d="M61 879v69l351 78l75 -14l-16 -285q35 142 127.5 222.5t237.5 80.5q147 0 227 -83t80 -240v-557q0 -33 31 -41l122 -31v-78h-559v80l97 26q28 7 28 44v583q0 90 -31.5 129t-99.5 39q-86 0 -150.5 -99t-64.5 -261v-391q0 -36 29 -44l94 -26v-80h-555v78l121 31q31 8 31 41 v681q0 31 -33 33zM397 1378q0 71 41.5 118.5t116.5 47.5q43 0 88.5 -21t78.5 -46.5t72 -46.5t70 -21q42 0 62.5 25.5t23.5 85.5l45 -2q0 -271 -172 -271q-43 0 -89 21t-79 46.5t-72.5 46.5t-70.5 21q-24 0 -36.5 -15t-12.5 -38q0 -29 16 -69l-39 -21q-43 65 -43 139z" />
<glyph unicode="&#xf2;" horiz-adv-x="1124" d="M66 500q0 126 40.5 228t109 167t157.5 100t188 35t188 -35t158 -99.5t109.5 -166.5t40.5 -227q0 -126 -40.5 -228.5t-109.5 -167.5t-158 -100t-188 -35t-188 35t-157.5 100t-109 167t-40.5 227zM356 1538v27h230l143 -359h-53zM369 500q0 -232 46 -339.5t146 -107.5 q101 0 147 107.5t46 341.5q0 232 -46 339t-147 107q-100 0 -146 -107.5t-46 -340.5z" />
<glyph unicode="&#xf3;" horiz-adv-x="1124" d="M66 500q0 126 40.5 228t109 167t157.5 100t188 35t188 -35t158 -99.5t109.5 -166.5t40.5 -227q0 -126 -40.5 -228.5t-109.5 -167.5t-158 -100t-188 -35t-188 35t-157.5 100t-109 167t-40.5 227zM369 500q0 -232 46 -339.5t146 -107.5q101 0 147 107.5t46 341.5 q0 232 -46 339t-147 107q-100 0 -146 -107.5t-46 -340.5zM432 1206l143 359h232v-27l-322 -332h-53z" />
<glyph unicode="&#xf4;" horiz-adv-x="1124" d="M66 500q0 126 40.5 228t109 167t157.5 100t188 35t188 -35t158 -99.5t109.5 -166.5t40.5 -227q0 -126 -40.5 -228.5t-109.5 -167.5t-158 -100t-188 -35t-188 35t-157.5 100t-109 167t-40.5 227zM225 1206l267 359h176l237 -359h-74l-288 232l-262 -232h-56zM369 500 q0 -232 46 -339.5t146 -107.5q101 0 147 107.5t46 341.5q0 232 -46 339t-147 107q-100 0 -146 -107.5t-46 -340.5z" />
<glyph unicode="&#xf5;" horiz-adv-x="1124" d="M66 500q0 126 40.5 228t109 167t157.5 100t188 35t188 -35t158 -99.5t109.5 -166.5t40.5 -227q0 -126 -40.5 -228.5t-109.5 -167.5t-158 -100t-188 -35t-188 35t-157.5 100t-109 167t-40.5 227zM270 1378q0 71 41.5 118.5t116.5 47.5q43 0 88.5 -21t78.5 -46.5t72 -46.5 t70 -21q42 0 62.5 25.5t23.5 85.5l45 -2q0 -271 -172 -271q-43 0 -89 21t-79 46.5t-72.5 46.5t-70.5 21q-24 0 -36.5 -15t-12.5 -38q0 -29 16 -69l-39 -21q-43 65 -43 139zM369 500q0 -232 46 -339.5t146 -107.5q101 0 147 107.5t46 341.5q0 232 -46 339t-147 107 q-100 0 -146 -107.5t-46 -340.5z" />
<glyph unicode="&#xf6;" horiz-adv-x="1124" d="M66 500q0 126 40.5 228t109 167t157.5 100t188 35t188 -35t158 -99.5t109.5 -166.5t40.5 -227q0 -126 -40.5 -228.5t-109.5 -167.5t-158 -100t-188 -35t-188 35t-157.5 100t-109 167t-40.5 227zM248 1356q0 50 34 84.5t83 34.5t83.5 -34.5t34.5 -84.5q0 -51 -34 -85 t-84 -34t-83.5 34t-33.5 85zM369 500q0 -232 46 -339.5t146 -107.5q101 0 147 107.5t46 341.5q0 232 -46 339t-147 107q-100 0 -146 -107.5t-46 -340.5zM657 1356q0 50 34 84.5t83 34.5t83 -34.5t34 -84.5q0 -51 -33.5 -85t-83.5 -34t-83.5 34t-33.5 85z" />
<glyph unicode="&#xf7;" horiz-adv-x="1126" d="M115 467v108h897v-108h-897zM473 190q0 42 27.5 66.5t62.5 24.5q36 0 63 -24.5t27 -66.5q0 -38 -27.5 -63t-62.5 -25q-34 0 -62 25t-28 63zM473 850q0 41 27 64.5t63 23.5q37 0 63.5 -23t26.5 -65q0 -40 -27 -65t-63 -25q-34 0 -62 25.5t-28 64.5z" />
<glyph unicode="&#xf8;" horiz-adv-x="1124" d="M66 500q0 126 40.5 228t109 167t157.5 100t188 35q189 0 322 -112l94 102l61 -53l-98 -107q117 -143 117 -358q0 -126 -40.5 -228.5t-109.5 -167.5t-158 -100t-188 -35q-188 0 -321 115l-97 -106l-61 53l100 108q-116 142 -116 359zM369 500q0 -90 6 -158l358 416 q-20 98 -62 144t-110 46q-100 0 -146 -107.5t-46 -340.5zM389 246q22 -98 64 -145.5t108 -47.5q101 0 147 107.5t46 341.5q0 90 -6 157z" />
<glyph unicode="&#xf9;" horiz-adv-x="1220" d="M6 924v77h447l-9 -172v-557q0 -95 31 -132.5t96 -37.5q80 0 133.5 85t53.5 243v420q0 18 -6 27.5t-23 13.5l-123 33v77h443l-9 -182v-667q0 -35 31 -43l121 -31v-78h-354l-23 23l-8 227q-33 -132 -120.5 -205.5t-229.5 -73.5q-137 0 -216 81.5t-79 242.5v555q0 34 -31 41 zM330 1538v27h229l143 -359h-53z" />
<glyph unicode="&#xfa;" horiz-adv-x="1220" d="M6 924v77h447l-9 -172v-557q0 -95 31 -132.5t96 -37.5q80 0 133.5 85t53.5 243v420q0 18 -6 27.5t-23 13.5l-123 33v77h443l-9 -182v-667q0 -35 31 -43l121 -31v-78h-354l-23 23l-8 227q-33 -132 -120.5 -205.5t-229.5 -73.5q-137 0 -216 81.5t-79 242.5v555q0 34 -31 41 zM475 1206l143 359h232v-27l-322 -332h-53z" />
<glyph unicode="&#xfb;" horiz-adv-x="1220" d="M6 924v77h447l-9 -172v-557q0 -95 31 -132.5t96 -37.5q80 0 133.5 85t53.5 243v420q0 18 -6 27.5t-23 13.5l-123 33v77h443l-9 -182v-667q0 -35 31 -43l121 -31v-78h-354l-23 23l-8 227q-33 -132 -120.5 -205.5t-229.5 -73.5q-137 0 -216 81.5t-79 242.5v555q0 34 -31 41 zM248 1206l266 359h176l238 -359h-74l-289 232l-262 -232h-55z" />
<glyph unicode="&#xfc;" horiz-adv-x="1220" d="M6 924v77h447l-9 -172v-557q0 -95 31 -132.5t96 -37.5q80 0 133.5 85t53.5 243v420q0 18 -6 27.5t-23 13.5l-123 33v77h443l-9 -182v-667q0 -35 31 -43l121 -31v-78h-354l-23 23l-8 227q-33 -132 -120.5 -205.5t-229.5 -73.5q-137 0 -216 81.5t-79 242.5v555q0 34 -31 41 zM272 1356q0 50 34 84.5t83 34.5t84 -34.5t35 -84.5q0 -51 -34.5 -85t-84.5 -34t-83.5 34t-33.5 85zM682 1356q0 50 34 84.5t83 34.5t82.5 -34.5t33.5 -84.5q0 -51 -33 -85t-83 -34t-83.5 34t-33.5 85z" />
<glyph unicode="&#xfd;" horiz-adv-x="1062" d="M-43 -305q0 73 46 117.5t114 44.5q63 0 102 -41.5t39 -100.5q0 -47 -21.5 -80t-58.5 -45h8q74 0 146.5 90.5t161.5 317.5l10 27l-354 835q-13 33 -41 39l-121 25v77h590v-77l-103 -23q-35 -8 -18 -53l106 -307l64 -211h10l178 510q6 17 7 26.5t-4.5 18t-20.5 12.5l-99 27 v77h379v-77l-110 -31q-20 -6 -30 -16t-19 -31l-297 -776q-88 -230 -159.5 -352t-140 -168t-163.5 -46q-96 0 -148.5 52t-52.5 139zM475 1206l143 359h232v-27l-322 -332h-53z" />
<glyph unicode="&#xfe;" horiz-adv-x="1220" d="M-6 1425v74l412 78l71 -14l-14 -246v-162l-35 -362q68 237 299 237q82 0 157 -33.5t135 -97t96 -165t36 -226.5q0 -108 -30 -198.5t-79 -152t-113 -104.5t-130.5 -62.5t-132.5 -19.5q-114 0 -203 41v-334q0 -32 33 -40l147 -31v-78h-612v78l125 31q30 8 30 40v1696 q0 18 -7 26t-27 9zM463 203q44 -152 182 -152q100 0 151.5 108.5t51.5 348.5q0 216 -39.5 315t-136.5 99q-87 0 -148 -89t-61 -243v-387z" />
<glyph unicode="&#xff;" horiz-adv-x="1062" d="M-43 -305q0 73 46 117.5t114 44.5q63 0 102 -41.5t39 -100.5q0 -47 -21.5 -80t-58.5 -45h8q74 0 146.5 90.5t161.5 317.5l10 27l-354 835q-13 33 -41 39l-121 25v77h590v-77l-103 -23q-35 -8 -18 -53l106 -307l64 -211h10l178 510q6 17 7 26.5t-4.5 18t-20.5 12.5l-99 27 v77h379v-77l-110 -31q-20 -6 -30 -16t-19 -31l-297 -776q-88 -230 -159.5 -352t-140 -168t-163.5 -46q-96 0 -148.5 52t-52.5 139zM262 1356q0 50 34 84.5t83 34.5t84 -34.5t35 -84.5q0 -51 -34.5 -85t-84.5 -34t-83.5 34t-33.5 85zM672 1356q0 50 33.5 84.5t82.5 34.5 t83 -34.5t34 -84.5q0 -51 -33.5 -85t-83.5 -34t-83 34t-33 85z" />
<glyph unicode="&#x152;" horiz-adv-x="2099" d="M70 694q0 337 199.5 517t557.5 180h1106l17 -359h-117l-66 144q-30 73 -70 97.5t-122 24.5h-152q-19 0 -59 -1t-53 -1v-540h108q61 0 90.5 21t53.5 83l53 137h82v-569h-84l-53 143q-23 61 -52 81t-90 20h-108v-502q0 -44 19 -61t71 -17h221q74 0 111.5 26t70.5 107 l82 199h119l-23 -424h-1151q-359 0 -560 179t-201 515zM432 694q0 -320 87 -461t269 -141h9q103 0 148.5 39t45.5 133v862q0 94 -44 133t-146 39h-6q-185 0 -274 -141.5t-89 -462.5z" />
<glyph unicode="&#x153;" horiz-adv-x="1742" d="M66 498q0 127 40.5 229.5t109 167.5t157.5 100t188 35q105 0 195 -41.5t151 -118.5q64 79 154 119.5t190 40.5q191 0 298.5 -103.5t107.5 -281.5q0 -51 -12 -125h-586v-22q0 -196 69 -298t191 -102q150 0 280 160l60 -43q-73 -116 -173.5 -180t-242.5 -64 q-100 0 -188 40.5t-150 117.5q-125 -158 -344 -158q-99 0 -188 35t-157.5 99.5t-109 166.5t-40.5 226zM369 498q0 -231 46 -339t146 -108q101 0 147 108.5t46 342.5q0 231 -46 338.5t-147 107.5q-100 0 -146 -108.5t-46 -341.5zM1061 600l328 27l4 30q2 20 2 72 q0 219 -144 219q-168 0 -190 -348z" />
<glyph unicode="&#x178;" horiz-adv-x="1435" d="M-10 1307v84h719v-86l-158 -27q-41 -6 -12 -59l188 -371l82 -186h10l291 536q18 32 14.5 48.5t-30.5 23.5l-150 37v84h502v-82l-137 -41q-53 -15 -76 -62l-363 -643v-397q0 -22 9.5 -32.5t35.5 -14.5l168 -35v-84h-747v84l168 35q26 4 34.5 14.5t8.5 32.5v381l-369 688 q-15 31 -53 39zM442 1645q0 50 34 84t83 34q50 0 84.5 -34.5t34.5 -83.5q0 -51 -34.5 -86t-84.5 -35q-49 0 -83 35t-34 86zM881 1645q0 50 33.5 84t84.5 34q49 0 83 -34t34 -84q0 -51 -34 -86t-83 -35q-51 0 -84.5 35t-33.5 86z" />
<glyph unicode="&#x2c6;" horiz-adv-x="1165" d="M244 1206l266 359h176l238 -359h-74l-289 232l-262 -232h-55z" />
<glyph unicode="&#x2dc;" horiz-adv-x="1167" d="M285 1378q0 71 41 118.5t116 47.5q43 0 89 -21t78.5 -46.5t72 -46.5t70.5 -21q42 0 62.5 25.5t23.5 85.5l45 -2q0 -271 -172 -271q-43 0 -89 21t-79.5 46.5t-73 46.5t-70.5 21q-24 0 -36.5 -15t-12.5 -38q0 -27 17 -69l-39 -21q-43 65 -43 139z" />
<glyph unicode="&#x2000;" horiz-adv-x="945" />
<glyph unicode="&#x2001;" horiz-adv-x="1890" />
<glyph unicode="&#x2002;" horiz-adv-x="945" />
<glyph unicode="&#x2003;" horiz-adv-x="1890" />
<glyph unicode="&#x2004;" horiz-adv-x="630" />
<glyph unicode="&#x2005;" horiz-adv-x="472" />
<glyph unicode="&#x2006;" horiz-adv-x="315" />
<glyph unicode="&#x2007;" horiz-adv-x="315" />
<glyph unicode="&#x2008;" horiz-adv-x="236" />
<glyph unicode="&#x2009;" horiz-adv-x="378" />
<glyph unicode="&#x200a;" horiz-adv-x="105" />
<glyph unicode="&#x2010;" horiz-adv-x="690" d="M94 455v131h502v-131h-502z" />
<glyph unicode="&#x2011;" horiz-adv-x="690" d="M94 455v131h502v-131h-502z" />
<glyph unicode="&#x2012;" horiz-adv-x="690" d="M94 455v131h502v-131h-502z" />
<glyph unicode="&#x2013;" horiz-adv-x="1132" d="M113 455v131h907v-131h-907z" />
<glyph unicode="&#x2014;" horiz-adv-x="1921" d="M113 455v131h1695v-131h-1695z" />
<glyph unicode="&#x2018;" horiz-adv-x="686" d="M184 1137q0 279 297 438l43 -86q-101 -55 -160 -134.5t-59 -174.5q29 39 92 39q58 0 99 -42t41 -108q0 -70 -47 -115t-119 -45q-87 0 -137 58.5t-50 169.5z" />
<glyph unicode="&#x2019;" horiz-adv-x="686" d="M160 1413q0 70 48 115t120 45q88 0 138 -57.5t50 -169.5q0 -147 -81 -256.5t-220 -182.5l-43 86q102 55 162.5 135t60.5 175q-33 -39 -94 -39q-60 0 -100.5 41.5t-40.5 107.5z" />
<glyph unicode="&#x201a;" horiz-adv-x="686" d="M164 131q0 70 47 115t119 45q87 0 136.5 -58t49.5 -170q0 -279 -297 -438l-43 86q101 55 160 134.5t59 174.5q-28 -38 -92 -38q-58 0 -98.5 41.5t-40.5 107.5z" />
<glyph unicode="&#x201c;" horiz-adv-x="1142" d="M184 1137q0 279 297 438l43 -86q-101 -55 -160 -134.5t-59 -174.5q29 39 92 39q58 0 99 -42t41 -108q0 -70 -47 -115t-119 -45q-87 0 -137 58.5t-50 169.5zM637 1137q0 279 297 438l43 -86q-101 -55 -160 -134.5t-59 -174.5q29 39 92 39q58 0 98.5 -42t40.5 -108 q0 -70 -47 -115t-119 -45q-87 0 -136.5 58t-49.5 170z" />
<glyph unicode="&#x201d;" horiz-adv-x="1134" d="M160 1413q0 70 47 115t119 45q87 0 136.5 -58t49.5 -169q0 -147 -80.5 -256.5t-216.5 -182.5l-43 86q101 55 160 135t59 175q-29 -39 -92 -39q-58 0 -98.5 41.5t-40.5 107.5zM612 1413q0 70 47 115t119 45q87 0 137 -58t50 -169q0 -147 -80.5 -256.5t-216.5 -182.5 l-43 86q101 55 160 135t59 175q-29 -39 -92 -39q-59 0 -99.5 41.5t-40.5 107.5z" />
<glyph unicode="&#x201e;" horiz-adv-x="1134" d="M164 131q0 70 47 115t119 45q87 0 136.5 -58t49.5 -170q0 -279 -297 -438l-43 86q101 55 160 134.5t59 174.5q-28 -38 -92 -38q-58 0 -98.5 41.5t-40.5 107.5zM612 131q0 70 47 115t119 45q87 0 137 -58.5t50 -169.5q0 -279 -297 -438l-43 86q101 55 160 134.5t59 174.5 q-28 -38 -92 -38q-59 0 -99.5 41.5t-40.5 107.5z" />
<glyph unicode="&#x2022;" horiz-adv-x="894" d="M184 520q0 113 76 192t186 79t188.5 -79.5t78.5 -191.5t-78 -190t-189 -78q-110 0 -186 77.5t-76 190.5z" />
<glyph unicode="&#x2026;" horiz-adv-x="1789" d="M137 156q0 78 52 129t128 51t127.5 -50.5t51.5 -129.5q0 -78 -52 -129.5t-127 -51.5q-76 0 -128 51t-52 130zM715 156q0 78 52 129t128 51t127 -50.5t51 -129.5q0 -78 -51.5 -129.5t-126.5 -51.5q-76 0 -128 51t-52 130zM1294 156q0 78 52.5 129t128.5 51t127 -50.5 t51 -129.5q0 -78 -51.5 -129.5t-126.5 -51.5q-76 0 -128.5 51.5t-52.5 129.5z" />
<glyph unicode="&#x202f;" horiz-adv-x="378" />
<glyph unicode="&#x2039;" horiz-adv-x="727" d="M106 477v90l414 387l53 -41l-235 -393l235 -391l-53 -41z" />
<glyph unicode="&#x203a;" horiz-adv-x="720" d="M154 129l231 391l-231 393l51 41l409 -387v-90l-409 -389z" />
<glyph unicode="&#x205f;" horiz-adv-x="472" />
<glyph unicode="&#x20ac;" horiz-adv-x="1228" d="M29 473v70l143 16q-4 62 -4 94q0 57 2 86l-141 19v67l155 25q41 242 181.5 363.5t341.5 121.5q98 0 165.5 -28.5t118.5 -87.5l37 108h70l-8 -496h-95l-37 158q-32 136 -84.5 200t-148.5 64q-117 0 -172.5 -99.5t-67.5 -311.5h334l-18 -76l-320 -16q-2 -31 -2 -97 q0 -67 2 -98h277l-17 -74l-256 -16q12 -213 67.5 -312.5t172.5 -99.5q96 0 150.5 65t85.5 199l34 154h95l8 -491h-70l-37 110q-51 -61 -117.5 -90t-166.5 -29q-202 0 -341 119.5t-182 358.5z" />
<glyph unicode="&#x2122;" horiz-adv-x="1849" d="M123 1165l6 226h608l4 -226h-36l-33 115q-11 33 -26.5 44t-55.5 11h-88v-510q0 -19 20 -22l86 -17v-36h-352v36l86 17q12 1 16 6t4 16v510h-88q-42 0 -56 -9.5t-25 -45.5l-31 -115h-39zM811 750v36l82 21q15 3 20 10t5 23v475q0 19 -19 22l-88 17v37h262l144 -359 l45 -137h4l198 496h242v-27l-68 -16q-18 -3 -18 -23v-500q0 -19 18 -22l68 -17v-36h-317v36l73 17q19 3 19 22v447h-4l-211 -524h-86l-160 395l-41 129h-4v-432q0 -16 5 -23t19 -10l80 -21v-36h-268z" />
<glyph unicode="&#x25fc;" horiz-adv-x="1003" d="M0 0v1004h1004v-1004h-1004z" />
</font>
</defs>
</svg>
