<svg version="1.1"
	 xmlns="http://www.w3.org/2000/svg" xmlns:xlink="http://www.w3.org/1999/xlink" xmlns:a="http://ns.adobe.com/AdobeSVGViewerExtensions/3.0/"
	 x="0px" y="0px" width="575px" height="621px" viewBox="0 0 575 621" enable-background="new 0 0 575 621" xml:space="preserve">
<defs>
</defs>
<g>
	<g>
		<path fill="#FFFFFF" d="M319.7,267.4c1.8-12.6,1.6-25.2,0-37.8c-0.7-5-2.5-9.7-7.1-12.7c-12.5-8-28-0.7-29.5,13.9
			c-0.6,5.8-0.8,11.6-1.2,17.6c0.4,6,0.6,12.1,1.3,18.2c0.5,5.1,2.1,9.8,6.6,13C301.2,287.8,317.7,281.3,319.7,267.4z"/>
		<path fill="#FFFFFF" d="M572.7,159.8c-3.9-8.2-9.5-14.6-17.6-19.1C473.3,95.9,391.5,50.9,309.7,6.1C304.8,3.4,299.3,2,294,0
			c-4,0-8,0-12,0c-15.6,3.8-28.6,13.2-42.3,20.7C166.8,60.5,94,100.6,21.3,140.6C7.2,148.3,0,160.4,0,176.5c-0.1,89.3,0,178.6,0,268
			c0,16.1,7.2,28.1,21.2,35.8c82.2,45.2,164.5,90.5,246.8,135.5c4.6,2.5,9.9,3.5,14.9,5.2c3.3,0,6.7,0,10,0
			c15.5-3.1,28.1-12.5,41.6-19.9c72.7-39.7,145.3-79.8,218-119.5c10.3-5.6,17.7-13.3,21.6-24.4c0.2-0.5,0.6-0.8,0.8-1.2
			c0-97.3,0-194.7,0-292C574.2,162.6,573.4,161.2,572.7,159.8z M130,198c7,0,13,0,20,0c0,34,0,67,0,101c-7,0-13,0-20,0
			C130,265,130,232,130,198z M199,432c-3,0-5,0-8,0c0-15,0-30,0-45c-18,0-35,0-54,0c0,15,0,30,0,45c-2,0-5,0-8,0c0-32,0-64,0-96
			c3,0,5,0,8,0c0,15,0,29,0,43c18,0,36,0,54,0c0-14,0-28,0-43c3,0,5,0,8,0C199,368,199,400,199,432z M192,261c0,13,0,25,0,38
			c-6,0-13,0-20,0c0-33,0-66,0-99.3c2-0.4,4.8-1,7.3-1.2c13.4-1.5,26.8-2.5,40.3-0.6c16.7,2.3,25.5,12.2,25.5,28.9
			c0,3.8-0.1,7.7-0.7,11.4c-1.5,9.5-6.8,16-15.8,19.6c-0.6,0.2-1.2,0.6-2.3,1.1c7.5,13.3,15,26.1,22.7,40.1c-8.3,0-15.8,0-24.1,0
			c-6.7-13-13.5-25-20.4-38C200.7,261,197,261,192,261z M289.1,432c-3.5-9-7-18-10.5-28c-14.2,0-28.4,0-42.9,0
			c-3.4,9-6.9,18-10.5,28c-2.7,0-5.3,0-8.5,0c0.5-2,0.8-3.2,1.4-4.7c10.9-28.4,21.7-56.9,32.6-85.3c1.3-3.3,2.4-7,6.8-6.9
			c4.3,0,5.5,3.7,6.8,7c10.8,28.6,21.6,57.2,32.5,85.9c0.5,1.2,0.7,2,1.2,4C294.9,432,292.1,432,289.1,432z M285.4,298.3
			c-11.4-3.2-18.7-10.4-21.2-21.6c-2.1-9.2-2.8-18.7-4-26.8c1-9.2,1.4-17,2.7-24.7c2.9-16.9,11.3-25,28.2-27.7
			c8.3-1.3,16.6-1.1,24.8,0.6c12.2,2.6,20.1,10.2,23.1,22.3c4.4,18.1,4.4,36.3,0.4,54.4c-3.2,14.5-12.4,22.7-27.2,24.4
			C303.2,300.4,294.3,300.8,285.4,298.3z M356.6,432.3c-8,0.1-16,0.6-23.8-0.2c-13.3-1.3-21.6-9.3-24.4-22.2
			c-3.8-17.1-3.8-34.4,0-51.5c3.1-13.8,11.4-20.7,25.7-22.7c10.2-1.4,23.2-0.8,31.2,1.7c-0.2,2.2-0.4,4.2-0.7,6.6
			c-1.7-0.2-3.2-0.4-4.6-0.4c-7.1-0.2-14.3-0.9-21.4-0.2c-14.2,1.3-21.3,8.4-23.1,23.6c-1.4,12.2-1.6,24.6,0.5,36.8
			c2.3,13.1,9.5,20.1,22.7,21.1c7.4,0.6,14.9-0.1,22.4-0.2c1,0,1.9-0.2,3.4-0.3c0.3,2.1,0.5,4.1,0.9,6.7
			C362.3,431.5,359.5,432.3,356.6,432.3z M380,227.4c-0.3,0.1-1,0.2-1,0.4c0,23.6,0,47.3,0,71.3c-6,0-11.7,0-17.9,0
			c-0.1-2-0.3-2.9-0.4-4.4c0-27.3,0-54.7,0-82c0-0.8,0-1.7,0-2.5c0.7-11.9,11.6-17.5,21.3-10.5c3.7,2.7,6.7,6.9,9,11.1
			c8.8,16.2,17.1,32.7,25.6,49.1c1.5,2.9,3,5.8,4.5,8.7c0.3-0.1,0.9-0.1,0.9-0.2c0-23.3,0-46.3,0-70.3c7,0,12.5,0,18.6,0
			c0.2,1,0.5,2.1,0.5,3.2c0,28,0,56,0,84c0,0.5,0,1,0,1.5c-0.4,5.2-1.5,10.1-7,12.3c-5.9,2.3-11.8,1.7-16.3-2.8
			c-3.1-3.1-5.6-7-7.7-10.9c-9.5-18.1-18.8-36.3-28.2-54.5C381.3,229.6,380.6,228.5,380,227.4z M435.6,432
			c-14-15-28.6-30.1-44.6-46.2c0,16,0,31.2,0,46.2c-3,0-5,0-8,0c0-32,0-64,0-96c3,0,5,0,8,0c0,15,0,28.6,0,42.7c0,0.2,0.7,0.2,1,0.4
			c14.4-14.4,28.8-29.1,42.9-43.1c3.6,0,6.7,0,11.1,0c-8.3,9-15.7,15.9-23.2,23.4c-7.5,7.5-15.1,15.3-23,23.3
			c15.7,16.3,31.2,32.4,47.3,49.4C443.2,432,439.8,432,435.6,432z"/>
		<path fill="#FFFFFF" d="M212.3,213.9c-6.5-1.1-13.3-0.5-19.3,0.5c0,9.7,0,19.3,0,29.6c6,0,11.9,0.3,17.6-0.1
			c9.5-0.6,14.1-5.7,14.2-15.1C225,219.9,221.1,215.3,212.3,213.9z"/>
	</g>
	<path fill="#FFFFFF" d="M238.8,396c12.6,0,24.4,0,36.9,0c-6.1-16-12.1-32.3-18.4-49.3C250.9,363.7,244.9,380,238.8,396z"/>
</g>
</svg>
