<svg xmlns="http://www.w3.org/2000/svg" width="575" height="621" viewBox="0 0 575 621"><g fill="#fff"><path d="M319.7 267.4c1.8-12.6 1.6-25.2 0-37.8-.7-5-2.5-9.7-7.1-12.7-12.5-8-28-.7-29.5 13.9-.6 5.8-.8 11.6-1.2 17.6.4 6 .6 12.1 1.3 18.2.5 5.1 2.1 9.8 6.6 13 11.4 8.2 27.9 1.7 29.9-12.2zM572.7 159.8c-3.9-8.2-9.5-14.6-17.6-19.1C473.3 95.9 391.5 50.9 309.7 6.1 304.8 3.4 299.3 2 294 0h-12c-15.6 3.8-28.6 13.2-42.3 20.7C166.8 60.5 94 100.6 21.3 140.6 7.2 148.3 0 160.4 0 176.5c-.1 89.3 0 178.6 0 268 0 16.1 7.2 28.1 21.2 35.8 82.2 45.2 164.5 90.5 246.8 135.5 4.6 2.5 9.9 3.5 14.9 5.2h10c15.5-3.1 28.1-12.5 41.6-19.9 72.7-39.7 145.3-79.8 218-119.5 10.3-5.6 17.7-13.3 21.6-24.4.2-.5.6-.8.8-1.2V164c-.7-1.4-1.5-2.8-2.2-4.2zM130 198h20v101h-20V198zm69 234h-8v-45h-54v45h-8v-96h8v43h54v-43h8v96zm-7-171v38h-20v-99.3c2-.4 4.8-1 7.3-1.2 13.4-1.5 26.8-2.5 40.3-.6 16.7 2.3 25.5 12.2 25.5 28.9 0 3.8-.1 7.7-.7 11.4-1.5 9.5-6.8 16-15.8 19.6-.6.2-1.2.6-2.3 1.1 7.5 13.3 15 26.1 22.7 40.1h-24.1c-6.7-13-13.5-25-20.4-38H192zm97.1 171c-3.5-9-7-18-10.5-28h-42.9c-3.4 9-6.9 18-10.5 28h-8.5c.5-2 .8-3.2 1.4-4.7 10.9-28.4 21.7-56.9 32.6-85.3 1.3-3.3 2.4-7 6.8-6.9 4.3 0 5.5 3.7 6.8 7 10.8 28.6 21.6 57.2 32.5 85.9.5 1.2.7 2 1.2 4h-8.9zm-3.7-133.7c-11.4-3.2-18.7-10.4-21.2-21.6-2.1-9.2-2.8-18.7-4-26.8 1-9.2 1.4-17 2.7-24.7 2.9-16.9 11.3-25 28.2-27.7 8.3-1.3 16.6-1.1 24.8.6 12.2 2.6 20.1 10.2 23.1 22.3 4.4 18.1 4.4 36.3.4 54.4-3.2 14.5-12.4 22.7-27.2 24.4-9 1.2-17.9 1.6-26.8-.9zm71.2 134c-8 .1-16 .6-23.8-.2-13.3-1.3-21.6-9.3-24.4-22.2-3.8-17.1-3.8-34.4 0-51.5 3.1-13.8 11.4-20.7 25.7-22.7 10.2-1.4 23.2-.8 31.2 1.7-.2 2.2-.4 4.2-.7 6.6-1.7-.2-3.2-.4-4.6-.4-7.1-.2-14.3-.9-21.4-.2-14.2 1.3-21.3 8.4-23.1 23.6-1.4 12.2-1.6 24.6.5 36.8 2.3 13.1 9.5 20.1 22.7 21.1 7.4.6 14.9-.1 22.4-.2 1 0 1.9-.2 3.4-.3.3 2.1.5 4.1.9 6.7-3.1.4-5.9 1.2-8.8 1.2zM380 227.4c-.3.1-1 .2-1 .4v71.3h-17.9c-.1-2-.3-2.9-.4-4.4v-84.5c.7-11.9 11.6-17.5 21.3-10.5 3.7 2.7 6.7 6.9 9 11.1 8.8 16.2 17.1 32.7 25.6 49.1l4.5 8.7c.3-.1.9-.1.9-.2v-70.3h18.6c.2 1 .5 2.1.5 3.2v85.5c-.4 5.2-1.5 10.1-7 12.3-5.9 2.3-11.8 1.7-16.3-2.8-3.1-3.1-5.6-7-7.7-10.9-9.5-18.1-18.8-36.3-28.2-54.5-.6-1.3-1.3-2.4-1.9-3.5zM435.6 432c-14-15-28.6-30.1-44.6-46.2V432h-8v-96h8v42.7c0 .2.7.2 1 .4 14.4-14.4 28.8-29.1 42.9-43.1H446c-8.3 9-15.7 15.9-23.2 23.4-7.5 7.5-15.1 15.3-23 23.3 15.7 16.3 31.2 32.4 47.3 49.4-3.9-.1-7.3-.1-11.5-.1zM212.3 213.9c-6.5-1.1-13.3-.5-19.3.5V244c6 0 11.9.3 17.6-.1 9.5-.6 14.1-5.7 14.2-15.1.2-8.9-3.7-13.5-12.5-14.9zM238.8 396h36.9c-6.1-16-12.1-32.3-18.4-49.3-6.4 17-12.4 33.3-18.5 49.3z"/></g></svg>