<svg xmlns="http://www.w3.org/2000/svg" width="400.1" height="364" viewBox="0 0 400.1 364"><g fill="#fff"><path d="M297 282.4c4.6-7.3 8.7-14 13.1-20.5 2-3 5-3.6 8.1-1.4 1 .7 1.6 1.9 2.6 2.5 6.3 3.5 12.5 7 20.2 6.2 4.7-.5 9.6-.1 14.5-.1 3.5-3.6 7.2-7.3 10.8-10.9v-12.8c-5.2 2.1-9.8 5.8-15.5 4.5-4.6 4.9-10.6 2.3-15.8 2.2-10-.2-19.3-3.4-26.5-10.9-4-4.2-8.1-8.5-11.6-13.1-7.1-9.4-10.1-20.1-9.7-31.9.2-7.2 0-14.4 0-21.5.1-14.5 9.7-31.4 22.5-39.7 3.5-2.3 6.5-5.9 10.3-6.9 6.2-1.7 12.8-2.1 19.3-2.6 5.2-.4 10.4 0 15.5-.1 13.2-.2 24.4 6 33.4 14.2 7.2 6.6 11.7 16.4 11.7 27.2-.1 29.9.5 59.8-.2 89.7-.4 15.7-7.8 28.4-22.1 36-5.9 3.1-12.1 5.3-19.3 5.8-6 .5-12 2.7-18.2 1.9-11.1-1.6-22.4-2.6-32.1-9.1-1.2-.8-3-.9-4-1.8-2.4-2.1-4.6-4.4-7-6.9zm71.8-71.2c0-12.9-.2-24.8.1-36.7.2-6.2-2.9-11.6-6.3-15.1-3.1-3.1-7.8-7.8-14.3-5.5-2.1.8-4.7.1-7.1.1-9 .2-16.2 6.7-17.9 15.8-.7 3.7-1.9 7.3-2.3 10.9-.4 4.3.3 8.8-.2 13.1-.8 6.9 1.7 12.7 5 18.3 6.2 10.8 18.8 14.7 29.7 8.8 4.9-2.5 9.1-6.6 13.3-9.7zM227.4 237.7h-33.5c0-20.5-.2-40.8.2-61.1.1-4.5-1.2-8.3-3-12-4.6-9.6-13-12.7-23.6-9.3-12.6 4.1-15.9 9-16.5 22.6-.8 19.5-.2 39.1-.2 59.4-5.3 1.2-10.8.4-16.2.5-5.5.2-11.1 0-17 0V132.7c10.9.2 22.1-1.9 33.3 1 .8.2 2 0 2.5-.5 6.4-6.7 15.3-8.7 23.3-10 11.8-1.9 23.3 2 32.9 9.5 8.7 6.7 14 15.9 16.9 26.5.7 2.6.8 5.4.8 8 .1 23.3.1 46.5.1 70.5zM52.5 99.2h33.2v30.6h16.8v33.7H86.1c0 14.3-.1 27.8 0 41.3 0 4.8 2.1 6.6 7.3 6.8 2.8.1 5.6 0 8.9 0V240c-12.4 1.2-24.2-.1-35.6-5.7-9.7-4.8-13.9-12.8-14.1-22.7-.4-22.3-.1-44.7-.1-67V99.2zM2.6 132.7h32.8v104.8c-4.9 1.1-10.4.3-15.8.4-5.5.1-11.1 0-17 0V132.7zM242.1 132.7h32.8v104.8c-4.9 1-10.4.3-15.8.4-5.5.1-11 0-16.9 0-.1-35-.1-69.6-.1-105.2zM258.9 118.2c-11.5.1-18.7-7.7-19.9-19-.6-6.2 3.3-9.6 5.8-13.2 2.3-3.4 8.3-5.7 12.7-5.7 4.9 0 11.2 1.8 14.2 5.2 3 3.4 6.1 8.4 6.1 14.1 0 10.4-7.9 18.4-18.9 18.6zM38.1 99c0 11.4-7.9 19-19.4 19.3-5 .1-9.6-1.2-12.3-4.7-3.1-3.9-6-9.1-6.3-13.9-.6-9.5 10.3-20.2 19.8-19.5 4 .3 9 .8 12.4 4.5 3.7 4.1 6.4 8.5 5.8 14.3z"/></g><path fill="none" d="M0 0h400v364H0z"/></svg>