<svg version="1.1"
	 xmlns="http://www.w3.org/2000/svg" xmlns:xlink="http://www.w3.org/1999/xlink" xmlns:a="http://ns.adobe.com/AdobeSVGViewerExtensions/3.0/"
	 x="0px" y="0px" width="45px" height="45px" viewBox="0 0 45 45" enable-background="new 0 0 45 45" xml:space="preserve">
<defs>
</defs>
<g>
	<path fill="#fff" d="M21.3,7.5H18c-1,0-1.5,0.5-1.5,1.5v19.5h12V15.6C22.5,15.2,21.4,12,21.3,7.5z"/>
	<path fill="#fff" d="M22.5,0C10.1,0,0,10.1,0,22.5S10.1,45,22.5,45S45,34.9,45,22.5S34.9,0,22.5,0z M30,28.5
		c0,0.8-0.7,1.5-1.5,1.5H24v8.1c0,0.8-0.7,1.5-1.5,1.5S21,38.9,21,38.1V30h-4.5c-0.8,0-1.5-0.7-1.5-1.5V9c0-1.7,1.3-3,3-3h4.5
		c0,0.4,0,0.8,0,1.5H27c1,0,1.5,0.5,1.5,1.5v5.4c0.8,0,1.1,0,1.5,0V28.5z"/>
</g>
</svg>
